<svg width="40" height="49" viewBox="0 0 40 49" fill="none" xmlns="http://www.w3.org/2000/svg">
<path d="M12.3824 5.49219L11.4033 10.3872L11.4033 14.8734L18.0306 23.0854L23.2206 18.8856L12.3824 5.49219Z" fill="#2A5050"/>
<path d="M7.90852 1.89641C7.28703 2.36265 6.83733 2.87717 6.5357 3.42556C9.37991 7.14462 11.457 9.13448 11.4067 13.4235C14.0612 15.435 16.9592 16.5513 18.2028 15.6183C21.3777 13.2365 14.7463 -3.23329 7.90852 1.89641Z" fill="#152828"/>
<ellipse cx="26.3707" cy="16.177" rx="5.0395" ry="10.8744" transform="rotate(48.4359 26.3707 16.177)" fill="#BAD3CA"/>
<path d="M31.1844 5.63239L27.5953 4.96417C25.3936 9.64616 28.1164 15.2988 32.4735 15.2853C35.8143 14.8799 36.1453 13.2876 38.2487 10.5927C37.1279 7.82559 36.3299 6.49442 33.248 4.86615L31.1844 5.63239Z" fill="#2A5050"/>
<path d="M34.8305 14.5827C30.1368 14.8216 28.1162 11.8184 26.8234 8.09033C26.6163 11.5697 28.9207 15.3427 32.406 15.2811C33.4133 15.2477 34.2217 14.9322 34.8305 14.5827Z" fill="#468586"/>
<path d="M35.2892 9.07974C36.4139 7.82076 37.3258 6.80015 38.5251 7.96819C39.7245 9.13624 38.8127 10.1569 37.6879 11.4158C36.5631 12.6748 35.1143 13.1725 34.4519 12.5274C33.7895 11.8823 34.1644 10.3387 35.2892 9.07974Z" fill="#D2E3DD"/>
<path d="M34.4314 10.338L37.5688 7.43633C37.5688 7.43633 37.907 7.53185 37.9885 7.57489C37.1306 9.76374 35.6083 10.7926 34.2627 10.8123L34.4314 10.338Z" fill="#AECAC0"/>
<path d="M34.128 6.88445C35.2659 5.63379 36.1883 4.61993 37.3476 5.74893C38.5069 6.87794 37.5844 7.8918 36.4465 9.14246C35.3086 10.3931 33.8671 10.9015 33.2268 10.278C32.5866 9.65444 32.99 8.13511 34.128 6.88445Z" fill="#D2E3DD"/>
<path d="M33.3237 8.15848L36.461 5.25677C36.461 5.25677 36.7993 5.35228 36.8807 5.39533C36.0229 7.58417 34.5006 8.61305 33.155 8.63276L33.3237 8.15848Z" fill="#AECAC0"/>
<path d="M33.0203 4.70476C34.1582 3.4541 35.0807 2.44024 36.2399 3.56925C37.3992 4.69825 36.4767 5.71211 35.3388 6.96277C34.2009 8.21343 32.7594 8.72182 32.1192 8.09829C31.4789 7.47476 31.8824 5.95542 33.0203 4.70476Z" fill="#D2E3DD"/>
<path d="M30.7763 5.2851C31.853 7.62113 30.8112 10.1972 28.8863 9.72397C25.3053 8.84354 27.5556 4.67099 28.1316 3.34403C29.5714 0.0266601 34.0923 3.36634 32.982 5.227C32.3942 6.21211 30.7763 5.2851 30.7763 5.2851Z" fill="#D2E3DD"/>
<path d="M7.87673 0.992495C1.05406 6.14227 15.0434 17.0752 18.2113 14.6841C21.3791 12.2929 14.6994 -4.15728 7.87673 0.992495Z" fill="#BAD3CA"/>
</svg>
