<svg width="42" height="49" viewBox="0 0 42 49" fill="none" xmlns="http://www.w3.org/2000/svg">
<path d="M12.3824 5.49219L11.4033 10.3872L11.4033 14.8734L18.0306 23.0854L23.2206 18.8856L12.3824 5.49219Z" fill="#2A5050"/>
<path d="M7.90858 1.89641C7.28709 2.36265 6.83739 2.87717 6.53577 3.42556C9.37997 7.14462 11.457 9.13448 11.4068 13.4235C14.0613 15.435 16.9592 16.5513 18.2028 15.6183C21.3777 13.2365 14.7464 -3.23329 7.90858 1.89641Z" fill="#152828"/>
<ellipse cx="26.3707" cy="16.177" rx="5.0395" ry="10.8744" transform="rotate(48.4359 26.3707 16.177)" fill="#BAD3CA"/>
<path d="M35.1454 6.19141C34.1823 7.57797 34.3479 8.73975 33.0153 7.72641C32.1455 7.06503 32.6455 4.19141 33.1456 2.69136C33.1456 2.69136 30.1455 2.19148 31.1455 0.691472C32.2489 -0.963809 38.5143 1.34155 35.1454 6.19141Z" fill="#D2E3DD"/>
<path d="M36.1015 4.53954L33.5056 7.74783C33.5056 7.74783 33.2704 7.77245 33.216 7.76262C34.0784 5.78756 35.2965 4.52908 36.2759 4.11664L36.1015 4.53954Z" fill="#AECAC0"/>
<path d="M38.3696 6.70779C36.7076 8.94411 35.3603 10.757 34.0029 9.77341C32.6454 8.78982 33.9927 6.97693 35.6547 4.74061C37.3166 2.5043 39.2717 1.13178 40.0214 1.675C40.7711 2.21822 40.0316 4.47148 38.3696 6.70779Z" fill="#D2E3DD"/>
<path d="M39.6495 4.69002L35.0689 10.0601C35.0689 10.0601 34.6372 10.0884 34.5363 10.0682C36.0012 6.71849 38.1661 4.62397 39.9443 3.97216L39.6495 4.69002Z" fill="#AECAC0"/>
<path d="M39.8146 8.7351C38.1489 10.9765 36.7985 12.7936 35.441 11.81C34.0836 10.8264 35.4339 9.00934 37.0997 6.76792C38.7655 4.5265 40.7236 3.14984 41.4733 3.69306C42.223 4.23629 41.4804 6.49368 39.8146 8.7351Z" fill="#D2E3DD"/>
<path d="M30.9739 5.82027L27.3848 5.15206C25.183 9.83404 27.9059 15.4867 32.263 15.4731C35.6037 15.0678 36.4155 13.1914 38.4155 10.5522C37.2947 7.78502 35.6873 6.81967 32.6054 5.19139L30.9739 5.82027Z" fill="#2A5050"/>
<path d="M34.6199 14.7706C29.9262 15.0095 27.9056 12.0062 26.6128 8.2782C26.4058 11.7575 28.7101 15.5306 32.1954 15.4689C33.2027 15.4356 34.0112 15.1201 34.6199 14.7706Z" fill="#468586"/>
<path d="M29.6456 5.19146C31.1456 6.69146 30.6275 10.2392 28.6458 10.1915C25.35 10.1121 26.8419 5.34196 27.1186 3.92212C27.481 2.06103 29.4534 0.92975 30.6454 1.69141C31.8371 2.45304 29.6456 5.19146 29.6456 5.19146Z" fill="#D2E3DD"/>
<path d="M7.87673 0.992495C1.05406 6.14227 15.0434 17.0752 18.2113 14.6841C21.3791 12.2929 14.6994 -4.15728 7.87673 0.992495Z" fill="#BAD3CA"/>
</svg>
