<svg width="40" height="49" viewBox="0 0 40 49" fill="none" xmlns="http://www.w3.org/2000/svg">
<path d="M12.3824 5.49207L11.4033 10.387L11.4033 14.8733L18.0306 23.0853L23.2206 18.8855L12.3824 5.49207Z" fill="#2A5050"/>
<path d="M7.90852 1.89628C7.28703 2.36253 6.83733 2.87705 6.5357 3.42544C9.37991 7.1445 11.457 9.13436 11.4067 13.4234C14.0612 15.4349 16.9592 16.5512 18.2028 15.6182C21.3777 13.2364 14.7463 -3.23342 7.90852 1.89628Z" fill="#152828"/>
<ellipse cx="26.3707" cy="16.177" rx="5.0395" ry="10.8744" transform="rotate(48.4359 26.3707 16.177)" fill="#BAD3CA"/>
<path d="M31.1844 5.63251L27.5953 4.9643C25.3936 9.64628 28.1164 15.2989 32.4735 15.2854C35.8143 14.88 36.1453 13.2877 38.2487 10.5929C37.1279 7.82571 36.3299 6.49454 33.248 4.86627L31.1844 5.63251Z" fill="#2A5050"/>
<path d="M34.8305 14.5829C30.1368 14.8218 28.1162 11.8185 26.8234 8.09045C26.6163 11.5698 28.9207 15.3429 32.406 15.2812C33.4133 15.2478 34.2217 14.9324 34.8305 14.5829Z" fill="#468586"/>
<path d="M35.2891 9.07986C36.4139 7.82088 37.3257 6.80027 38.5251 7.96832C39.7244 9.13636 38.8126 10.157 37.6878 11.416C36.563 12.6749 35.1142 13.1726 34.4518 12.5275C33.7894 11.8824 34.1643 10.3389 35.2891 9.07986Z" fill="#D2E3DD"/>
<path d="M34.4314 10.3382L37.5687 7.43646C37.5687 7.43646 37.9069 7.53197 37.9884 7.57501C37.1306 9.76386 35.6083 10.7927 34.2626 10.8125L34.4314 10.3382Z" fill="#AECAC0"/>
<path d="M34.128 6.88445C35.2659 5.63379 36.1883 4.61993 37.3476 5.74893C38.5069 6.87794 37.5844 7.8918 36.4465 9.14246C35.3086 10.3931 33.8671 10.9015 33.2268 10.278C32.5866 9.65444 32.99 8.13511 34.128 6.88445Z" fill="#D2E3DD"/>
<path d="M33.3237 8.15848L36.461 5.25677C36.461 5.25677 36.7993 5.35228 36.8807 5.39533C36.0229 7.58417 34.5006 8.61305 33.155 8.63276L33.3237 8.15848Z" fill="#AECAC0"/>
<path d="M33.0202 4.70476C34.1581 3.4541 35.0806 2.44024 36.2399 3.56925C37.3991 4.69825 36.4767 5.71211 35.3388 6.96277C34.2008 8.21343 32.7594 8.72182 32.1191 8.09829C31.4789 7.47476 31.8823 5.95542 33.0202 4.70476Z" fill="#D2E3DD"/>
<path d="M29.896 5.23547C29.9204 5.33381 29.9734 5.4235 30.0464 5.49382C31.753 7.13894 31.4697 9.40772 29.4047 9.48885C26.3714 9.4957 26.6265 4.44277 26.6265 4.44277L26.0847 2.46576C26.0127 2.20333 26.1692 1.92695 26.4402 1.90224C28.1548 1.74591 29.4096 3.27669 29.896 5.23547Z" fill="#D2E3DD"/>
<path d="M7.87673 0.992495C1.05406 6.14227 15.0434 17.0752 18.2113 14.6841C21.3791 12.2929 14.6994 -4.15728 7.87673 0.992495Z" fill="#BAD3CA"/>
</svg>
