<svg width="40" height="59" viewBox="0 0 40 59" fill="none" xmlns="http://www.w3.org/2000/svg">
<path d="M10.8254 14.0598L8.422 19.9356L22.4083 28.4564L25.7465 22.6745L10.8254 14.0598Z" fill="#2A5050"/>
<ellipse cx="26.2237" cy="18.5029" rx="5.0395" ry="10.8744" transform="rotate(21.4175 26.2237 18.5029)" fill="#BAD3CA"/>
<path d="M20.422 19.6002C20.4578 20.0252 20.4062 20.413 20.2502 20.7477C19.4764 22.4065 16.0853 22.969 12.5832 22.4703L8.42203 19.9352L10.8254 14.0602L20.422 19.6002Z" fill="#152828"/>
<path d="M29.8135 4.3262C29.2895 6.41786 28.8647 8.11349 27.1693 7.62754C25.4738 7.14159 25.8985 5.44597 26.4225 3.35431C26.9465 1.26264 28.1303 -0.215418 29.0667 0.0529631C30.0031 0.321344 30.3374 2.23454 29.8135 4.3262Z" fill="#D2E3DD"/>
<path d="M30.1619 1.99433L28.9162 7.74918C28.8393 7.91289 28.6064 7.95431 28.6064 7.95431C28.1293 5.02206 28.9628 2.84192 30.1619 1.99433Z" fill="#AECAC0"/>
<path d="M32.6969 4.27695C32.173 6.36861 31.7482 8.06424 30.1386 7.60292C28.5291 7.14159 28.9538 5.44597 29.4778 3.35431C30.0018 1.26264 31.1471 -0.226442 32.0361 0.0283398C32.925 0.283121 33.2209 2.18529 32.6969 4.27695Z" fill="#D2E3DD"/>
<path d="M32.8016 2.7718L31.5559 8.52665C31.479 8.69036 31.2461 8.73178 31.2461 8.73178C30.769 5.79953 31.6026 3.61939 32.8016 2.7718Z" fill="#AECAC0"/>
<path d="M35.0735 5.82309C34.6658 7.94418 34.3354 9.66366 32.7547 9.31608C31.1741 8.9685 31.5045 7.24902 31.9122 5.12793C32.3199 3.00684 33.358 1.44297 34.231 1.63494C35.104 1.8269 35.4812 3.702 35.0735 5.82309Z" fill="#D2E3DD"/>
<path d="M25.5936 7.37586L22.1076 8.4618C22.348 13.6308 27.3968 17.3573 31.2435 15.3097C34.0084 13.3904 33.7679 11.8277 34.3689 8.4618C32.085 6.53846 29.4404 5.93335 25.9543 5.93335L25.5936 7.37586Z" fill="#2A5050"/>
<path d="M32.9349 13.7363C28.8959 16.1405 25.819 14.3854 22.934 11.6927C24.3765 14.8663 28.2366 16.982 31.2899 15.299C32.1272 14.7032 32.5599 14.3298 32.9349 13.7363Z" fill="#468586"/>
<path d="M25.4738 7.2601C27.5174 8.82281 27.3972 11.5876 25.4738 12.0685C21.8958 12.963 21.7378 7.50052 21.6271 6.05801C21.5165 4.6155 21.9999 3.45454 22.9494 3.2932C23.8989 3.13185 25.1132 4.49529 25.4738 7.2601Z" fill="#D2E3DD"/>
<path d="M3.7207 13.6582C0.540803 21.6009 18.1835 23.7274 19.66 20.0395C21.1364 16.3516 6.90061 5.7155 3.7207 13.6582Z" fill="#BAD3CA"/>
</svg>
