<svg width="35" height="17" viewBox="0 0 35 17" fill="none" xmlns="http://www.w3.org/2000/svg">
<g filter="url(#filter0_f_2036_21946)">
<path d="M12.6964 4.62404C12.8843 4.81201 12.8843 5.11677 12.6964 5.30473L10.238 7.76289C10.0501 7.95085 10.0501 8.2556 10.238 8.44357L12.6962 10.9019C12.8842 11.0899 12.8842 11.3946 12.6962 11.5826L11.5825 12.6964C11.3946 12.8844 11.0898 12.8844 10.9018 12.6964L8.44351 10.2381C8.25554 10.0501 7.95078 10.0501 7.76282 10.2381L5.30467 12.6964C5.11671 12.8844 4.81195 12.8844 4.62398 12.6964L3.51013 11.5826C3.32217 11.3946 3.32216 11.0899 3.51012 10.9019L5.96831 8.44356C6.15626 8.25559 6.15626 7.95085 5.9683 7.76289L3.51014 5.30473C3.32217 5.11677 3.32218 4.81202 3.51014 4.62405L4.62399 3.5102C4.81195 3.32224 5.11671 3.32224 5.30467 3.5102L7.76283 5.96836C7.95079 6.15632 8.25553 6.15633 8.4435 5.96837L10.9019 3.51018C11.0898 3.32222 11.3946 3.32223 11.5825 3.51019L12.6964 4.62404Z" fill="#F1F8F4"/>
<path d="M30.5051 4.6241C30.6931 4.81207 30.6931 5.11683 30.5051 5.30479L28.0468 7.76295C27.8588 7.95091 27.8588 8.25566 28.0467 8.44363L30.5049 10.902C30.6929 11.09 30.6929 11.3947 30.5049 11.5826L29.3912 12.6965C29.2033 12.8844 28.8985 12.8845 28.7105 12.6965L26.2522 10.2382C26.0643 10.0502 25.7595 10.0502 25.5715 10.2382L23.1134 12.6965C22.9254 12.8845 22.6207 12.8845 22.4327 12.6965L21.3188 11.5826C21.1309 11.3947 21.1309 11.0899 21.3188 10.902L23.777 8.44362C23.965 8.25565 23.965 7.95091 23.777 7.76295L21.3189 5.30479C21.1309 5.11683 21.1309 4.81208 21.3189 4.62411L22.4327 3.51026C22.6207 3.3223 22.9254 3.3223 23.1134 3.51026L25.5715 5.96842C25.7595 6.15638 26.0642 6.15639 26.2522 5.96843L28.7106 3.51024C28.8985 3.32229 29.2033 3.32229 29.3912 3.51025L30.5051 4.6241Z" fill="#F1F8F4"/>
</g>
<path d="M12.6964 4.62404C12.8843 4.81201 12.8843 5.11677 12.6964 5.30473L10.238 7.76289C10.0501 7.95085 10.0501 8.2556 10.238 8.44357L12.6962 10.9019C12.8842 11.0899 12.8842 11.3946 12.6962 11.5826L11.5825 12.6964C11.3946 12.8844 11.0898 12.8844 10.9018 12.6964L8.44351 10.2381C8.25554 10.0501 7.95078 10.0501 7.76282 10.2381L5.30467 12.6964C5.11671 12.8844 4.81195 12.8844 4.62398 12.6964L3.51013 11.5826C3.32217 11.3946 3.32216 11.0899 3.51012 10.9019L5.96831 8.44356C6.15626 8.25559 6.15626 7.95085 5.9683 7.76289L3.51014 5.30473C3.32217 5.11677 3.32218 4.81202 3.51014 4.62405L4.62399 3.5102C4.81195 3.32224 5.11671 3.32224 5.30467 3.5102L7.76283 5.96836C7.95079 6.15632 8.25553 6.15633 8.4435 5.96837L10.9019 3.51018C11.0898 3.32222 11.3946 3.32223 11.5825 3.51019L12.6964 4.62404Z" fill="#F1F8F4"/>
<path d="M30.5051 4.6241C30.6931 4.81207 30.6931 5.11683 30.5051 5.30479L28.0468 7.76295C27.8588 7.95091 27.8588 8.25566 28.0467 8.44363L30.5049 10.902C30.6929 11.09 30.6929 11.3947 30.5049 11.5826L29.3912 12.6965C29.2033 12.8844 28.8985 12.8845 28.7105 12.6965L26.2522 10.2382C26.0643 10.0502 25.7595 10.0502 25.5715 10.2382L23.1134 12.6965C22.9254 12.8845 22.6207 12.8845 22.4327 12.6965L21.3188 11.5826C21.1309 11.3947 21.1309 11.0899 21.3188 10.902L23.777 8.44362C23.965 8.25565 23.965 7.95091 23.777 7.76295L21.3189 5.30479C21.1309 5.11683 21.1309 4.81208 21.3189 4.62411L22.4327 3.51026C22.6207 3.3223 22.9254 3.3223 23.1134 3.51026L25.5715 5.96842C25.7595 6.15638 26.0642 6.15639 26.2522 5.96843L28.7106 3.51024C28.8985 3.32229 29.2033 3.32229 29.3912 3.51025L30.5051 4.6241Z" fill="#F1F8F4"/>
<defs>
<filter id="filter0_f_2036_21946" x="-5.26905e-05" y="8.34465e-06" width="34.0154" height="16.2066" filterUnits="userSpaceOnUse" color-interpolation-filters="sRGB">
<feFlood flood-opacity="0" result="BackgroundImageFix"/>
<feBlend mode="normal" in="SourceGraphic" in2="BackgroundImageFix" result="shape"/>
<feGaussianBlur stdDeviation="1.6846" result="effect1_foregroundBlur_2036_21946"/>
</filter>
</defs>
</svg>
