<svg width="40" height="49" viewBox="0 0 40 49" fill="none" xmlns="http://www.w3.org/2000/svg">
<path d="M27.4736 5.49219L28.4528 10.3872L28.4528 14.8734L21.8255 23.0854L16.6355 18.8856L27.4736 5.49219Z" fill="#0E1B1B"/>
<path d="M31.9475 1.89641C32.569 2.36265 33.0187 2.87717 33.3203 3.42556C30.4761 7.14462 28.3991 9.13448 28.4493 13.4235C25.7948 15.435 22.8969 16.5513 21.6533 15.6183C18.4784 13.2365 25.1097 -3.23329 31.9475 1.89641Z" fill="#070D0D"/>
<ellipse cx="5.0395" cy="10.8744" rx="5.0395" ry="10.8744" transform="matrix(-0.663457 0.748214 0.748214 0.663457 8.6925 5.19165)" fill="#819D92"/>
<path d="M8.67165 5.63239L12.2607 4.96417C14.4625 9.64616 11.7397 15.2988 7.38258 15.2853C4.04181 14.8799 3.71083 13.2876 1.60735 10.5927C2.72816 7.82559 3.52616 6.49442 6.60806 4.86615L8.67165 5.63239Z" fill="#0E1B1B"/>
<path d="M5.02562 14.5827C9.7193 14.8216 11.7399 11.8184 13.0327 8.09033C13.2397 11.5697 10.9354 15.3427 7.45006 15.2811C6.44283 15.2477 5.63435 14.9322 5.02562 14.5827Z" fill="#2A5050"/>
<path d="M4.56693 9.07974C3.44214 7.82076 2.53031 6.80015 1.33096 7.96819C0.131603 9.13624 1.04343 10.1569 2.16822 11.4158C3.29301 12.6748 4.7418 13.1725 5.40419 12.5274C6.06657 11.8823 5.69172 10.3387 4.56693 9.07974Z" fill="#A9C1B8"/>
<path d="M5.42472 10.338L2.28737 7.43633C2.28737 7.43633 1.94915 7.53185 1.86768 7.57489C2.72551 9.76374 4.24779 10.7926 5.59344 10.8123L5.42472 10.338Z" fill="#8EADA1"/>
<path d="M5.72812 6.88445C4.59021 5.63379 3.66775 4.61993 2.50848 5.74893C1.34921 6.87794 2.27168 7.8918 3.40959 9.14246C4.54751 10.3931 5.98899 10.9015 6.62924 10.278C7.26948 9.65444 6.86604 8.13511 5.72812 6.88445Z" fill="#A9C1B8"/>
<path d="M6.53239 8.15848L3.39504 5.25677C3.39504 5.25677 3.05682 5.35228 2.97535 5.39533C3.83317 7.58417 5.35546 8.61305 6.7011 8.63276L6.53239 8.15848Z" fill="#8EADA1"/>
<path d="M6.83579 4.70476C5.69787 3.4541 4.77541 2.44024 3.61615 3.56925C2.45688 4.69825 3.37934 5.71211 4.51726 6.96277C5.65517 8.21343 7.09666 8.72182 7.7369 8.09829C8.37715 7.47476 7.9737 5.95542 6.83579 4.70476Z" fill="#A9C1B8"/>
<path d="M9.0797 5.2851C8.003 7.62113 9.0448 10.1972 10.9698 9.72397C14.5507 8.84354 12.3004 4.67099 11.7245 3.34403C10.2846 0.0266601 5.76372 3.36634 6.87402 5.227C7.46186 6.21211 9.0797 5.2851 9.0797 5.2851Z" fill="#A9C1B8"/>
<path d="M31.9793 0.992495C38.802 6.14227 24.8127 17.0752 21.6448 14.6841C18.4769 12.2929 25.1567 -4.15728 31.9793 0.992495Z" fill="#819D92"/>
</svg>
