<svg width="40" height="59" viewBox="0 0 40 59" fill="none" xmlns="http://www.w3.org/2000/svg">
<path d="M29.3147 14.1113L30.4233 20.6941L17.7319 28.5079L14.3937 22.726L29.3147 14.1113Z" fill="#0E1B1B"/>
<path d="M19.8896 19.5332C19.8539 19.9582 19.9054 20.346 20.0615 20.6807C20.8353 22.3395 24.1463 22.9016 27.6484 22.4029L31.8164 19.8404L29.4863 13.9932L19.8896 19.5332Z" fill="#070D0D"/>
<ellipse cx="5.0395" cy="10.8744" rx="5.0395" ry="10.8744" transform="matrix(-0.930944 0.365161 0.365161 0.930944 14.637 6.59082)" fill="#819D92"/>
<path d="M9.86765 4.30406C10.3915 6.39543 10.8162 8.09082 12.5115 7.60494C14.2068 7.11906 13.7821 5.42367 13.2582 3.3323C12.7343 1.24092 11.5506 -0.236932 10.6143 0.0314115C9.67805 0.299755 9.34376 2.21268 9.86765 4.30406Z" fill="#A9C1B8"/>
<path d="M14.0861 7.35405L17.5717 8.43985C17.3313 13.6081 12.2832 17.3341 8.43704 15.2868C5.67255 13.3677 6.12374 11.8052 5.52277 8.43985C7.80643 6.51677 10.2399 5.91174 13.7255 5.91174L14.0861 7.35405Z" fill="#0E1B1B"/>
<path d="M14.0861 7.35405L17.5717 8.43985C17.3313 13.6081 12.2832 17.3341 8.43704 15.2868C5.67255 13.3677 6.12374 11.8052 5.52277 8.43985C7.80643 6.51677 10.2399 5.91174 13.7255 5.91174L14.0861 7.35405Z" fill="#152828"/>
<path d="M6.68122 13.5646C10.7197 15.9684 13.9092 14.2569 16.7938 11.5646C15.3515 14.7377 11.5515 16.9973 8.49864 15.3146C7.62364 14.8146 7.05617 14.158 6.68122 13.5646Z" fill="#2A5050"/>
<path d="M8.84634 8.48465C8.43995 6.84604 8.11051 5.51768 6.50441 5.99017C4.89832 6.46267 5.22776 7.79103 5.63416 9.42964C6.04055 11.0682 7.08907 12.1851 7.97609 11.9241C8.86311 11.6632 9.25274 10.1233 8.84634 8.48465Z" fill="#A9C1B8"/>
<path d="M9.01697 9.99792L7.5985 5.96668C7.5985 5.96668 7.25483 5.89314 7.16269 5.89314C6.89866 8.2292 7.764 9.85004 8.94459 10.4961L9.01697 9.99792Z" fill="#8EADA1"/>
<path d="M10.8985 7.08609C10.4767 5.44871 10.1347 4.12135 8.58224 4.57805C7.02984 5.03475 7.37184 6.36211 7.79373 7.99949C8.21561 9.63687 9.25265 10.7598 10.11 10.5075C10.9674 10.2553 11.3204 8.72347 10.8985 7.08609Z" fill="#A9C1B8"/>
<path d="M13.874 5.93921L13.5202 4.41703C12.8625 4.74496 12.4029 5.26792 12.436 5.90586C12.4366 5.91708 12.4374 5.92819 12.4383 5.93919C12.4392 5.95018 13.874 5.93921 13.874 5.93921Z" fill="#8EADA1"/>
<path d="M14.6092 7.23762C12.5659 8.80012 12.2836 11.5645 14.2067 12.0453C17.7842 12.9397 17.7437 8.19916 17.8544 6.75685C18.131 3.15108 12.5736 3.99204 12.6861 6.15588C12.7456 7.3015 14.6092 7.23762 14.6092 7.23762Z" fill="#A9C1B8"/>
<path d="M36.4595 13.5658C39.6394 21.5085 21.9967 23.635 20.5202 19.9471C19.0437 16.2592 33.2796 5.62309 36.4595 13.5658Z" fill="#819D92"/>
</svg>
