<svg width="40" height="59" viewBox="0 0 40 59" fill="none" xmlns="http://www.w3.org/2000/svg">
<path d="M29.4734 14.0598L31.8768 19.9356L17.8906 28.4564L14.5524 22.6745L29.4734 14.0598Z" fill="#0E1B1B"/>
<ellipse cx="5.0395" cy="10.8744" rx="5.0395" ry="10.8744" transform="matrix(-0.930944 0.365161 0.365161 0.930944 14.7957 6.53918)" fill="#819D92"/>
<path d="M19.8768 19.6002C19.8411 20.0252 19.8926 20.413 20.0487 20.7477C20.8225 22.4065 24.2136 22.969 27.7157 22.4703L31.8768 19.9352L29.4735 14.0602L19.8768 19.6002Z" fill="#070D0D"/>
<path d="M10.4854 4.3262C11.0093 6.41786 11.4341 8.11349 13.1296 7.62754C14.8251 7.14159 14.4003 5.44597 13.8763 3.35431C13.3524 1.26264 12.1685 -0.215418 11.2321 0.0529631C10.2957 0.321344 9.96139 2.23454 10.4854 4.3262Z" fill="#A9C1B8"/>
<path d="M10.1369 1.99433L11.3826 7.74918C11.4594 7.91289 11.6924 7.95431 11.6924 7.95431C12.1694 5.02206 11.3359 2.84192 10.1369 1.99433Z" fill="#8EADA1"/>
<path d="M7.60188 4.27695C8.12585 6.36861 8.55061 8.06424 10.1602 7.60292C11.7698 7.14159 11.345 5.44597 10.821 3.35431C10.2971 1.26264 9.15168 -0.226442 8.26274 0.0283398C7.37379 0.283121 7.07792 2.18529 7.60188 4.27695Z" fill="#A9C1B8"/>
<path d="M7.49726 2.7718L8.74291 8.52665C8.8198 8.69036 9.05273 8.73178 9.05273 8.73178C9.52978 5.79953 8.69628 3.61939 7.49726 2.7718Z" fill="#8EADA1"/>
<path d="M5.22539 5.82309C5.63305 7.94418 5.96353 9.66366 7.54418 9.31608C9.12483 8.9685 8.79436 7.24902 8.3867 5.12793C7.97903 3.00684 6.94088 1.44297 6.06791 1.63494C5.19494 1.8269 4.81773 3.702 5.22539 5.82309Z" fill="#A9C1B8"/>
<path d="M14.7054 7.37586L18.1914 8.4618C17.951 13.6308 12.9022 17.3573 9.05553 15.3097C6.29065 13.3904 6.53113 11.8277 5.93008 8.4618C8.21405 6.53846 10.8587 5.93335 14.3447 5.93335L14.7054 7.37586Z" fill="#0E1B1B"/>
<path d="M7.36404 13.7363C11.4031 16.1405 14.48 14.3854 17.365 11.6927C15.9225 14.8663 12.0624 16.982 9.00905 15.299C8.17171 14.7032 7.73905 14.3298 7.36404 13.7363Z" fill="#2A5050"/>
<path d="M14.8251 7.2601C12.7815 8.82281 12.9017 11.5876 14.8251 12.0685C18.4031 12.963 18.5611 7.50052 18.6718 6.05801C18.7824 4.6155 18.299 3.45454 17.3495 3.2932C16.4 3.13185 15.1857 4.49529 14.8251 7.2601Z" fill="#A9C1B8"/>
<path d="M36.4595 13.5509C39.6394 21.4936 21.9967 23.6201 20.5202 19.9322C19.0437 16.2443 33.2796 5.6082 36.4595 13.5509Z" fill="#819D92"/>
</svg>
