<svg width="40" height="48" viewBox="0 0 40 48" fill="none" xmlns="http://www.w3.org/2000/svg">
<path d="M25.6362 7.00842L31.6541 9.91337L25.7282 22.1893L19.7104 19.2843L25.6362 7.00842Z" fill="#0E1B1B"/>
<path d="M25.6362 7.00842L31.6541 9.91337L30.007 13.3337C27.6007 14.8978 23.4031 15.6884 21.9349 14.6759L25.6362 7.00842Z" fill="#070D0D"/>
<path d="M19.5025 19.5387L20.5298 17.5856C22.2228 18.1022 24.1873 19.9825 26.5569 18.9198C26.845 18.7906 27.085 18.8186 27.2783 18.9759L26.2401 21.1028L19.5025 19.5387Z" fill="#2A5050"/>
<path d="M18.8406 18.454C20.8928 17.14 23.355 21.0772 26.5567 19.6413C29.7585 18.2055 27.021 36.1871 20.2222 35.1409C13.4235 34.0947 16.7884 19.7679 18.8406 18.454Z" fill="#819D92"/>
<path d="M18.2856 40.3385C18.652 38.2116 18.9491 36.4875 17.2003 36.2465C15.4515 36.0055 15.1545 37.7296 14.788 39.8565C14.4216 41.9834 14.9075 43.8154 15.8733 43.9485C16.8391 44.0816 17.9191 42.4653 18.2856 40.3385Z" fill="#A9C1B8"/>
<path d="M17.6616 42.6136L18.8492 36.8411C18.8451 36.6602 18.6486 36.528 18.6486 36.528C17.0257 39.0195 16.9068 41.3526 17.6616 42.6136Z" fill="#8EADA1"/>
<path d="M20.9057 41.5522C21.2722 39.4254 21.5692 37.7012 19.9091 37.4724C18.2489 37.2437 17.9518 38.9678 17.5854 41.0947C17.2189 43.2215 17.6652 45.0481 18.582 45.1745C19.4989 45.3008 20.5393 43.6791 20.9057 41.5522Z" fill="#A9C1B8"/>
<path d="M20.3929 42.9717L21.5806 37.1993C21.5764 37.0183 21.3799 36.8862 21.3799 36.8862C19.757 39.3776 19.6381 41.7107 20.3929 42.9717Z" fill="#8EADA1"/>
<path d="M23.707 41.0958C24.1919 38.989 24.5849 37.2811 22.9972 36.9599C21.4095 36.6387 21.0165 38.3466 20.5317 40.4533C20.0468 42.5601 20.3646 44.4118 21.2415 44.5892C22.1183 44.7666 23.2222 43.2025 23.707 41.0958Z" fill="#A9C1B8"/>
<path d="M15.6569 35.8412L12.9048 33.4368C15.2159 28.8019 21.3455 27.4327 24.0387 30.8634C25.7936 33.7389 24.9413 35.0723 24.1299 38.3969C21.2609 39.2337 18.595 38.7179 15.4036 37.3077L15.6569 35.8412Z" fill="#0E1B1B"/>
<path d="M24.9612 33.0354C22.2361 29.2005 18.6332 29.5719 14.9027 30.87C17.5071 28.5482 21.9804 28.0939 24.0948 30.8698C24.6204 31.754 24.858 32.3404 24.9612 33.0354Z" fill="#070D0D"/>
<path d="M15.4996 35.8988C18.0026 35.2948 19.011 32.715 17.4447 31.4968C14.5309 29.2305 12.1766 34.1674 11.4917 35.4432C10.8069 36.719 10.7799 37.9775 11.5838 38.5093C12.3878 39.0411 14.051 38.2841 15.4996 35.8988Z" fill="#A9C1B8"/>
<path d="M34.3959 1.39737C40.4456 7.44708 25.0644 16.3468 22.2554 13.5378C19.4464 10.7288 28.3462 -4.65233 34.3959 1.39737Z" fill="#819D92"/>
</svg>
