<svg width="40" height="49" viewBox="0 0 40 49" fill="none" xmlns="http://www.w3.org/2000/svg">
<path d="M27.4736 5.49219L28.4528 10.3872L28.4528 14.8734L21.8255 23.0854L16.6355 18.8856L27.4736 5.49219Z" fill="#0E1B1B"/>
<path d="M31.9475 1.89641C32.569 2.36265 33.0187 2.87717 33.3203 3.42556C30.4761 7.14462 28.3991 9.13448 28.4493 13.4235C25.7948 15.435 22.8969 16.5513 21.6533 15.6183C18.4784 13.2365 25.1097 -3.23329 31.9475 1.89641Z" fill="#070D0D"/>
<ellipse cx="5.0395" cy="10.8744" rx="5.0395" ry="10.8744" transform="matrix(-0.663457 0.748214 0.748214 0.663457 8.6925 5.19165)" fill="#819D92"/>
<path d="M9.17165 5.88873L12.7607 5.22052C14.9625 9.90251 12.2397 15.5551 7.88258 15.5416C4.54181 15.1363 4.21083 13.544 2.10735 10.8491C3.22816 8.08194 4.02616 6.75077 7.10806 5.1225L9.17165 5.88873Z" fill="#0E1B1B"/>
<path d="M5.52562 14.8391C10.2193 15.078 12.2399 12.0747 13.5327 8.34668C13.7397 11.826 11.4354 15.5991 7.95006 15.5374C6.94283 15.5041 6.13435 15.1886 5.52562 14.8391Z" fill="#2A5050"/>
<path d="M5.06705 9.33621C3.94226 8.07723 3.03043 7.05662 1.83108 8.22466C0.631725 9.39271 1.54355 10.4133 2.66834 11.6723C3.79313 12.9313 5.24193 13.429 5.90431 12.7839C6.5667 12.1388 6.19184 10.5952 5.06705 9.33621Z" fill="#A9C1B8"/>
<path d="M5.92484 10.5945L2.78749 7.6928C2.78749 7.6928 2.44927 7.78832 2.3678 7.83136C3.22563 10.0202 4.74792 11.0491 6.09356 11.0688L5.92484 10.5945Z" fill="#8EADA1"/>
<path d="M6.22812 7.1408C5.09021 5.89014 4.16775 4.87628 3.00848 6.00528C1.84921 7.13429 2.77168 8.14815 3.90959 9.39881C5.04751 10.6495 6.48899 11.1579 7.12924 10.5343C7.76948 9.91079 7.36604 8.39146 6.22812 7.1408Z" fill="#A9C1B8"/>
<path d="M7.03239 8.41483L3.89504 5.51312C3.89504 5.51312 3.55682 5.60863 3.47535 5.65167C4.33317 7.84052 5.85546 8.8694 7.2011 8.88911L7.03239 8.41483Z" fill="#8EADA1"/>
<path d="M7.33591 4.96111C6.198 3.71045 5.27553 2.69659 4.11627 3.82559C2.957 4.9546 3.87947 5.96846 5.01738 7.21912C6.1553 8.46978 7.59678 8.97817 8.23702 8.35464C8.87727 7.7311 8.47383 6.21177 7.33591 4.96111Z" fill="#A9C1B8"/>
<path d="M10.9625 5.16647C8.81976 6.38942 8.55903 8.75518 10.6027 9.28621C13.5648 9.93989 14.3933 4.94883 14.3933 4.94883L15.5734 2.69547C13.725 1.74463 11.9225 3.11052 10.9625 5.16647Z" fill="#A9C1B8"/>
<path d="M31.9793 0.992495C38.802 6.14227 24.8127 17.0752 21.6448 14.6841C18.4769 12.2929 25.1567 -4.15728 31.9793 0.992495Z" fill="#819D92"/>
</svg>
