<svg width="42" height="49" viewBox="0 0 42 49" fill="none" xmlns="http://www.w3.org/2000/svg">
<path d="M29.0936 5.49219L30.0728 10.3872L30.0728 14.8734L23.4455 23.0854L18.2555 18.8856L29.0936 5.49219Z" fill="#0E1B1B"/>
<path d="M33.5675 1.89641C34.189 2.36265 34.6387 2.87717 34.9403 3.42556C32.0961 7.14462 30.0191 9.13448 30.0693 13.4235C27.4148 15.435 24.5169 16.5513 23.2732 15.6183C20.0984 13.2365 26.7297 -3.23329 33.5675 1.89641Z" fill="#070D0D"/>
<ellipse cx="5.0395" cy="10.8744" rx="5.0395" ry="10.8744" transform="matrix(-0.663457 0.748214 0.748214 0.663457 10.3125 5.19165)" fill="#819D92"/>
<path d="M6.62007 6.2605C7.58321 7.64707 7.41759 8.80885 8.75023 7.7955C9.61999 7.13412 9.12 4.2605 8.6199 2.76045C8.6199 2.76045 11.62 2.26058 10.62 0.760564C9.51658 -0.894718 3.25124 1.41065 6.62007 6.2605Z" fill="#A9C1B8"/>
<path d="M5.66401 4.60863L8.25991 7.81693C8.25991 7.81693 8.49509 7.84155 8.54955 7.83171C7.68711 5.85665 6.46901 4.59817 5.48959 4.18573L5.66401 4.60863Z" fill="#8EADA1"/>
<path d="M3.39592 6.77689C5.05789 9.0132 6.40519 10.8261 7.76264 9.8425C9.1201 8.85891 7.7728 7.04602 6.11083 4.8097C4.44886 2.57339 2.49381 1.20087 1.74411 1.74409C0.994407 2.28731 1.73395 4.54057 3.39592 6.77689Z" fill="#A9C1B8"/>
<path d="M2.11602 4.75911L6.69663 10.1292C6.69663 10.1292 7.12828 10.1575 7.22921 10.1373C5.76432 6.78758 3.59945 4.69306 1.82124 4.04125L2.11602 4.75911Z" fill="#8EADA1"/>
<path d="M1.95089 8.8042C3.61665 11.0456 4.96702 12.8626 6.32448 11.8791C7.68193 10.8955 6.33156 9.07843 4.66579 6.83701C3.00003 4.59559 1.04191 3.21893 0.292204 3.76216C-0.457497 4.30538 0.28512 6.56278 1.95089 8.8042Z" fill="#A9C1B8"/>
<path d="M10.7916 5.88936L14.3807 5.22115C16.5825 9.90314 13.8596 15.5557 9.50254 15.5422C6.16177 15.1369 5.35002 13.2605 3.35 10.6213C4.47081 7.85411 6.0782 6.88876 9.16009 5.26049L10.7916 5.88936Z" fill="#0E1B1B"/>
<path d="M7.14562 14.8397C11.8393 15.0786 13.8599 12.0753 15.1527 8.34729C15.3597 11.8266 13.0554 15.5997 9.57005 15.538C8.56282 15.5047 7.75434 15.1892 7.14562 14.8397Z" fill="#2A5050"/>
<path d="M12.1199 5.26055C10.6199 6.76055 11.138 10.3083 13.1197 10.2606C16.4155 10.1812 14.9236 5.41106 14.6469 3.99121C14.2845 2.13012 12.3121 0.998842 11.1201 1.7605C9.92836 2.52213 12.1199 5.26055 12.1199 5.26055Z" fill="#A9C1B8"/>
<path d="M33.5993 0.992495C40.422 6.14227 26.4327 17.0752 23.2648 14.6841C20.0969 12.2929 26.7767 -4.15728 33.5993 0.992495Z" fill="#819D92"/>
</svg>
