<svg width="48" height="48" viewBox="0 0 48 48" fill="none" xmlns="http://www.w3.org/2000/svg">
<g clip-path="url(#clip0_376_3264)">
<rect width="48" height="48" rx="4" fill="#BAD3CA"/>
<path d="M23.9996 45.4067V45.4077C23.3753 45.4077 22.7604 45.4034 22.1548 45.395C22.7604 45.4029 23.3753 45.4067 23.9996 45.4067ZM23.9996 2.73877C50.4897 2.73877 54.4097 9.19642 54.4097 24.0728C54.4097 24.2512 54.4054 24.4284 54.4029 24.604C54.2785 11.0121 50.0783 5.1001 23.9996 5.1001C-2.34395 5.10014 -6.28519 13.1161 -6.40472 24.686C-6.40773 24.4836 -6.41058 24.279 -6.41058 24.0728C-6.41054 11.5028 -2.77214 2.73881 23.9996 2.73877Z" fill="#CEE6DD"/>
<path d="M24.0003 45.2913C-2.4898 45.2913 -6.40982 38.8336 -6.40986 23.9573C-6.40986 23.7789 -6.40556 23.6016 -6.40303 23.426C-6.27861 37.0178 -2.07838 42.9299 24.0003 42.9299C50.3437 42.9299 54.285 34.9138 54.4046 23.344C54.4076 23.5465 54.4104 23.7511 54.4104 23.9573C54.4104 36.5272 50.772 45.2912 24.0003 45.2913Z" fill="#92B8AA"/>
<path d="M54.4101 24.0435C54.4101 40.2755 42.6288 44.1971 23.9997 44.1971C4.02522 44.1971 -6.41067 40.2755 -6.41067 24.0435C-6.41067 12.169 -2.77259 3.88989 23.9997 3.88989C50.4902 3.88989 54.4101 9.99026 54.4101 24.0435Z" fill="#EFFBF7"/>
<path d="M52.6106 24.0436C52.6106 38.5365 41.5264 42.0379 23.9996 42.0379C5.20708 42.0379 -4.6113 38.5365 -4.6113 24.0436C-4.6113 13.4414 -1.18849 6.04932 23.9996 6.04932C48.9226 6.04932 52.6106 11.4961 52.6106 24.0436Z" fill="#2A5050"/>
<path d="M23.9989 6.04932C48.9215 6.04932 52.6102 11.5023 52.6102 24.064C52.6102 24.2146 52.6058 24.364 52.6034 24.5122C52.4864 13.0354 48.5349 8.04352 23.9999 8.04346C-0.766685 8.04346 -4.48889 14.802 -4.60655 24.5601C-4.60915 24.3961 -4.61143 24.2308 -4.61143 24.064C-4.61143 13.4499 -1.18847 6.0494 23.9989 6.04932Z" fill="#152828"/>
<path d="M24.0002 41.9805C-0.922415 41.9805 -4.61111 36.5275 -4.61111 23.9658C-4.61111 23.8152 -4.60666 23.6658 -4.60428 23.5176C-4.48723 34.9945 -0.535232 39.9863 24.0002 39.9863C48.7664 39.9862 52.488 33.2277 52.6057 23.4697C52.6083 23.6336 52.6106 23.799 52.6106 23.9658C52.6106 34.5799 49.1876 41.9804 24.0002 41.9805Z" fill="#468586"/>
<g filter="url(#filter0_f_376_3264)">
<path d="M13.7931 18.4744C17.7191 18.3421 20.1233 23.0525 19.8069 26.3259C19.7697 26.7108 19.7564 27.0975 19.6883 27.4692C19.6847 27.489 19.6779 27.5085 19.6674 27.5244C19.6568 27.5402 19.6429 27.5512 19.6273 27.5549C19.6116 27.5587 19.5952 27.5551 19.5801 27.5454C19.5651 27.5357 19.5531 27.5202 19.5423 27.5042C19.3515 27.2183 19.1452 26.9382 18.9419 26.6731C17.046 24.2011 15.3209 23.3081 13.7722 23.3742C13.7619 23.3746 13.7515 23.3747 13.7411 23.3742C12.1863 23.2977 10.472 24.1766 8.59532 26.6665C8.39404 26.9335 8.19005 27.2154 8.00172 27.5035C7.99115 27.5197 7.9793 27.5352 7.96435 27.545C7.94941 27.5549 7.93302 27.5587 7.91739 27.5551C7.90173 27.5515 7.88767 27.5407 7.87698 27.5249C7.8663 27.5091 7.8595 27.4897 7.85575 27.4698C7.78573 27.0986 7.74726 26.7148 7.73101 26.3279C7.65871 24.6067 8.00295 22.7746 9.02799 21.1563C10.048 19.5459 11.9538 18.4373 13.7286 18.4744C13.7501 18.4749 13.7716 18.4751 13.7931 18.4744Z" fill="#F1F8F4"/>
<path d="M34.7714 18.4744C38.6973 18.3421 41.1016 23.0525 40.7852 26.3259C40.748 26.7108 40.7346 27.0975 40.6666 27.4692C40.6629 27.489 40.6562 27.5085 40.6456 27.5244C40.6351 27.5402 40.6211 27.5512 40.6055 27.5549C40.5899 27.5587 40.5734 27.5551 40.5584 27.5454C40.5434 27.5357 40.5313 27.5202 40.5206 27.5042C40.3297 27.2183 40.1235 26.9382 39.9202 26.6731C38.0243 24.2011 36.2992 23.3081 34.7504 23.3742C34.7401 23.3746 34.7297 23.3747 34.7193 23.3742C33.1645 23.2977 31.4503 24.1766 29.5736 26.6665C29.3723 26.9335 29.1683 27.2154 28.98 27.5035C28.9694 27.5197 28.9576 27.5352 28.9426 27.545C28.9277 27.5549 28.9113 27.5587 28.8957 27.5551C28.88 27.5515 28.8659 27.5407 28.8552 27.5249C28.8446 27.5091 28.8378 27.4897 28.834 27.4698C28.764 27.0986 28.7255 26.7148 28.7093 26.3279C28.637 24.6067 28.9812 22.7746 30.0062 21.1563C31.0263 19.5459 32.9321 18.4373 34.7068 18.4744C34.7284 18.4749 34.7499 18.4751 34.7714 18.4744Z" fill="#F1F8F4"/>
</g>
<path d="M13.7868 18.4744C17.7128 18.3421 20.117 23.0525 19.8007 26.3259C19.7635 26.7108 19.7501 27.0975 19.6821 27.4692C19.6784 27.489 19.6717 27.5085 19.6611 27.5244C19.6505 27.5402 19.6366 27.5512 19.621 27.555C19.6054 27.5587 19.5889 27.5551 19.5739 27.5454C19.5588 27.5357 19.5468 27.5203 19.5361 27.5042C19.3452 27.2183 19.1389 26.9382 18.9356 26.6731C17.0398 24.2011 15.3146 23.3081 13.7659 23.3742C13.7556 23.3746 13.7452 23.3747 13.7348 23.3742C12.18 23.2977 10.4657 24.1766 8.58905 26.6665C8.38777 26.9335 8.18378 27.2154 7.99544 27.5035C7.98488 27.5197 7.97303 27.5352 7.95808 27.545C7.94314 27.5549 7.92675 27.5587 7.91112 27.5551C7.89546 27.5515 7.8814 27.5407 7.8707 27.5249C7.86003 27.5091 7.85323 27.4897 7.84948 27.4698C7.77946 27.0986 7.74099 26.7148 7.72474 26.3279C7.65244 24.6067 7.99668 22.7746 9.02172 21.1563C10.0418 19.5459 11.9476 18.4373 13.7223 18.4744C13.7438 18.4749 13.7654 18.4751 13.7868 18.4744Z" fill="#F1F8F4"/>
<path d="M34.7714 18.4744C38.6973 18.3421 41.1016 23.0525 40.7852 26.3259C40.748 26.7108 40.7346 27.0975 40.6666 27.4692C40.6629 27.489 40.6562 27.5085 40.6456 27.5244C40.6351 27.5402 40.6211 27.5512 40.6055 27.555C40.5899 27.5587 40.5734 27.5551 40.5584 27.5454C40.5434 27.5357 40.5313 27.5203 40.5206 27.5042C40.3298 27.2183 40.1235 26.9382 39.9202 26.6731C38.0243 24.2011 36.2992 23.3081 34.7504 23.3742C34.7401 23.3746 34.7297 23.3747 34.7193 23.3742C33.1645 23.2977 31.4503 24.1766 29.5736 26.6665C29.3723 26.9335 29.1683 27.2154 28.98 27.5035C28.9694 27.5197 28.9576 27.5352 28.9426 27.545C28.9277 27.5549 28.9113 27.5587 28.8956 27.5551C28.88 27.5515 28.8659 27.5407 28.8552 27.5249C28.8446 27.5091 28.8378 27.4897 28.834 27.4698C28.764 27.0986 28.7255 26.7148 28.7093 26.3279C28.637 24.6067 28.9812 22.7746 30.0062 21.1563C31.0263 19.5459 32.9321 18.4373 34.7068 18.4744C34.7284 18.4749 34.7499 18.4751 34.7714 18.4744Z" fill="#F1F8F4"/>
</g>
<defs>
<filter id="filter0_f_376_3264" x="0.721748" y="13.4717" width="46.2173" height="19.0847" filterUnits="userSpaceOnUse" color-interpolation-filters="sRGB">
<feFlood flood-opacity="0" result="BackgroundImageFix"/>
<feBlend mode="normal" in="SourceGraphic" in2="BackgroundImageFix" result="shape"/>
<feGaussianBlur stdDeviation="2.5" result="effect1_foregroundBlur_376_3264"/>
</filter>
<clipPath id="clip0_376_3264">
<rect width="48" height="48" rx="4" fill="white"/>
</clipPath>
</defs>
</svg>
