<svg width="36" height="18" viewBox="0 0 36 18" fill="none" xmlns="http://www.w3.org/2000/svg">
<g filter="url(#filter0_f_214_961)">
<path d="M25.2316 11.8236L22.111 12.7238C21.9952 12.7555 21.8883 12.7532 21.7903 12.7169C21.6923 12.6807 21.6105 12.6225 21.5448 12.5423C21.4789 12.462 21.4365 12.3688 21.4174 12.2627C21.3985 12.1566 21.4194 12.0504 21.48 11.9441L23.0106 9.0848L21.1889 6.39621C21.1209 6.29546 21.0884 6.19114 21.0913 6.08323C21.094 5.97529 21.1268 5.87848 21.1896 5.7928C21.2524 5.70723 21.3269 5.64349 21.4131 5.60159C21.4994 5.55968 21.6056 5.54566 21.7319 5.55952L24.9352 6.12474L26.9223 3.5698C26.9952 3.47449 27.0835 3.41321 27.1872 3.38597C27.2908 3.35872 27.3926 3.3585 27.4926 3.3853C27.5927 3.4121 27.6807 3.46321 27.7569 3.53862C27.833 3.61404 27.8788 3.71125 27.8943 3.83025L28.3377 7.03643L31.3945 8.14858C31.5108 8.19974 31.5958 8.26501 31.6495 8.34442C31.7032 8.42383 31.7359 8.51627 31.7475 8.62177C31.759 8.72737 31.739 8.8276 31.6874 8.92247C31.636 9.01736 31.5556 9.09143 31.4464 9.14468L28.5245 10.5622L28.4203 13.8038C28.4197 13.9261 28.3847 14.0285 28.3152 14.1109C28.2457 14.1933 28.1623 14.2528 28.0652 14.2895C27.9682 14.326 27.8682 14.3355 27.7652 14.3179C27.6622 14.3003 27.5685 14.2488 27.484 14.1635L25.2316 11.8236Z" fill="#FBE5B9"/>
<path d="M9.88442 11.8236L7.63201 14.1636C7.54755 14.2489 7.45382 14.3003 7.35085 14.3179C7.24787 14.3355 7.14788 14.326 7.05087 14.2895C6.95372 14.2529 6.87035 14.1934 6.80078 14.111C6.73133 14.0285 6.69631 13.9262 6.69573 13.8038L6.59155 10.5623L3.66965 9.14472C3.5604 9.09147 3.48004 9.01739 3.42859 8.9225C3.37702 8.82764 3.35701 8.72741 3.36856 8.6218C3.38013 8.51631 3.41279 8.42386 3.46651 8.34446C3.52024 8.26505 3.60526 8.19977 3.72157 8.14862L6.77833 7.03646L7.22172 3.83028C7.23721 3.71129 7.28302 3.61408 7.35915 3.53866C7.43529 3.46324 7.52336 3.41213 7.62338 3.38533C7.7234 3.35853 7.82523 3.35876 7.92888 3.386C8.03252 3.41325 8.1208 3.47453 8.19371 3.56984L10.1808 6.12478L13.3841 5.55956C13.5104 5.5457 13.6167 5.55972 13.7029 5.60162C13.7891 5.64353 13.8636 5.70727 13.9264 5.79283C13.9892 5.87852 14.022 5.97533 14.0248 6.08327C14.0277 6.19117 13.9951 6.2955 13.9271 6.39624L12.1054 9.08484L13.636 11.9442C13.6967 12.0504 13.7175 12.1566 13.6986 12.2627C13.6795 12.3688 13.6371 12.4621 13.5713 12.5424C13.5055 12.6225 13.4237 12.6807 13.3257 12.717C13.2277 12.7532 13.1208 12.7555 13.005 12.7239L9.88442 11.8236Z" fill="#FBE5B9"/>
</g>
<path d="M25.2293 11.8235L22.1087 12.7238C21.9929 12.7554 21.886 12.7531 21.788 12.7169C21.69 12.6806 21.6082 12.6224 21.5424 12.5423C21.4766 12.462 21.4342 12.3687 21.4151 12.2626C21.3962 12.1565 21.417 12.0503 21.4777 11.9441L23.0083 9.08474L21.1866 6.39615C21.1186 6.2954 21.0861 6.19107 21.0889 6.08317C21.0917 5.97523 21.1245 5.87842 21.1873 5.79274C21.2501 5.70717 21.3246 5.64343 21.4108 5.60153C21.497 5.55962 21.6033 5.5456 21.7296 5.55946L24.9329 6.12468L26.92 3.56974C26.9929 3.47443 27.0812 3.41315 27.1848 3.38591C27.2885 3.35866 27.3903 3.35844 27.4903 3.38524C27.5903 3.41204 27.6784 3.46314 27.7546 3.53856C27.8307 3.61398 27.8765 3.71119 27.892 3.83019L28.3354 7.03637L31.3921 8.14852C31.5085 8.19967 31.5935 8.26495 31.6472 8.34436C31.7009 8.42376 31.7336 8.51621 31.7452 8.6217C31.7567 8.72731 31.7367 8.82754 31.6851 8.92241C31.6337 9.0173 31.5533 9.09137 31.4441 9.14462L28.5222 10.5622L28.418 13.8037C28.4174 13.9261 28.3824 14.0284 28.3129 14.1109C28.2434 14.1933 28.16 14.2528 28.0628 14.2894C27.9658 14.3259 27.8658 14.3354 27.7629 14.3178C27.6599 14.3002 27.5662 14.2488 27.4817 14.1635L25.2293 11.8235Z" fill="#FBE5B9"/>
<path d="M9.88442 11.8236L7.63201 14.1635C7.54755 14.2488 7.45382 14.3003 7.35085 14.3179C7.24787 14.3355 7.14788 14.326 7.05087 14.2894C6.95372 14.2528 6.87035 14.1933 6.80078 14.1109C6.73133 14.0285 6.69631 13.9261 6.69573 13.8038L6.59155 10.5622L3.66965 9.14466C3.5604 9.09141 3.48004 9.01733 3.42859 8.92244C3.37702 8.82758 3.35701 8.72735 3.36856 8.62174C3.38013 8.51625 3.41279 8.4238 3.46651 8.3444C3.52024 8.26499 3.60526 8.19971 3.72157 8.14856L6.77833 7.0364L7.22172 3.83022C7.23721 3.71123 7.28302 3.61402 7.35915 3.5386C7.43529 3.46318 7.52336 3.41207 7.62338 3.38527C7.7234 3.35847 7.82523 3.3587 7.92888 3.38594C8.03252 3.41319 8.1208 3.47447 8.19371 3.56978L10.1808 6.12472L13.3841 5.5595C13.5104 5.54564 13.6167 5.55966 13.7029 5.60156C13.7891 5.64347 13.8636 5.70721 13.9264 5.79277C13.9892 5.87846 14.022 5.97527 14.0248 6.0832C14.0277 6.19111 13.9951 6.29544 13.9271 6.39618L12.1054 9.08478L13.636 11.9441C13.6967 12.0504 13.7175 12.1565 13.6986 12.2626C13.6795 12.3688 13.6371 12.462 13.5713 12.5423C13.5055 12.6225 13.4237 12.6807 13.3257 12.7169C13.2277 12.7532 13.1208 12.7555 13.005 12.7238L9.88442 11.8236Z" fill="#FBE5B9"/>
<defs>
<filter id="filter0_f_214_961" x="-2.81334e-05" y="-2.81334e-05" width="35.1161" height="17.6919" filterUnits="userSpaceOnUse" color-interpolation-filters="sRGB">
<feFlood flood-opacity="0" result="BackgroundImageFix"/>
<feBlend mode="normal" in="SourceGraphic" in2="BackgroundImageFix" result="shape"/>
<feGaussianBlur stdDeviation="1.68269" result="effect1_foregroundBlur_214_961"/>
</filter>
</defs>
</svg>
