<svg width="33" height="13" viewBox="0 0 33 13" fill="none" xmlns="http://www.w3.org/2000/svg">
<g filter="url(#filter0_f_210_1928)">
<path d="M7.22147 3.36709C9.71499 3.28306 11.242 6.27477 11.0411 8.35381C11.0174 8.59829 11.0089 8.84388 10.9657 9.07995C10.9634 9.09258 10.9591 9.10494 10.9524 9.11501C10.9457 9.12509 10.9368 9.13206 10.9269 9.13444C10.917 9.13683 10.9066 9.13453 10.897 9.12836C10.8875 9.12219 10.8798 9.1124 10.873 9.1022C10.7518 8.9206 10.6208 8.74272 10.4916 8.57437C9.28752 7.00428 8.19181 6.43716 7.20818 6.47908C7.20163 6.47936 7.19503 6.47941 7.18842 6.47908C6.20091 6.43054 5.11213 6.98874 3.92018 8.57013C3.79234 8.73975 3.66278 8.91877 3.54316 9.10177C3.53646 9.11203 3.52893 9.12188 3.51943 9.12815C3.50994 9.13441 3.49953 9.13683 3.48961 9.13455C3.47966 9.13227 3.47073 9.12536 3.46394 9.11534C3.45715 9.10533 3.45284 9.09301 3.45046 9.08039C3.40599 8.84463 3.38155 8.60082 3.37123 8.35511C3.32531 7.26188 3.54395 6.09826 4.19498 5.07043C4.84285 4.0476 6.05328 3.34352 7.18048 3.36709C7.19415 3.36737 7.20784 3.36755 7.22147 3.36709Z" fill="#F1F8F4"/>
<path d="M24.9148 3.36709C27.4083 3.28306 28.9353 6.27477 28.7344 8.35381C28.7108 8.59829 28.7023 8.84388 28.6591 9.07995C28.6568 9.09258 28.6525 9.10494 28.6458 9.11501C28.6391 9.12509 28.6302 9.13206 28.6203 9.13444C28.6104 9.13683 28.5999 9.13453 28.5904 9.12836C28.5808 9.12219 28.5732 9.1124 28.5664 9.1022C28.4451 8.9206 28.3141 8.74272 28.185 8.57437C26.9809 7.00428 25.8852 6.43716 24.9015 6.47908C24.895 6.47936 24.8884 6.47941 24.8818 6.47908C23.8943 6.43054 22.8055 6.98874 21.6135 8.57013C21.4857 8.73975 21.3561 8.91877 21.2365 9.10177C21.2298 9.11203 21.2223 9.12188 21.2128 9.12815C21.2033 9.13441 21.1929 9.13683 21.183 9.13455C21.173 9.13227 21.1641 9.12536 21.1573 9.11534C21.1505 9.10533 21.1462 9.09301 21.1438 9.08039C21.0993 8.84463 21.0749 8.60082 21.0646 8.35511C21.0187 7.26188 21.2373 6.09826 21.8883 5.07043C22.5362 4.0476 23.7466 3.34352 24.8738 3.36709C24.8875 3.36737 24.9012 3.36755 24.9148 3.36709Z" fill="#F1F8F4"/>
</g>
<path d="M7.22147 3.36709C9.71499 3.28306 11.242 6.27477 11.0411 8.35381C11.0174 8.59829 11.0089 8.84388 10.9657 9.07995C10.9634 9.09258 10.9591 9.10494 10.9524 9.11501C10.9457 9.12509 10.9368 9.13206 10.9269 9.13444C10.917 9.13683 10.9066 9.13453 10.897 9.12836C10.8875 9.12219 10.8798 9.1124 10.873 9.1022C10.7518 8.9206 10.6208 8.74272 10.4916 8.57437C9.28752 7.00428 8.19181 6.43716 7.20818 6.47908C7.20163 6.47936 7.19503 6.47941 7.18842 6.47908C6.20091 6.43054 5.11213 6.98874 3.92018 8.57013C3.79234 8.73975 3.66278 8.91877 3.54316 9.10177C3.53646 9.11203 3.52893 9.12188 3.51943 9.12815C3.50994 9.13441 3.49953 9.13683 3.48961 9.13455C3.47966 9.13227 3.47073 9.12536 3.46394 9.11534C3.45715 9.10533 3.45284 9.09301 3.45046 9.08039C3.40599 8.84463 3.38155 8.60082 3.37123 8.35511C3.32531 7.26188 3.54395 6.09826 4.19498 5.07043C4.84285 4.0476 6.05328 3.34352 7.18048 3.36709C7.19415 3.36737 7.20784 3.36755 7.22147 3.36709Z" fill="#F1F8F4"/>
<path d="M24.9148 3.36709C27.4083 3.28306 28.9353 6.27477 28.7344 8.35381C28.7108 8.59829 28.7023 8.84388 28.6591 9.07995C28.6568 9.09258 28.6525 9.10494 28.6458 9.11501C28.6391 9.12509 28.6302 9.13206 28.6203 9.13444C28.6104 9.13683 28.5999 9.13453 28.5904 9.12836C28.5808 9.12219 28.5732 9.1124 28.5664 9.1022C28.4451 8.9206 28.3141 8.74272 28.185 8.57437C26.9809 7.00428 25.8852 6.43716 24.9015 6.47908C24.895 6.47936 24.8884 6.47941 24.8818 6.47908C23.8943 6.43054 22.8055 6.98874 21.6135 8.57013C21.4857 8.73975 21.3561 8.91877 21.2365 9.10177C21.2298 9.11203 21.2223 9.12188 21.2128 9.12815C21.2033 9.13441 21.1929 9.13683 21.183 9.13455C21.173 9.13227 21.1641 9.12536 21.1573 9.11534C21.1505 9.10533 21.1462 9.09301 21.1438 9.08039C21.0993 8.84463 21.0749 8.60082 21.0646 8.35511C21.0187 7.26188 21.2373 6.09826 21.8883 5.07043C22.5362 4.0476 23.7466 3.34352 24.8738 3.36709C24.8875 3.36737 24.9012 3.36755 24.9148 3.36709Z" fill="#F1F8F4"/>
<defs>
<filter id="filter0_f_210_1928" x="-2.81334e-05" y="-2.81334e-05" width="32.1175" height="12.5008" filterUnits="userSpaceOnUse" color-interpolation-filters="sRGB">
<feFlood flood-opacity="0" result="BackgroundImageFix"/>
<feBlend mode="normal" in="SourceGraphic" in2="BackgroundImageFix" result="shape"/>
<feGaussianBlur stdDeviation="1.68269" result="effect1_foregroundBlur_210_1928"/>
</filter>
</defs>
</svg>
