<svg width="35" height="17" viewBox="0 0 35 17" fill="none" xmlns="http://www.w3.org/2000/svg">
<g filter="url(#filter0_f_210_1930)">
<path d="M12.6964 4.62404C12.8844 4.81201 12.8844 5.11677 12.6964 5.30473L10.2381 7.76289C10.0501 7.95085 10.0501 8.2556 10.2381 8.44357L12.6963 10.9019C12.8842 11.0899 12.8842 11.3946 12.6963 11.5826L11.5826 12.6964C11.3946 12.8844 11.0899 12.8844 10.9019 12.6964L8.44357 10.2381C8.2556 10.0501 7.95084 10.0501 7.76288 10.2381L5.30473 12.6964C5.11677 12.8844 4.81201 12.8844 4.62404 12.6964L3.51019 11.5826C3.32223 11.3946 3.32222 11.0899 3.51018 10.9019L5.96837 8.44356C6.15633 8.25559 6.15632 7.95085 5.96836 7.76289L3.5102 5.30473C3.32224 5.11677 3.32224 4.81202 3.5102 4.62405L4.62405 3.5102C4.81202 3.32224 5.11677 3.32224 5.30473 3.5102L7.76289 5.96836C7.95085 6.15632 8.25559 6.15633 8.44356 5.96837L10.9019 3.51018C11.0899 3.32222 11.3946 3.32223 11.5826 3.51019L12.6964 4.62404Z" fill="#F1F8F4"/>
<path d="M30.5052 4.6241C30.6932 4.81207 30.6932 5.11683 30.5052 5.30479L28.0469 7.76295C27.8589 7.95091 27.8589 8.25566 28.0469 8.44363L30.5051 10.902C30.693 11.09 30.693 11.3947 30.5051 11.5826L29.3914 12.6965C29.2034 12.8844 28.8986 12.8845 28.7107 12.6965L26.2523 10.2382C26.0644 10.0502 25.7596 10.0502 25.5717 10.2382L23.1135 12.6965C22.9255 12.8845 22.6208 12.8845 22.4328 12.6965L21.319 11.5826C21.131 11.3947 21.131 11.0899 21.319 10.902L23.7771 8.44362C23.9651 8.25565 23.9651 7.95091 23.7771 7.76295L21.319 5.30479C21.131 5.11683 21.131 4.81208 21.319 4.62411L22.4328 3.51026C22.6208 3.3223 22.9255 3.3223 23.1135 3.51026L25.5717 5.96842C25.7596 6.15638 26.0644 6.15639 26.2523 5.96843L28.7107 3.51024C28.8987 3.32229 29.2034 3.32229 29.3914 3.51025L30.5052 4.6241Z" fill="#F1F8F4"/>
</g>
<path d="M12.6964 4.62404C12.8844 4.81201 12.8844 5.11677 12.6964 5.30473L10.2381 7.76289C10.0501 7.95085 10.0501 8.2556 10.2381 8.44357L12.6963 10.9019C12.8842 11.0899 12.8842 11.3946 12.6963 11.5826L11.5826 12.6964C11.3946 12.8844 11.0899 12.8844 10.9019 12.6964L8.44357 10.2381C8.2556 10.0501 7.95084 10.0501 7.76288 10.2381L5.30473 12.6964C5.11677 12.8844 4.81201 12.8844 4.62404 12.6964L3.51019 11.5826C3.32223 11.3946 3.32222 11.0899 3.51018 10.9019L5.96837 8.44356C6.15633 8.25559 6.15632 7.95085 5.96836 7.76289L3.5102 5.30473C3.32224 5.11677 3.32224 4.81202 3.5102 4.62405L4.62405 3.5102C4.81202 3.32224 5.11677 3.32224 5.30473 3.5102L7.76289 5.96836C7.95085 6.15632 8.25559 6.15633 8.44356 5.96837L10.9019 3.51018C11.0899 3.32222 11.3946 3.32223 11.5826 3.51019L12.6964 4.62404Z" fill="#F1F8F4"/>
<path d="M30.5052 4.6241C30.6932 4.81207 30.6932 5.11683 30.5052 5.30479L28.0469 7.76295C27.8589 7.95091 27.8589 8.25566 28.0469 8.44363L30.5051 10.902C30.693 11.09 30.693 11.3947 30.5051 11.5826L29.3914 12.6965C29.2034 12.8844 28.8986 12.8845 28.7107 12.6965L26.2523 10.2382C26.0644 10.0502 25.7596 10.0502 25.5717 10.2382L23.1135 12.6965C22.9255 12.8845 22.6208 12.8845 22.4328 12.6965L21.319 11.5826C21.131 11.3947 21.131 11.0899 21.319 10.902L23.7771 8.44362C23.9651 8.25565 23.9651 7.95091 23.7771 7.76295L21.319 5.30479C21.131 5.11683 21.131 4.81208 21.319 4.62411L22.4328 3.51026C22.6208 3.3223 22.9255 3.3223 23.1135 3.51026L25.5717 5.96842C25.7596 6.15638 26.0644 6.15639 26.2523 5.96843L28.7107 3.51024C28.8987 3.32229 29.2034 3.32229 29.3914 3.51025L30.5052 4.6241Z" fill="#F1F8F4"/>
<defs>
<filter id="filter0_f_210_1930" x="8.34465e-06" y="8.34465e-06" width="34.0154" height="16.2066" filterUnits="userSpaceOnUse" color-interpolation-filters="sRGB">
<feFlood flood-opacity="0" result="BackgroundImageFix"/>
<feBlend mode="normal" in="SourceGraphic" in2="BackgroundImageFix" result="shape"/>
<feGaussianBlur stdDeviation="1.6846" result="effect1_foregroundBlur_210_1930"/>
</filter>
</defs>
</svg>
