<svg width="31" height="47" viewBox="0 0 31 47" fill="none" xmlns="http://www.w3.org/2000/svg">
<path d="M5.20001 34.429C5.20003 32.0504 25.6536 32.0504 25.6536 34.429C25.6536 42.6896 18.8026 46.0692 15.2 46.0692C11.5974 46.0692 5.19994 42.919 5.20001 34.429Z" fill="#BAD3CA"/>
<path d="M5 29.7577H25.9348L25.1302 33.7907C25.1302 33.7907 22.0848 39.1423 15.4674 39.1423C8.85009 39.1423 5.80461 33.7907 5.80461 33.7907L5 29.7577Z" fill="#152828"/>
<path d="M5.36108 31.5627C8.27329 36.4235 22.0297 37.001 25.574 31.5627L25.0446 34.2097C25.0446 34.2097 22.1597 39.5164 15.5424 39.5164C8.92504 39.5164 5.87956 34.1647 5.87956 34.1647L5.36108 31.5627Z" fill="#2A5050"/>
<path d="M5.7702 33.6085C11.425 39.9852 19.438 40.3462 25.1674 33.6085L25.0447 34.2101C25.0447 34.2101 22.1142 39.6726 15.4221 39.5281C8.72995 39.3836 5.87848 34.162 5.87848 34.162L5.7702 33.6085Z" fill="#468586"/>
<path d="M1.2768 5.6039L6.35835 3.96138C6.93191 3.77599 7.44991 3.44991 7.86507 3.01289L8.37539 2.47571H15.474H22.4618L23.1166 3.10401C23.5108 3.48231 23.9857 3.76617 24.5056 3.93421L29.6712 5.6039C29.6712 5.6039 37.251 33.7577 15.474 33.7577C-6.30303 33.7577 1.2768 5.6039 1.2768 5.6039Z" fill="#D2E3DD"/>
<path d="M9.14358 0.0692139H21.6564L22.8595 3.67867C22.8595 3.67867 22.8595 7.28813 15.4 7.28813C7.94043 7.28813 7.94043 3.67867 7.94043 3.67867L9.14358 0.0692139Z" fill="#2A5050"/>
<path d="M8.06074 3.31799C8.06074 3.31799 9.14358 6.4462 15.4 6.4462C21.7767 6.32588 22.7392 3.31799 22.7392 3.31799L22.8595 3.67894C22.8595 3.67894 22.8595 7.28839 15.4 7.28839C7.94043 7.28839 7.94043 3.67894 7.94043 3.67894L8.06074 3.31799Z" fill="#468586"/>
<path d="M9.14352 0.0692139H21.6563L22.4576 2.47552C19.3703 3.67867 11.7904 3.55835 8.34222 2.47552L9.14352 0.0692139Z" fill="#152828"/>
</svg>
