<svg width="42" height="49" viewBox="0 0 42 49" fill="none" xmlns="http://www.w3.org/2000/svg">
<path d="M12.3826 5.49219L11.4034 10.3872L11.4034 14.8734L18.0307 23.0854L23.2207 18.8856L12.3826 5.49219Z" fill="#0E1B1B"/>
<path d="M7.9087 1.89641C7.28721 2.36265 6.83751 2.87717 6.53589 3.42556C9.38009 7.14462 11.4571 9.13448 11.4069 13.4235C14.0614 15.435 16.9593 16.5513 18.203 15.6183C21.3778 13.2365 14.7465 -3.23329 7.9087 1.89641Z" fill="#070D0D"/>
<ellipse cx="26.3708" cy="16.177" rx="5.0395" ry="10.8744" transform="rotate(48.4359 26.3708 16.177)" fill="#819D92"/>
<path d="M34.6454 6.26062C33.6823 7.64719 33.8479 8.80897 32.5153 7.79562C31.6455 7.13425 32.1455 4.26062 32.6456 2.76057C32.6456 2.76057 29.6455 2.2607 30.6455 0.760686C31.7489 -0.894595 38.0143 1.41077 34.6454 6.26062Z" fill="#A9C1B8"/>
<path d="M35.6015 4.60876L33.0056 7.81705C33.0056 7.81705 32.7704 7.84167 32.716 7.83183C33.5784 5.85677 34.7965 4.59829 35.7759 4.18586L35.6015 4.60876Z" fill="#8EADA1"/>
<path d="M37.8696 6.77701C36.2076 9.01332 34.8603 10.8262 33.5029 9.84262C32.1454 8.85903 33.4927 7.04614 35.1547 4.80983C36.8166 2.57351 38.7717 1.20099 39.5214 1.74421C40.2711 2.28743 39.5316 4.54069 37.8696 6.77701Z" fill="#A9C1B8"/>
<path d="M39.1495 4.75924L34.5689 10.1293C34.5689 10.1293 34.1372 10.1576 34.0363 10.1375C35.5012 6.7877 37.6661 4.69318 39.4443 4.04138L39.1495 4.75924Z" fill="#8EADA1"/>
<path d="M39.3146 8.80432C37.6489 11.0457 36.2985 12.8628 34.941 11.8792C33.5836 10.8956 34.9339 9.07855 36.5997 6.83714C38.2655 4.59572 40.2236 3.21906 40.9733 3.76228C41.723 4.3055 40.9804 6.5629 39.3146 8.80432Z" fill="#A9C1B8"/>
<path d="M30.4739 5.88949L26.8848 5.22127C24.683 9.90326 27.4059 15.5559 31.763 15.5424C35.1037 15.137 35.9155 13.2606 37.9155 10.6214C36.7947 7.85423 35.1873 6.88888 32.1054 5.26061L30.4739 5.88949Z" fill="#0E1B1B"/>
<path d="M34.1199 14.8398C29.4262 15.0787 27.4056 12.0754 26.1128 8.34741C25.9058 11.8268 28.2101 15.5998 31.6954 15.5381C32.7027 15.5048 33.5112 15.1893 34.1199 14.8398Z" fill="#2A5050"/>
<path d="M29.1456 5.26067C30.6456 6.76067 30.1275 10.3084 28.1458 10.2607C24.85 10.1814 26.3419 5.41118 26.6186 3.99133C26.981 2.13025 28.9534 0.998964 30.1454 1.76062C31.3371 2.52225 29.1456 5.26067 29.1456 5.26067Z" fill="#A9C1B8"/>
<path d="M7.87673 0.992495C1.05406 6.14227 15.0434 17.0752 18.2113 14.6841C21.3791 12.2929 14.6994 -4.15728 7.87673 0.992495Z" fill="#819D92"/>
</svg>
