<svg width="40" height="59" viewBox="0 0 40 59" fill="none" xmlns="http://www.w3.org/2000/svg">
<path d="M10.9841 14.1113L9.8755 20.6941L22.567 28.5079L25.9051 22.726L10.9841 14.1113Z" fill="#0E1B1B"/>
<path d="M20.4092 19.5332C20.445 19.9582 20.3934 20.346 20.2373 20.6807C19.4635 22.3395 16.1525 22.9016 12.6504 22.4029L8.48242 19.8404L10.8125 13.9932L20.4092 19.5332Z" fill="#070D0D"/>
<ellipse cx="26.3824" cy="18.5545" rx="5.0395" ry="10.8744" transform="rotate(21.4175 26.3824 18.5545)" fill="#819D92"/>
<path d="M30.4312 4.30406C29.9073 6.39543 29.4826 8.09082 27.7873 7.60494C26.0921 7.11906 26.5168 5.42367 27.0407 3.3323C27.5646 1.24092 28.7482 -0.236932 29.6845 0.0314115C30.6208 0.299755 30.9551 2.21268 30.4312 4.30406Z" fill="#A9C1B8"/>
<path d="M26.2127 7.35405L22.7272 8.43985C22.9676 13.6081 28.0156 17.3341 31.8618 15.2868C34.6263 13.3677 34.1751 11.8052 34.7761 8.43985C32.4924 6.51677 30.0589 5.91174 26.5733 5.91174L26.2127 7.35405Z" fill="#152828"/>
<path d="M26.2127 7.35405L22.7272 8.43985C22.9676 13.6081 28.0156 17.3341 31.8618 15.2868C34.6263 13.3677 34.1751 11.8052 34.7761 8.43985C32.4924 6.51677 30.0589 5.91174 26.5733 5.91174L26.2127 7.35405Z" fill="#0E1B1B"/>
<path d="M33.6176 13.5646C29.5791 15.9684 26.3896 14.2569 23.505 11.5646C24.9473 14.7377 28.7473 16.9973 31.8002 15.3146C32.6752 14.8146 33.2427 14.158 33.6176 13.5646Z" fill="#2A5050"/>
<path d="M31.4525 8.48465C31.8589 6.84604 32.1883 5.51768 33.7944 5.99017C35.4005 6.46267 35.0711 7.79103 34.6647 9.42964C34.2583 11.0682 33.2098 12.1851 32.3227 11.9241C31.4357 11.6632 31.0461 10.1233 31.4525 8.48465Z" fill="#A9C1B8"/>
<path d="M31.2819 9.99792L32.7003 5.96668C32.7003 5.96668 33.044 5.89314 33.1361 5.89314C33.4002 8.2292 32.5348 9.85004 31.3542 10.4961L31.2819 9.99792Z" fill="#8EADA1"/>
<path d="M29.4003 7.08609C29.8222 5.44871 30.1642 4.12135 31.7166 4.57805C33.269 5.03475 32.927 6.36211 32.5051 7.99949C32.0832 9.63687 31.0462 10.7598 30.1888 10.5075C29.3314 10.2553 28.9784 8.72347 29.4003 7.08609Z" fill="#A9C1B8"/>
<path d="M26.4248 5.93921L26.7786 4.41703C27.4363 4.74496 27.896 5.26792 27.8628 5.90586C27.8622 5.91708 27.8615 5.92819 27.8605 5.93919C27.8596 5.95018 26.4248 5.93921 26.4248 5.93921Z" fill="#8EADA1"/>
<path d="M25.6897 7.23762C27.7329 8.80012 28.0152 11.5645 26.0921 12.0453C22.5146 12.9397 22.5551 8.19916 22.4445 6.75685C22.1679 3.15108 27.7253 3.99204 27.6128 6.15588C27.5532 7.3015 25.6897 7.23762 25.6897 7.23762Z" fill="#A9C1B8"/>
<path d="M3.7207 13.6732C0.540803 21.6159 18.1835 23.7425 19.66 20.0545C21.1364 16.3666 6.90061 5.73051 3.7207 13.6732Z" fill="#819D92"/>
</svg>
