<svg width="88" height="48" viewBox="0 0 88 48" fill="none" xmlns="http://www.w3.org/2000/svg">
<path d="M25.6362 7.0083L31.6541 9.91325L25.7282 22.1892L19.7104 19.2842L25.6362 7.0083Z" fill="#0E1B1B"/>
<path d="M25.6362 7.0083L31.6541 9.91325L30.007 13.3336C27.6007 14.8977 23.4031 15.6883 21.9349 14.6758L25.6362 7.0083Z" fill="#070D0D"/>
<path d="M19.5025 19.5385L20.5298 17.5853C22.2228 18.1019 24.1873 19.9823 26.5569 18.9196C26.845 18.7904 27.085 18.8184 27.2783 18.9756L26.2401 21.1026L19.5025 19.5385Z" fill="#2A5050"/>
<path d="M18.8406 18.454C20.8928 17.14 23.355 21.0772 26.5567 19.6413C29.7585 18.2055 27.021 36.1871 20.2222 35.1409C13.4235 34.0947 16.7884 19.7679 18.8406 18.454Z" fill="#819D92"/>
<path d="M18.2856 40.3382C18.652 38.2114 18.9491 36.4872 17.2003 36.2462C15.4515 36.0052 15.1545 37.7294 14.788 39.8563C14.4216 41.9831 14.9075 43.8152 15.8733 43.9483C16.8391 44.0814 17.9191 42.4651 18.2856 40.3382Z" fill="#A9C1B8"/>
<path d="M17.6616 42.6132L18.8492 36.8408C18.8451 36.6598 18.6486 36.5276 18.6486 36.5276C17.0257 39.0191 16.9068 41.3522 17.6616 42.6132Z" fill="#8EADA1"/>
<path d="M20.9057 41.5519C21.2722 39.425 21.5692 37.7008 19.9091 37.4721C18.2489 37.2433 17.9518 38.9674 17.5854 41.0943C17.2189 43.2212 17.6652 45.0477 18.582 45.1741C19.4989 45.3004 20.5393 43.6787 20.9057 41.5519Z" fill="#A9C1B8"/>
<path d="M20.3929 42.9713L21.5806 37.1989C21.5764 37.0179 21.3799 36.8858 21.3799 36.8858C19.757 39.3773 19.6381 41.7103 20.3929 42.9713Z" fill="#8EADA1"/>
<path d="M23.707 41.0954C24.1919 38.9886 24.5849 37.2808 22.9972 36.9596C21.4095 36.6384 21.0165 38.3462 20.5317 40.453C20.0468 42.5597 20.3646 44.4114 21.2415 44.5888C22.1183 44.7662 23.2222 43.2021 23.707 41.0954Z" fill="#A9C1B8"/>
<path d="M15.6569 35.8411L12.9048 33.4367C15.2159 28.8018 21.3455 27.4326 24.0387 30.8633C25.7936 33.7388 24.9413 35.0722 24.1299 38.3967C21.2609 39.2336 18.595 38.7178 15.4036 37.3076L15.6569 35.8411Z" fill="#0E1B1B"/>
<path d="M24.9612 33.0353C22.2361 29.2004 18.6332 29.5718 14.9027 30.8699C17.5071 28.5481 21.9804 28.0938 24.0948 30.8696C24.6204 31.7538 24.858 32.3403 24.9612 33.0353Z" fill="#070D0D"/>
<path d="M15.4996 35.8987C18.0026 35.2947 19.011 32.7149 17.4447 31.4967C14.5309 29.2303 12.1766 34.1672 11.4917 35.4431C10.8069 36.7189 10.7799 37.9773 11.5838 38.5091C12.3878 39.0409 14.051 38.2839 15.4996 35.8987Z" fill="#A9C1B8"/>
<path d="M34.3959 1.39737C40.4456 7.44708 25.0644 16.3468 22.2554 13.5378C19.4464 10.7288 28.3462 -4.65233 34.3959 1.39737Z" fill="#819D92"/>
<path d="M62.3638 7.0083L56.3459 9.91325L62.2718 22.1892L68.2896 19.2842L62.3638 7.0083Z" fill="#0E1B1B"/>
<path d="M62.3638 7.0083L56.3459 9.91325L57.993 13.3336C60.3993 14.8977 64.5969 15.6883 66.0651 14.6758L62.3638 7.0083Z" fill="#070D0D"/>
<path d="M68.4975 19.5385L67.4702 17.5853C65.7772 18.1019 63.8127 19.9823 61.4431 18.9196C61.155 18.7904 60.915 18.8184 60.7217 18.9756L61.7599 21.1026L68.4975 19.5385Z" fill="#2A5050"/>
<path d="M69.1594 18.454C67.1072 17.14 64.645 21.0772 61.4433 19.6413C58.2415 18.2055 60.979 36.1871 67.7778 35.1409C74.5765 34.0947 71.2116 19.7679 69.1594 18.454Z" fill="#819D92"/>
<path d="M69.7144 40.3382C69.348 38.2114 69.0509 36.4872 70.7997 36.2462C72.5485 36.0052 72.8455 37.7294 73.212 39.8563C73.5784 41.9831 73.0925 43.8152 72.1267 43.9483C71.1609 44.0814 70.0809 42.4651 69.7144 40.3382Z" fill="#A9C1B8"/>
<path d="M70.3384 42.6132L69.1508 36.8408C69.1549 36.6598 69.3514 36.5276 69.3514 36.5276C70.9743 39.0191 71.0932 41.3522 70.3384 42.6132Z" fill="#8EADA1"/>
<path d="M67.0943 41.5519C66.7278 39.425 66.4308 37.7008 68.0909 37.4721C69.7511 37.2433 70.0482 38.9674 70.4146 41.0943C70.7811 43.2212 70.3348 45.0477 69.418 45.1741C68.5011 45.3004 67.4607 43.6787 67.0943 41.5519Z" fill="#A9C1B8"/>
<path d="M67.6071 42.9713L66.4194 37.1989C66.4236 37.0179 66.6201 36.8858 66.6201 36.8858C68.243 39.3773 68.3619 41.7103 67.6071 42.9713Z" fill="#8EADA1"/>
<path d="M64.293 41.0954C63.8081 38.9886 63.4151 37.2808 65.0028 36.9596C66.5905 36.6384 66.9835 38.3462 67.4683 40.453C67.9532 42.5597 67.6354 44.4114 66.7585 44.5888C65.8817 44.7662 64.7778 43.2021 64.293 41.0954Z" fill="#A9C1B8"/>
<path d="M72.3431 35.8411L75.0952 33.4367C72.7841 28.8018 66.6545 27.4326 63.9613 30.8633C62.2064 33.7388 63.0587 35.0722 63.8701 38.3967C66.7391 39.2336 69.405 38.7178 72.5964 37.3076L72.3431 35.8411Z" fill="#0E1B1B"/>
<path d="M63.0388 33.0353C65.7639 29.2004 69.3668 29.5718 73.0973 30.8699C70.4929 28.548 66.0196 28.0937 63.9051 30.8696C63.3796 31.7538 63.142 32.3403 63.0388 33.0353Z" fill="#070D0D"/>
<path d="M72.5004 35.8987C69.9974 35.2947 68.989 32.7149 70.5553 31.4967C73.4691 29.2303 75.8234 34.1672 76.5083 35.4431C77.1931 36.7189 77.2201 37.9773 76.4162 38.5091C75.6122 39.0409 73.949 38.2839 72.5004 35.8987Z" fill="#A9C1B8"/>
<path d="M53.4488 1.39737C47.3991 7.44708 62.7803 16.3468 65.5893 13.5378C68.3983 10.7288 59.4985 -4.65233 53.4488 1.39737Z" fill="#819D92"/>
</svg>
