<svg width="88" height="47" viewBox="0 0 88 47" fill="none" xmlns="http://www.w3.org/2000/svg">
<path d="M35.2239 24.2888H52.7239L51.8836 32.1319C51.6506 34.3065 49.8154 35.9555 47.6284 35.9555H40.3194C38.1323 35.9555 36.2972 34.3065 36.0642 32.1319L35.2239 24.2888Z" fill="#774A2F"/>
<mask id="mask0_2072_13555" style="mask-type:alpha" maskUnits="userSpaceOnUse" x="35" y="24" width="18" height="12">
<path d="M35.2239 24.2888H52.7239L51.8836 32.1319C51.6506 34.3065 49.8154 35.9555 47.6284 35.9555H40.3194C38.1323 35.9555 36.2972 34.3065 36.0642 32.1319L35.2239 24.2888Z" fill="#D9D9D9"/>
</mask>
<g mask="url(#mask0_2072_13555)">
<ellipse cx="43.974" cy="27.2053" rx="9.58333" ry="2.5" fill="#452A1A"/>
</g>
<path d="M34.3906 23.0388H53.5573V26.3496C53.5573 26.8223 53.1741 27.2055 52.7014 27.2055H35.2465C34.7738 27.2055 34.3906 26.8223 34.3906 26.3496V23.0388Z" fill="#774A2F"/>
<ellipse cx="43.974" cy="26.3721" rx="9.58333" ry="2.5" fill="#774A2F"/>
<ellipse cx="43.974" cy="23.0388" rx="9.58333" ry="2.5" fill="#945B38"/>
<mask id="mask1_2072_13555" style="mask-type:alpha" maskUnits="userSpaceOnUse" x="35" y="21" width="18" height="4">
<ellipse cx="43.9739" cy="23.0387" rx="8.75" ry="1.66667" fill="#643C25"/>
</mask>
<g mask="url(#mask1_2072_13555)">
<ellipse cx="43.9739" cy="23.0387" rx="8.75" ry="1.66667" fill="#643C25"/>
<ellipse cx="43.9739" cy="23.872" rx="8.75" ry="1.66667" fill="#2D2316"/>
</g>
<path d="M51.9034 16.6201C48.2942 19.7719 44.3556 19.0626 44.3556 19.0626C44.3556 19.0626 44.1831 15.0644 47.7923 11.9125C51.7152 8.48658 55.34 9.47 55.34 9.47C55.34 9.47 55.8264 13.1942 51.9034 16.6201Z" fill="#6EA818"/>
<path d="M35.9921 16.6201C39.6013 19.7719 43.5399 19.0626 43.5399 19.0626C43.5399 19.0626 43.7124 15.0644 40.1033 11.9125C36.1803 8.48658 32.5555 9.47 32.5555 9.47C32.5555 9.47 32.0692 13.1942 35.9921 16.6201Z" fill="#6EA818"/>
<path d="M51.5 12.7468C51.2997 12.8416 51.0949 12.946 50.8955 13.0543C47.427 14.9754 44.0658 18.457 44.4437 22.5071C44.4635 22.7275 44.4926 22.9363 44.5324 23.1543C44.5568 23.2888 44.528 23.426 44.4495 23.5359C44.3712 23.6458 44.2497 23.7197 44.1144 23.7407C43.9791 23.7618 43.8419 23.728 43.7359 23.6467C43.6298 23.5655 43.5635 23.4433 43.5488 23.3073C43.5208 23.0547 43.5052 22.8133 43.5002 22.5598C43.4652 17.8486 47.2973 14.6829 50.8742 13.0077C51.0814 12.9145 51.2934 12.8257 51.5 12.7468Z" fill="#4A7610"/>
<path d="M35.5 12.7468C35.7253 12.8416 35.9558 12.946 36.18 13.0543C40.0821 14.9754 43.8634 18.457 43.4384 22.5071C43.416 22.7275 43.3833 22.9363 43.3386 23.1543C43.3111 23.2888 43.3435 23.426 43.4318 23.5359C43.5199 23.6458 43.6566 23.7197 43.8088 23.7407C43.961 23.7618 44.1153 23.728 44.2346 23.6467C44.3539 23.5655 44.4286 23.4433 44.4451 23.3073C44.4766 23.0547 44.4941 22.8133 44.4997 22.5598C44.5392 17.8486 40.228 14.6829 36.2041 13.0077C35.971 12.9145 35.7324 12.8257 35.5 12.7468Z" fill="#4A7610"/>
<rect x="23.7869" y="6.84521" width="6.67546" height="13.6174" transform="rotate(19.4736 23.7869 6.84521)" fill="#2A5050"/>
<path d="M30.0812 9.07071L25.5416 21.9092L20.5107 20.1302L19.0691 19.959L19.8753 17.907C19.8755 17.9071 19.8758 17.9071 19.876 17.9072L23.7875 6.8453L30.0812 9.07071Z" fill="#0E1B1B"/>
<path d="M22.74 9.81453L21.5449 13.1879C21.4271 15.1772 22.2939 16.5514 23.2293 16.8598C24.4203 17.2524 26.1543 16.5831 27.7707 15.6165L29.0404 12.0426L22.74 9.81453Z" fill="#070D0D"/>
<path d="M19.0686 19.9582L19.8749 17.9063C21.6125 18.2338 23.5091 20.1824 26.0056 18.5711C27.4754 17.2978 26.7281 18.3795 26.7281 18.5477L25.9301 20.7734L19.0686 19.9582Z" fill="#2A5050"/>
<path d="M18.1121 19.9426C19.1939 17.1782 25.4014 22.6581 26.4582 19.3158C29.8134 22.7958 33.6137 29.8088 30.0818 32.7255C24.7832 37.1011 15.7605 25.9523 18.1121 19.9426Z" fill="#819D92"/>
<path d="M29.6407 34.4703C28.2503 33.4511 27.7375 31.6002 28.3586 29.992C29.4591 27.143 33.6579 27.759 33.8936 30.8041L33.918 31.1201L35.9515 33.1269L33.8482 36.77C32.045 36.1093 30.8835 35.3813 29.6407 34.4703Z" fill="#0E1B1B"/>
<path d="M29.0875 33.9643C28.2269 33.0511 27.7381 31.6001 28.3593 29.9919C28.9287 28.5178 30.3668 27.9024 31.5777 28.2089C29.1142 28.8701 27.8911 31.4693 29.0875 33.9643Z" fill="#070D0D"/>
<ellipse cx="34.5395" cy="29.6111" rx="1.74361" ry="3.41531" transform="rotate(-75 34.5395 29.6111)" fill="#A9C1B8"/>
<path d="M36.628 35.0349C38.5691 34.437 39.7764 34.8961 39.7764 35.7478C39.7764 36.5996 38.0477 37.592 36.3793 37.592C34.7108 37.592 33.3411 36.7433 33.3411 35.8915C33.3411 35.0398 34.6025 33.8655 36.628 35.0349Z" fill="#A9C1B8"/>
<path d="M33.7107 35.0643L39.3334 35.0614C39.694 35.1816 39.7581 35.5422 39.7581 35.5422C36.9763 37.0949 34.7764 36.5695 33.7107 35.0643Z" fill="#8EADA1"/>
<path d="M36.9284 33.1393C39.123 32.4633 40.4879 32.9823 40.4879 33.9453C40.4879 34.9083 38.5334 36.0303 36.6472 36.0303C34.761 36.0303 33.2124 35.0708 33.2124 34.1078C33.2124 33.1448 34.6385 31.8172 36.9284 33.1393Z" fill="#A9C1B8"/>
<path d="M30.8353 0.499266C38.608 4.05349 27.3117 17.7478 23.7027 16.0975C20.0936 14.4472 23.0625 -3.05495 30.8353 0.499266Z" fill="#819D92"/>
<rect width="6.67546" height="13.6174" transform="matrix(-0.942795 0.333373 0.333373 0.942795 64.1057 6.86011)" fill="#2A5050"/>
<path d="M57.8114 9.08561L62.351 21.924L67.3819 20.1451L68.8235 19.9739L68.0173 17.9219C68.017 17.9219 68.0168 17.922 68.0165 17.9221L64.105 6.86019L57.8114 9.08561Z" fill="#0E1B1B"/>
<path d="M65.1526 9.82943L66.3477 13.2028C66.4654 15.1921 65.5987 16.5663 64.6633 16.8747C63.4723 17.2673 61.7382 16.598 60.1218 15.6314L58.8522 12.0575L65.1526 9.82943Z" fill="#070D0D"/>
<path d="M68.824 19.9731L68.0177 17.9212C66.2801 18.2487 64.3835 20.1973 61.887 18.586C60.4172 17.3127 61.1645 18.3944 61.1645 18.5626L61.9625 20.7883L68.824 19.9731Z" fill="#2A5050"/>
<path d="M69.7804 19.9575C68.6987 17.1931 62.4912 22.673 61.4343 19.3307C58.0792 22.8107 54.2788 29.8237 57.8108 32.7404C63.1094 37.116 72.132 25.9672 69.7804 19.9575Z" fill="#819D92"/>
<path d="M58.2519 34.4852C59.6423 33.4659 60.1551 31.6151 59.5339 30.0069C58.4335 27.1579 54.2347 27.7739 53.999 30.819L53.9745 31.135L51.941 33.1418L54.0444 36.7849C55.8476 36.1242 57.0091 35.3962 58.2519 34.4852Z" fill="#0E1B1B"/>
<path d="M58.8051 33.9792C59.6657 33.066 60.1544 31.615 59.5333 30.0068C58.9639 28.5327 57.5258 27.9173 56.3149 28.2238C58.7784 28.885 60.0015 31.4842 58.8051 33.9792Z" fill="#070D0D"/>
<ellipse cx="1.74361" cy="3.41531" rx="1.74361" ry="3.41531" transform="matrix(-0.258819 -0.965926 -0.965926 0.258819 57.1033 30.4263)" fill="#A9C1B8"/>
<path d="M51.2646 35.0498C49.3235 34.4519 48.1161 34.911 48.1161 35.7627C48.1161 36.6145 49.8449 37.6069 51.5133 37.6069C53.1817 37.6069 54.5515 36.7582 54.5515 35.9064C54.5515 35.0547 53.2901 33.8804 51.2646 35.0498Z" fill="#A9C1B8"/>
<path d="M54.1819 35.0792L48.5591 35.0763C48.1986 35.1965 48.1345 35.557 48.1345 35.557C50.9162 37.1098 53.1161 36.5844 54.1819 35.0792Z" fill="#8EADA1"/>
<path d="M50.9641 33.1542C48.7696 32.4782 47.4047 32.9972 47.4047 33.9602C47.4047 34.9232 49.3591 36.0452 51.2454 36.0452C53.1316 36.0452 54.6802 35.0856 54.6802 34.1227C54.6802 33.1597 53.2541 31.8321 50.9641 33.1542Z" fill="#A9C1B8"/>
<path d="M57.2165 0.475096C49.4437 4.02932 60.7401 17.7237 64.3491 16.0734C67.9581 14.4231 64.9893 -3.07912 57.2165 0.475096Z" fill="#819D92"/>
</svg>
