<svg width="42" height="58" viewBox="0 0 42 58" fill="none" xmlns="http://www.w3.org/2000/svg">
<path d="M29.077 14.4656L30.0561 19.3606L30.0561 23.8468L23.4289 32.0588L18.2389 27.859L29.077 14.4656Z" fill="#0E1B1B"/>
<path d="M33.5509 10.8698C34.1724 11.336 34.6221 11.8506 34.9237 12.3989C32.0795 16.118 30.0025 18.1079 30.0527 22.3969C27.3982 24.4084 24.5003 25.5247 23.2566 24.5917C20.0818 22.2099 26.7131 5.74009 33.5509 10.8698Z" fill="#070D0D"/>
<ellipse cx="5.0395" cy="10.8744" rx="5.0395" ry="10.8744" transform="matrix(-0.663457 0.748214 0.748214 0.663457 10.2959 14.1652)" fill="#819D92"/>
<path d="M8.0406 12.611L11.5402 11.5712C14.2194 15.9973 12.1024 21.9036 7.76775 22.3457C4.40291 22.2918 3.90728 20.7429 1.53359 18.2827C2.35897 15.4135 3.01343 14.0062 5.90821 12.0647L8.0406 12.611Z" fill="#0E1B1B"/>
<path d="M5.3503 21.8934C10.0432 21.6403 11.7388 18.4422 12.6348 14.5995C13.2044 18.0381 11.3072 22.0314 7.83446 22.3344C6.82926 22.4066 5.99223 22.1774 5.3503 21.8934Z" fill="#2A5050"/>
<path d="M9.74617 11.7054C7.74304 13.1456 7.73107 15.5257 9.81909 15.8402C12.8333 16.1806 13.1355 11.1303 13.1355 11.1303L14.0735 8.76588C12.1358 8.01349 10.486 9.56034 9.74617 11.7054Z" fill="#A9C1B8"/>
<path d="M3.41997 16.1454C3.41997 14.1162 4.72043 12.3906 6.53325 11.7567C6.68965 11.702 6.79985 11.5572 6.79985 11.3915L6.79985 1.49693C6.79991 1.10805 7.11603 0.792831 7.50493 0.792831L8.91313 0.792831C9.30192 0.792948 9.61717 1.10813 9.61723 1.49693L9.61723 1.91978L10.6036 1.91978C10.9922 1.92005 11.3076 2.23516 11.3077 2.62389L11.3077 3.32799C11.3076 3.71672 10.9922 4.03183 10.6036 4.03209L9.61723 4.03209L9.61723 4.59557L10.6036 4.59557C10.9922 4.59583 11.3075 4.91099 11.3077 5.29967L11.3077 6.00377C11.3077 6.39254 10.9923 6.70761 10.6036 6.70787L9.61723 6.70787L9.61723 11.4999C9.61723 11.6568 9.71663 11.7957 9.86137 11.8563C11.5378 12.5582 12.7159 14.2142 12.7159 16.1454C12.7156 18.7121 10.6342 20.7928 8.06743 20.7928C5.50081 20.7926 3.4202 18.712 3.41997 16.1454ZM6.5186 17.5536C6.5187 18.409 7.21202 19.1022 8.06743 19.1024C8.92301 19.1024 9.61713 18.4091 9.61723 17.5536C9.61723 16.6979 8.92308 16.0038 8.06743 16.0038C7.21196 16.004 6.5186 16.6981 6.5186 17.5536Z" fill="#8A99A8"/>
<path d="M8.23474 10.6075L8.23474 2.08903" stroke="#596978" stroke-linecap="round"/>
<path d="M7.50488 1.29272C7.40555 1.29272 7.32283 1.3632 7.30371 1.45581L7.2998 1.49683L7.2998 11.3914C7.2998 11.785 7.04024 12.1086 6.69824 12.2283C5.07978 12.7942 3.91992 14.3352 3.91992 16.1453C3.92015 18.4357 5.77691 20.2925 8.06738 20.2927C10.3581 20.2927 12.2156 18.4358 12.2158 16.1453C12.2158 14.4227 11.1651 12.944 9.66797 12.3171L9.55371 12.2595C9.29702 12.1061 9.11719 11.8268 9.11719 11.4998L9.11719 6.20776L10.6035 6.20776L10.6445 6.20386C10.7378 6.1847 10.8076 6.10191 10.8076 6.00366L10.8076 5.29956L10.8037 5.25854C10.7874 5.17897 10.7243 5.1158 10.6445 5.09937L10.6035 5.09546L9.11719 5.09546L9.11719 3.53198L10.6035 3.53198L10.6445 3.52808C10.7377 3.50892 10.8076 3.42615 10.8076 3.32788L10.8076 2.62378L10.8037 2.58276C10.7874 2.50321 10.7244 2.44001 10.6445 2.42358L10.6035 2.41968L9.11719 2.41968L9.11719 1.49683L9.11328 1.45581C9.09697 1.37606 9.03394 1.31297 8.9541 1.29663L8.91309 1.29272L7.50488 1.29272ZM8.06738 16.5037C7.4883 16.5039 7.01855 16.9738 7.01855 17.5535C7.01866 18.1327 7.48803 18.6021 8.06738 18.6023C8.64716 18.6023 9.11708 18.1326 9.11719 17.5535C9.11719 16.974 8.64689 16.5037 8.06738 16.5037ZM8.06738 15.5037C9.19918 15.5037 10.1172 16.4217 10.1172 17.5535C10.1171 18.6855 9.19876 19.6023 8.06738 19.6023C6.936 19.602 6.01869 18.6851 6.01855 17.5535C6.01855 16.4221 6.93558 15.5039 8.06738 15.5037ZM8.91309 0.292725C9.55192 0.292917 10.0734 0.790693 10.1133 1.41968L10.6035 1.41968C11.2678 1.42013 11.8075 1.95869 11.8076 2.62378L11.8076 3.32788C11.8076 3.73661 11.6032 4.0966 11.292 4.31421C11.6029 4.53188 11.8075 4.89118 11.8076 5.29956L11.8076 6.00366C11.8076 6.66891 11.2678 7.20731 10.6035 7.20776L10.1172 7.20776L10.1172 11.4246C11.9389 12.2165 13.2158 14.0301 13.2158 16.1453C13.2156 18.9882 10.9102 21.2927 8.06738 21.2927C5.22466 21.2925 2.92018 18.988 2.91992 16.1453C2.91992 13.9228 4.32856 12.0314 6.2998 11.3103L6.2998 1.49683C6.29991 0.831049 6.84067 0.292725 7.50488 0.292725L8.91309 0.292725Z" fill="#596978"/>
<path d="M4.31885 16.4685C3.0686 15.3341 2.05507 14.4144 0.984402 15.7014C-0.0862662 16.9884 0.927261 17.9081 2.17751 19.0426C3.42776 20.1771 4.92064 20.5206 5.51195 19.8098C6.10327 19.099 5.56909 17.603 4.31885 16.4685Z" fill="#A9C1B8"/>
<path d="M5.30343 17.6303L1.87991 15.0725C1.87991 15.0725 1.55353 15.2028 1.47701 15.2542C2.55896 17.3413 4.18047 18.2054 5.5208 18.0843L5.30343 17.6303Z" fill="#8EADA1"/>
<path d="M5.24414 14.1639C3.9817 13.039 2.9583 12.1272 1.92342 13.3712C0.888542 14.6152 1.91194 15.527 3.17437 16.6519C4.4368 17.7767 5.92354 18.1316 6.49509 17.4446C7.06663 16.7575 6.50656 15.2887 5.24414 14.1639Z" fill="#A9C1B8"/>
<path d="M6.17721 15.3468L2.75369 12.789C2.75369 12.789 2.42731 12.9194 2.35079 12.9707C3.43274 15.0579 5.05425 15.922 6.39458 15.8009L6.17721 15.3468Z" fill="#8EADA1"/>
<path d="M6.11791 11.8803C4.85548 10.7554 3.83208 9.84358 2.7972 11.0876C1.76232 12.3316 2.78572 13.2435 4.04815 14.3683C5.31058 15.4932 6.79732 15.8481 7.36887 15.161C7.94041 14.474 7.38034 13.0051 6.11791 11.8803Z" fill="#A9C1B8"/>
<path d="M33.5826 9.96601C40.4053 15.1158 26.416 26.0487 23.2481 23.6576C20.0802 21.2664 26.7599 4.81623 33.5826 9.96601Z" fill="#819D92"/>
</svg>
