<svg width="110" height="80" viewBox="0 0 110 80" fill="none" xmlns="http://www.w3.org/2000/svg">
<path d="M96.597 37.0131L97.5762 41.908L97.5762 46.3943L90.9489 54.6063L85.7589 50.4065L96.597 37.0131Z" fill="#0E1B1B"/>
<path d="M101.071 33.4173C101.692 33.8835 102.142 34.398 102.444 34.9464C99.5995 38.6655 97.5225 40.6554 97.5727 44.9444C94.9182 46.9559 92.0203 48.0721 90.7767 47.1392C87.6018 44.7573 94.2331 28.2876 101.071 33.4173Z" fill="#070D0D"/>
<ellipse cx="5.0395" cy="10.8744" rx="5.0395" ry="10.8744" transform="matrix(-0.663457 0.748214 0.748214 0.663457 77.8159 36.7125)" fill="#819D92"/>
<path d="M76.1089 38.0395L79.6581 37.1843C82.1019 41.7446 79.6788 47.532 75.3269 47.7466C71.9695 47.5168 71.5556 45.944 69.3139 43.3629C70.2884 40.5409 71.0156 39.1698 74.008 37.3824L76.1089 38.0395Z" fill="#0E1B1B"/>
<path d="M72.9364 47.1686C77.6362 47.1614 79.4968 44.0565 80.5927 40.2659C80.9815 43.7296 78.8779 47.6181 75.3941 47.739C74.3865 47.7584 73.5626 47.4857 72.9364 47.1686Z" fill="#2A5050"/>
<rect width="25.052" height="3.70305" rx="1.85152" transform="matrix(0.203108 -0.979157 -0.979156 -0.203108 73.3427 51.7537)" fill="#4A325B"/>
<path d="M86.0945 28.2868C86.6791 25.4686 84.8684 22.7101 82.0502 22.1255L71.9443 20.0292L69.8273 30.2348L79.9332 32.3311C82.7514 32.9157 85.5099 31.1049 86.0945 28.2868Z" fill="#A582AB"/>
<path d="M61.3852 23.1612C61.1928 24.0886 61.7887 24.9964 62.7161 25.1888L63.6628 25.3852L64.3595 22.0266L63.4128 21.8302C62.4854 21.6379 61.5776 22.2337 61.3852 23.1612Z" fill="#4A325B"/>
<path d="M71.9454 20.0243L67.7974 13.7292C67.3077 12.9859 66.164 13.2048 65.9833 14.0763L61.9904 33.3253C61.8096 34.1968 62.7719 34.8525 63.5168 34.3654L69.8264 30.2395L71.9454 20.0243Z" fill="#7F5A8B"/>
<rect x="1.8772" width="57" height="12" rx="3" transform="rotate(9 1.8772 0)" fill="#FAECFB"/>
<path d="M3.01194 10.3044L4.20435 2.77586L6.85067 3.195C7.59956 3.31361 8.15963 3.57578 8.53088 3.98151C8.90327 4.38004 9.04213 4.87815 8.94747 5.47582C8.89273 5.82146 8.77168 6.1197 8.58432 6.37052C8.3981 6.61414 8.1634 6.79103 7.88022 6.9012C8.27278 7.12576 8.54478 7.41244 8.69623 7.76121C8.84881 8.10278 8.8886 8.504 8.81561 8.96485C8.70612 9.65614 8.40096 10.1614 7.90012 10.4807C7.40648 10.8011 6.77441 10.9003 6.00391 10.7783L3.01194 10.3044ZM4.6089 9.23972L6.09948 9.4758C6.88438 9.60012 7.32872 9.33464 7.4325 8.67936C7.48269 8.36252 7.42425 8.10229 7.2572 7.89867C7.09735 7.6962 6.841 7.56702 6.48816 7.51114L4.92197 7.26308L4.6089 9.23972ZM5.1187 6.02092L6.43647 6.22963C6.7245 6.27526 6.96387 6.23197 7.15459 6.09978C7.35364 5.96154 7.47541 5.75199 7.51989 5.47116C7.56208 5.20473 7.50818 4.98581 7.35817 4.81442C7.20816 4.64303 6.97113 4.53168 6.64709 4.48036L5.39414 4.28191L5.1187 6.02092ZM9.6151 11.3502L10.8075 3.8217L13.2918 4.21517C13.9039 4.31212 14.3829 4.48025 14.7288 4.71958C15.0759 4.95171 15.3096 5.24708 15.43 5.60569C15.5587 5.95824 15.5877 6.35775 15.517 6.8042C15.4075 7.49549 15.1245 8.00059 14.668 8.31951C14.2198 8.63237 13.6287 8.75281 12.8945 8.68082C12.7278 8.66179 12.558 8.63859 12.3852 8.61122C12.2123 8.58384 12.0647 8.56046 11.9423 8.54107L11.4995 8.47093L11.0085 11.5709L9.6151 11.3502ZM13.7088 11.9986L12.3352 8.43722L13.7884 8.49022L15.3182 12.2535L13.7088 11.9986ZM11.6979 7.21798L12.6484 7.36852C12.8861 7.40616 13.1061 7.41517 13.3085 7.39556C13.5192 7.36989 13.6966 7.29834 13.8407 7.18091C13.986 7.05628 14.0791 6.86435 14.1202 6.60512C14.1624 6.33869 14.1331 6.12737 14.0323 5.97116C13.9316 5.81495 13.7838 5.69928 13.589 5.62414C13.4026 5.54294 13.1906 5.48352 12.9529 5.44589L12.0024 5.29534L11.6979 7.21798ZM16.2077 12.3944L17.4001 4.86586L22.4119 5.65966L22.2135 6.91261L18.595 6.33951L18.311 8.13253L21.6919 8.668L21.4951 9.91015L18.1143 9.37468L17.7995 11.3621L21.418 11.9352L21.2195 13.1882L16.2077 12.3944ZM21.8149 13.2825L26.0317 6.23298L27.0795 6.39892L28.9114 14.4065L27.3884 14.1652L26.245 8.38157L23.3379 13.5237L21.8149 13.2825ZM24.0351 12.1283L24.6656 10.9438L26.9338 11.303L27.189 12.6278L24.0351 12.1283ZM31.2023 12.4441L31.4828 10.6727L35.3406 7.70736L37.22 8.00503L31.2023 12.4441ZM29.7305 14.5362L30.9229 7.00766L32.3162 7.22835L31.1238 14.7569L29.7305 14.5362ZM34.3966 15.2752L32.6208 11.1076L33.8117 10.2997L36.0492 15.537L34.3966 15.2752ZM36.8927 15.6706L38.0851 8.14204L39.4785 8.36273L38.2861 15.8913L36.8927 15.6706ZM39.7301 16.12L40.9225 8.59145L42.3591 8.81898L44.9663 15.0781L44.6206 15.0233L45.5239 9.32024L46.9173 9.54092L45.7249 17.0695L44.2775 16.8402L41.6829 10.572L42.0285 10.6268L41.1235 16.3407L39.7301 16.12ZM50.3686 17.9821C49.6773 17.8726 49.095 17.6106 48.6218 17.1961C48.1486 16.7816 47.8076 16.2552 47.5987 15.6168C47.3897 14.9784 47.3474 14.2668 47.4718 13.4819C47.5961 12.697 47.8556 12.0369 48.2505 11.5015C48.6464 10.9589 49.1407 10.5648 49.7332 10.3191C50.3329 10.0745 50.9892 10.0087 51.7021 10.1216C52.5014 10.2482 53.1572 10.5588 53.6694 11.0532C54.1899 11.5417 54.5209 12.1551 54.6623 12.8935L53.2675 13.1708C53.1787 12.7065 52.9808 12.3245 52.674 12.025C52.3743 11.7265 51.9797 11.5385 51.49 11.461C51.0435 11.3903 50.6346 11.4325 50.263 11.5877C49.8987 11.7441 49.5958 12.0025 49.3541 12.3628C49.1209 12.7171 48.9615 13.1642 48.8759 13.7043C48.7904 14.2444 48.8032 14.7225 48.9145 15.1387C49.0329 15.5561 49.2412 15.8954 49.5394 16.1567C49.8447 16.4191 50.2207 16.5857 50.6671 16.6564C50.8975 16.6929 51.1403 16.6982 51.3954 16.6721C51.6505 16.6461 51.8914 16.5698 52.1181 16.4433C52.3532 16.3108 52.5547 16.1102 52.7228 15.8416C52.898 15.5741 53.021 15.2171 53.0917 14.7706L53.1601 14.3386L53.3194 15.3603L51.1591 15.0181L51.3576 13.7652L54.4467 14.2545L53.7984 18.3482L52.567 18.1531L52.5659 16.9018L52.7744 17.1231C52.6026 17.369 52.3909 17.5642 52.1391 17.7089C51.8874 17.8536 51.6106 17.9463 51.3089 17.9871C51.0133 18.0362 50.6998 18.0346 50.3686 17.9821Z" fill="#6C467B"/>
<rect x="21.5519" y="17.6699" width="35" height="12" rx="3" transform="rotate(4 21.5519 17.6699)" fill="#D1E1DD"/>
<path d="M23.4932 27.8301L24.0249 20.2263L25.7704 20.3484L28.7122 25.9367L28.2649 25.9055L28.6395 20.549L30.3523 20.6688L29.8206 28.2726L28.0642 28.1497L25.1449 22.552L25.5812 22.5825L25.2059 27.9499L23.4932 27.8301ZM31.1105 28.3628L31.6422 20.759L36.7478 21.116L36.641 22.6433L33.2482 22.406L33.1505 23.8024L36.3797 24.0282L36.2729 25.5555L33.0437 25.3297L32.9301 26.9552L36.3229 27.1925L36.2161 28.7198L31.1105 28.3628ZM39.1206 28.9229L37.3286 21.1566L39.1177 21.2817L40.2325 26.3477L41.8021 21.9298L43.4822 22.0473L44.4217 26.6406L46.2306 21.7791L48.0198 21.9042L45.1644 29.3455L43.5171 29.2303L42.3577 24.0187L42.6413 24.0385L40.7679 29.0381L39.1206 28.9229ZM50.5932 29.8896C49.7495 29.8306 49.0739 29.5641 48.5662 29.0901C48.0585 28.6161 47.7719 28.0113 47.7064 27.2759L49.4045 26.9781C49.454 27.42 49.5948 27.7588 49.8268 27.9942C50.0666 28.223 50.3756 28.3505 50.7538 28.377C50.9429 28.3902 51.1122 28.3728 51.2617 28.3248C51.4185 28.2773 51.5446 28.1984 51.64 28.0881C51.7354 27.9779 51.7887 27.8427 51.7999 27.6827C51.8101 27.5373 51.7753 27.407 51.6957 27.2918C51.6166 27.1693 51.4824 27.0503 51.2931 26.9347C51.1044 26.8119 50.8507 26.6772 50.5321 26.5307C50.0299 26.291 49.6231 26.0469 49.3116 25.7986C49.0006 25.5429 48.7791 25.2607 48.6473 24.9518C48.5154 24.643 48.4629 24.2958 48.4899 23.9103C48.5194 23.4885 48.6471 23.1247 48.8731 22.8189C49.1069 22.5064 49.4157 22.2722 49.7993 22.1163C50.1907 21.9537 50.6337 21.8896 51.1282 21.9242C51.6592 21.9613 52.1196 22.1178 52.5096 22.3935C52.9074 22.6625 53.2126 23.053 53.4253 23.5648L52.0037 24.2986C51.8833 24.0343 51.7331 23.8302 51.5532 23.686C51.381 23.5351 51.1859 23.4521 50.9677 23.4368C50.8368 23.4277 50.715 23.4447 50.6023 23.488C50.4897 23.5313 50.3973 23.5979 50.3252 23.6879C50.2537 23.7706 50.2136 23.8737 50.2049 23.9974C50.1963 24.121 50.2245 24.2399 50.2896 24.3541C50.362 24.4688 50.4959 24.5914 50.6914 24.722C50.8874 24.8454 51.1624 24.9889 51.5164 25.1525C51.991 25.3684 52.377 25.5963 52.6745 25.8364C52.9792 26.077 53.2014 26.3483 53.3411 26.6504C53.4813 26.9452 53.5374 27.2926 53.5094 27.6927C53.4769 28.1581 53.3315 28.5645 53.0733 28.9119C52.823 29.2525 52.4834 29.5101 52.0546 29.6848C51.6331 29.86 51.1459 29.9282 50.5932 29.8896Z" fill="#2D393A"/>
<path d="M72.1903 41.6971C71.0011 40.4987 70.0371 39.5273 68.9005 40.7565C67.764 41.9857 68.728 42.9572 69.9171 44.1556C71.1063 45.354 72.5792 45.7751 73.2069 45.0962C73.8346 44.4173 73.3794 42.8955 72.1903 41.6971Z" fill="#A9C1B8"/>
<path d="M73.1128 42.9089L69.8278 40.1754C69.8278 40.1754 69.4951 40.2885 69.416 40.3357C70.3872 42.4766 71.9613 43.4244 73.3061 43.3737L73.1128 42.9089Z" fill="#8EADA1"/>
<path d="M73.2349 39.4439C72.0331 38.2545 71.0588 37.2904 69.9602 38.4785C68.8617 39.6667 69.8359 40.6308 71.0378 41.8202C72.2396 43.0096 73.7057 43.4418 74.3124 42.7856C74.9192 42.1294 74.4367 40.6333 73.2349 39.4439Z" fill="#A9C1B8"/>
<path d="M74.1047 40.6741L70.8198 37.9406C70.8198 37.9406 70.487 38.0537 70.4079 38.101C71.3791 40.2419 72.9532 41.1897 74.298 41.1389L74.1047 40.6741Z" fill="#8EADA1"/>
<path d="M74.227 37.2092C73.0251 36.0198 72.0509 35.0556 70.9523 36.2438C69.8537 37.4319 70.828 38.3961 72.0298 39.5855C73.2317 40.7748 74.6978 41.2071 75.3045 40.5509C75.9112 39.8947 75.4288 38.3985 74.227 37.2092Z" fill="#A9C1B8"/>
<path d="M76.4983 37.6713C75.5453 40.0605 76.7206 42.5786 78.6181 42.0052C82.1481 40.9385 79.6824 36.8894 79.0378 35.5945C77.4262 32.357 73.0864 35.9288 74.2926 37.7288C74.9312 38.6818 76.4983 37.6713 76.4983 37.6713Z" fill="#A9C1B8"/>
<path d="M101.103 32.5135C107.925 37.6633 93.9361 48.5962 90.7682 46.2051C87.6003 43.8139 94.2801 27.3637 101.103 32.5135Z" fill="#819D92"/>
</svg>
