<svg width="51" height="69" viewBox="0 0 51 69" fill="none" xmlns="http://www.w3.org/2000/svg">
<path d="M37.9739 25.9873L38.953 30.8823L38.953 35.3685L32.3257 43.5805L27.1358 39.3807L37.9739 25.9873Z" fill="#0E1B1B"/>
<path d="M42.4477 22.3915C43.0692 22.8578 43.5189 23.3723 43.8206 23.9207C40.9764 27.6397 38.8993 29.6296 38.9495 33.9186C36.295 35.9302 33.3971 37.0464 32.1535 36.1134C28.9786 33.7316 35.61 17.2618 42.4477 22.3915Z" fill="#070D0D"/>
<ellipse cx="5.0395" cy="10.8744" rx="5.0395" ry="10.8744" transform="matrix(-0.663457 0.748214 0.748214 0.663457 19.1927 25.6869)" fill="#819D92"/>
<path d="M11.938 23.1748C13.2502 24.6171 14.314 25.7863 15.4732 24.6573C16.6325 23.5283 15.5687 22.3591 14.2565 20.9168C12.9443 19.4746 11.3615 18.8109 10.7212 19.4344C10.081 20.058 10.6257 21.7326 11.938 23.1748Z" fill="#A9C1B8"/>
<path d="M15.5001 26.9625L12.6324 23.9991L11.7825 22.9992C14.0824 22.9992 15.9702 25.7917 15.9721 27.1375L15.5001 26.9625Z" fill="#8EADA1"/>
<path d="M17.4481 23.9403L21.0372 23.2721C23.239 27.9541 20.5161 33.6067 16.159 33.5932C12.8183 33.1878 12.4873 31.5955 10.3838 28.9006C11.5046 26.1335 12.8006 24.6274 15.8825 22.9991L17.4481 23.9403Z" fill="#0E1B1B"/>
<path d="M13.802 32.8907C18.4957 33.1296 20.5163 30.1263 21.8091 26.3983C22.0161 29.8777 19.7118 33.6507 16.2264 33.589C15.2192 33.5557 14.4107 33.2402 13.802 32.8907Z" fill="#2A5050"/>
<path d="M18.7004 23.695C16.8679 25.3469 17.1177 27.7138 19.2277 27.7967C22.261 27.8036 22.0059 22.7506 22.0059 22.7506L22.6782 20.2974C20.6695 19.7627 19.1998 21.4816 18.7004 23.695Z" fill="#A9C1B8"/>
<path d="M13.3434 27.3877C12.2186 26.1287 11.3068 25.1081 10.1074 26.2762C8.90809 27.4442 9.81992 28.4648 10.9447 29.7238C12.0695 30.9828 13.5183 31.4805 14.1807 30.8354C14.8431 30.1903 14.4682 28.6467 13.3434 27.3877Z" fill="#A9C1B8"/>
<path d="M14.2012 28.646L11.0639 25.7443C11.0639 25.7443 10.7256 25.8398 10.6442 25.8829C11.502 28.0717 13.0243 29.1006 14.3699 29.1203L14.2012 28.646Z" fill="#8EADA1"/>
<path d="M14.5045 25.1924C13.3666 23.9418 12.4441 22.9279 11.2848 24.0569C10.1256 25.1859 11.048 26.1998 12.186 27.4504C13.3239 28.7011 14.7654 29.2095 15.4056 28.586C16.0458 27.9624 15.6424 26.4431 14.5045 25.1924Z" fill="#A9C1B8"/>
<path d="M11.7293 16.732L15.0202 14.6887L20.6911 11.1278L22.0667 10.2843C23.3496 9.49765 23.1112 7.56681 21.6755 7.11581L2.37273 1.05211C1.51035 0.781207 0.730257 1.65191 1.09391 2.47946L6.66748 15.1631C7.52612 17.1171 9.91612 17.8579 11.7293 16.732Z" fill="#98A9E5"/>
<path d="M2.67268 0.0983165C0.990839 -0.430009 -0.53059 1.26761 0.178536 2.88152L5.75178 15.5651C6.85516 18.0761 9.92656 19.0283 12.2567 17.5817L15.5477 15.5378L15.5516 15.5358L21.2137 11.9792L21.2137 11.9802L22.5897 11.1364C24.6035 9.90115 24.2293 6.87004 21.9754 6.16179L2.67268 0.0983165ZM1.09357 2.47918C0.730227 1.65171 1.51059 0.781544 2.37287 1.05242L21.6756 7.11589L21.8065 7.16179C23.1247 7.6857 23.3091 9.52174 22.0662 10.2839L20.6912 11.1276L15.0203 14.6882L11.7293 16.7321C9.9161 17.8579 7.52642 17.1167 6.66779 15.1628L1.09357 2.47918Z" fill="#505F97"/>
<path d="M2.66708 2.20522L20.691 11.1719L17.7678 19.3343C17.559 19.9171 16.8037 20.0662 16.3892 19.6063L13.4547 16.3508L16.0752 14.0293L2.55722 2.37048C2.46815 2.29366 2.56176 2.15283 2.66708 2.20522Z" fill="#505F97"/>
<path d="M42.4796 21.4877C49.3023 26.6375 35.3129 37.5705 32.1451 35.1793C28.9772 32.7882 35.6569 16.338 42.4796 21.4877Z" fill="#819D92"/>
</svg>
