<svg width="88" height="101" viewBox="0 0 88 101" fill="none" xmlns="http://www.w3.org/2000/svg">
<path d="M33.7025 76.3794C33.7025 74.0008 54.1561 74.0008 54.1561 76.3794C54.1561 84.64 47.3051 88.0197 43.7025 88.0197C40.0999 88.0197 33.7024 84.8695 33.7025 76.3794Z" fill="#819D92"/>
<path d="M33.5026 71.708H54.4374L53.6328 75.741C53.6328 75.741 50.5873 81.0926 43.97 81.0926C37.3526 81.0926 34.3072 75.741 34.3072 75.741L33.5026 71.708Z" fill="#070D0D"/>
<path d="M33.8636 73.5129C36.7758 78.3737 50.5323 78.9512 54.0766 73.5129L53.5472 76.1599C53.5472 76.1599 50.6623 81.4665 44.0449 81.4665C37.4276 81.4665 34.3821 76.1149 34.3821 76.1149L33.8636 73.5129Z" fill="#0E1B1B"/>
<path d="M34.2728 75.5588C39.9276 81.9355 47.9406 82.2965 53.67 75.5588L53.5473 76.1604C53.5473 76.1604 50.6168 81.6229 43.9247 81.4784C37.2326 81.334 34.3811 76.1123 34.3811 76.1123L34.2728 75.5588Z" fill="#2A5050"/>
<path d="M29.7794 47.5545L34.8609 45.9119C35.4345 45.7266 35.9525 45.4005 36.3676 44.9635L36.878 44.4263H43.9766H50.9644L51.6191 45.0546C52.0133 45.4329 52.4883 45.7167 53.0081 45.8848L58.1737 47.5545C58.1737 47.5545 65.7536 75.7082 43.9766 75.7082C22.1995 75.7082 29.7794 47.5545 29.7794 47.5545Z" fill="#A9C1B8"/>
<path d="M37.6461 42.0195H50.1589L51.3621 45.629C51.3621 45.629 51.3621 49.2384 43.9025 49.2384C36.443 49.2384 36.443 45.629 36.443 45.629L37.6461 42.0195Z" fill="#0E1B1B"/>
<path d="M36.5633 45.2683C36.5633 45.2683 37.6461 48.3965 43.9025 48.3965C50.2792 48.2762 51.2418 45.2683 51.2418 45.2683L51.3621 45.6293C51.3621 45.6293 51.3621 49.2387 43.9025 49.2387C36.443 49.2387 36.443 45.6293 36.443 45.6293L36.5633 45.2683Z" fill="#2A5050"/>
<path d="M37.6461 42.0195H50.1589L50.9602 44.4258C47.8729 45.629 40.2931 45.5087 36.8448 44.4258L37.6461 42.0195Z" fill="#070D0D"/>
<path d="M25.6362 53.5132L31.6541 56.4181L25.7282 68.694L19.7104 65.7891L25.6362 53.5132Z" fill="#0E1B1B"/>
<path d="M25.6362 53.5132L31.6541 56.4181L30.007 59.8384C27.6007 61.4025 23.4031 62.1932 21.9349 61.1807L25.6362 53.5132Z" fill="#070D0D"/>
<path d="M19.5025 66.0434L20.5298 64.0902C22.2228 64.6068 24.1873 66.4871 26.5569 65.4245C26.845 65.2953 27.085 65.3233 27.2783 65.4805L26.2401 67.6075L19.5025 66.0434Z" fill="#2A5050"/>
<path d="M18.8406 64.9588C20.8928 63.6449 23.355 67.5821 26.5567 66.1462C29.7585 64.7103 27.021 82.692 20.2222 81.6458C13.4235 80.5996 16.7884 66.2728 18.8406 64.9588Z" fill="#819D92"/>
<path d="M18.2856 86.8431C18.652 84.7163 18.9491 82.9921 17.2003 82.7511C15.4515 82.5101 15.1545 84.2343 14.788 86.3611C14.4216 88.488 14.9075 90.3201 15.8733 90.4532C16.8391 90.5862 17.9191 88.97 18.2856 86.8431Z" fill="#A9C1B8"/>
<path d="M17.6616 89.1181L18.8492 83.3457C18.8451 83.1647 18.6486 83.0325 18.6486 83.0325C17.0257 85.524 16.9068 87.8571 17.6616 89.1181Z" fill="#8EADA1"/>
<path d="M20.9057 88.0567C21.2722 85.9299 21.5692 84.2057 19.9091 83.9769C18.2489 83.7482 17.9518 85.4723 17.5854 87.5992C17.2189 89.726 17.6652 91.5526 18.582 91.679C19.4989 91.8053 20.5393 90.1836 20.9057 88.0567Z" fill="#A9C1B8"/>
<path d="M20.3929 89.4762L21.5806 83.7038C21.5764 83.5228 21.3799 83.3907 21.3799 83.3907C19.757 85.8821 19.6381 88.2152 20.3929 89.4762Z" fill="#8EADA1"/>
<path d="M23.707 87.6003C24.1919 85.4935 24.5849 83.7857 22.9972 83.4645C21.4095 83.1432 21.0165 84.8511 20.5317 86.9579C20.0468 89.0646 20.3646 90.9163 21.2415 91.0937C22.1183 91.2711 23.2222 89.707 23.707 87.6003Z" fill="#A9C1B8"/>
<path d="M15.6569 82.3459L12.9048 79.9416C15.2159 75.3067 21.3455 73.9375 24.0387 77.3681C25.7936 80.2437 24.9413 81.5771 24.1299 84.9016C21.2609 85.7385 18.595 85.2226 15.4036 83.8124L15.6569 82.3459Z" fill="#0E1B1B"/>
<path d="M24.9612 79.5402C22.2361 75.7053 18.6332 76.0767 14.9027 77.3748C17.5071 75.053 21.9804 74.5987 24.0948 77.3745C24.6204 78.2587 24.858 78.8452 24.9612 79.5402Z" fill="#070D0D"/>
<path d="M15.4996 82.4035C18.0026 81.7996 19.011 79.2198 17.4447 78.0015C14.5309 75.7352 12.1766 80.6721 11.4917 81.948C10.8069 83.2238 10.7799 84.4822 11.5838 85.014C12.3878 85.5458 14.051 84.7888 15.4996 82.4035Z" fill="#A9C1B8"/>
<path d="M34.3959 47.9023C40.4456 53.952 25.0644 62.8517 22.2554 60.0427C19.4464 57.2337 28.3462 41.8525 34.3959 47.9023Z" fill="#819D92"/>
<path d="M62.3638 53.5132L56.3459 56.4181L62.2718 68.694L68.2896 65.7891L62.3638 53.5132Z" fill="#0E1B1B"/>
<path d="M62.3638 53.5132L56.3459 56.4181L57.993 59.8384C60.3993 61.4025 64.5969 62.1932 66.0651 61.1807L62.3638 53.5132Z" fill="#070D0D"/>
<path d="M68.4975 66.0434L67.4702 64.0902C65.7772 64.6068 63.8127 66.4871 61.4431 65.4245C61.155 65.2953 60.915 65.3233 60.7217 65.4805L61.7599 67.6075L68.4975 66.0434Z" fill="#2A5050"/>
<path d="M69.1594 64.9588C67.1072 63.6449 64.645 67.5821 61.4433 66.1462C58.2415 64.7103 60.979 82.692 67.7778 81.6458C74.5765 80.5996 71.2116 66.2728 69.1594 64.9588Z" fill="#819D92"/>
<path d="M69.7144 86.8431C69.348 84.7163 69.0509 82.9921 70.7997 82.7511C72.5485 82.5101 72.8455 84.2343 73.212 86.3611C73.5784 88.488 73.0925 90.3201 72.1267 90.4532C71.1609 90.5862 70.0809 88.97 69.7144 86.8431Z" fill="#A9C1B8"/>
<path d="M70.3384 89.1181L69.1508 83.3457C69.1549 83.1647 69.3514 83.0325 69.3514 83.0325C70.9743 85.524 71.0932 87.8571 70.3384 89.1181Z" fill="#8EADA1"/>
<path d="M67.0943 88.0567C66.7278 85.9299 66.4308 84.2057 68.0909 83.9769C69.7511 83.7482 70.0482 85.4723 70.4146 87.5992C70.7811 89.726 70.3348 91.5526 69.418 91.679C68.5011 91.8053 67.4607 90.1836 67.0943 88.0567Z" fill="#A9C1B8"/>
<path d="M67.6071 89.4762L66.4194 83.7038C66.4236 83.5228 66.6201 83.3907 66.6201 83.3907C68.243 85.8821 68.3619 88.2152 67.6071 89.4762Z" fill="#8EADA1"/>
<path d="M64.293 87.6003C63.8081 85.4935 63.4151 83.7857 65.0028 83.4645C66.5905 83.1432 66.9835 84.8511 67.4683 86.9579C67.9532 89.0646 67.6354 90.9163 66.7585 91.0937C65.8817 91.2711 64.7778 89.707 64.293 87.6003Z" fill="#A9C1B8"/>
<path d="M72.3431 82.3459L75.0952 79.9416C72.7841 75.3067 66.6545 73.9375 63.9613 77.3681C62.2064 80.2437 63.0587 81.5771 63.8701 84.9016C66.7391 85.7385 69.405 85.2226 72.5964 83.8124L72.3431 82.3459Z" fill="#0E1B1B"/>
<path d="M63.0388 79.5402C65.7639 75.7052 69.3668 76.0767 73.0973 77.3748C70.4929 75.0529 66.0196 74.5986 63.9051 77.3745C63.3796 78.2587 63.142 78.8452 63.0388 79.5402Z" fill="#070D0D"/>
<path d="M72.5004 82.4035C69.9974 81.7996 68.989 79.2198 70.5553 78.0015C73.4691 75.7352 75.8234 80.6721 76.5083 81.948C77.1931 83.2238 77.2201 84.4822 76.4162 85.014C75.6122 85.5458 73.949 84.7888 72.5004 82.4035Z" fill="#A9C1B8"/>
<path d="M53.4488 47.9023C47.3991 53.952 62.7803 62.8517 65.5893 60.0427C68.3983 57.2337 59.4985 41.8525 53.4488 47.9023Z" fill="#819D92"/>
<path d="M73.9169 23.8224C73.9169 19.8355 70.6849 16.6035 66.698 16.6035V33.207C70.6849 33.207 73.9169 29.975 73.9169 25.9881V23.8224Z" fill="#0E1B1B"/>
<path d="M13.9998 23.8224C13.9998 19.8355 17.2318 16.6035 21.2187 16.6035V33.207C17.2318 33.207 13.9998 29.975 13.9998 25.9881V23.8224Z" fill="#0E1B1B"/>
<path d="M69.104 22.0179C69.104 39.7513 57.8458 44.0356 43.9581 44.0356C30.0704 44.0356 18.8123 39.7513 18.8123 22.0179C18.8123 9.04514 27.6641 0.000244141 43.9581 0.000244141C57.8458 0.000244141 69.104 6.66484 69.104 22.0179Z" fill="#819D92"/>
<path d="M44.1133 11.0029C61.8097 11.0029 64.4287 15.3169 64.4287 25.2549C64.4287 25.3743 64.4255 25.4928 64.4238 25.6104C64.3408 16.5301 61.5351 12.5801 44.1133 12.5801C26.5047 12.5801 23.8778 17.9415 23.8008 25.6777C23.7986 25.5382 23.7979 25.3971 23.7979 25.2549C23.7979 16.8576 26.2286 11.0029 44.1133 11.0029Z" fill="#92ADA3"/>
<path d="M44.1133 39.4297C26.4169 39.4297 23.7979 35.1157 23.7979 25.1777C23.7979 25.0583 23.801 24.9398 23.8027 24.8223C23.8857 33.9025 26.6914 37.8525 44.1133 37.8525C61.7219 37.8525 64.3488 32.4911 64.4258 24.7549C64.4279 24.8944 64.4287 25.0355 64.4287 25.1777C64.4287 33.575 61.998 39.4297 44.1133 39.4297Z" fill="#6D8D81"/>
<path d="M64.4285 25.2354C64.4285 36.079 56.5582 38.6988 44.1132 38.6988C30.7694 38.6988 23.7979 36.079 23.7979 25.2354C23.7979 17.3028 26.2282 11.772 44.1132 11.772C61.8099 11.772 64.4285 15.8473 64.4285 25.2354Z" fill="#A9C1B8"/>
<path d="M63.2264 25.2355C63.2264 34.9173 55.8217 37.2564 44.1131 37.2564C31.5589 37.2564 24.9999 34.9173 24.9999 25.2355C24.9999 18.1528 27.2864 13.2146 44.1131 13.2146C60.7627 13.2146 63.2264 16.8532 63.2264 25.2355Z" fill="#0E1B1B"/>
<path d="M44.113 13.2146C60.7621 13.2146 63.2263 16.8573 63.2263 25.2488C63.2263 25.3494 63.223 25.4495 63.2214 25.5486C63.1432 17.8816 60.5036 14.5466 44.113 14.5466C27.5661 14.5466 25.0807 19.0628 25.0027 25.5828C25.0009 25.4725 24.9998 25.361 24.9998 25.2488C24.9998 18.1582 27.2868 13.2146 44.113 13.2146Z" fill="#070D0D"/>
<path d="M44.113 37.218C27.464 37.218 24.9998 33.5753 24.9998 25.1838C24.9998 25.0832 25.003 24.9831 25.0046 24.884C25.0828 32.551 27.7225 35.886 44.113 35.886C60.66 35.886 63.1453 31.3698 63.2234 24.8499C63.2251 24.9601 63.2263 25.0716 63.2263 25.1838C63.2263 32.2744 60.9393 37.218 44.113 37.218Z" fill="#2A5050"/>
<g filter="url(#filter0_f_2036_22372)">
<ellipse cx="35.106" cy="24.8329" rx="3.125" ry="4.92788" fill="#F1F8F4"/>
<ellipse cx="52.894" cy="24.8329" rx="3.125" ry="4.92788" fill="#F1F8F4"/>
</g>
<ellipse cx="35.106" cy="24.8329" rx="3.125" ry="4.92788" fill="#F1F8F4"/>
<ellipse cx="52.894" cy="24.8329" rx="3.125" ry="4.92788" fill="#F1F8F4"/>
<ellipse cx="44" cy="97.0714" rx="13.803" ry="3.00065" fill="#445556"/>
<defs>
<filter id="filter0_f_2036_22372" x="28.6156" y="16.5396" width="30.7689" height="16.5865" filterUnits="userSpaceOnUse" color-interpolation-filters="sRGB">
<feFlood flood-opacity="0" result="BackgroundImageFix"/>
<feBlend mode="normal" in="SourceGraphic" in2="BackgroundImageFix" result="shape"/>
<feGaussianBlur stdDeviation="1.68269" result="effect1_foregroundBlur_2036_22372"/>
</filter>
</defs>
</svg>
