<svg width="88" height="101" viewBox="0 0 88 101" fill="none" xmlns="http://www.w3.org/2000/svg">
<path d="M33.7025 76.3794C33.7025 74.0008 54.1561 74.0008 54.1561 76.3794C54.1561 84.64 47.3051 88.0197 43.7025 88.0197C40.0999 88.0197 33.7024 84.8695 33.7025 76.3794Z" fill="#819D92"/>
<path d="M33.5026 71.708H54.4374L53.6328 75.741C53.6328 75.741 50.5873 81.0926 43.97 81.0926C37.3526 81.0926 34.3072 75.741 34.3072 75.741L33.5026 71.708Z" fill="#070D0D"/>
<path d="M33.8636 73.5129C36.7758 78.3737 50.5323 78.9512 54.0766 73.5129L53.5472 76.1599C53.5472 76.1599 50.6623 81.4665 44.0449 81.4665C37.4276 81.4665 34.3821 76.1149 34.3821 76.1149L33.8636 73.5129Z" fill="#0E1B1B"/>
<path d="M34.2728 75.5588C39.9276 81.9355 47.9406 82.2965 53.67 75.5588L53.5473 76.1604C53.5473 76.1604 50.6168 81.6229 43.9247 81.4784C37.2326 81.334 34.3811 76.1123 34.3811 76.1123L34.2728 75.5588Z" fill="#2A5050"/>
<path d="M29.7794 47.5545L34.8609 45.9119C35.4345 45.7266 35.9525 45.4005 36.3676 44.9635L36.878 44.4263H43.9766H50.9644L51.6191 45.0546C52.0133 45.4329 52.4883 45.7167 53.0081 45.8848L58.1737 47.5545C58.1737 47.5545 65.7536 75.7082 43.9766 75.7082C22.1995 75.7082 29.7794 47.5545 29.7794 47.5545Z" fill="#A9C1B8"/>
<path d="M37.6461 42.0195H50.1589L51.3621 45.629C51.3621 45.629 51.3621 49.2384 43.9025 49.2384C36.443 49.2384 36.443 45.629 36.443 45.629L37.6461 42.0195Z" fill="#0E1B1B"/>
<path d="M36.5633 45.2683C36.5633 45.2683 37.6461 48.3965 43.9025 48.3965C50.2792 48.2762 51.2418 45.2683 51.2418 45.2683L51.3621 45.6293C51.3621 45.6293 51.3621 49.2387 43.9025 49.2387C36.443 49.2387 36.443 45.6293 36.443 45.6293L36.5633 45.2683Z" fill="#2A5050"/>
<path d="M37.6461 42.0195H50.1589L50.9602 44.4258C47.8729 45.629 40.2931 45.5087 36.8448 44.4258L37.6461 42.0195Z" fill="#070D0D"/>
<rect x="24.7656" y="55.5889" width="6.68301" height="13.6328" transform="rotate(-4.23228 24.7656 55.5889)" fill="#0E1B1B"/>
<path d="M24.7656 55.5889L31.4304 55.0957L31.7109 58.8477C30.4089 61.4057 27.1719 64.2235 25.394 64.0807L24.7656 55.5889Z" fill="#070D0D"/>
<path d="M25.7182 69.5095L25.6314 67.304C27.3561 66.9049 29.9978 67.5511 31.5188 65.4458C31.7037 65.1898 31.9256 65.0941 32.1716 65.1336L32.336 67.495L25.7182 69.5095Z" fill="#468586"/>
<path d="M24.6033 68.9017C25.7237 66.7374 29.825 68.9163 31.8801 66.0717C33.9352 63.227 40.5559 80.1701 34.1443 82.6637C27.7326 85.1573 23.4829 71.066 24.6033 68.9017Z" fill="#819D92"/>
<path d="M30.5837 82.9709C29.8884 81.3912 30.3703 79.5299 31.7138 78.4465C34.0941 76.5272 37.4261 79.163 36.1062 81.9211L35.9692 82.2074L36.7277 84.9652L33.0804 87.0709C31.8478 85.5955 31.2052 84.3829 30.5837 82.9709Z" fill="#0E1B1B"/>
<path d="M30.3569 82.2556C30.0679 81.0331 30.3705 79.5304 31.714 78.447C32.9456 77.454 34.5005 77.6403 35.3969 78.5122C32.9301 77.8522 30.5685 79.4936 30.3569 82.2556Z" fill="#070D0D"/>
<ellipse cx="37.2628" cy="81.21" rx="1.74558" ry="3.41918" transform="rotate(-45 37.2628 81.21)" fill="#A9C1B8"/>
<path d="M36.3594 86.9571C38.3417 87.4103 39.1586 88.4127 38.7323 89.1512C38.3059 89.8897 36.3103 89.8848 34.8637 89.0496C33.4172 88.2145 32.6545 86.793 33.0808 86.0545C33.5072 85.316 35.1886 84.9293 36.3594 86.9571Z" fill="#A9C1B8"/>
<path d="M33.8154 85.523L38.7104 88.4888C38.8303 88.6327 38.7407 88.9605 38.7407 88.9605C35.5517 88.9143 33.986 87.3615 33.8154 85.523Z" fill="#8EADA1"/>
<path d="M37.568 85.4645C39.809 85.9769 40.7326 87.1101 40.2506 87.945C39.7686 88.7799 37.5124 88.7744 35.8771 87.8302C34.2417 86.886 33.3794 85.2789 33.8614 84.444C34.3434 83.6091 36.2444 83.1719 37.568 85.4645Z" fill="#A9C1B8"/>
<path d="M30.7611 46.7371C38.8056 49.6497 28.6513 64.2332 24.9161 62.8808C21.1809 61.5284 22.7165 43.8246 30.7611 46.7371Z" fill="#819D92"/>
<rect width="6.68301" height="13.6328" transform="matrix(-0.655982 -0.754777 -0.754777 0.655982 58.1456 57.8362)" fill="#2A5050"/>
<path d="M53.7618 52.7914L43.4653 61.7174L46.9765 65.7663L47.6653 67.0461L49.2804 65.5416L49.2799 65.541L58.1458 57.8356L53.7618 52.7914Z" fill="#0E1B1B"/>
<path d="M51.5252 63.59C50.6996 60.8922 46.5457 61.9317 45.3479 60.101L44.7348 60.6012L44.4931 64.0293L51.0354 64.0293L51.5252 63.59Z" fill="#2A5050"/>
<path d="M28.8155 62.4217L31.1775 60.1018C35.7655 62.5058 36.9619 66.6005 33.4774 69.2246C30.5669 70.9215 28.4136 70.2448 25.9428 69.1645C25.1636 66.2789 25.8116 65.7187 27.2858 62.5558L28.8155 62.4217Z" fill="#0E1B1B"/>
<path d="M33.5829 69.3662L34.6666 63.1089C34.4259 62.6276 34.2041 62.4435 33.8236 62.0261C34.0289 64.3679 31.1846 67.8084 32.139 69.8475L33.5829 69.3662Z" fill="#2A5050"/>
<path d="M25.4252 66.5838C23.8068 65.3528 22.5137 65.3683 22.2202 66.1689C21.9267 66.9695 23.2096 68.4981 24.7778 69.0731C26.346 69.6481 27.926 69.3224 28.2196 68.5217C28.5131 67.7211 27.7322 66.1826 25.4252 66.5838Z" fill="#D2E3DD"/>
<path d="M27.8341 67.1805L22.9946 65.6356C22.7539 65.6018 22.5329 65.7702 22.5329 65.7702C24.3825 68.104 26.4017 68.2603 27.8341 67.1805Z" fill="#AECAC0"/>
<path d="M25.5968 64.6661C23.9783 63.4351 22.6852 63.4505 22.3917 64.2511C22.0982 65.0518 23.3811 66.5804 24.9493 67.1554C26.5175 67.7303 28.0975 67.4046 28.3911 66.604C28.6846 65.8034 27.9037 64.2649 25.5968 64.6661Z" fill="#D2E3DD"/>
<path d="M28.2654 65.5299L23.114 63.7106C22.753 63.7106 22.5521 63.983 22.5521 63.983C24.5934 66.3871 26.7596 66.5828 28.2654 65.5299Z" fill="#AECAC0"/>
<path d="M25.9691 62.5413C24.1394 61.1496 22.6775 61.1671 22.3456 62.0722C22.0138 62.9774 23.4642 64.7055 25.2372 65.3556C27.0101 66.0056 28.7964 65.6374 29.1282 64.7323C29.4601 63.8271 28.5772 62.0878 25.9691 62.5413Z" fill="#D2E3DD"/>
<ellipse cx="29.7158" cy="61.2346" rx="1.74558" ry="3.41918" transform="rotate(-65.0101 29.7158 61.2346)" fill="#D2E3DD"/>
<path d="M51.1127 63.9839C50.339 61.032 45.9806 62.6762 45.0513 60.3419C39.4322 59.6266 34.4503 62.7484 34.4503 62.7484C34.706 65.6641 30.0913 69.4505 34.1291 71.4187C40.2353 73.9061 52.2456 68.3065 51.1127 63.9839Z" fill="#819D92"/>
<path d="M58.1461 57.8359L54.7477 60.7891C52.4813 61.8457 50.3869 62.1792 49.362 61.3232C48.5253 60.6245 48.3408 59.0829 48.6471 57.2246L53.7624 52.792L58.1461 57.8359Z" fill="#070D0D"/>
<path d="M61.532 48.1229C55.3479 42.2106 46.796 57.7879 49.6674 60.533C52.5388 63.2782 67.7161 54.0351 61.532 48.1229Z" fill="#819D92"/>
<path d="M73.9169 23.8224C73.9169 19.8355 70.6849 16.6035 66.698 16.6035V33.207C70.6849 33.207 73.9169 29.975 73.9169 25.9881V23.8224Z" fill="#0E1B1B"/>
<path d="M13.9998 23.8224C13.9998 19.8355 17.2318 16.6035 21.2187 16.6035V33.207C17.2318 33.207 13.9998 29.975 13.9998 25.9881V23.8224Z" fill="#0E1B1B"/>
<path d="M69.104 22.0179C69.104 39.7513 57.8458 44.0356 43.9581 44.0356C30.0704 44.0356 18.8123 39.7513 18.8123 22.0179C18.8123 9.04514 27.6641 0.000244141 43.9581 0.000244141C57.8458 0.000244141 69.104 6.66484 69.104 22.0179Z" fill="#819D92"/>
<path d="M44.1133 11.0029C61.8097 11.0029 64.4287 15.3169 64.4287 25.2549C64.4287 25.3743 64.4255 25.4928 64.4238 25.6104C64.3408 16.5301 61.5351 12.5801 44.1133 12.5801C26.5047 12.5801 23.8778 17.9415 23.8008 25.6777C23.7986 25.5382 23.7979 25.3971 23.7979 25.2549C23.7979 16.8576 26.2286 11.0029 44.1133 11.0029Z" fill="#92ADA3"/>
<path d="M44.1133 39.4297C26.4169 39.4297 23.7979 35.1157 23.7979 25.1777C23.7979 25.0583 23.801 24.9398 23.8027 24.8223C23.8857 33.9025 26.6914 37.8525 44.1133 37.8525C61.7219 37.8525 64.3488 32.4911 64.4258 24.7549C64.4279 24.8944 64.4287 25.0355 64.4287 25.1777C64.4287 33.575 61.998 39.4297 44.1133 39.4297Z" fill="#6D8D81"/>
<path d="M64.4285 25.2354C64.4285 36.079 56.5582 38.6988 44.1132 38.6988C30.7694 38.6988 23.7979 36.079 23.7979 25.2354C23.7979 17.3028 26.2282 11.772 44.1132 11.772C61.8099 11.772 64.4285 15.8473 64.4285 25.2354Z" fill="#A9C1B8"/>
<path d="M63.2264 25.2355C63.2264 34.9173 55.8217 37.2564 44.1131 37.2564C31.5589 37.2564 24.9999 34.9173 24.9999 25.2355C24.9999 18.1528 27.2864 13.2146 44.1131 13.2146C60.7627 13.2146 63.2264 16.8532 63.2264 25.2355Z" fill="#0E1B1B"/>
<path d="M44.113 13.2146C60.7621 13.2146 63.2263 16.8573 63.2263 25.2488C63.2263 25.3494 63.223 25.4495 63.2214 25.5486C63.1432 17.8816 60.5036 14.5466 44.113 14.5466C27.5661 14.5466 25.0807 19.0628 25.0027 25.5828C25.0009 25.4725 24.9998 25.361 24.9998 25.2488C24.9998 18.1582 27.2868 13.2146 44.113 13.2146Z" fill="#070D0D"/>
<path d="M44.113 37.218C27.464 37.218 24.9998 33.5753 24.9998 25.1838C24.9998 25.0832 25.003 24.9831 25.0046 24.884C25.0828 32.551 27.7225 35.886 44.113 35.886C60.66 35.886 63.1453 31.3698 63.2234 24.8499C63.2251 24.9601 63.2263 25.0716 63.2263 25.1838C63.2263 32.2744 60.9393 37.218 44.113 37.218Z" fill="#2A5050"/>
<g filter="url(#filter0_f_2036_22375)">
<path d="M40.6698 21.3558C40.8577 21.5438 40.8577 21.8485 40.6698 22.0365L38.2114 24.4946C38.0235 24.6826 38.0234 24.9874 38.2114 25.1753L40.6696 27.6337C40.8576 27.8216 40.8576 28.1264 40.6696 28.3143L39.5559 29.4282C39.368 29.6161 39.0632 29.6161 38.8752 29.4282L36.4169 26.9699C36.2289 26.7819 35.9242 26.7819 35.7362 26.9699L33.2781 29.4282C33.0901 29.6161 32.7853 29.6162 32.5974 29.4282L31.4835 28.3143C31.2956 28.1264 31.2956 27.8216 31.4835 27.6337L33.9417 25.1753C34.1297 24.9873 34.1296 24.6826 33.9417 24.4946L31.4835 22.0365C31.2956 21.8485 31.2956 21.5438 31.4835 21.3558L32.5974 20.242C32.7853 20.054 33.0901 20.054 33.2781 20.242L35.7362 22.7001C35.9242 22.8881 36.2289 22.8881 36.4169 22.7001L38.8752 20.2419C39.0632 20.054 39.3679 20.054 39.5559 20.2419L40.6698 21.3558Z" fill="#F1F8F4"/>
<path d="M58.4785 21.3558C58.6664 21.5438 58.6664 21.8485 58.4785 22.0365L56.0201 24.4946C55.8322 24.6826 55.8322 24.9873 56.0201 25.1753L58.4783 27.6337C58.6663 27.8216 58.6663 28.1264 58.4783 28.3143L57.3646 29.4282C57.1767 29.6161 56.8719 29.6161 56.6839 29.4282L54.2256 26.9699C54.0376 26.7819 53.7329 26.7819 53.5449 26.9699L51.0868 29.4282C50.8988 29.6161 50.5941 29.6162 50.4061 29.4282L49.2922 28.3143C49.1043 28.1264 49.1043 27.8216 49.2922 27.6337L51.7504 25.1753C51.9384 24.9873 51.9384 24.6826 51.7504 24.4946L49.2922 22.0365C49.1043 21.8485 49.1043 21.5438 49.2922 21.3558L50.4061 20.242C50.5941 20.054 50.8988 20.054 51.0868 20.242L53.5449 22.7001C53.7329 22.8881 54.0376 22.8881 54.2256 22.7001L56.684 20.2419C56.8719 20.054 57.1767 20.054 57.3646 20.2419L58.4785 21.3558Z" fill="#F1F8F4"/>
</g>
<path d="M39.6698 21.3558C39.8577 21.5438 39.8577 21.8485 39.6698 22.0365L37.2114 24.4946C37.0235 24.6826 37.0234 24.9874 37.2114 25.1753L39.6696 27.6337C39.8576 27.8216 39.8576 28.1264 39.6696 28.3143L38.5559 29.4282C38.368 29.6161 38.0632 29.6161 37.8752 29.4282L35.4169 26.9699C35.2289 26.7819 34.9242 26.7819 34.7362 26.9699L32.2781 29.4282C32.0901 29.6161 31.7853 29.6162 31.5974 29.4282L30.4835 28.3143C30.2956 28.1264 30.2956 27.8216 30.4835 27.6337L32.9417 25.1753C33.1297 24.9873 33.1296 24.6826 32.9417 24.4946L30.4835 22.0365C30.2956 21.8485 30.2956 21.5438 30.4835 21.3558L31.5974 20.242C31.7853 20.054 32.0901 20.054 32.2781 20.242L34.7362 22.7001C34.9242 22.8881 35.2289 22.8881 35.4169 22.7001L37.8752 20.2419C38.0632 20.054 38.3679 20.054 38.5559 20.2419L39.6698 21.3558Z" fill="#F1F8F4"/>
<path d="M57.4785 21.3558C57.6664 21.5438 57.6664 21.8485 57.4785 22.0365L55.0201 24.4946C54.8322 24.6826 54.8322 24.9873 55.0201 25.1753L57.4783 27.6337C57.6663 27.8216 57.6663 28.1264 57.4783 28.3143L56.3646 29.4282C56.1767 29.6161 55.8719 29.6161 55.6839 29.4282L53.2256 26.9699C53.0376 26.7819 52.7329 26.7819 52.5449 26.9699L50.0868 29.4282C49.8988 29.6161 49.5941 29.6162 49.4061 29.4282L48.2922 28.3143C48.1043 28.1264 48.1043 27.8216 48.2922 27.6337L50.7504 25.1753C50.9384 24.9873 50.9384 24.6826 50.7504 24.4946L48.2922 22.0365C48.1043 21.8485 48.1043 21.5438 48.2922 21.3558L49.4061 20.242C49.5941 20.054 49.8988 20.054 50.0868 20.242L52.5449 22.7001C52.7329 22.8881 53.0376 22.8881 53.2256 22.7001L55.684 20.2419C55.8719 20.054 56.1767 20.054 56.3646 20.2419L57.4785 21.3558Z" fill="#F1F8F4"/>
<ellipse cx="44" cy="97.0714" rx="13.803" ry="3.00065" fill="#445556"/>
<defs>
<filter id="filter0_f_2036_22375" x="27.9733" y="16.7319" width="34.0154" height="16.2064" filterUnits="userSpaceOnUse" color-interpolation-filters="sRGB">
<feFlood flood-opacity="0" result="BackgroundImageFix"/>
<feBlend mode="normal" in="SourceGraphic" in2="BackgroundImageFix" result="shape"/>
<feGaussianBlur stdDeviation="1.6846" result="effect1_foregroundBlur_2036_22375"/>
</filter>
</defs>
</svg>
