<svg width="88" height="100" viewBox="0 0 88 100" fill="none" xmlns="http://www.w3.org/2000/svg">
<path d="M33.7239 76.5161C33.7239 74.1375 54.1775 74.1375 54.1775 76.5161C54.1775 84.7767 47.3265 88.1564 43.7239 88.1564C40.1213 88.1564 33.7238 85.0062 33.7239 76.5161Z" fill="#BAD3CA"/>
<path d="M33.5239 71.845H54.4588L53.6542 75.8779C53.6542 75.8779 50.6087 81.2296 43.9913 81.2296C37.374 81.2296 34.3285 75.8779 34.3285 75.8779L33.5239 71.845Z" fill="#152828"/>
<path d="M33.885 73.6499C36.7972 78.5106 50.5536 79.0882 54.098 73.6499L53.5686 76.2968C53.5686 76.2968 50.6836 81.6035 44.0663 81.6035C37.449 81.6035 34.4035 76.2519 34.4035 76.2519L33.885 73.6499Z" fill="#2A5050"/>
<path d="M34.2942 75.6958C39.949 82.0725 47.962 82.4335 53.6914 75.6958L53.5687 76.2974C53.5687 76.2974 50.6382 81.7598 43.9461 81.6154C37.2539 81.4709 34.4025 76.2493 34.4025 76.2493L34.2942 75.6958Z" fill="#468586"/>
<path d="M29.8007 47.6909L34.8823 46.0484C35.4558 45.863 35.9738 45.5369 36.389 45.0999L36.8993 44.5627H43.9979H50.9857L51.6405 45.191C52.0347 45.5693 52.5096 45.8532 53.0295 46.0212L58.1951 47.6909C58.1951 47.6909 65.775 75.8447 43.9979 75.8447C22.2209 75.8447 29.8007 47.6909 29.8007 47.6909Z" fill="#D2E3DD"/>
<path d="M37.6675 42.1565H50.1803L51.3834 45.766C51.3834 45.766 51.3834 49.3754 43.9239 49.3754C36.4644 49.3754 36.4644 45.766 36.4644 45.766L37.6675 42.1565Z" fill="#2A5050"/>
<path d="M36.5847 45.4053C36.5847 45.4053 37.6675 48.5335 43.9239 48.5335C50.3006 48.4132 51.2631 45.4053 51.2631 45.4053L51.3834 45.7662C51.3834 45.7662 51.3834 49.3757 43.9239 49.3757C36.4644 49.3757 36.4644 45.7662 36.4644 45.7662L36.5847 45.4053Z" fill="#468586"/>
<path d="M37.6675 42.1565H50.1803L50.9816 44.5628C47.8943 45.766 40.3144 45.6456 36.8662 44.5628L37.6675 42.1565Z" fill="#152828"/>
<path d="M58.5057 68.8029C58.5057 76.8126 52.0126 83.3058 44.0029 83.3058C35.9932 83.3058 29.5 76.8126 29.5 68.8029C29.5 60.7932 35.9932 54.3 44.0029 54.3C52.0126 54.3 58.5057 60.7932 58.5057 68.8029Z" fill="#A9CADF"/>
<path d="M42.8662 59.337C44.1888 58.4304 43.5439 56.265 42.7811 55.0255C42.5856 54.7078 42.2021 54.581 41.8377 54.6607L38.0603 55.4868C37.9269 55.516 37.8009 55.5721 37.6901 55.6518L34.8904 57.6653L32.49 59.9367C32.4239 59.9993 32.3666 60.0706 32.3198 60.1486L31.0583 62.2512C30.9492 62.433 30.902 62.6446 30.9132 62.8563C31.0013 64.5274 30.7789 67.3574 31.3904 68.531C32.0873 69.8686 32.8773 70.0986 33.0677 70.8295C33.2855 71.6653 32.8501 71.4564 32.8501 72.5012C32.8501 73.5459 33.2855 73.5459 34.3743 74.3818C35.2929 75.087 36.9736 78.9919 37.7198 81.0868C37.8105 81.3415 37.9957 81.5522 38.2394 81.6692L40.0355 82.531C39.7452 81.6255 38.9033 78.8534 38.7291 77.5161C38.5114 75.8444 41.1243 73.9638 40.6888 72.7101C40.2873 71.5542 38.0759 72.0832 38.0759 70.8295C38.0759 69.5758 37.721 69.74 34.8904 69.531C32.0597 69.3221 32.8501 66.2116 34.3743 66.6504C36.5517 67.2773 35.0275 65.8146 36.3339 64.5609C37.6404 63.3071 40.6888 64.1429 39.3823 61.6355C38.0759 59.128 36.3339 61.8444 35.6807 60.3818C35.2853 59.4964 37.4226 58.2922 38.9468 58.5012C40.471 58.7101 40.7253 60.8045 42.8662 59.337Z" fill="#709B67"/>
<path d="M46.7855 57.6653C46.3592 57.1199 47.5462 55.9893 48.392 55.3644C48.6891 55.145 49.0861 55.1533 49.3993 55.3491L52.7938 57.4706C52.858 57.5108 52.9174 57.558 52.9709 57.6115L56.7235 61.3641C56.8332 61.4739 56.9159 61.6077 56.965 61.755L58.2319 65.5557C58.3317 65.8549 58.2809 66.1837 58.0421 66.3896C57.7525 66.6394 57.3291 66.9258 56.8904 67.031C56.4058 67.1473 55.9612 67.4691 55.6621 67.7317C55.4079 67.9549 55.3348 68.3111 55.3454 68.6492C55.3644 69.255 55.2397 70.3327 54.4065 71.6653C53.1001 73.7549 52.4468 77.0982 50.4872 76.8892C48.5275 76.6803 50.4951 71.5181 49.3984 70.2026C48.5275 69.1579 47.221 70.2026 45.9146 68.9489C44.8043 67.8834 45.0702 66.0534 46.3501 64.9788C48.092 63.5161 52.6646 65.1877 52.8823 63.725C53.1001 62.2623 50.9791 62.031 49.8904 62.031C49.0194 62.031 47.6807 61.6952 47.3904 62.531C46.9889 63.6869 45.1387 63.531 45.2613 62.4713C45.4549 60.7997 49.632 59.9245 48.8904 58.5012C48.4549 57.6653 47.6565 58.7798 46.7855 57.6653Z" fill="#709B67"/>
<path d="M42.4307 54.531C43.3017 55.5758 44.3904 58.2922 42.8662 59.337C41.1242 60.531 40.471 58.7101 38.9468 58.5012C37.4226 58.2922 35.6001 58.9862 35.8904 60.031C36.3193 61.5744 38.2964 59.5513 39.3823 61.6355C40.4682 63.7197 37.4768 63.1564 36.3339 64.5609C35.6807 65.3636 35.8904 66.7724 34.3743 66.6504C32.8904 66.531 32.0597 69.3221 34.8904 69.531C36.8904 69.6786 37.8904 69.531 38.3904 71.031C38.7868 72.2204 40.2873 71.5542 40.6888 72.7101C41.1243 73.9638 38.5114 75.8444 38.7291 77.5161C38.9033 78.8534 39.7452 81.6255 40.0355 82.531L38.2394 81.6692C37.9957 81.5522 37.8105 81.3415 37.7198 81.0868C36.9736 78.9919 35.2929 75.087 34.3743 74.3818C33.2855 73.5459 32.8501 73.5459 32.8501 72.5012C32.8501 71.4564 33.1081 71.3668 32.8904 70.531C32.7 69.8001 32.0873 69.8686 31.3904 68.531C30.7372 67.2773 31.0355 64.133 30.8904 62.531M48.8904 55.031C48.1646 55.4489 46.2832 56.531 46.7855 57.6653C47.2879 58.7997 48.4393 57.6653 48.8904 58.531C49.632 59.9544 45.9225 60.4346 45.3904 62.031C44.8904 63.531 46.7855 64.031 47.3904 62.531C47.7213 61.7104 50.3904 62.031 50.3904 62.031C50.3904 62.031 53.1001 62.2623 52.8823 63.725C52.6135 65.531 48.092 63.5161 46.3501 64.9788C45.0702 66.0534 44.8043 67.8834 45.9146 68.9489C47.221 70.2026 48.5275 69.1579 49.3984 70.2026C50.4951 71.5181 48.5275 76.6803 50.4872 76.8892C52.4468 77.0982 53.0839 74.1206 54.3904 72.031C55.6968 69.9415 54.8904 69.031 55.2775 68.1131C55.6131 67.3173 56.0194 67.24 56.8904 67.031C57.5872 66.8638 58.2452 66.24 58.3904 66.031" stroke="#4E8344"/>
<ellipse cx="44.0029" cy="68.8029" rx="14.5029" ry="14.5029" stroke="#4E8344"/>
<rect x="23.7869" y="53.9592" width="6.67546" height="13.6174" transform="rotate(19.4736 23.7869 53.9592)" fill="#2A5050"/>
<path d="M30.0812 56.1847L25.5416 69.0232L20.5107 67.2442L19.0691 67.073L19.8753 65.021C19.8755 65.0211 19.8758 65.0211 19.876 65.0212L23.7875 53.9593L30.0812 56.1847Z" fill="#2A5050"/>
<path d="M22.74 56.9285L21.5449 60.3019C21.4271 62.2912 22.2939 63.6654 23.2293 63.9738C24.4203 64.3664 26.1543 63.6972 27.7707 62.7305L29.0404 59.1566L22.74 56.9285Z" fill="#152828"/>
<path d="M19.0686 67.0722L19.8749 65.0203C21.6125 65.3478 23.5091 67.2964 26.0056 65.6851C27.4754 64.4118 26.7281 65.4935 26.7281 65.6617L25.9301 67.8874L19.0686 67.0722Z" fill="#468586"/>
<path d="M18.1121 67.0567C19.1939 64.2922 25.4014 69.7721 26.4582 66.4298C29.8134 69.9098 33.6137 76.9228 30.0818 79.8395C24.7832 84.2151 15.7605 73.0663 18.1121 67.0567Z" fill="#BAD3CA"/>
<path d="M29.6408 81.5843C28.2504 80.5651 27.7376 78.7142 28.3588 77.1061C29.4592 74.257 33.658 74.873 33.8937 77.9181L33.9182 78.2341L35.9517 80.2409L33.8483 83.884C32.0451 83.2233 30.8836 82.4953 29.6408 81.5843Z" fill="#2A5050"/>
<path d="M29.0875 81.0783C28.2269 80.1651 27.7381 78.7141 28.3593 77.1059C28.9287 75.6318 30.3668 75.0164 31.5777 75.3229C29.1142 75.9841 27.8911 78.5834 29.0875 81.0783Z" fill="#152828"/>
<ellipse cx="34.5395" cy="76.7251" rx="1.74361" ry="3.41531" transform="rotate(-75 34.5395 76.7251)" fill="#D2E3DD"/>
<path d="M36.6281 82.1489C38.5692 81.551 39.7766 82.0101 39.7766 82.8619C39.7766 83.7136 38.0478 84.7061 36.3794 84.7061C34.711 84.7061 33.3412 83.8573 33.3412 83.0056C33.3412 82.1538 34.6026 80.9795 36.6281 82.1489Z" fill="#D2E3DD"/>
<path d="M33.7108 82.1783L39.3336 82.1754C39.6941 82.2956 39.7582 82.6562 39.7582 82.6562C36.9765 84.2089 34.7766 83.6835 33.7108 82.1783Z" fill="#AECAC0"/>
<path d="M36.9284 80.2533C39.123 79.5773 40.4879 80.0964 40.4879 81.0593C40.4879 82.0223 38.5334 83.1443 36.6472 83.1443C34.761 83.1443 33.2124 82.1848 33.2124 81.2218C33.2124 80.2588 34.6385 78.9312 36.9284 80.2533Z" fill="#D2E3DD"/>
<path d="M30.8353 47.613C38.608 51.1673 27.3117 64.8616 23.7027 63.2113C20.0936 61.561 23.0625 44.0588 30.8353 47.613Z" fill="#BAD3CA"/>
<rect width="6.67546" height="13.6174" transform="matrix(-0.942795 0.333373 0.333373 0.942795 64.1057 53.9739)" fill="#2A5050"/>
<path d="M57.8114 56.1994L62.351 69.0378L67.3819 67.2588L68.8235 67.0877L68.0173 65.0357C68.017 65.0357 68.0168 65.0358 68.0165 65.0358L64.105 53.974L57.8114 56.1994Z" fill="#2A5050"/>
<path d="M65.1526 56.9432L66.3477 60.3165C66.4654 62.3058 65.5987 63.6801 64.6633 63.9885C63.4723 64.3811 61.7382 63.7118 60.1218 62.7452L58.8522 59.1713L65.1526 56.9432Z" fill="#152828"/>
<path d="M68.824 67.0869L68.0177 65.035C66.2801 65.3625 64.3835 67.311 61.887 65.6997C60.4172 64.4264 61.1645 65.5082 61.1645 65.6764L61.9625 67.9021L68.824 67.0869Z" fill="#468586"/>
<path d="M69.7804 67.0713C68.6987 64.3069 62.4912 69.7867 61.4343 66.4444C58.0792 69.9245 54.2788 76.9374 57.8108 79.8541C63.1094 84.2297 72.132 73.0809 69.7804 67.0713Z" fill="#BAD3CA"/>
<path d="M58.2518 81.5989C59.6422 80.5797 60.155 78.7289 59.5338 77.1207C58.4333 74.2716 54.2346 74.8876 53.9989 77.9327L53.9744 78.2488L51.9409 80.2555L54.0443 83.8987C55.8474 83.2379 57.009 82.51 58.2518 81.5989Z" fill="#2A5050"/>
<path d="M58.8051 81.093C59.6657 80.1798 60.1544 78.7287 59.5333 77.1206C58.9639 75.6464 57.5258 75.0311 56.3149 75.3376C58.7784 75.9987 60.0015 78.598 58.8051 81.093Z" fill="#152828"/>
<ellipse cx="1.74361" cy="3.41531" rx="1.74361" ry="3.41531" transform="matrix(-0.258819 -0.965926 -0.965926 0.258819 57.1033 77.54)" fill="#D2E3DD"/>
<path d="M51.2645 82.1636C49.3233 81.5656 48.116 82.0247 48.116 82.8765C48.116 83.7283 49.8448 84.7207 51.5132 84.7207C53.1816 84.7207 54.5514 83.872 54.5514 83.0202C54.5514 82.1684 53.29 80.9941 51.2645 82.1636Z" fill="#D2E3DD"/>
<path d="M54.1818 82.193L48.559 82.1901C48.1984 82.3102 48.1344 82.6708 48.1344 82.6708C50.9161 84.2235 53.116 83.6982 54.1818 82.193Z" fill="#AECAC0"/>
<path d="M50.9641 80.268C48.7696 79.592 47.4047 80.111 47.4047 81.074C47.4047 82.0369 49.3591 83.1589 51.2454 83.1589C53.1316 83.1589 54.6802 82.1994 54.6802 81.2364C54.6802 80.2735 53.2541 78.9459 50.9641 80.268Z" fill="#D2E3DD"/>
<path d="M57.2164 47.5891C49.4436 51.1433 60.74 64.8377 64.349 63.1874C67.958 61.5371 64.9892 44.0349 57.2164 47.5891Z" fill="#BAD3CA"/>
<path d="M73.9169 23.8224C73.9169 19.8355 70.6849 16.6035 66.698 16.6035V33.207C70.6849 33.207 73.9169 29.975 73.9169 25.9881V23.8224Z" fill="#2A5050"/>
<path d="M13.9998 23.8224C13.9998 19.8355 17.2318 16.6035 21.2187 16.6035V33.207C17.2318 33.207 13.9998 29.975 13.9998 25.9881V23.8224Z" fill="#2A5050"/>
<path d="M69.104 22.0179C69.104 39.7513 57.8458 44.0356 43.9581 44.0356C30.0704 44.0356 18.8123 39.7513 18.8123 22.0179C18.8123 9.04514 27.6641 0.000244141 43.9581 0.000244141C57.8458 0.000244141 69.104 6.66484 69.104 22.0179Z" fill="#BAD3CA"/>
<path d="M44.1133 11.0029C61.8097 11.0029 64.4287 15.3169 64.4287 25.2549C64.4287 25.3743 64.4255 25.4928 64.4238 25.6104C64.3408 16.5301 61.5351 12.5801 44.1133 12.5801C26.5047 12.5801 23.8778 17.9415 23.8008 25.6777C23.7986 25.5382 23.7979 25.3971 23.7979 25.2549C23.7979 16.8576 26.2286 11.0029 44.1133 11.0029Z" fill="#CEE6DD"/>
<path d="M44.1133 39.4297C26.4169 39.4297 23.7979 35.1157 23.7979 25.1777C23.7979 25.0583 23.801 24.9398 23.8027 24.8223C23.8857 33.9025 26.6914 37.8525 44.1133 37.8525C61.7219 37.8525 64.3488 32.4911 64.4258 24.7549C64.4279 24.8944 64.4287 25.0355 64.4287 25.1777C64.4287 33.575 61.998 39.4297 44.1133 39.4297Z" fill="#92B8AA"/>
<path d="M64.4285 25.2354C64.4285 36.079 56.5582 38.6988 44.1132 38.6988C30.7694 38.6988 23.7979 36.079 23.7979 25.2354C23.7979 17.3028 26.2282 11.772 44.1132 11.772C61.8099 11.772 64.4285 15.8473 64.4285 25.2354Z" fill="#EFFBF7"/>
<path d="M63.2264 25.2355C63.2264 34.9173 55.8217 37.2564 44.1131 37.2564C31.5589 37.2564 24.9999 34.9173 24.9999 25.2355C24.9999 18.1528 27.2864 13.2146 44.1131 13.2146C60.7627 13.2146 63.2264 16.8532 63.2264 25.2355Z" fill="#2A5050"/>
<path d="M44.113 13.2146C60.7621 13.2146 63.2263 16.8573 63.2263 25.2488C63.2263 25.3494 63.223 25.4495 63.2214 25.5486C63.1432 17.8816 60.5036 14.5466 44.113 14.5466C27.5661 14.5466 25.0807 19.0628 25.0027 25.5828C25.0009 25.4725 24.9998 25.361 24.9998 25.2488C24.9998 18.1582 27.2868 13.2146 44.113 13.2146Z" fill="#152828"/>
<path d="M44.113 37.218C27.464 37.218 24.9998 33.5753 24.9998 25.1838C24.9998 25.0832 25.003 24.9831 25.0046 24.884C25.0828 32.551 27.7225 35.886 44.113 35.886C60.66 35.886 63.1453 31.3698 63.2234 24.8499C63.2251 24.9601 63.2263 25.0716 63.2263 25.1838C63.2263 32.2744 60.9393 37.218 44.113 37.218Z" fill="#468586"/>
<g filter="url(#filter0_f_2139_5401)">
<ellipse cx="35.106" cy="24.8332" rx="3.125" ry="4.92788" fill="#F1F8F4"/>
<ellipse cx="52.894" cy="24.8332" rx="3.125" ry="4.92788" fill="#F1F8F4"/>
</g>
<ellipse cx="35.106" cy="24.8332" rx="3.125" ry="4.92788" fill="#F1F8F4"/>
<ellipse cx="52.894" cy="24.8332" rx="3.125" ry="4.92788" fill="#F1F8F4"/>
<ellipse cx="44" cy="97.0006" rx="13.803" ry="3.00065" fill="#607C7F" fill-opacity="0.2"/>
<defs>
<filter id="filter0_f_2139_5401" x="28.6156" y="16.5399" width="30.7689" height="16.5865" filterUnits="userSpaceOnUse" color-interpolation-filters="sRGB">
<feFlood flood-opacity="0" result="BackgroundImageFix"/>
<feBlend mode="normal" in="SourceGraphic" in2="BackgroundImageFix" result="shape"/>
<feGaussianBlur stdDeviation="1.68269" result="effect1_foregroundBlur_2139_5401"/>
</filter>
</defs>
</svg>
