<svg width="104" height="100" viewBox="0 0 104 100" fill="none" xmlns="http://www.w3.org/2000/svg">
<path d="M33.724 76.5161C33.724 74.1375 54.1776 74.1375 54.1776 76.5161C54.1776 84.7767 47.3266 88.1564 43.724 88.1564C40.1214 88.1564 33.7239 85.0062 33.724 76.5161Z" fill="#BAD3CA"/>
<path d="M33.524 71.845H54.4588L53.6542 75.8779C53.6542 75.8779 50.6087 81.2296 43.9914 81.2296C37.3741 81.2296 34.3286 75.8779 34.3286 75.8779L33.524 71.845Z" fill="#152828"/>
<path d="M33.8851 73.6499C36.7973 78.5106 50.5537 79.0882 54.098 73.6499L53.5686 76.2968C53.5686 76.2968 50.6837 81.6035 44.0664 81.6035C37.449 81.6035 34.4035 76.2519 34.4035 76.2519L33.8851 73.6499Z" fill="#2A5050"/>
<path d="M34.2942 75.6958C39.949 82.0725 47.962 82.4335 53.6914 75.6958L53.5687 76.2974C53.5687 76.2974 50.6382 81.7598 43.9461 81.6154C37.2539 81.4709 34.4025 76.2493 34.4025 76.2493L34.2942 75.6958Z" fill="#468586"/>
<path d="M29.8008 47.6909L34.8823 46.0484C35.4559 45.863 35.9739 45.5369 36.3891 45.0999L36.8994 44.5627H43.998H50.9858L51.6405 45.191C52.0347 45.5693 52.5097 45.8532 53.0296 46.0212L58.1952 47.6909C58.1952 47.6909 65.775 75.8447 43.998 75.8447C22.221 75.8447 29.8008 47.6909 29.8008 47.6909Z" fill="#D2E3DD"/>
<path d="M37.6676 42.1565H50.1803L51.3835 45.766C51.3835 45.766 51.3835 49.3754 43.924 49.3754C36.4644 49.3754 36.4644 45.766 36.4644 45.766L37.6676 42.1565Z" fill="#2A5050"/>
<path d="M36.5847 45.4053C36.5847 45.4053 37.6676 48.5335 43.924 48.5335C50.3007 48.4132 51.2632 45.4053 51.2632 45.4053L51.3835 45.7662C51.3835 45.7662 51.3835 49.3757 43.924 49.3757C36.4644 49.3757 36.4644 45.7662 36.4644 45.7662L36.5847 45.4053Z" fill="#468586"/>
<path d="M37.6675 42.1565H50.1803L50.9816 44.5628C47.8943 45.766 40.3144 45.6456 36.8662 44.5628L37.6675 42.1565Z" fill="#152828"/>
<path d="M27.4736 51.0571L28.4528 55.9521L28.4528 60.4383L21.8255 68.6504L16.6355 64.4506L27.4736 51.0571Z" fill="#2A5050"/>
<path d="M31.9476 47.4612C32.5691 47.9275 33.0188 48.442 33.3204 48.9904C30.4762 52.7094 28.3991 54.6993 28.4494 58.9884C25.7949 60.9999 22.8969 62.1161 21.6533 61.1831C18.4784 58.8013 25.1098 42.3315 31.9476 47.4612Z" fill="#152828"/>
<ellipse cx="5.0395" cy="10.8744" rx="5.0395" ry="10.8744" transform="matrix(-0.663457 0.748214 0.748214 0.663457 8.6925 50.7566)" fill="#BAD3CA"/>
<path d="M8.67165 51.1973L12.2607 50.5291C14.4625 55.2111 11.7397 60.8637 7.38258 60.8502C4.04181 60.4449 3.71083 58.8526 1.60735 56.1577C2.72816 53.3905 3.52616 52.0594 6.60806 50.4311L8.67165 51.1973Z" fill="#2A5050"/>
<path d="M5.02562 60.1477C9.7193 60.3866 11.7399 57.3833 13.0327 53.6553C13.2397 57.1346 10.9354 60.9077 7.45006 60.846C6.44283 60.8127 5.63435 60.4972 5.02562 60.1477Z" fill="#468586"/>
<path d="M4.56699 54.6448C3.4422 53.3858 2.53037 52.3652 1.33102 53.5333C0.131664 54.7013 1.04349 55.7219 2.16828 56.9809C3.29307 58.2399 4.74186 58.7375 5.40425 58.0924C6.06663 57.4474 5.69178 55.9038 4.56699 54.6448Z" fill="#D2E3DD"/>
<path d="M5.42472 55.9032L2.28737 53.0015C2.28737 53.0015 1.94915 53.097 1.86768 53.1401C2.72551 55.3289 4.24779 56.3578 5.59344 56.3775L5.42472 55.9032Z" fill="#AECAC0"/>
<path d="M5.72812 52.4494C4.59021 51.1987 3.66775 50.1849 2.50848 51.3139C1.34921 52.4429 2.27168 53.4567 3.40959 54.7074C4.54751 55.9581 5.98899 56.4665 6.62924 55.8429C7.26948 55.2194 6.86604 53.7001 5.72812 52.4494Z" fill="#D2E3DD"/>
<path d="M6.53239 53.7235L3.39504 50.8218C3.39504 50.8218 3.05682 50.9173 2.97535 50.9604C3.83317 53.1492 5.35546 54.1781 6.7011 54.1978L6.53239 53.7235Z" fill="#AECAC0"/>
<path d="M6.83585 50.2697C5.69793 49.019 4.77547 48.0052 3.61621 49.1342C2.45694 50.2632 3.3794 51.2771 4.51732 52.5277C5.65524 53.7784 7.09672 54.2868 7.73696 53.6632C8.37721 53.0397 7.97377 51.5204 6.83585 50.2697Z" fill="#D2E3DD"/>
<path d="M9.07977 50.8502C8.00306 53.1862 9.04486 55.7623 10.9698 55.289C14.5508 54.4086 12.3005 50.2361 11.7245 48.9091C10.2847 45.5917 5.76378 48.9314 6.87408 50.7921C7.46192 51.7772 9.07977 50.8502 9.07977 50.8502Z" fill="#D2E3DD"/>
<path d="M31.9793 46.5576C38.802 51.7073 24.8127 62.6403 21.6448 60.2491C18.4769 57.858 25.1567 41.4078 31.9793 46.5576Z" fill="#BAD3CA"/>
<path d="M60.3824 50.8701L59.4033 55.7651L59.4033 60.2513L66.0306 68.4633L71.2206 64.2636L60.3824 50.8701Z" fill="#2A5050"/>
<path d="M55.9085 47.2742C55.287 47.7405 54.8373 48.255 54.5357 48.8034C57.3799 52.5224 59.457 54.5123 59.4067 58.8013C62.0612 60.8129 64.9592 61.9291 66.2028 60.9961C69.3777 58.6143 62.7463 42.1445 55.9085 47.2742Z" fill="#152828"/>
<ellipse cx="74.3707" cy="61.5549" rx="5.0395" ry="10.8744" transform="rotate(48.4359 74.3707 61.5549)" fill="#BAD3CA"/>
<path d="M55.8767 46.3703C49.0541 51.5201 63.0434 62.453 66.2113 60.0619C69.3791 57.6707 62.6994 41.2205 55.8767 46.3703Z" fill="#BAD3CA"/>
<path d="M83.0191 50.424L79.6346 48.896C76.3272 52.9895 77.6507 59.2327 81.9588 60.2728C85.3576 60.68 86.0696 59.1868 88.7994 57.0329C88.361 54.0279 87.8945 52.5197 85.2432 50.1659L83.0191 50.424Z" fill="#2A5050"/>
<path d="M84.4571 60.1493C79.7619 59.2505 78.4917 55.7947 78.1157 51.7988C77.07 55.1864 78.4344 59.4714 81.8929 60.2531C82.8961 60.4637 83.7712 60.3475 84.4571 60.1493Z" fill="#468586"/>
<path d="M98.5268 34.3019C99.3584 34.9286 99.7981 36.0767 99.6919 37.5753C99.5861 39.0652 98.938 40.8003 97.735 42.3968C96.5318 43.9935 95.0423 45.0953 93.639 45.6076C92.2278 46.1229 91.003 46.0166 90.1714 45.39C89.3398 44.7634 88.9001 43.6152 89.0063 42.1167C89.112 40.6266 89.7606 38.891 90.9638 37.2943C92.1669 35.6978 93.656 34.5966 95.0591 34.0843C96.4705 33.569 97.6952 33.6753 98.5268 34.3019Z" stroke="#F6CA72" stroke-width="1.47248"/>
<path d="M74.4468 31.3448C73.4883 31.7517 72.7839 32.7593 72.5245 34.2391C72.2666 35.7104 72.4757 37.5507 73.2568 39.3908C74.0379 41.2312 75.2167 42.6606 76.4543 43.4972C77.699 44.3385 78.9131 44.5317 79.8716 44.1249C80.8301 43.7181 81.5345 42.7104 81.7939 41.2306C82.0519 39.7592 81.8425 37.9183 81.0613 36.078C80.2801 34.2378 79.1016 32.8091 77.8641 31.9725C76.6194 31.1312 75.4053 30.9379 74.4468 31.3448Z" stroke="#F6CA72" stroke-width="1.47248"/>
<path d="M94.8855 40.4903C94.3454 43.569 92.3394 46.0386 89.6967 47.285C88.0392 48.0668 86.5343 49.4117 86.3109 51.2307L85.3952 58.6885L81.2902 58.1845L82.2059 50.7267C82.4293 48.9077 81.2944 47.2387 79.8752 46.0791C77.6126 44.2304 76.2636 41.3489 76.4843 38.2309L76.9465 31.7016C77.0887 29.6919 78.886 28.2116 80.8857 28.4572L92.9794 29.9421C94.9791 30.1876 96.3648 32.0587 96.0167 34.0431L94.8855 40.4903Z" fill="#C89B40"/>
<rect x="79.2484" y="56.3516" width="8.63423" height="2.46692" rx="0.490826" transform="rotate(7 79.2484 56.3516)" fill="#9D7930"/>
<rect x="79.2484" y="56.3516" width="8.63423" height="2.46692" rx="0.490826" transform="rotate(7 79.2484 56.3516)" fill="#F6CA72"/>
<rect x="76.4891" y="57.9863" width="13.7134" height="2.46697" rx="0.490826" transform="rotate(7 76.4891 57.9863)" fill="#9D7930"/>
<path d="M86.2409 54.8215C87.6567 53.8495 88.8045 53.0615 89.7072 54.5057C90.6098 55.9499 89.4621 56.7379 88.0462 57.7099C86.6303 58.682 85.0784 58.8234 84.5799 58.0258C84.0813 57.2282 84.825 55.7936 86.2409 54.8215Z" fill="#D2E3DD"/>
<path d="M85.0891 55.8572L88.8908 53.7485C88.8908 53.7485 89.202 53.9247 89.272 53.9869C87.8951 55.9423 86.1421 56.5909 84.8077 56.285L85.0891 55.8572Z" fill="#AECAC0"/>
<path d="M85.6241 52.3716C87.0509 51.4109 88.2076 50.6322 89.08 52.0281C89.9525 53.424 88.7959 54.2028 87.3691 55.1634C85.9422 56.1241 84.395 56.2779 83.9131 55.5069C83.4312 54.736 84.1973 53.3322 85.6241 52.3716Z" fill="#D2E3DD"/>
<path d="M84.5213 53.4367L88.323 51.3281C88.323 51.3281 88.6341 51.5043 88.7042 51.5665C87.3273 53.5219 85.5743 54.1705 84.2399 53.8646L84.5213 53.4367Z" fill="#AECAC0"/>
<path d="M85.0572 49.9504C86.484 48.9898 87.6407 48.211 88.5132 49.6069C89.3857 51.0029 88.229 51.7816 86.8022 52.7423C85.3754 53.7029 83.8281 53.8567 83.3462 53.0858C82.8643 52.3148 83.6304 50.9111 85.0572 49.9504Z" fill="#D2E3DD"/>
<path d="M82.6994 49.9822C83.1984 52.5505 81.5463 54.8438 79.7589 53.9108C76.4338 52.1751 79.6659 48.5968 80.5557 47.425C82.7803 44.4956 86.4395 48.8882 84.8927 50.458C84.0737 51.2892 82.6994 49.9822 82.6994 49.9822Z" fill="#D2E3DD"/>
<path d="M73.9168 23.8224C73.9168 19.8355 70.6848 16.6035 66.6979 16.6035V33.207C70.6848 33.207 73.9168 29.975 73.9168 25.9881V23.8224Z" fill="#2A5050"/>
<path d="M13.9998 23.8224C13.9998 19.8355 17.2318 16.6035 21.2187 16.6035V33.207C17.2318 33.207 13.9998 29.975 13.9998 25.9881V23.8224Z" fill="#2A5050"/>
<path d="M69.1041 22.0179C69.1041 39.7513 57.8459 44.0356 43.9582 44.0356C30.0705 44.0356 18.8123 39.7513 18.8123 22.0179C18.8123 9.04514 27.6642 0.000244141 43.9582 0.000244141C57.8459 0.000244141 69.1041 6.66484 69.1041 22.0179Z" fill="#BAD3CA"/>
<path d="M44.1133 11.0029C61.8097 11.0029 64.4287 15.3169 64.4287 25.2549C64.4287 25.3743 64.4255 25.4928 64.4238 25.6104C64.3408 16.5301 61.5351 12.5801 44.1133 12.5801C26.5047 12.5801 23.8778 17.9415 23.8008 25.6777C23.7986 25.5382 23.7979 25.3971 23.7979 25.2549C23.7979 16.8576 26.2286 11.0029 44.1133 11.0029Z" fill="#CEE6DD"/>
<path d="M44.1133 39.4297C26.4169 39.4297 23.7979 35.1157 23.7979 25.1777C23.7979 25.0583 23.801 24.9398 23.8027 24.8223C23.8857 33.9025 26.6914 37.8525 44.1133 37.8525C61.7219 37.8525 64.3488 32.4911 64.4258 24.7549C64.4279 24.8944 64.4287 25.0355 64.4287 25.1777C64.4287 33.575 61.998 39.4297 44.1133 39.4297Z" fill="#92B8AA"/>
<path d="M64.4285 25.2354C64.4285 36.079 56.5581 38.6988 44.1131 38.6988C30.7694 38.6988 23.7978 36.079 23.7978 25.2354C23.7978 17.3028 26.2282 11.772 44.1131 11.772C61.8098 11.772 64.4285 15.8473 64.4285 25.2354Z" fill="#EFFBF7"/>
<path d="M63.2263 25.2355C63.2263 34.9173 55.8216 37.2564 44.1131 37.2564C31.5589 37.2564 24.9998 34.9173 24.9998 25.2355C24.9998 18.1528 27.2864 13.2146 44.1131 13.2146C60.7626 13.2146 63.2263 16.8532 63.2263 25.2355Z" fill="#2A5050"/>
<path d="M44.113 13.2146C60.7621 13.2146 63.2263 16.8573 63.2263 25.2488C63.2263 25.3494 63.223 25.4495 63.2214 25.5486C63.1432 17.8816 60.5036 14.5466 44.113 14.5466C27.5661 14.5466 25.0807 19.0628 25.0027 25.5828C25.0009 25.4725 24.9998 25.361 24.9998 25.2488C24.9998 18.1582 27.2868 13.2146 44.113 13.2146Z" fill="#152828"/>
<path d="M44.113 37.218C27.464 37.218 24.9998 33.5753 24.9998 25.1838C24.9998 25.0832 25.003 24.9831 25.0046 24.884C25.0828 32.551 27.7225 35.886 44.113 35.886C60.66 35.886 63.1453 31.3698 63.2234 24.8499C63.2251 24.9601 63.2263 25.0716 63.2263 25.1838C63.2263 32.2744 60.9393 37.218 44.113 37.218Z" fill="#468586"/>
<g filter="url(#filter0_f_2066_2744)">
<path d="M51.0956 27.5334L48.2104 28.3657C48.1034 28.395 48.0046 28.3929 47.914 28.3593C47.8234 28.3258 47.7477 28.272 47.6869 28.1979C47.6261 28.1237 47.5868 28.0375 47.5692 27.9394C47.5517 27.8413 47.571 27.7431 47.6271 27.6449L49.0421 25.0013L47.358 22.5156C47.2951 22.4224 47.265 22.326 47.2677 22.2262C47.2702 22.1264 47.3005 22.0369 47.3586 21.9577C47.4166 21.8786 47.4855 21.8197 47.5652 21.7809C47.645 21.7422 47.7432 21.7292 47.86 21.742L50.8216 22.2646L52.6587 19.9024C52.7261 19.8143 52.8077 19.7577 52.9036 19.7325C52.9994 19.7073 53.0935 19.7071 53.186 19.7319C53.2785 19.7566 53.3599 19.8039 53.4303 19.8736C53.5007 19.9433 53.543 20.0332 53.5574 20.1432L53.9673 23.1075L56.7934 24.1357C56.9009 24.183 56.9795 24.2434 57.0292 24.3168C57.0789 24.3902 57.1091 24.4757 57.1198 24.5732C57.1304 24.6708 57.1119 24.7635 57.0643 24.8512C57.0167 24.9389 56.9424 25.0074 56.8414 25.0567L54.14 26.3672L54.0437 29.3642C54.0431 29.4773 54.0107 29.572 53.9465 29.6482C53.8822 29.7243 53.8051 29.7793 53.7153 29.8132C53.6256 29.847 53.5332 29.8558 53.438 29.8395C53.3428 29.8232 53.2561 29.7757 53.178 29.6968L51.0956 27.5334Z" fill="#FBE5B9"/>
<path d="M36.9065 27.5336L34.824 29.6969C34.746 29.7758 34.6593 29.8234 34.5641 29.8396C34.4689 29.8559 34.3764 29.8472 34.2868 29.8134C34.1969 29.7795 34.1199 29.7245 34.0555 29.6483C33.9913 29.5721 33.959 29.4774 33.9584 29.3643L33.8621 26.3674L31.1607 25.0568C31.0597 25.0076 30.9854 24.9391 30.9378 24.8514C30.8901 24.7636 30.8716 24.671 30.8823 24.5733C30.893 24.4758 30.9232 24.3903 30.9729 24.3169C31.0225 24.2435 31.1011 24.1832 31.2087 24.1359L34.0348 23.1076L34.4447 20.1434C34.459 20.0334 34.5014 19.9435 34.5718 19.8738C34.6422 19.804 34.7236 19.7568 34.8161 19.732C34.9085 19.7072 35.0027 19.7074 35.0985 19.7326C35.1943 19.7578 35.276 19.8145 35.3434 19.9026L37.1805 22.2647L40.1421 21.7422C40.2589 21.7294 40.3571 21.7423 40.4368 21.7811C40.5166 21.8198 40.5854 21.8787 40.6435 21.9578C40.7015 22.0371 40.7319 22.1266 40.7344 22.2264C40.7371 22.3261 40.707 22.4226 40.6441 22.5157L38.9599 25.0014L40.375 27.645C40.4311 27.7432 40.4504 27.8414 40.4329 27.9395C40.4152 28.0376 40.376 28.1238 40.3151 28.1981C40.2544 28.2722 40.1787 28.326 40.0881 28.3595C39.9975 28.393 39.8987 28.3951 39.7916 28.3659L36.9065 27.5336Z" fill="#FBE5B9"/>
</g>
<path d="M51.0934 27.5332L48.2083 28.3655C48.1013 28.3947 48.0024 28.3926 47.9118 28.3591C47.8213 28.3256 47.7456 28.2718 47.6848 28.1977C47.6239 28.1234 47.5847 28.0372 47.5671 27.9391C47.5496 27.841 47.5689 27.7429 47.625 27.6446L49.04 25.001L47.3558 22.5153C47.293 22.4222 47.2629 22.3257 47.2655 22.226C47.2681 22.1262 47.2984 22.0367 47.3565 21.9575C47.4145 21.8783 47.4834 21.8194 47.5631 21.7807C47.6428 21.7419 47.7411 21.729 47.8579 21.7418L50.8194 22.2643L52.6566 19.9022C52.724 19.8141 52.8056 19.7574 52.9014 19.7322C52.9973 19.707 53.0914 19.7068 53.1839 19.7316C53.2763 19.7564 53.3578 19.8036 53.4282 19.8734C53.4986 19.9431 53.5409 20.033 53.5552 20.143L53.9652 23.1072L56.7913 24.1355C56.8988 24.1828 56.9774 24.2431 57.0271 24.3165C57.0767 24.3899 57.1069 24.4754 57.1176 24.573C57.1283 24.6706 57.1098 24.7633 57.0621 24.851C57.0146 24.9387 56.9403 25.0072 56.8393 25.0564L54.1378 26.367L54.0415 29.3639C54.041 29.4771 54.0086 29.5717 53.9444 29.6479C53.8801 29.7241 53.803 29.7791 53.7132 29.813C53.6235 29.8468 53.531 29.8555 53.4358 29.8393C53.3406 29.823 53.254 29.7754 53.1759 29.6965L51.0934 27.5332Z" fill="#FBE5B9"/>
<path d="M36.9065 27.5333L34.824 29.6967C34.746 29.7756 34.6593 29.8231 34.5641 29.8394C34.4689 29.8557 34.3764 29.8469 34.2868 29.8131C34.1969 29.7792 34.1199 29.7242 34.0555 29.6481C33.9913 29.5719 33.959 29.4772 33.9584 29.3641L33.8621 26.3671L31.1607 25.0566C31.0597 25.0073 30.9854 24.9388 30.9378 24.8511C30.8901 24.7634 30.8716 24.6707 30.8823 24.5731C30.893 24.4756 30.9232 24.3901 30.9729 24.3167C31.0225 24.2433 31.1011 24.1829 31.2087 24.1356L34.0348 23.1074L34.4447 20.1431C34.459 20.0331 34.5014 19.9432 34.5718 19.8735C34.6422 19.8038 34.7236 19.7565 34.8161 19.7318C34.9085 19.707 35.0027 19.7072 35.0985 19.7324C35.1943 19.7576 35.276 19.8142 35.3434 19.9023L37.1805 22.2645L40.1421 21.7419C40.2589 21.7291 40.3571 21.7421 40.4368 21.7808C40.5166 21.8196 40.5854 21.8785 40.6435 21.9576C40.7015 22.0368 40.7319 22.1263 40.7344 22.2261C40.7371 22.3259 40.707 22.4223 40.6441 22.5155L38.9599 25.0012L40.375 27.6448C40.4311 27.743 40.4504 27.8412 40.4329 27.9393C40.4152 28.0374 40.376 28.1236 40.3151 28.1978C40.2544 28.2719 40.1787 28.3257 40.0881 28.3592C39.9975 28.3928 39.8987 28.3949 39.7916 28.3656L36.9065 27.5333Z" fill="#FBE5B9"/>
<ellipse cx="44" cy="97.0006" rx="13.803" ry="3.00065" fill="#607C7F" fill-opacity="0.2"/>
<defs>
<filter id="filter0_f_2066_2744" x="27.514" y="16.348" width="32.9741" height="16.865" filterUnits="userSpaceOnUse" color-interpolation-filters="sRGB">
<feFlood flood-opacity="0" result="BackgroundImageFix"/>
<feBlend mode="normal" in="SourceGraphic" in2="BackgroundImageFix" result="shape"/>
<feGaussianBlur stdDeviation="1.68269" result="effect1_foregroundBlur_2066_2744"/>
</filter>
</defs>
</svg>
