<svg width="60" height="26" viewBox="0 0 60 26" fill="none" xmlns="http://www.w3.org/2000/svg">
<path d="M5.8 21.8C20.5336 11.5767 40.0664 11.5767 54.8 21.8H53.9017C53.4037 21.8 53 22.2037 53 22.7017C53 24.7723 51.0396 26.2819 49.0377 25.7528L40.5217 23.5018C33.8223 21.731 26.7778 21.731 20.0784 23.5018L11.5623 25.7528C9.56042 26.2819 7.60001 24.7723 7.60001 22.7017C7.60001 22.2037 7.19632 21.8 6.69834 21.8H5.8Z" fill="#070D0D"/>
<path d="M11.674 11.1682C23.4117 5.04874 37.3924 4.99896 49.177 11.0422L49.4152 11.1653L53.7805 20.8645L53.7609 20.8567C52.8248 20.4746 51.8 21.1629 51.8 22.1741C51.8 23.6705 50.3766 24.7573 48.9328 24.3635L40.9563 22.1877C33.9795 20.285 26.6205 20.285 19.6438 22.1877L11.674 24.3616C10.2266 24.7563 8.8 23.6665 8.8 22.1663C8.79987 21.1583 7.78185 20.4689 6.8459 20.843L6.83516 20.8469L11.674 11.1682Z" fill="#468586" stroke="#8DB4B5"/>
<path d="M30.2585 1.82935C43.283 1.82935 53.5256 8.36144 54.75 21.8C48.4145 16.7789 40.0373 13.7932 30.2585 13.7932C19.5557 13.7932 11.6675 17.0313 5.8 21.8C6.86445 10.1995 15.0666 1.82941 30.2585 1.82935Z" fill="#6A9D9E"/>
<mask id="mask0_2043_32968" style="mask-type:alpha" maskUnits="userSpaceOnUse" x="5" y="1" width="50" height="21">
<path d="M30.2585 1.82935C43.283 1.82935 53.5256 8.36144 54.75 21.8C48.4145 16.7789 40.0373 13.7932 30.2585 13.7932C19.5557 13.7932 11.6675 17.0313 5.8 21.8C6.86445 10.1995 15.0666 1.82941 30.2585 1.82935Z" fill="#6A9D9E"/>
</mask>
<g mask="url(#mask0_2043_32968)">
<path d="M15.3 12.8C15.3 6.72492 20.2249 1.80005 26.3 1.80005H33.3C39.3751 1.80005 44.3 6.72492 44.3 12.8V20.8H15.3V12.8Z" fill="#D9D9D9"/>
</g>
<ellipse cx="29.8" cy="2.30005" rx="3.5" ry="1.5" fill="#D9D9D9"/>
<ellipse cx="29.8" cy="2.30005" rx="3.5" ry="1.5" fill="#468586"/>
</svg>
