<svg width="35" height="17" viewBox="0 0 35 17" fill="none" xmlns="http://www.w3.org/2000/svg">
<g filter="url(#filter0_f_2036_21953)">
<path d="M10.517 13.4138C10.3972 13.4459 10.2712 13.4566 10.1389 13.446C10.0066 13.4353 9.8822 13.3964 9.76582 13.3293L8.76685 12.8143C7.5331 12.1759 6.40988 11.525 5.39718 10.8615C4.38448 10.1981 3.74463 9.36807 3.47761 8.37154C3.26495 7.57791 3.3545 6.84177 3.74625 6.1631C4.13812 5.4845 4.73087 5.03888 5.52449 4.82623C5.97541 4.7054 6.44869 4.69002 6.94433 4.78008C7.43987 4.87017 7.92376 5.10243 8.396 5.47687C8.61775 4.91648 8.92068 4.47338 9.30479 4.1476C9.689 3.82178 10.1066 3.59847 10.5575 3.47764C11.3511 3.26499 12.0873 3.35454 12.7659 3.74629C13.4445 4.13816 13.8901 4.7309 14.1028 5.52453C14.3727 6.53187 14.2297 7.58277 13.6739 8.67721C13.118 9.77166 12.4707 10.8889 11.7319 12.029L11.1305 12.9636C11.0633 13.0799 10.9742 13.176 10.8632 13.2519C10.7521 13.3277 10.6367 13.3817 10.517 13.4138Z" fill="#EFC9F3"/>
<path d="M24.1095 13.4109C23.9898 13.3788 23.8752 13.3251 23.766 13.2497C23.6567 13.1743 23.5685 13.0785 23.5012 12.9621L22.8936 12.0167C22.1443 10.8469 21.4971 9.72161 20.9518 8.64068C20.4065 7.55975 20.2673 6.52102 20.5344 5.52449C20.747 4.73087 21.1926 4.13812 21.8712 3.74625C22.5499 3.3545 23.286 3.26495 24.0797 3.47761C24.5306 3.59843 24.9481 3.82175 25.3324 4.14756C25.7165 4.47335 26.0194 4.91644 26.2411 5.47683C26.7134 5.10239 27.1973 4.87013 27.6928 4.78005C28.1885 4.68999 28.6617 4.70537 29.1127 4.82619C29.9063 5.03884 30.499 5.48447 30.8909 6.16306C31.2826 6.84173 31.3722 7.57788 31.1595 8.3715C30.8896 9.37885 30.2404 10.2175 29.2118 10.8874C28.1832 11.5572 27.0639 12.2012 25.854 12.8191L24.8659 13.3278C24.7496 13.3949 24.6244 13.4336 24.4903 13.4438C24.3561 13.4539 24.2292 13.4429 24.1095 13.4109Z" fill="#EFC9F3"/>
</g>
<path d="M24.1094 13.4109C23.9896 13.3789 23.8751 13.3251 23.7658 13.2498C23.6566 13.1744 23.5683 13.0785 23.5011 12.9622L22.8935 12.0167C22.1442 10.847 21.4969 9.72167 20.9516 8.64074C20.4063 7.55981 20.2672 6.52109 20.5342 5.52456C20.7469 4.73093 21.1925 4.13818 21.8711 3.74631C22.5498 3.35456 23.2859 3.26502 24.0795 3.47767C24.5305 3.59849 24.948 3.82181 25.3322 4.14762C25.7163 4.47341 26.0193 4.9165 26.241 5.47689C26.7133 5.10245 27.1972 4.87019 27.6927 4.78011C28.1883 4.69005 28.6616 4.70543 29.1125 4.82625C29.9062 5.0389 30.4989 5.48453 30.8908 6.16313C31.2825 6.84179 31.3721 7.57794 31.1594 8.37156C30.8895 9.37891 30.2402 10.2175 29.2116 10.8874C28.183 11.5573 27.0638 12.2012 25.8539 12.8191L24.8658 13.3279C24.7495 13.395 24.6243 13.4337 24.4902 13.4439C24.356 13.454 24.2291 13.443 24.1094 13.4109Z" fill="#EFC9F3"/>
<path d="M10.517 13.4138C10.3972 13.4459 10.2712 13.4566 10.1389 13.446C10.0066 13.4353 9.8822 13.3964 9.76582 13.3293L8.76685 12.8143C7.5331 12.1759 6.40988 11.525 5.39718 10.8615C4.38449 10.1981 3.74463 9.36807 3.47761 8.37154C3.26495 7.57791 3.3545 6.84177 3.74625 6.1631C4.13812 5.4845 4.73087 5.03888 5.52449 4.82623C5.97541 4.7054 6.44869 4.69002 6.94433 4.78008C7.43987 4.87017 7.92376 5.10243 8.396 5.47687C8.61775 4.91648 8.92068 4.47338 9.30479 4.1476C9.689 3.82178 10.1066 3.59847 10.5575 3.47764C11.3511 3.26499 12.0873 3.35454 12.7659 3.74629C13.4445 4.13816 13.8901 4.7309 14.1028 5.52453C14.3727 6.53187 14.2297 7.58277 13.6739 8.67721C13.118 9.77166 12.4707 10.8889 11.7319 12.029L11.1305 12.9636C11.0633 13.0799 10.9742 13.176 10.8632 13.2519C10.7521 13.3277 10.6367 13.3817 10.517 13.4138Z" fill="#EFC9F3"/>
<defs>
<filter id="filter0_f_2036_21953" x="-2.81334e-05" y="-2.81334e-05" width="34.6371" height="16.8154" filterUnits="userSpaceOnUse" color-interpolation-filters="sRGB">
<feFlood flood-opacity="0" result="BackgroundImageFix"/>
<feBlend mode="normal" in="SourceGraphic" in2="BackgroundImageFix" result="shape"/>
<feGaussianBlur stdDeviation="1.68269" result="effect1_foregroundBlur_2036_21953"/>
</filter>
</defs>
</svg>
