<svg width="39" height="17" viewBox="0 0 39 17" fill="none" xmlns="http://www.w3.org/2000/svg">
<g filter="url(#filter0_f_2032_13194)">
<rect x="16.8613" y="4.03516" width="4.83104" height="0.911112" fill="#F1F8F4"/>
<path d="M18.7169 6.51728C18.7169 10.0082 15.2812 12.8382 11.0431 12.8382C6.8049 12.8382 3.3692 10.0082 3.3692 6.51728C3.3692 3.3692 6.32052 3.3692 10.5587 3.3692C14.7968 3.3692 18.7169 3.3692 18.7169 6.51728Z" fill="#F1F8F4"/>
<path d="M35.3692 6.51728C35.3692 10.0082 31.9335 12.8382 27.6953 12.8382C23.4572 12.8382 20.0215 10.0082 20.0215 6.51728C20.0215 3.3692 22.9728 3.3692 27.2109 3.3692C31.4491 3.3692 35.3692 3.3692 35.3692 6.51728Z" fill="#F1F8F4"/>
</g>
<rect x="16.8613" y="4.03516" width="4.83104" height="0.911112" fill="#F1F8F4"/>
<path d="M18.7169 6.51728C18.7169 10.0082 15.2812 12.8382 11.0431 12.8382C6.8049 12.8382 3.3692 10.0082 3.3692 6.51728C3.3692 3.3692 6.32052 3.3692 10.5587 3.3692C14.7968 3.3692 18.7169 3.3692 18.7169 6.51728Z" fill="#F1F8F4"/>
<path d="M35.3692 6.51728C35.3692 10.0082 31.9335 12.8382 27.6953 12.8382C23.4572 12.8382 20.0215 10.0082 20.0215 6.51728C20.0215 3.3692 22.9728 3.3692 27.2109 3.3692C31.4491 3.3692 35.3692 3.3692 35.3692 6.51728Z" fill="#F1F8F4"/>
<defs>
<filter id="filter0_f_2032_13194" x="8.34465e-06" y="8.34465e-06" width="38.7384" height="16.2073" filterUnits="userSpaceOnUse" color-interpolation-filters="sRGB">
<feFlood flood-opacity="0" result="BackgroundImageFix"/>
<feBlend mode="normal" in="SourceGraphic" in2="BackgroundImageFix" result="shape"/>
<feGaussianBlur stdDeviation="1.6846" result="effect1_foregroundBlur_2032_13194"/>
</filter>
</defs>
</svg>
