<svg width="32" height="17" viewBox="0 0 32 17" fill="none" xmlns="http://www.w3.org/2000/svg">
<g filter="url(#filter0_f_244_2456)">
<ellipse cx="24.962" cy="8.29324" rx="3.125" ry="4.92788" fill="#F1F8F4"/>
<path d="M7.22147 5.40994C9.71499 5.32591 11.242 8.31762 11.0411 10.3967C11.0174 10.6411 11.0089 10.8867 10.9657 11.1228C10.9634 11.1354 10.9591 11.1478 10.9524 11.1579C10.9457 11.1679 10.9368 11.1749 10.9269 11.1773C10.917 11.1797 10.9066 11.1774 10.897 11.1712C10.8875 11.165 10.8798 11.1552 10.873 11.1451C10.7518 10.9634 10.6208 10.7856 10.4916 10.6172C9.28752 9.04713 8.19181 8.48 7.20818 8.52193C7.20163 8.52221 7.19503 8.52225 7.18842 8.52193C6.20091 8.47339 5.11213 9.03158 3.92018 10.613C3.79234 10.7826 3.66278 10.9616 3.54316 11.1446C3.53646 11.1549 3.52893 11.1647 3.51943 11.171C3.50994 11.1773 3.49953 11.1797 3.48961 11.1774C3.47966 11.1751 3.47073 11.1682 3.46394 11.1582C3.45715 11.1482 3.45284 11.1359 3.45046 11.1232C3.40599 10.8875 3.38155 10.6437 3.37123 10.398C3.32531 9.30473 3.54395 8.1411 4.19498 7.11328C4.84285 6.09045 6.05328 5.38637 7.18048 5.40994C7.19415 5.41022 7.20784 5.41039 7.22147 5.40994Z" fill="#F1F8F4"/>
</g>
<path d="M7.22147 5.40994C9.71499 5.32591 11.242 8.31762 11.0411 10.3967C11.0174 10.6411 11.0089 10.8867 10.9657 11.1228C10.9634 11.1354 10.9591 11.1478 10.9524 11.1579C10.9457 11.1679 10.9368 11.1749 10.9269 11.1773C10.917 11.1797 10.9066 11.1774 10.897 11.1712C10.8875 11.165 10.8798 11.1552 10.873 11.1451C10.7518 10.9634 10.6208 10.7856 10.4916 10.6172C9.28752 9.04713 8.19181 8.48 7.20818 8.52193C7.20163 8.52221 7.19503 8.52225 7.18842 8.52193C6.20091 8.47339 5.11213 9.03158 3.92018 10.613C3.79234 10.7826 3.66278 10.9616 3.54316 11.1446C3.53646 11.1549 3.52893 11.1647 3.51943 11.171C3.50994 11.1773 3.49953 11.1797 3.48961 11.1774C3.47966 11.1751 3.47073 11.1682 3.46394 11.1582C3.45715 11.1482 3.45284 11.1359 3.45046 11.1232C3.40599 10.8875 3.38155 10.6437 3.37123 10.398C3.32531 9.30473 3.54395 8.1411 4.19498 7.11328C4.84285 6.09045 6.05328 5.38637 7.18048 5.40994C7.19415 5.41022 7.20784 5.41039 7.22147 5.40994Z" fill="#F1F8F4"/>
<ellipse cx="24.962" cy="8.29324" rx="3.125" ry="4.92788" fill="#F1F8F4"/>
<defs>
<filter id="filter0_f_244_2456" x="-2.81334e-05" y="-2.81334e-05" width="31.4524" height="16.5865" filterUnits="userSpaceOnUse" color-interpolation-filters="sRGB">
<feFlood flood-opacity="0" result="BackgroundImageFix"/>
<feBlend mode="normal" in="SourceGraphic" in2="BackgroundImageFix" result="shape"/>
<feGaussianBlur stdDeviation="1.68269" result="effect1_foregroundBlur_244_2456"/>
</filter>
</defs>
</svg>
