<svg width="75" height="41" viewBox="0 0 75 41" fill="none" xmlns="http://www.w3.org/2000/svg">
<path d="M16.8418 28.824C15.6554 30.7844 14.8114 32.9767 14.3203 35.3582C11.7554 36.0556 9.75886 38.1307 9.1748 40.74C3.45996 39.3359 0 37.5062 0 35.5007C0 32.711 6.6938 30.2556 16.8418 28.824Z" fill="#171F3D"/>
<path d="M61.4971 29.3542C69.7486 30.8217 75 33.0298 75 35.5007C75 37.1663 72.6138 38.7122 68.5312 39.9929C67.7664 37.7507 65.9295 36.0053 63.6309 35.3679C63.1967 33.1264 62.4706 31.1256 61.4971 29.3542Z" fill="#171F3D"/>
<path d="M50 0.00289524C37.1999 0.401055 20.5 21.0037 15.5 31.0037H63L57 15.5037C63.9461 17.8191 68.4077 12.5442 69.9326 8.66966C70.2499 7.86354 69.3672 7.32189 68.6241 7.76709C57.9778 14.1448 57.5782 -0.232833 50 0.00289524Z" fill="#505F97"/>
<path d="M17.5886 25.3269L15 30.5041H64L62.3472 25.5456C62.1309 24.8969 61.6093 24.4013 60.9378 24.272C52.1032 22.5704 27.5237 22.5815 18.8934 24.3051C18.3208 24.4195 17.8497 24.8047 17.5886 25.3269Z" fill="#6779BB"/>
<path d="M75 35.504C73.5 33.504 67.5 34.504 38.5 34.504C9.5 34.504 3.5 31.504 0 35.504C0 31.0858 16.7893 28.504 37.5 28.504C58.2107 28.504 75 31.0858 75 35.504Z" fill="#070D0D"/>
<path d="M75 35.504C74 32.504 67.5 33.504 38.5 33.504C9.5 33.504 3 31.004 0 35.504C0 31.0858 16.7893 27.504 37.5 27.504C58.2107 27.504 75 31.0858 75 35.504Z" fill="#505F97"/>
<path d="M75 35.504C74 32.504 67.5 33.504 38.5 33.504C9.5 33.504 3 31.004 0 35.504C0 31.0858 16.7893 27.504 37.5 27.504C58.2107 27.504 75 31.0858 75 35.504Z" fill="#505F97"/>
<path d="M52.2853 28.7175L49.4002 29.5498C49.2931 29.5791 49.1943 29.5769 49.1037 29.5434C49.0131 29.5099 48.9374 29.4561 48.8766 29.382C48.8158 29.3078 48.7766 29.2216 48.7589 29.1234C48.7414 29.0253 48.7607 28.9272 48.8168 28.829L50.2319 26.1854L48.5477 23.6997C48.4848 23.6065 48.4547 23.5101 48.4574 23.4103C48.4599 23.3105 48.4902 23.221 48.5483 23.1418C48.6063 23.0627 48.6752 23.0037 48.755 22.965C48.8347 22.9263 48.9329 22.9133 49.0497 22.9261L52.0113 23.4487L53.8484 21.0865C53.9158 20.9984 53.9975 20.9418 54.0933 20.9166C54.1891 20.8914 54.2832 20.8912 54.3757 20.9159C54.4682 20.9407 54.5496 20.988 54.62 21.0577C54.6904 21.1274 54.7328 21.2173 54.7471 21.3273L55.157 24.2916L57.9831 25.3198C58.0906 25.3671 58.1692 25.4274 58.2189 25.5009C58.2686 25.5743 58.2988 25.6597 58.3095 25.7573C58.3202 25.8549 58.3017 25.9476 58.254 26.0353C58.2064 26.123 58.1321 26.1915 58.0311 26.2407L55.3297 27.5513L55.2334 30.5483C55.2328 30.6614 55.2005 30.756 55.1362 30.8322C55.0719 30.9084 54.9949 30.9634 54.905 30.9973C54.8153 31.0311 54.7229 31.0399 54.6277 31.0236C54.5325 31.0073 54.4458 30.9597 54.3677 30.8809L52.2853 28.7175Z" fill="#FBE5B9"/>
</svg>
