<svg width="60" height="27" viewBox="0 0 60 27" fill="none" xmlns="http://www.w3.org/2000/svg">
<path d="M30.2585 1.82935C46.1216 1.82935 52.6238 10.9735 54.4275 23.0928C54.344 22.1761 54.5596 23.9801 54.4275 23.0928C53.1342 22.0678 52.0782 23.8348 50.6201 22.9875C44.9358 19.6843 38.0411 17.7932 30.2585 17.7932C21.5742 17.7932 14.743 19.9251 9.34077 23.2767C8.08509 24.0557 7.2295 22.1006 6.12289 23C5.99099 23.9338 6.20829 22.0693 6.12289 23C7.63516 12.2943 12.6063 1.8294 30.2585 1.82935Z" fill="#F6CA72"/>
<mask id="mask0_2153_6834" style="mask-type:alpha" maskUnits="userSpaceOnUse" x="6" y="1" width="49" height="23">
<path d="M30.2585 1.82935C46.0811 1.82935 52.5905 10.9269 54.4136 23C54.3272 22.0513 54.5521 23.9171 54.4136 23C53.2759 22.0983 52.4086 24.0622 51.1428 23.2973C45.3604 19.8028 38.2812 17.7932 30.2585 17.7932C21.9237 17.7932 15.2959 19.757 10 22.878C8.49535 23.7648 7.42111 21.9449 6.12289 23C5.99099 23.9338 6.20829 22.0693 6.12289 23C7.63516 12.2943 12.6063 1.8294 30.2585 1.82935Z" fill="#F6CA72"/>
</mask>
<g mask="url(#mask0_2153_6834)">
<path d="M24.9168 1.91313C24.9633 0.843353 25.8442 0 26.9149 0H33.0851C34.1558 0 35.0367 0.843353 35.0832 1.91313L36 23H24L24.9168 1.91313Z" fill="#FBE5B9"/>
<path d="M42 17C42 15.8954 42.8954 15 44 15H48C49.1046 15 50 15.8954 50 17V25H42V17Z" fill="#FBE5B9"/>
<path d="M10 17C10 15.8954 10.8954 15 12 15H16C17.1046 15 18 15.8954 18 17V25H10V17Z" fill="#FBE5B9"/>
</g>
<path d="M24.9168 1.91313C24.9633 0.843353 25.8442 0 26.9149 0H33.0851C34.1558 0 35.0367 0.843353 35.0832 1.91313L36 23H24L24.9168 1.91313Z" fill="#F8D795"/>
<path d="M54.7 25.6502L55.75 25.3101L54.35 24.3101L54.7 25.6502Z" fill="#9D7930"/>
<path d="M5.88 25.6502L4.82999 25.3101L6.23 24.3101L5.88 25.6502Z" fill="#9D7930"/>
<path d="M31.29 18.6509C45.2308 18.6589 57.2895 18.8742 57.29 22.6499C57.29 24.3098 55.75 25.3101 55.75 25.3101C53.805 24.8238 43.0276 23.7166 31.29 23.6558C30.9577 23.6528 30.6243 23.6499 30.29 23.6499C18.1703 23.6499 6.83012 24.8101 4.83003 25.3101C4.83003 25.3101 3.28999 24.3098 3.28999 22.6499C3.29053 18.7841 15.9309 18.6499 30.29 18.6499C30.6243 18.6499 30.9577 18.6507 31.29 18.6509Z" fill="#070D0D"/>
<path d="M31.29 17.6548C45.2308 17.7072 57.2895 18.8741 57.29 22.6499C57.29 23.8098 56.79 24.8101 55.75 25.3101C55.75 23.8521 42.9021 22.7183 31.29 22.6558V22.6577C30.9577 22.6537 30.6243 22.6499 30.29 22.6499C18.4287 22.6499 4.83003 23.8101 4.83003 25.3101C3.79003 24.8101 3.28999 23.8098 3.28999 22.6499C3.29053 18.7841 15.9309 17.6499 30.29 17.6499C30.6243 17.6499 30.9577 17.6535 31.29 17.6548Z" fill="#FBE5B9"/>
</svg>
