<svg width="60" height="23" viewBox="0 0 60 23" fill="none" xmlns="http://www.w3.org/2000/svg">
<path d="M53.7699 18.7669C53.7699 18.7669 45.6369 22.805 29.5529 22.805C13.4688 22.805 6.72992 19 6.72992 19C6.72992 19 7.28992 17.5 8.28992 16.5C10.9967 12.6962 17.4335 5 29.5529 5C42.1405 5 50.0101 13.0393 52.7362 16.5697C53.2899 17.5 53.7699 18.7669 53.7699 18.7669Z" fill="#070D0D"/>
<path d="M59.3342 13.3832C59.3342 18.0367 46.0518 21.8091 29.6671 21.8091C13.2824 21.8091 2.28882e-05 18.0367 2.28882e-05 13.3832C2.28882e-05 8.72971 13.2824 6.3866 29.6671 6.3866C46.0518 6.3866 59.3342 8.72971 59.3342 13.3832Z" fill="#0E1B1B"/>
<path d="M35.0801 0.5C36.0203 0.50006 38.6991 0.776406 41.1231 2.06641C43.518 3.3411 45.6424 5.58542 45.6426 9.57324C45.6426 10.6785 45.6421 11.6553 45.6211 12.5234C45.6165 12.7156 45.4862 12.8453 45.3272 12.8604C42.6065 13.1149 36.3028 13.2442 29.9717 13.2441C23.641 13.2441 17.3355 13.115 14.6084 12.8604C14.4491 12.8455 14.3183 12.7156 14.3135 12.5234C14.2925 11.6554 14.292 10.6784 14.292 9.57324C14.2922 5.58704 16.4319 3.34199 18.8369 2.06641C20.9665 0.936917 23.2846 0.585082 24.4365 0.514648L24.8545 0.5C25.5721 0.5 26.5152 0.676409 27.4082 0.898437C28.2918 1.11815 29.0894 1.373 29.5039 1.51172C29.8059 1.61277 30.1322 1.61105 30.4326 1.50879C30.8415 1.36956 31.6255 1.1153 32.5029 0.896484C33.2782 0.703187 34.0999 0.544429 34.792 0.507812L35.0801 0.5Z" fill="#0E1B1B" stroke="#2A5050"/>
<path d="M46.1388 10.2716C46.153 11.6414 46.1673 12.9002 46.1643 13.6532C46.163 13.971 45.986 14.2627 45.6905 14.3799C40.5164 16.4328 19.5109 16.4377 14.2789 14.3946C13.9719 14.2747 13.7926 13.966 13.7926 13.6364C13.7926 10.2716 13.7933 10.2716 13.7925 10.2716C13.792 10.2716 13.7925 10.2716 13.7929 10.2717C26.4225 12.0895 33.5107 12.089 46.1388 10.2716Z" fill="#2A5050"/>
</svg>
