<svg width="60" height="45" viewBox="0 0 60 45" fill="none" xmlns="http://www.w3.org/2000/svg">
<path d="M59.9171 23.8224C59.9171 19.8355 56.6851 16.6035 52.6982 16.6035V33.207C56.6851 33.207 59.9171 29.975 59.9171 25.9881V23.8224Z" fill="#0E1B1B"/>
<path d="M0 23.8224C0 19.8355 3.23202 16.6035 7.21891 16.6035V33.207C3.23202 33.207 0 29.975 0 25.9881V23.8224Z" fill="#0E1B1B"/>
<path d="M55.1043 22.0179C55.1043 39.7513 43.8461 44.0356 29.9584 44.0356C16.0707 44.0356 4.8125 39.7513 4.8125 22.0179C4.8125 9.04514 13.6644 0.000244141 29.9584 0.000244141C43.8461 0.000244141 55.1043 6.66484 55.1043 22.0179Z" fill="#819D92"/>
<path d="M30.1135 11.0029C47.8099 11.0029 50.4289 15.3169 50.429 25.2549C50.429 25.3743 50.4258 25.4928 50.4241 25.6104C50.3411 16.5301 47.5354 12.5801 30.1135 12.5801C12.5049 12.5801 9.87804 17.9415 9.80103 25.6777C9.79889 25.5382 9.7981 25.3971 9.7981 25.2549C9.79813 16.8576 12.2289 11.0029 30.1135 11.0029Z" fill="#92ADA3"/>
<path d="M30.1135 39.4297C12.4171 39.4297 9.79812 35.1157 9.7981 25.1777C9.7981 25.0583 9.80128 24.9398 9.80298 24.8223C9.88598 33.9025 12.6917 37.8525 30.1135 37.8525C47.7221 37.8525 50.349 32.4911 50.426 24.7549C50.4282 24.8944 50.429 25.0355 50.429 25.1777C50.4289 33.575 47.9982 39.4297 30.1135 39.4297Z" fill="#6D8D81"/>
<path d="M50.4288 25.2354C50.4288 36.079 42.5584 38.6988 30.1134 38.6988C16.7697 38.6988 9.7981 36.079 9.7981 25.2354C9.7981 17.3028 12.2285 11.772 30.1134 11.772C47.8101 11.772 50.4288 15.8473 50.4288 25.2354Z" fill="#A9C1B8"/>
<path d="M49.2266 25.2355C49.2266 34.9173 41.8219 37.2564 30.1134 37.2564C17.5592 37.2564 11.0001 34.9173 11.0001 25.2355C11.0001 18.1528 13.2867 13.2146 30.1134 13.2146C46.7629 13.2146 49.2266 16.8532 49.2266 25.2355Z" fill="#0E1B1B"/>
<path d="M30.1133 13.2146C46.7624 13.2146 49.2265 16.8573 49.2266 25.2488C49.2266 25.3494 49.2233 25.4495 49.2217 25.5486C49.1435 17.8816 46.5038 14.5466 30.1133 14.5466C13.5663 14.5466 11.081 19.0628 11.0029 25.5828C11.0012 25.4725 11 25.361 11 25.2488C11.0001 18.1582 13.287 13.2146 30.1133 13.2146Z" fill="#070D0D"/>
<path d="M30.1133 37.218C13.4642 37.218 11 33.5753 11 25.1838C11 25.0832 11.0033 24.9831 11.0049 24.884C11.0831 32.551 13.7227 35.886 30.1133 35.886C46.6603 35.886 49.1456 31.3698 49.2236 24.8499C49.2254 24.9601 49.2266 25.0716 49.2266 25.1838C49.2265 32.2744 46.9395 37.218 30.1133 37.218Z" fill="#2A5050"/>

<defs>
<filter id="filter0_f_2036_21972" x="14.6158" y="16.5398" width="30.7689" height="16.5865" filterUnits="userSpaceOnUse" color-interpolation-filters="sRGB">
<feFlood flood-opacity="0" result="BackgroundImageFix"/>
<feBlend mode="normal" in="SourceGraphic" in2="BackgroundImageFix" result="shape"/>
<feGaussianBlur stdDeviation="1.68269" result="effect1_foregroundBlur_2036_21972"/>
</filter>
</defs>
</svg>
