<svg width="63" height="45" viewBox="0 0 63 45" fill="none" xmlns="http://www.w3.org/2000/svg">
<path d="M59.2472 19.2638C58.613 15.3277 54.908 12.651 50.9719 13.2851L53.613 29.6772C57.5491 29.043 60.2259 25.3381 59.5917 21.4019L59.2472 19.2638Z" fill="#2A5050"/>
<path d="M0.0930042 28.7947C-0.541185 24.8586 2.13557 21.1536 6.0717 20.5194L8.71279 36.9115C4.77666 37.5457 1.07168 34.869 0.437493 30.9328L0.0930042 28.7947Z" fill="#2A5050"/>
<path d="M54.2087 18.2479C57.0295 35.7555 46.5961 41.7761 32.8853 43.9851C19.1744 46.1942 7.37807 43.7553 4.55725 26.2477C2.49369 13.4401 9.79411 3.10232 25.8806 0.51046C39.5915 -1.69863 51.7665 3.09029 54.2087 18.2479Z" fill="#BAD3CA"/>
<path d="M27.7839 11.3483C45.255 8.53336 48.5269 12.3758 50.1077 22.1872C50.1267 22.3051 50.1424 22.4227 50.1595 22.539C48.6331 13.5875 45.2349 10.1341 28.0348 12.9054C10.6504 15.7063 8.90981 21.4174 10.0644 29.0673C10.0401 28.9299 10.0168 28.7907 9.99421 28.6503C8.6585 20.36 10.127 14.1932 27.7839 11.3483Z" fill="#CEE6DD"/>
<path d="M32.3057 39.4131C14.8347 42.228 11.5628 38.3855 9.98192 28.5741C9.96293 28.4562 9.94722 28.3387 9.9302 28.2224C11.4565 37.1738 14.8548 40.6272 32.0548 37.856C49.4392 35.055 51.1799 29.344 50.0253 21.694C50.0496 21.8315 50.0728 21.9706 50.0955 22.111C51.4312 30.4014 49.9627 36.5682 32.3057 39.4131Z" fill="#92B8AA"/>
<path d="M50.1044 22.168C51.8292 32.8736 44.4758 36.712 32.1893 38.6916C19.0155 40.8141 11.7159 39.3367 9.99103 28.6311C8.7292 20.7995 10.2489 14.9525 27.9061 12.1076C45.3775 9.2926 48.611 12.8995 50.1044 22.168Z" fill="#EFFBF7"/>
<path d="M48.9176 22.3594C50.4577 31.9179 43.5194 35.4051 31.9599 37.2675C19.5655 39.2645 12.7179 37.9985 11.1778 28.44C10.0512 21.4475 11.5231 16.2084 28.1356 13.5318C44.5731 10.8834 47.5842 14.0838 48.9176 22.3594Z" fill="#2A5050"/>
<path d="M28.1355 13.5318C44.5726 10.8835 47.5848 14.0878 48.9197 22.3725C48.9357 22.4718 48.9483 22.5712 48.9625 22.6692C47.6658 15.1123 44.5292 12.2397 28.3474 14.8469C12.0111 17.479 10.2758 22.333 11.2358 28.7824C11.2166 28.6738 11.1977 28.5639 11.1798 28.4531C10.052 21.4528 11.5235 16.2083 28.1355 13.5318Z" fill="#152828"/>
<path d="M31.9537 37.2296C15.5166 39.878 12.5044 36.6737 11.1695 28.389C11.1535 28.2896 11.1408 28.1903 11.1266 28.0922C12.4234 35.6492 15.5599 38.5218 31.7418 35.9146C48.0781 33.2825 49.8134 28.4285 48.8533 21.9791C48.8726 22.0877 48.8915 22.1976 48.9094 22.3084C50.0372 29.3086 48.5657 34.5531 31.9537 37.2296Z" fill="#468586"/>

<defs>
<filter id="filter0_f_256_3664" x="14.5419" y="15.3493" width="30.6605" height="19.342" filterUnits="userSpaceOnUse" color-interpolation-filters="sRGB">
<feFlood flood-opacity="0" result="BackgroundImageFix"/>
<feBlend mode="normal" in="SourceGraphic" in2="BackgroundImageFix" result="shape"/>
<feGaussianBlur stdDeviation="1.68269" result="effect1_foregroundBlur_256_3664"/>
</filter>
</defs>
</svg>
