<svg width="62" height="45" viewBox="0 0 62 45" fill="none" xmlns="http://www.w3.org/2000/svg">
<path d="M59.2147 19.1592C58.5653 15.2255 54.8501 12.563 50.9164 13.2123L53.6206 29.5942C57.5542 28.9448 60.2167 25.2296 59.5674 21.2959L59.2147 19.1592Z" fill="#0E1B1B"/>
<path d="M0.0974795 28.9177C-0.551856 24.984 2.11062 21.2688 6.04428 20.6194L8.74845 37.0012C4.81478 37.6506 1.09953 34.9881 0.450196 31.0544L0.0974795 28.9177Z" fill="#0E1B1B"/>
<path d="M54.172 18.1626C57.0602 35.6592 46.6501 41.7199 32.9479 43.9817C19.2456 46.2436 7.43997 43.8501 4.55178 26.3535C2.43894 13.5539 9.69952 3.18808 25.7759 0.534317C39.4782 -1.72753 51.6715 3.01449 54.172 18.1626Z" fill="#819D92"/>
<path d="M27.7211 11.3649C45.1812 8.4827 48.4678 12.3125 50.0864 22.1178C50.1059 22.2356 50.122 22.3531 50.1395 22.4693C48.5787 13.5238 45.1672 10.0835 27.9779 12.921C10.6045 15.7888 8.88582 21.5065 10.0698 29.152C10.045 29.0146 10.0212 28.8756 9.99806 28.7352C8.63045 20.4501 10.0752 14.2777 27.7211 11.3649Z" fill="#92ADA3"/>
<path d="M32.3508 39.4121C14.8907 42.2943 11.6041 38.4644 9.98549 28.6592C9.96604 28.5414 9.94987 28.4239 9.93241 28.3077C11.4932 37.2532 14.9047 40.6935 32.094 37.856C49.4674 34.9882 51.1861 29.2705 50.0021 21.625C50.0269 21.7624 50.0507 21.9014 50.0738 22.0417C51.4414 30.3269 49.9967 36.4993 32.3508 39.4121Z" fill="#6D8D81"/>
<path d="M50.083 22.0986C51.8491 32.7975 44.5105 36.6641 32.2317 38.691C19.0661 40.8642 11.761 39.4149 9.99488 28.716C8.70291 20.8893 10.2001 15.0365 27.8462 12.1237C45.3066 9.24145 48.554 12.8358 50.083 22.0986Z" fill="#A9C1B8"/>
<path d="M48.8969 22.2945C50.4738 31.847 43.5489 35.3608 31.9967 37.2678C19.6101 39.3125 12.7577 38.0729 11.1808 28.5203C10.0273 21.5322 11.4791 16.2875 28.0811 13.547C44.5083 10.8353 47.5317 14.0241 48.8969 22.2945Z" fill="#0E1B1B"/>
<path d="M28.081 13.547C44.5078 10.8354 47.5323 14.0281 48.899 22.3075C48.9154 22.4069 48.9285 22.5061 48.943 22.6041C47.6172 15.0523 44.4696 12.1918 28.2979 14.8612C11.9719 17.5562 10.2553 22.4168 11.2402 28.8625C11.2205 28.7539 11.2012 28.6441 11.1829 28.5334C10.0281 21.5375 11.4794 16.2874 28.081 13.547Z" fill="#070D0D"/>
<path d="M31.9904 37.23C15.5637 39.9416 12.5391 36.7489 11.1724 28.4694C11.156 28.3701 11.1429 28.2708 11.1284 28.1728C12.4542 35.7247 15.6018 38.5852 31.7735 35.9157C48.0995 33.2208 49.8161 28.3602 48.8313 21.9145C48.8509 22.023 48.8703 22.1328 48.8885 22.2436C50.0433 29.2394 48.592 34.4896 31.9904 37.23Z" fill="#2A5050"/>

<defs>
<filter id="filter0_f_2036_21996" x="14.5343" y="15.3259" width="30.655" height="19.4059" filterUnits="userSpaceOnUse" color-interpolation-filters="sRGB">
<feFlood flood-opacity="0" result="BackgroundImageFix"/>
<feBlend mode="normal" in="SourceGraphic" in2="BackgroundImageFix" result="shape"/>
<feGaussianBlur stdDeviation="1.68269" result="effect1_foregroundBlur_2036_21996"/>
</filter>
</defs>
</svg>
