<svg width="40" height="56" viewBox="0 0 40 56" fill="none" xmlns="http://www.w3.org/2000/svg">
<path d="M10.9841 10.5923L9.87544 17.1751L22.5669 24.9889L25.9051 19.2069L10.9841 10.5923Z" fill="#2A5050"/>
<path d="M20.4092 16.0142C20.4449 16.4391 20.3933 16.827 20.2373 17.1616C19.4635 18.8205 16.1524 19.3826 12.6503 18.8839L8.48236 16.3214L10.8125 10.4741L20.4092 16.0142Z" fill="#152828"/>
<ellipse cx="28.2816" cy="16.9838" rx="5.0395" ry="10.8744" transform="rotate(38.1224 28.2816 16.9838)" fill="#BAD3CA"/>
<path d="M36.5218 4.43172C35.5741 6.36825 34.8058 7.93813 33.2488 7.11006C31.6918 6.28199 32.4601 4.71211 33.4078 2.77558C34.3555 0.839039 35.8208 -0.360096 36.6807 0.0972346C37.5406 0.554565 37.4695 2.49518 36.5218 4.43172Z" fill="#D2E3DD"/>
<path d="M31.3386 6.20731L27.6881 6.24539C26.4327 11.2646 30.1968 16.2844 34.4691 15.429C37.6685 14.3856 37.6855 12.7594 39.2284 9.70874C37.5939 7.2104 35.4371 5.93142 32.0986 4.92952L31.3386 6.20731Z" fill="#2A5050"/>
<path d="M31.3386 6.20731L27.6881 6.24539C26.4327 11.2646 30.1968 16.2844 34.4691 15.429C37.6685 14.3856 37.6855 12.7594 39.2284 9.70874C37.5939 7.2104 35.4371 5.93142 32.0986 4.92952L31.3386 6.20731Z" fill="#2A5050"/>
<path d="M36.6459 14.2842C32.0869 15.4258 29.5239 12.8696 27.5349 9.46179C28.0043 12.9155 30.9944 16.1721 34.4021 15.4379C35.3839 15.2105 36.1162 14.7447 36.6459 14.2842Z" fill="#468586"/>
<path d="M36.0323 8.79633C36.8925 7.34369 37.5899 6.16608 38.9924 7.0803C40.3949 7.99451 39.6975 9.17211 38.8373 10.6248C37.977 12.0774 36.6517 12.8457 35.8772 12.3408C35.1026 11.8359 35.172 10.249 36.0323 8.79633Z" fill="#D2E3DD"/>
<path d="M35.4339 10.1967L37.9512 6.74331C37.9512 6.74331 38.3015 6.77165 38.3898 6.79814C37.9712 9.11151 36.6765 10.4152 35.36 10.6946L35.4339 10.1967Z" fill="#AECAC0"/>
<path d="M34.4687 6.86679C35.3434 5.41978 36.0525 4.24674 37.4081 5.1304C38.7638 6.01405 38.0546 7.18709 37.1799 8.6341C36.3052 10.0811 34.9891 10.8585 34.2405 10.3705C33.4918 9.88247 33.5939 8.3138 34.4687 6.86679Z" fill="#D2E3DD"/>
<path d="M32.0949 4.98507L33.0069 3.58064C33.4583 3.9218 33.5034 4.91646 33.339 5.3063C33.3362 5.31315 33.3331 5.31991 33.33 5.32655C33.3269 5.3332 32.0949 4.98507 32.0949 4.98507Z" fill="#AECAC0"/>
<path d="M30.8711 5.94546C32.379 8.02934 31.8547 10.7582 29.8746 10.6659C26.191 10.4942 27.5924 5.96542 27.901 4.55217C28.6725 1.01906 33.7537 3.42197 33.0239 5.46215C32.6376 6.5423 30.8711 5.94546 30.8711 5.94546Z" fill="#D2E3DD"/>
<path d="M3.7207 10.1542C0.540803 18.0969 18.1835 20.2234 19.66 16.5355C21.1364 12.8475 6.90061 2.21147 3.7207 10.1542Z" fill="#BAD3CA"/>
</svg>
