<svg width="43" height="49" viewBox="0 0 43 49" fill="none" xmlns="http://www.w3.org/2000/svg">
<path d="M29.5935 5.521L30.5726 10.416L30.5726 14.9022L23.9454 23.1142L18.7554 18.9144L29.5935 5.521Z" fill="#2A5050"/>
<path d="M34.0674 1.92522C34.6889 2.39146 35.1386 2.90598 35.4402 3.45437C32.596 7.17343 30.5189 9.16329 30.5692 13.4523C27.9147 15.4639 25.0167 16.5801 23.7731 15.6471C20.5982 13.2653 27.2296 -3.20449 34.0674 1.92522Z" fill="#152828"/>
<ellipse cx="5.0395" cy="10.8744" rx="5.0395" ry="10.8744" transform="matrix(-0.663457 0.748214 0.748214 0.663457 10.8124 5.22058)" fill="#BAD3CA"/>
<path d="M6.62007 6.03247C7.58321 7.41904 7.41759 8.58082 8.75023 7.56747C9.61999 6.9061 9.12 4.03247 8.6199 2.53242C8.6199 2.53242 11.62 2.03255 10.62 0.532537C9.51658 -1.12274 3.25124 1.18262 6.62007 6.03247Z" fill="#D2E3DD"/>
<path d="M5.66401 4.38061L8.25991 7.5889C8.25991 7.5889 8.49509 7.61352 8.54955 7.60369C7.68711 5.62862 6.46901 4.37014 5.48959 3.95771L5.66401 4.38061Z" fill="#AECAC0"/>
<path d="M3.39592 6.54886C5.05789 8.78517 6.40519 10.5981 7.76264 9.61447C9.1201 8.63088 7.7728 6.81799 6.11083 4.58168C4.44886 2.34536 2.49381 0.972839 1.74411 1.51606C0.994407 2.05928 1.73395 4.31254 3.39592 6.54886Z" fill="#D2E3DD"/>
<path d="M2.11602 4.53109L6.69663 9.90112C6.69663 9.90112 7.12828 9.92949 7.22921 9.90931C5.76432 6.55955 3.59945 4.46503 1.82124 3.81323L2.11602 4.53109Z" fill="#AECAC0"/>
<path d="M1.95089 8.57617C3.61665 10.8176 4.96702 12.6346 6.32448 11.651C7.68193 10.6674 6.33156 8.85041 4.66579 6.60899C3.00003 4.36757 1.04191 2.99091 0.292204 3.53413C-0.457497 4.07735 0.28512 6.33475 1.95089 8.57617Z" fill="#D2E3DD"/>
<path d="M10.7916 5.66134L14.3807 4.99312C16.5825 9.67511 13.8596 15.3277 9.50254 15.3142C6.16177 14.9089 5.35002 13.0325 3.35 10.3932C4.47081 7.62608 6.0782 6.66073 9.16009 5.03246L10.7916 5.66134Z" fill="#2A5050"/>
<path d="M7.14562 14.6117C11.8393 14.8506 13.8599 11.8473 15.1527 8.11926C15.3597 11.5986 13.0554 15.3717 9.57005 15.31C8.56282 15.2766 7.75434 14.9612 7.14562 14.6117Z" fill="#468586"/>
<path d="M12.1199 5.03252C10.6199 6.53252 11.138 10.0802 13.1197 10.0326C16.4155 9.95321 14.9236 5.18303 14.6469 3.76319C14.2845 1.9021 12.3121 0.770814 11.1201 1.53247C9.92836 2.2941 12.1199 5.03252 12.1199 5.03252Z" fill="#D2E3DD"/>
<path d="M34.0993 1.02082C40.922 6.17059 26.9327 17.1035 23.7648 14.7124C20.5969 12.3212 27.2767 -4.12896 34.0993 1.02082Z" fill="#BAD3CA"/>
</svg>
