<svg width="40" height="48" viewBox="0 0 40 48" fill="none" xmlns="http://www.w3.org/2000/svg">
<path d="M14.3638 7.00842L8.34595 9.91337L14.2718 22.1893L20.2896 19.2843L14.3638 7.00842Z" fill="#0E1B1B"/>
<path d="M14.3638 7.00842L8.34595 9.91337L9.99304 13.3337C12.3993 14.8978 16.5969 15.6884 18.0651 14.6759L14.3638 7.00842Z" fill="#070D0D"/>
<path d="M20.4975 19.5387L19.4702 17.5856C17.7772 18.1022 15.8127 19.9825 13.4431 18.9198C13.155 18.7906 12.915 18.8186 12.7217 18.9759L13.7599 21.1028L20.4975 19.5387Z" fill="#2A5050"/>
<path d="M21.1594 18.454C19.1072 17.14 16.645 21.0772 13.4433 19.6413C10.2415 18.2055 12.979 36.1871 19.7778 35.1409C26.5765 34.0947 23.2116 19.7679 21.1594 18.454Z" fill="#819D92"/>
<path d="M21.7144 40.3385C21.348 38.2116 21.0509 36.4875 22.7997 36.2465C24.5485 36.0055 24.8455 37.7296 25.212 39.8565C25.5784 41.9834 25.0925 43.8154 24.1267 43.9485C23.1609 44.0816 22.0809 42.4653 21.7144 40.3385Z" fill="#A9C1B8"/>
<path d="M22.3384 42.6136L21.1508 36.8411C21.1549 36.6602 21.3514 36.528 21.3514 36.528C22.9743 39.0195 23.0932 41.3526 22.3384 42.6136Z" fill="#8EADA1"/>
<path d="M19.0943 41.5522C18.7278 39.4254 18.4308 37.7012 20.0909 37.4724C21.7511 37.2437 22.0482 38.9678 22.4146 41.0947C22.7811 43.2215 22.3348 45.0481 21.418 45.1745C20.5011 45.3008 19.4607 43.6791 19.0943 41.5522Z" fill="#A9C1B8"/>
<path d="M19.6071 42.9717L18.4194 37.1993C18.4236 37.0183 18.6201 36.8862 18.6201 36.8862C20.243 39.3776 20.3619 41.7107 19.6071 42.9717Z" fill="#8EADA1"/>
<path d="M16.293 41.0958C15.8081 38.989 15.4151 37.2811 17.0028 36.9599C18.5905 36.6387 18.9835 38.3466 19.4683 40.4533C19.9532 42.5601 19.6354 44.4118 18.7585 44.5892C17.8817 44.7666 16.7778 43.2025 16.293 41.0958Z" fill="#A9C1B8"/>
<path d="M24.3431 35.8412L27.0952 33.4368C24.7841 28.8019 18.6545 27.4327 15.9613 30.8634C14.2064 33.7389 15.0587 35.0723 15.8701 38.3969C18.7391 39.2337 21.405 38.7179 24.5964 37.3077L24.3431 35.8412Z" fill="#0E1B1B"/>
<path d="M15.0388 33.0354C17.7639 29.2005 21.3668 29.5719 25.0973 30.87C22.4929 28.5482 18.0196 28.0939 15.9051 30.8697C15.3796 31.7539 15.142 32.3404 15.0388 33.0354Z" fill="#070D0D"/>
<path d="M24.5004 35.8988C21.9974 35.2948 20.989 32.715 22.5553 31.4968C25.4691 29.2305 27.8234 34.1674 28.5083 35.4432C29.1931 36.719 29.2201 37.9775 28.4162 38.5093C27.6122 39.0411 25.949 38.2841 24.5004 35.8988Z" fill="#A9C1B8"/>
<path d="M5.44882 1.39737C-0.600906 7.44708 14.7803 16.3468 17.5893 13.5378C20.3983 10.7288 11.4985 -4.65233 5.44882 1.39737Z" fill="#819D92"/>
</svg>
