<svg width="54" height="66" viewBox="0 0 54 66" fill="none" xmlns="http://www.w3.org/2000/svg">
<path d="M40.7163 22.1921L41.6954 27.0871L41.6954 31.5734L35.0682 39.7854L29.8782 35.5856L40.7163 22.1921Z" fill="#0E1B1B"/>
<path d="M45.1902 18.5964C45.8117 19.0626 46.2614 19.5771 46.563 20.1255C43.7188 23.8446 41.6417 25.8344 41.692 30.1235C39.0375 32.135 36.1395 33.2512 34.8959 32.3183C31.721 29.9364 38.3524 13.4667 45.1902 18.5964Z" fill="#070D0D"/>
<ellipse cx="5.0395" cy="10.8744" rx="5.0395" ry="10.8744" transform="matrix(-0.663457 0.748214 0.748214 0.663457 21.9352 21.8917)" fill="#819D92"/>
<path d="M20.2279 23.2186L23.7771 22.3634C26.221 26.9237 23.7978 32.7111 19.4459 32.9257C16.0885 32.6958 15.6746 31.123 13.433 28.542C14.4074 25.72 15.1346 24.3488 18.127 22.5614L20.2279 23.2186Z" fill="#0E1B1B"/>
<path d="M17.0555 32.3476C21.7552 32.3405 23.6158 29.2355 24.7117 25.4449C25.1006 28.9087 22.9969 32.7972 19.5131 32.9181C18.5055 32.9375 17.6816 32.6648 17.0555 32.3476Z" fill="#2A5050"/>
<path d="M29.1999 3.9632C30.1357 4.41971 30.7865 5.46276 30.9681 6.95412C31.1486 8.43687 30.8435 10.2637 29.9672 12.0605C29.0908 13.8574 27.8389 15.2232 26.5591 15.9938C25.2721 16.7689 24.0495 16.8983 23.1137 16.4419C22.1778 15.9854 21.5271 14.9423 21.3454 13.451C21.1648 11.9681 21.4703 10.1407 22.3468 8.34373C23.2232 6.54697 24.4748 5.18184 25.7544 4.41122C27.0415 3.63614 28.264 3.50673 29.1999 3.9632Z" stroke="#F6CA72" stroke-width="1.47248"/>
<path d="M4.99811 5.65508C4.13491 6.23739 3.63566 7.36086 3.66336 8.86298C3.69097 10.3564 4.24739 12.123 5.36519 13.7803C6.48317 15.4378 7.913 16.6161 9.28751 17.2011C10.6699 17.7895 11.8986 17.7475 12.7618 17.1653C13.6251 16.583 14.1242 15.4595 14.0966 13.9574C14.069 12.4638 13.5122 10.6967 12.3942 9.03921C11.2763 7.38191 9.84682 6.20426 8.47242 5.61923C7.08999 5.03081 5.86138 5.0728 4.99811 5.65508Z" stroke="#F6CA72" stroke-width="1.47248"/>
<path d="M26.8064 10.7327C26.8636 13.8578 25.3657 16.6648 23.0094 18.3926C21.5315 19.4763 20.3108 21.0836 20.4387 22.9119L20.9628 30.4074L16.8371 30.6959L16.313 23.2004C16.1851 21.3721 14.7526 19.9503 13.1383 19.0828C10.5645 17.6998 8.69045 15.1286 8.31216 12.0259L7.51996 5.52833C7.27613 3.52841 8.75791 1.73242 10.7677 1.59188L22.9226 0.741929C24.9324 0.601389 26.6497 2.17368 26.6866 4.18807L26.8064 10.7327Z" fill="#C89B40"/>
<rect x="14.4829" y="29.2864" width="8.63423" height="2.46692" rx="0.490826" transform="rotate(-4 14.4829 29.2864)" fill="#9D7930"/>
<rect x="14.4829" y="29.2864" width="8.63423" height="2.46692" rx="0.490826" transform="rotate(-4 14.4829 29.2864)" fill="#F6CA72"/>
<rect x="12.0863" y="31.4176" width="13.7134" height="2.46697" rx="0.490826" transform="rotate(-4 12.0863 31.4176)" fill="#9D7930"/>
<path d="M16.3094 26.8762C15.1202 25.6778 14.1562 24.7063 13.0197 25.9356C11.8831 27.1648 12.8471 28.1363 14.0363 29.3347C15.2254 30.533 16.6983 30.9542 17.326 30.2753C17.9537 29.5964 17.4986 28.0746 16.3094 26.8762Z" fill="#A9C1B8"/>
<path d="M17.2319 28.0879L13.947 25.3544C13.947 25.3544 13.6142 25.4675 13.5351 25.5148C14.5063 27.6557 16.0804 28.6035 17.4252 28.5527L17.2319 28.0879Z" fill="#8EADA1"/>
<path d="M17.354 24.623C16.1522 23.4336 15.1779 22.4694 14.0794 23.6576C12.9808 24.8457 13.9551 25.8099 15.1569 26.9993C16.3587 28.1887 17.8249 28.6209 18.4316 27.9647C19.0383 27.3085 18.5559 25.8124 17.354 24.623Z" fill="#A9C1B8"/>
<path d="M18.2239 25.8532L14.9389 23.1197C14.9389 23.1197 14.6061 23.2328 14.527 23.28C15.4983 25.421 17.0723 26.3688 18.4172 26.318L18.2239 25.8532Z" fill="#8EADA1"/>
<path d="M18.3461 22.3882C17.1443 21.1989 16.17 20.2347 15.0714 21.4228C13.9729 22.611 14.9471 23.5752 16.149 24.7645C17.3508 25.9539 18.8169 26.3861 19.4236 25.7299C20.0304 25.0737 19.5479 23.5776 18.3461 22.3882Z" fill="#A9C1B8"/>
<path d="M20.6173 22.8504C19.6644 25.2396 20.8396 27.7576 22.7371 27.1842C26.2671 26.1175 23.8014 22.0685 23.1568 20.7735C21.5453 17.5361 17.2054 21.1079 18.4116 22.9079C19.0502 23.8608 20.6173 22.8504 20.6173 22.8504Z" fill="#A9C1B8"/>
<path d="M45.222 17.6926C52.0447 22.8423 38.0554 33.7753 34.8875 31.3841C31.7196 28.993 38.3994 12.5428 45.222 17.6926Z" fill="#819D92"/>
</svg>
