<svg width="88" height="47" viewBox="0 0 88 47" fill="none" xmlns="http://www.w3.org/2000/svg">
<rect x="33.8853" y="6.65527" width="20" height="27" rx="3.5" fill="#F6FAF5"/>
<rect x="33.8853" y="6.65527" width="20" height="27" rx="3.5" stroke="#6F8295"/>
<path d="M38.2928 18.5552C38.3153 18.2102 38.3903 17.8702 38.5553 17.5677C38.6253 17.4402 38.7103 17.2952 38.8103 17.1427C38.9228 16.9702 39.0578 16.7877 39.2153 16.6002C39.7578 15.9577 40.5703 15.2727 41.7528 14.8802C42.3628 14.6777 43.0678 14.5527 43.8853 14.5527C47.1528 14.5527 48.6578 16.5402 49.2153 17.5652C49.3803 17.8702 49.4553 18.2077 49.4778 18.5527C49.4828 18.6352 49.4853 18.7177 49.4853 18.8027V19.7527H48.2853V18.8027C48.2853 18.4802 48.2353 18.2752 48.1603 18.1377C47.7228 17.3352 46.5528 15.7527 43.8853 15.7527C41.2178 15.7527 40.0478 17.3377 39.6103 18.1402C39.6003 18.1577 39.5928 18.1752 39.5828 18.1952C39.5228 18.3302 39.4853 18.5227 39.4853 18.8052V19.7552H38.2853V18.8052C38.2853 18.7227 38.2878 18.6377 38.2928 18.5552ZM38.4503 24.5552C38.3428 24.3102 38.2828 24.0402 38.2828 23.7552V23.3552H39.4828V23.7552C39.4828 24.1977 39.8403 24.5552 40.2828 24.5552H47.4828C47.9253 24.5552 48.2828 24.1977 48.2828 23.7552V23.3552H49.4828V23.7552C49.4828 24.0402 49.4228 24.3102 49.3153 24.5552C49.0078 25.2627 48.3028 25.7552 47.4828 25.7552H40.2828C39.4628 25.7552 38.7578 25.2627 38.4503 24.5552ZM43.2853 16.9552C43.2853 16.6227 43.5528 16.3552 43.8853 16.3552C44.2178 16.3552 44.4853 16.6227 44.4853 16.9552C44.4853 17.2877 44.2178 17.5552 43.8853 17.5552C43.5528 17.5552 43.2853 17.2877 43.2853 16.9552ZM41.4853 17.1552C41.8178 17.1552 42.0853 17.4227 42.0853 17.7552C42.0853 18.0877 41.8178 18.3552 41.4853 18.3552C41.1528 18.3552 40.8853 18.0877 40.8853 17.7552C40.8853 17.4227 41.1528 17.1552 41.4853 17.1552ZM45.6853 17.7552C45.6853 17.4227 45.9528 17.1552 46.2853 17.1552C46.6178 17.1552 46.8853 17.4227 46.8853 17.7552C46.8853 18.0877 46.6178 18.3552 46.2853 18.3552C45.9528 18.3552 45.6853 18.0877 45.6853 17.7552ZM38.0853 20.9552H43.0853C43.2028 20.9552 43.3203 20.9902 43.4178 21.0552L45.4853 22.4352L47.5528 21.0552C47.6503 20.9902 47.7678 20.9552 47.8853 20.9552H49.6853C50.0178 20.9552 50.2853 21.2227 50.2853 21.5552C50.2853 21.8877 50.0178 22.1552 49.6853 22.1552H48.0678L45.8178 23.6552C45.6153 23.7902 45.3528 23.7902 45.1528 23.6552L42.9028 22.1552H38.0853C37.7528 22.1552 37.4853 21.8877 37.4853 21.5552C37.4853 21.2227 37.7528 20.9552 38.0853 20.9552Z" fill="#2A5050"/>
<path d="M42.9219 8.15527H44.9219" stroke="#6F8295" stroke-linecap="round"/>
<rect x="23.7869" y="6.84521" width="6.67546" height="13.6174" transform="rotate(19.4736 23.7869 6.84521)" fill="#2A5050"/>
<path d="M30.0812 9.07071L25.5417 21.9092L20.5107 20.1302L19.0691 19.959L19.8754 17.907C19.8756 17.9071 19.8759 17.9071 19.8761 17.9072L23.7876 6.8453L30.0812 9.07071Z" fill="#2A5050"/>
<path d="M22.74 9.81453L21.5449 13.1879C21.4271 15.1772 22.2939 16.5514 23.2293 16.8598C24.4202 17.2524 26.1543 16.5831 27.7707 15.6165L29.0403 12.0426L22.74 9.81453Z" fill="#152828"/>
<path d="M19.0686 19.9582L19.8749 17.9063C21.6125 18.2338 23.5091 20.1824 26.0056 18.5711C27.4754 17.2978 26.7281 18.3795 26.7281 18.5477L25.9301 20.7734L19.0686 19.9582Z" fill="#468586"/>
<path d="M18.1121 19.9426C19.1938 17.1782 25.4013 22.6581 26.4582 19.3158C29.8134 22.7958 33.6137 29.8088 30.0817 32.7255C24.7831 37.1011 15.7605 25.9523 18.1121 19.9426Z" fill="#BAD3CA"/>
<path d="M29.6407 34.4703C28.2503 33.4511 27.7375 31.6002 28.3586 29.992C29.4591 27.143 33.6579 27.759 33.8936 30.8041L33.918 31.1201L35.9515 33.1269L33.8482 36.77C32.045 36.1093 30.8835 35.3813 29.6407 34.4703Z" fill="#2A5050"/>
<path d="M29.0875 33.9643C28.2269 33.0511 27.7381 31.6001 28.3593 29.9919C28.9287 28.5178 30.3668 27.9024 31.5777 28.2089C29.1142 28.8701 27.8911 31.4693 29.0875 33.9643Z" fill="#152828"/>
<ellipse cx="34.5393" cy="29.6111" rx="1.74361" ry="3.41531" transform="rotate(-75 34.5393 29.6111)" fill="#D2E3DD"/>
<path d="M36.6279 35.0349C38.569 34.437 39.7764 34.8961 39.7764 35.7478C39.7764 36.5996 38.0476 37.592 36.3792 37.592C34.7108 37.592 33.341 36.7433 33.341 35.8915C33.341 35.0398 34.6024 33.8655 36.6279 35.0349Z" fill="#D2E3DD"/>
<path d="M33.7106 35.0643L39.3334 35.0614C39.694 35.1816 39.758 35.5422 39.758 35.5422C36.9763 37.0949 34.7764 36.5695 33.7106 35.0643Z" fill="#AECAC0"/>
<path d="M36.9283 33.1393C39.1228 32.4633 40.4877 32.9823 40.4877 33.9453C40.4877 34.9083 38.5333 36.0303 36.647 36.0303C34.7608 36.0303 33.2122 35.0708 33.2122 34.1078C33.2122 33.1448 34.6383 31.8172 36.9283 33.1393Z" fill="#D2E3DD"/>
<path d="M30.8352 0.499266C38.608 4.05349 27.3116 17.7478 23.7026 16.0975C20.0936 14.4472 23.0624 -3.05495 30.8352 0.499266Z" fill="#BAD3CA"/>
<rect width="6.67546" height="13.6174" transform="matrix(-0.942795 0.333373 0.333373 0.942795 64.1057 6.86011)" fill="#2A5050"/>
<path d="M57.8113 9.08561L62.3508 21.924L67.3818 20.1451L68.8234 19.9739L68.0171 17.9219C68.0169 17.9219 68.0167 17.922 68.0164 17.9221L64.1049 6.86019L57.8113 9.08561Z" fill="#2A5050"/>
<path d="M65.1526 9.82943L66.3477 13.2028C66.4654 15.1921 65.5987 16.5663 64.6633 16.8747C63.4723 17.2673 61.7382 16.598 60.1218 15.6314L58.8522 12.0575L65.1526 9.82943Z" fill="#152828"/>
<path d="M68.8239 19.9731L68.0176 17.9212C66.28 18.2487 64.3834 20.1973 61.8869 18.586C60.4171 17.3127 61.1644 18.3944 61.1644 18.5626L61.9624 20.7883L68.8239 19.9731Z" fill="#468586"/>
<path d="M69.7804 19.9575C68.6987 17.1931 62.4912 22.673 61.4343 19.3307C58.0792 22.8107 54.2788 29.8237 57.8108 32.7404C63.1094 37.116 72.132 25.9672 69.7804 19.9575Z" fill="#BAD3CA"/>
<path d="M58.2518 34.4852C59.6422 33.4659 60.155 31.6151 59.5339 30.0069C58.4334 27.1579 54.2347 27.7739 53.9989 30.819L53.9745 31.135L51.941 33.1418L54.0444 36.7849C55.8475 36.1242 57.009 35.3962 58.2518 34.4852Z" fill="#2A5050"/>
<path d="M58.805 33.9792C59.6656 33.066 60.1544 31.615 59.5332 30.0068C58.9638 28.5327 57.5257 27.9173 56.3148 28.2238C58.7784 28.885 60.0015 31.4842 58.805 33.9792Z" fill="#152828"/>
<ellipse cx="1.74361" cy="3.41531" rx="1.74361" ry="3.41531" transform="matrix(-0.258819 -0.965926 -0.965926 0.258819 57.1034 30.4263)" fill="#D2E3DD"/>
<path d="M51.2646 35.0498C49.3235 34.4519 48.1161 34.911 48.1161 35.7627C48.1161 36.6145 49.8449 37.6069 51.5133 37.6069C53.1817 37.6069 54.5515 36.7582 54.5515 35.9064C54.5515 35.0547 53.2901 33.8804 51.2646 35.0498Z" fill="#D2E3DD"/>
<path d="M54.1819 35.0792L48.5591 35.0763C48.1986 35.1965 48.1345 35.557 48.1345 35.557C50.9162 37.1098 53.1161 36.5844 54.1819 35.0792Z" fill="#AECAC0"/>
<path d="M50.9643 33.1542C48.7697 32.4782 47.4048 32.9972 47.4048 33.9602C47.4048 34.9232 49.3593 36.0452 51.2455 36.0452C53.1317 36.0452 54.6803 35.0856 54.6803 34.1227C54.6803 33.1597 53.2542 31.8321 50.9643 33.1542Z" fill="#D2E3DD"/>
<path d="M57.2164 0.475096C49.4436 4.02932 60.74 17.7237 64.349 16.0734C67.958 14.4231 64.9892 -3.07912 57.2164 0.475096Z" fill="#BAD3CA"/>
</svg>
