<svg width="40" height="59" viewBox="0 0 40 59" fill="none" xmlns="http://www.w3.org/2000/svg">
<path d="M10.8254 14.0598L8.422 19.9356L22.4083 28.4564L25.7465 22.6745L10.8254 14.0598Z" fill="#0E1B1B"/>
<ellipse cx="26.2238" cy="18.5029" rx="5.0395" ry="10.8744" transform="rotate(21.4175 26.2238 18.5029)" fill="#819D92"/>
<path d="M20.422 19.6002C20.4578 20.0252 20.4062 20.413 20.2502 20.7477C19.4764 22.4065 16.0853 22.969 12.5832 22.4703L8.42203 19.9352L10.8254 14.0602L20.422 19.6002Z" fill="#070D0D"/>
<path d="M29.8135 4.3262C29.2895 6.41786 28.8647 8.11349 27.1693 7.62754C25.4738 7.14159 25.8985 5.44597 26.4225 3.35431C26.9465 1.26264 28.1303 -0.215418 29.0667 0.0529631C30.0031 0.321344 30.3374 2.23454 29.8135 4.3262Z" fill="#A9C1B8"/>
<path d="M30.1619 1.99433L28.9163 7.74918C28.8394 7.91289 28.6065 7.95431 28.6065 7.95431C28.1294 5.02206 28.9629 2.84192 30.1619 1.99433Z" fill="#8EADA1"/>
<path d="M32.6969 4.27695C32.173 6.36861 31.7482 8.06424 30.1386 7.60292C28.5291 7.14159 28.9538 5.44597 29.4778 3.35431C30.0018 1.26264 31.1471 -0.226442 32.0361 0.0283398C32.925 0.283121 33.2209 2.18529 32.6969 4.27695Z" fill="#A9C1B8"/>
<path d="M32.8016 2.7718L31.5559 8.52665C31.479 8.69036 31.2461 8.73178 31.2461 8.73178C30.769 5.79953 31.6026 3.61939 32.8016 2.7718Z" fill="#8EADA1"/>
<path d="M35.0734 5.82309C34.6658 7.94418 34.3353 9.66366 32.7546 9.31608C31.174 8.9685 31.5045 7.24902 31.9121 5.12793C32.3198 3.00684 33.358 1.44297 34.2309 1.63494C35.1039 1.8269 35.4811 3.702 35.0734 5.82309Z" fill="#A9C1B8"/>
<path d="M25.5935 7.37586L22.1074 8.4618C22.3478 13.6308 27.3966 17.3573 31.2433 15.3097C34.0082 13.3904 33.7677 11.8277 34.3687 8.4618C32.0848 6.53846 29.4402 5.93335 25.9541 5.93335L25.5935 7.37586Z" fill="#0E1B1B"/>
<path d="M32.9348 13.7363C28.8958 16.1405 25.8189 14.3854 22.9338 11.6927C24.3763 14.8663 28.2365 16.982 31.2898 15.299C32.1271 14.7032 32.5598 14.3298 32.9348 13.7363Z" fill="#2A5050"/>
<path d="M25.4738 7.2601C27.5173 8.82281 27.3971 11.5876 25.4738 12.0685C21.8957 12.963 21.7377 7.50052 21.6271 6.05801C21.5164 4.6155 21.9999 3.45454 22.9494 3.2932C23.8989 3.13185 25.1131 4.49529 25.4738 7.2601Z" fill="#A9C1B8"/>
<path d="M3.7207 13.6582C0.540803 21.6009 18.1835 23.7274 19.66 20.0395C21.1364 16.3516 6.90061 5.7155 3.7207 13.6582Z" fill="#819D92"/>
</svg>
