<svg width="88" height="47" viewBox="0 0 88 47" fill="none" xmlns="http://www.w3.org/2000/svg">
<circle cx="44" cy="21.5859" r="14.5" fill="#FF9D9F" stroke="#D64A4C"/>
<circle cx="44" cy="21.686" r="11.5" fill="#FFEFEF" stroke="#D64A4C"/>
<circle cx="44" cy="21.686" r="8" fill="#FF9D9F" stroke="#D64A4C"/>
<circle cx="44" cy="21.686" r="4.5" fill="#FFEFEF" stroke="#D64A4C"/>
<rect x="52.8787" y="10.7572" width="3" height="15" rx="1.5" transform="rotate(45 52.8787 10.7572)" fill="#98A9E5" stroke="#6779BB"/>
<path d="M56.2811 8.77884C56.3748 9.11726 56.6394 9.3818 56.9778 9.47559L60.5741 10.4727L57.1207 13.9261L52.6047 13.1527L51.8313 8.63659L55.2846 5.18323L56.2811 8.77884Z" fill="#F6CA72" stroke="#C89B40"/>
<rect x="23.7869" y="6.84521" width="6.67546" height="13.6174" transform="rotate(19.4736 23.7869 6.84521)" fill="#2A5050"/>
<path d="M30.0812 9.07071L25.5416 21.9092L20.5107 20.1302L19.0691 19.959L19.8753 17.907C19.8755 17.9071 19.8758 17.9071 19.876 17.9072L23.7875 6.8453L30.0812 9.07071Z" fill="#2A5050"/>
<path d="M22.74 9.81453L21.5449 13.1879C21.4271 15.1772 22.2939 16.5514 23.2293 16.8598C24.4203 17.2524 26.1543 16.5831 27.7707 15.6165L29.0404 12.0426L22.74 9.81453Z" fill="#152828"/>
<path d="M19.0686 19.9582L19.8749 17.9063C21.6125 18.2338 23.5091 20.1824 26.0056 18.5711C27.4754 17.2978 26.7281 18.3795 26.7281 18.5477L25.9301 20.7734L19.0686 19.9582Z" fill="#468586"/>
<path d="M18.1121 19.9426C19.1939 17.1782 25.4014 22.6581 26.4582 19.3158C29.8134 22.7958 33.6137 29.8088 30.0818 32.7255C24.7832 37.1011 15.7605 25.9523 18.1121 19.9426Z" fill="#BAD3CA"/>
<path d="M29.6408 34.4703C28.2504 33.4511 27.7376 31.6002 28.3588 29.992C29.4592 27.143 33.658 27.759 33.8937 30.8041L33.9182 31.1201L35.9517 33.1269L33.8483 36.77C32.0451 36.1093 30.8836 35.3813 29.6408 34.4703Z" fill="#2A5050"/>
<path d="M29.0875 33.9643C28.2269 33.0511 27.7381 31.6001 28.3593 29.9919C28.9287 28.5178 30.3668 27.9024 31.5777 28.2089C29.1142 28.8701 27.8911 31.4693 29.0875 33.9643Z" fill="#152828"/>
<ellipse cx="34.5395" cy="29.6111" rx="1.74361" ry="3.41531" transform="rotate(-75 34.5395 29.6111)" fill="#D2E3DD"/>
<path d="M36.6281 35.0349C38.5692 34.437 39.7766 34.8961 39.7766 35.7478C39.7766 36.5996 38.0478 37.592 36.3794 37.592C34.711 37.592 33.3412 36.7433 33.3412 35.8915C33.3412 35.0398 34.6026 33.8655 36.6281 35.0349Z" fill="#D2E3DD"/>
<path d="M33.7108 35.0643L39.3336 35.0614C39.6941 35.1816 39.7582 35.5422 39.7582 35.5422C36.9765 37.0949 34.7766 36.5695 33.7108 35.0643Z" fill="#AECAC0"/>
<path d="M36.9284 33.1393C39.123 32.4633 40.4879 32.9823 40.4879 33.9453C40.4879 34.9083 38.5334 36.0303 36.6472 36.0303C34.761 36.0303 33.2124 35.0708 33.2124 34.1078C33.2124 33.1448 34.6385 31.8172 36.9284 33.1393Z" fill="#D2E3DD"/>
<path d="M30.8353 0.499266C38.608 4.05349 27.3117 17.7478 23.7027 16.0975C20.0936 14.4472 23.0625 -3.05495 30.8353 0.499266Z" fill="#BAD3CA"/>
<rect width="6.67546" height="13.6174" transform="matrix(-0.942795 0.333373 0.333373 0.942795 64.1057 6.86011)" fill="#2A5050"/>
<path d="M57.8114 9.08561L62.351 21.924L67.3819 20.1451L68.8235 19.9739L68.0173 17.9219C68.017 17.9219 68.0168 17.922 68.0165 17.9221L64.105 6.86019L57.8114 9.08561Z" fill="#2A5050"/>
<path d="M65.1526 9.82943L66.3477 13.2028C66.4654 15.1921 65.5987 16.5663 64.6633 16.8747C63.4723 17.2673 61.7382 16.598 60.1218 15.6314L58.8522 12.0575L65.1526 9.82943Z" fill="#152828"/>
<path d="M68.824 19.9731L68.0177 17.9212C66.2801 18.2487 64.3835 20.1973 61.887 18.586C60.4172 17.3127 61.1645 18.3944 61.1645 18.5626L61.9625 20.7883L68.824 19.9731Z" fill="#468586"/>
<path d="M69.7804 19.9575C68.6987 17.1931 62.4912 22.673 61.4343 19.3307C58.0792 22.8107 54.2788 29.8237 57.8108 32.7404C63.1094 37.116 72.132 25.9672 69.7804 19.9575Z" fill="#BAD3CA"/>
<path d="M58.2518 34.4852C59.6422 33.4659 60.155 31.6151 59.5338 30.0069C58.4333 27.1579 54.2346 27.7739 53.9989 30.819L53.9744 31.135L51.9409 33.1418L54.0443 36.7849C55.8474 36.1242 57.009 35.3962 58.2518 34.4852Z" fill="#2A5050"/>
<path d="M58.8051 33.9792C59.6657 33.066 60.1544 31.615 59.5333 30.0068C58.9639 28.5327 57.5258 27.9173 56.3149 28.2238C58.7784 28.885 60.0015 31.4842 58.8051 33.9792Z" fill="#152828"/>
<ellipse cx="1.74361" cy="3.41531" rx="1.74361" ry="3.41531" transform="matrix(-0.258819 -0.965926 -0.965926 0.258819 57.1033 30.4263)" fill="#D2E3DD"/>
<path d="M51.2645 35.0498C49.3233 34.4519 48.116 34.911 48.116 35.7627C48.116 36.6145 49.8448 37.6069 51.5132 37.6069C53.1816 37.6069 54.5514 36.7582 54.5514 35.9064C54.5514 35.0547 53.29 33.8804 51.2645 35.0498Z" fill="#D2E3DD"/>
<path d="M54.1818 35.0792L48.559 35.0763C48.1984 35.1965 48.1344 35.557 48.1344 35.557C50.9161 37.1098 53.116 36.5844 54.1818 35.0792Z" fill="#AECAC0"/>
<path d="M50.9641 33.1542C48.7696 32.4782 47.4047 32.9972 47.4047 33.9602C47.4047 34.9232 49.3591 36.0452 51.2454 36.0452C53.1316 36.0452 54.6802 35.0856 54.6802 34.1227C54.6802 33.1597 53.2541 31.8321 50.9641 33.1542Z" fill="#D2E3DD"/>
<path d="M57.2164 0.475096C49.4436 4.02932 60.74 17.7237 64.349 16.0734C67.958 14.4231 64.9892 -3.07912 57.2164 0.475096Z" fill="#BAD3CA"/>
<path d="M56.1077 8.94144C56.2015 9.27985 56.4661 9.5444 56.8045 9.63819L60.4008 10.6353L56.9474 14.0887L52.4313 13.3153L51.6579 8.79919L55.1113 5.34583L56.1077 8.94144Z" fill="#F6CA72" stroke="#C89B40"/>
</svg>
