<svg width="51" height="69" viewBox="0 0 51 69" fill="none" xmlns="http://www.w3.org/2000/svg">
<path d="M12.3824 25.0032L11.4033 29.8982L11.4033 34.3844L18.0306 42.5964L23.2206 38.3966L12.3824 25.0032Z" fill="#2A5050"/>
<path d="M7.90852 21.4074C7.28703 21.8736 6.83733 22.3882 6.5357 22.9365C9.37991 26.6556 11.457 28.6455 11.4067 32.9345C14.0612 34.946 16.9592 36.0623 18.2028 35.1293C21.3777 32.7475 14.7463 16.2777 7.90852 21.4074Z" fill="#152828"/>
<ellipse cx="26.3707" cy="35.688" rx="5.0395" ry="10.8744" transform="rotate(48.4359 26.3707 35.688)" fill="#BAD3CA"/>
<path d="M7.87673 20.5035C1.05406 25.6533 15.0434 36.5862 18.2113 34.1951C21.3791 31.8039 14.6994 15.3537 7.87673 20.5035Z" fill="#BAD3CA"/>
<path d="M35.0191 24.5569L31.6346 23.029C28.3272 27.1225 29.6507 33.3656 33.9588 34.4057C37.3576 34.813 38.0696 33.3198 40.7994 31.1658C40.361 28.1608 39.8945 26.6527 37.2432 24.2988L35.0191 24.5569Z" fill="#2A5050"/>
<path d="M36.4571 34.2823C31.7619 33.3835 30.4917 29.9277 30.1157 25.9318C29.07 29.3193 30.4344 33.6043 33.8929 34.386C34.8961 34.5966 35.7712 34.4804 36.4571 34.2823Z" fill="#468586"/>
<rect x="37.1742" y="15.5822" width="2.70195" height="16.9784" rx="1.35097" transform="rotate(11 37.1742 15.5822)" fill="#6F8295"/>
<ellipse cx="39.4028" cy="11.1966" rx="9.54984" ry="9.54984" transform="rotate(11 39.4028 11.1966)" fill="#6F8295"/>
<ellipse cx="39.4026" cy="11.1983" rx="7.48812" ry="7.48812" transform="rotate(11 39.4026 11.1983)" fill="#E5EEE3"/>
<mask id="path-10-inside-1_2066_2375" fill="white">
<path d="M42.6487 6.75695C42.9418 6.35599 42.8566 5.78698 42.4185 5.55295C41.8022 5.22368 41.1342 4.99658 40.4407 4.88258C39.4504 4.7198 38.4358 4.79216 37.4786 5.09384C36.5214 5.39551 35.6486 5.91804 34.9306 6.61924C34.4278 7.1103 34.0108 7.67934 33.6947 8.30252C33.47 8.74543 33.7264 9.26047 34.1964 9.42092C34.6664 9.58138 35.1704 9.32402 35.419 8.89411C35.6282 8.53247 35.8864 8.19978 36.1873 7.90593C36.7035 7.40178 37.331 7.02608 38.0192 6.80917C38.7074 6.59227 39.437 6.54024 40.149 6.65728C40.564 6.7255 40.9663 6.85004 41.345 7.02638C41.7952 7.23601 42.3557 7.15791 42.6487 6.75695Z"/>
</mask>
<path d="M42.6487 6.75695L41.0341 5.57676L42.6487 6.75695ZM33.6947 8.30252L31.9111 7.39767L33.6947 8.30252ZM34.1964 9.42092L33.5503 11.3137L34.1964 9.42092ZM35.419 8.89411L33.6878 7.89273L35.419 8.89411ZM42.4185 5.55295L43.361 3.78892C42.552 3.35675 41.6754 3.05869 40.7651 2.90907L40.4407 4.88258L40.1163 6.85609C40.5931 6.93447 41.0523 7.0906 41.4761 7.31699L42.4185 5.55295ZM40.4407 4.88258L40.7651 2.90907C39.4654 2.69541 38.1336 2.79039 36.8774 3.18634L37.4786 5.09384L38.0798 7.00134C38.7379 6.79393 39.4355 6.74418 40.1163 6.85609L40.4407 4.88258ZM37.4786 5.09384L36.8774 3.18634C35.6211 3.58228 34.4756 4.26809 33.5333 5.18839L34.9306 6.61924L36.328 8.05008C36.8217 7.568 37.4217 7.20875 38.0798 7.00134L37.4786 5.09384ZM34.9306 6.61924L33.5333 5.18839C32.8733 5.8329 32.326 6.57977 31.9111 7.39767L33.6947 8.30252L35.4783 9.20737C35.6956 8.77892 35.9823 8.38769 36.328 8.05008L34.9306 6.61924ZM35.419 8.89411L37.1503 9.89549C37.2686 9.69101 37.4145 9.50292 37.5846 9.33678L36.1873 7.90593L34.7899 6.47509C34.3582 6.89665 33.9879 7.37393 33.6878 7.89273L35.419 8.89411ZM36.1873 7.90593L37.5846 9.33678C37.8765 9.05173 38.2313 8.83931 38.6204 8.71667L38.0192 6.80917L37.418 4.90167C36.4307 5.21284 35.5304 5.75182 34.7899 6.47509L36.1873 7.90593ZM38.0192 6.80917L38.6204 8.71667C39.0095 8.59404 39.422 8.56462 39.8246 8.63079L40.149 6.65728L40.4734 4.68376C39.452 4.51585 38.4053 4.5905 37.418 4.90167L38.0192 6.80917ZM40.149 6.65728L39.8246 8.63079C40.0592 8.66936 40.2867 8.73977 40.5008 8.83948L41.345 7.02638L42.1892 5.21328C41.6459 4.9603 41.0688 4.78163 40.4734 4.68376L40.149 6.65728ZM41.345 7.02638L40.5008 8.83948C41.5966 9.34969 43.275 9.28947 44.2634 7.93713L42.6487 6.75695L41.0341 5.57676C41.2242 5.31662 41.4846 5.19267 41.6892 5.15451C41.8809 5.11879 42.0506 5.14873 42.1892 5.21328L41.345 7.02638ZM33.6947 8.30252L31.9111 7.39767C31.049 9.09684 32.1197 10.8253 33.5503 11.3137L34.1964 9.42092L34.8426 7.52818C35.1211 7.62325 35.3629 7.83219 35.4991 8.12557C35.6428 8.43503 35.6639 8.84147 35.4783 9.20737L33.6947 8.30252ZM34.1964 9.42092L33.5503 11.3137C35.1355 11.8548 36.5451 10.9418 37.1503 9.89549L35.419 8.89411L33.6878 7.89273C33.7644 7.76036 33.8862 7.63852 34.0637 7.55792C34.2532 7.47183 34.5376 7.42407 34.8426 7.52818L34.1964 9.42092ZM42.4185 5.55295L41.4761 7.31699C41.1142 7.12365 40.8985 6.77855 40.8387 6.44265C40.7821 6.12421 40.8604 5.81435 41.0341 5.57676L42.6487 6.75695L44.2634 7.93713C45.1554 6.71672 45.0415 4.68673 43.361 3.78892L42.4185 5.55295Z" fill="#BEC7CF" mask="url(#path-10-inside-1_2066_2375)"/>
<path d="M38.2409 28.9546C39.6567 27.9825 40.8045 27.1945 41.7072 28.6387C42.6098 30.0829 41.4621 30.8709 40.0462 31.843C38.6303 32.815 37.0784 32.9564 36.5799 32.1588C36.0813 31.3612 36.825 29.9266 38.2409 28.9546Z" fill="#D2E3DD"/>
<path d="M37.0891 29.9905L40.8908 27.8818C40.8908 27.8818 41.202 28.058 41.272 28.1202C39.8951 30.0757 38.1421 30.7242 36.8077 30.4183L37.0891 29.9905Z" fill="#AECAC0"/>
<path d="M37.6241 26.5046C39.0509 25.544 40.2076 24.7652 41.08 26.1611C41.9525 27.5571 40.7959 28.3358 39.3691 29.2965C37.9422 30.2571 36.395 30.4109 35.9131 29.64C35.4312 28.869 36.1973 27.4653 37.6241 26.5046Z" fill="#D2E3DD"/>
<path d="M36.5213 27.5698L40.323 25.4612C40.323 25.4612 40.6341 25.6373 40.7042 25.6996C39.3273 27.655 37.5743 28.3036 36.2399 27.9977L36.5213 27.5698Z" fill="#AECAC0"/>
<path d="M37.0572 24.0835C38.484 23.1228 39.6407 22.3441 40.5132 23.74C41.3857 25.1359 40.229 25.9147 38.8022 26.8753C37.3754 27.836 35.8281 27.9898 35.3462 27.2188C34.8643 26.4479 35.6304 25.0442 37.0572 24.0835Z" fill="#D2E3DD"/>
<path d="M34.6994 24.1152C35.1984 26.6835 33.5463 28.9768 31.7589 28.0438C28.4338 26.3082 31.6659 22.7298 32.5557 21.558C34.7803 18.6286 38.4395 23.0212 36.8927 24.5911C36.0737 25.4223 34.6994 24.1152 34.6994 24.1152Z" fill="#D2E3DD"/>
</svg>
