<svg width="42" height="58" viewBox="0 0 42 58" fill="none" xmlns="http://www.w3.org/2000/svg">
<path d="M12.3824 14.2787L11.4033 19.1737L11.4033 23.6599L18.0306 31.8719L23.2206 27.6721L12.3824 14.2787Z" fill="#0E1B1B"/>
<path d="M7.90858 10.6829C7.28709 11.1491 6.83739 11.6637 6.53577 12.2121C9.37997 15.9311 11.457 17.921 11.4068 22.21C14.0613 24.2215 16.9592 25.3378 18.2028 24.4048C21.3777 22.023 14.7464 5.5532 7.90858 10.6829Z" fill="#070D0D"/>
<ellipse cx="26.3707" cy="24.9636" rx="5.0395" ry="10.8744" transform="rotate(48.4359 26.3707 24.9636)" fill="#819D92"/>
<path d="M7.87673 9.77899C1.05406 14.9288 15.0434 25.8617 18.2113 23.4706C21.3791 21.0794 14.6994 4.62922 7.87673 9.77899Z" fill="#819D92"/>
<path d="M33.1844 12.419L29.5953 11.7508C27.3936 16.4328 30.1164 22.0854 34.4735 22.0719C37.8143 21.6665 38.1453 20.0742 40.2487 17.3794C39.1279 14.6122 38.3299 13.281 35.248 11.6528L33.1844 12.419Z" fill="#0E1B1B"/>
<path d="M36.8305 21.3694C32.1368 21.6083 30.1162 18.605 28.8234 14.877C28.6163 18.3563 30.9207 22.1294 34.406 22.0677C35.4133 22.0343 36.2217 21.7189 36.8305 21.3694Z" fill="#2A5050"/>
<path d="M31.932 12.1737C33.7646 13.8255 33.5147 16.1924 31.4048 16.2753C28.3714 16.2822 28.6265 11.2293 28.6265 11.2293L27.9542 8.77606C29.9629 8.24136 31.4326 9.96028 31.932 12.1737Z" fill="#A9C1B8"/>
<path d="M28.8173 16.1454C28.8173 14.1162 30.1178 12.3906 31.9306 11.7567C32.087 11.702 32.1972 11.5572 32.1972 11.3915L32.1972 1.49693C32.1973 1.10805 32.5134 0.792831 32.9023 0.792831L34.3105 0.792831C34.6993 0.792949 35.0145 1.10813 35.0146 1.49693L35.0146 1.91978L36.0009 1.91978C36.3896 1.92005 36.7049 2.23516 36.705 2.62389L36.705 3.32799C36.705 3.71672 36.3896 4.03183 36.0009 4.03209L35.0146 4.03209L35.0146 4.59557L36.0009 4.59557C36.3895 4.59583 36.7049 4.91099 36.705 5.29967L36.705 6.00377C36.705 6.39254 36.3896 6.70761 36.0009 6.70787L35.0146 6.70787L35.0146 11.4999C35.0146 11.6568 35.114 11.7957 35.2587 11.8563C36.9351 12.5582 38.1132 14.2142 38.1132 16.1454C38.113 18.7121 36.0316 20.7928 33.4648 20.7928C30.8981 20.7926 28.8175 18.712 28.8173 16.1454ZM31.9159 17.5536C31.916 18.409 32.6094 19.1022 33.4648 19.1024C34.3204 19.1024 35.0145 18.4091 35.0146 17.5536C35.0146 16.6979 34.3204 16.0038 33.4648 16.0038C32.6093 16.004 31.9159 16.6981 31.9159 17.5536Z" fill="#8A99A8"/>
<path d="M33.6321 10.6075L33.6321 2.08903" stroke="#596978" stroke-linecap="round"/>
<path d="M32.9022 1.29272C32.8029 1.29272 32.7202 1.3632 32.701 1.45581L32.6971 1.49683V11.3914C32.6971 11.785 32.4376 12.1086 32.0956 12.2283C30.4771 12.7942 29.3173 14.3352 29.3173 16.1453C29.3175 18.4357 31.1742 20.2925 33.4647 20.2927C35.7555 20.2927 37.6129 18.4358 37.6132 16.1453C37.6132 14.4227 36.5624 12.944 35.0653 12.3171L34.951 12.2595C34.6944 12.1061 34.5145 11.8268 34.5145 11.4998V6.20776H36.0009L36.0419 6.20386C36.1351 6.1847 36.205 6.10191 36.205 6.00366V5.29956L36.201 5.25854C36.1847 5.17897 36.1217 5.1158 36.0419 5.09937L36.0009 5.09546H34.5145V3.53198H36.0009L36.0419 3.52808C36.1351 3.50892 36.2049 3.42615 36.205 3.32788V2.62378L36.201 2.58276C36.1847 2.50321 36.1218 2.44001 36.0419 2.42358L36.0009 2.41968H34.5145V1.49683L34.5106 1.45581C34.4943 1.37606 34.4313 1.31297 34.3514 1.29663L34.3104 1.29272H32.9022ZM33.4647 16.5037C32.8856 16.5039 32.4159 16.9738 32.4159 17.5535C32.416 18.1327 32.8854 18.6021 33.4647 18.6023C34.0445 18.6023 34.5144 18.1326 34.5145 17.5535C34.5145 16.974 34.0442 16.5037 33.4647 16.5037ZM33.4647 15.5037C34.5965 15.5037 35.5145 16.4217 35.5145 17.5535C35.5144 18.6855 34.5961 19.6023 33.4647 19.6023C32.3333 19.602 31.416 18.6851 31.4159 17.5535C31.4159 16.4221 32.3329 15.5039 33.4647 15.5037ZM34.3104 0.292725C34.9493 0.292917 35.4707 0.790693 35.5106 1.41968H36.0009C36.6651 1.42013 37.2049 1.95869 37.205 2.62378V3.32788C37.2049 3.73661 37.0005 4.0966 36.6893 4.31421C37.0002 4.53188 37.2048 4.89118 37.205 5.29956V6.00366C37.205 6.66891 36.6651 7.20731 36.0009 7.20776H35.5145V11.4246C37.3363 12.2165 38.6132 14.0301 38.6132 16.1453C38.6129 18.9882 36.3076 21.2927 33.4647 21.2927C30.622 21.2925 28.3175 18.988 28.3173 16.1453C28.3173 13.9228 29.7259 12.0314 31.6971 11.3103V1.49683C31.6973 0.831049 32.238 0.292725 32.9022 0.292725H34.3104Z" fill="#596978"/>
<path d="M37.289 15.8664C38.4138 14.6074 39.3256 13.5868 40.525 14.7548C41.7244 15.9229 40.8125 16.9435 39.6877 18.2025C38.5629 19.4614 37.1142 19.9591 36.4518 19.314C35.7894 18.6689 36.1642 17.1253 37.289 15.8664Z" fill="#A9C1B8"/>
<path d="M36.4312 17.1247L39.5686 14.223C39.5686 14.223 39.9068 14.3185 39.9883 14.3615C39.1305 16.5504 37.6082 17.5792 36.2625 17.599L36.4312 17.1247Z" fill="#8EADA1"/>
<path d="M36.128 13.6711C37.2659 12.4204 38.1883 11.4065 39.3476 12.5356C40.5069 13.6646 39.5844 14.6784 38.4465 15.9291C37.3086 17.1797 35.8671 17.6881 35.2268 17.0646C34.5866 16.4411 34.99 14.9217 36.128 13.6711Z" fill="#A9C1B8"/>
<path d="M35.3237 14.945L38.461 12.0433C38.461 12.0433 38.7993 12.1388 38.8807 12.1818C38.0229 14.3707 36.5006 15.3995 35.155 15.4193L35.3237 14.945Z" fill="#8EADA1"/>
<path d="M35.0202 11.4914C36.1581 10.2407 37.0805 9.22686 38.2398 10.3559C39.3991 11.4849 38.4766 12.4987 37.3387 13.7494C36.2008 15.0001 34.7593 15.5084 34.1191 14.8849C33.4788 14.2614 33.8823 12.742 35.0202 11.4914Z" fill="#A9C1B8"/>
</svg>
