<svg width="49" height="69" viewBox="0 0 49 69" fill="none" xmlns="http://www.w3.org/2000/svg">
<path d="M35.5878 25.1897L36.5669 30.0847L36.5669 34.5709L29.9396 42.7829L24.7497 38.5831L35.5878 25.1897Z" fill="#0E1B1B"/>
<path d="M40.0616 21.5939C40.6831 22.0602 41.1328 22.5747 41.4344 23.1231C38.5902 26.8421 36.5132 28.832 36.5634 33.121C33.9089 35.1326 31.011 36.2488 29.7674 35.3158C26.5925 32.934 33.2239 16.4642 40.0616 21.5939Z" fill="#070D0D"/>
<ellipse cx="5.0395" cy="10.8744" rx="5.0395" ry="10.8744" transform="matrix(-0.663457 0.748214 0.748214 0.663457 16.8066 24.8893)" fill="#819D92"/>
<path d="M15.0995 24.2162L18.6487 23.361C21.0925 27.9213 18.6694 33.7087 14.3175 33.9233C10.9601 33.6934 10.5462 32.1206 8.30455 29.5395C9.27896 26.7175 10.0062 25.3464 12.9986 23.559L15.0995 24.2162Z" fill="#0E1B1B"/>
<path d="M11.927 33.3452C16.6268 33.338 18.4874 30.2331 19.5833 26.4425C19.9721 29.9062 17.8685 33.7948 14.3847 33.9156C13.3771 33.9351 12.5532 33.6624 11.927 33.3452Z" fill="#2A5050"/>
<rect x="10.7732" y="16.0977" width="2.70195" height="16.9784" rx="1.35097" transform="rotate(-11 10.7732 16.0977)" fill="#6F8295"/>
<ellipse cx="11.1966" cy="11.1966" rx="9.54984" ry="9.54984" transform="rotate(-11 11.1966 11.1966)" fill="#6F8295"/>
<ellipse cx="11.1971" cy="11.1982" rx="7.48812" ry="7.48812" transform="rotate(-11 11.1971 11.1982)" fill="#E5EEE3"/>
<mask id="path-9-inside-1_2072_14338" fill="white">
<path d="M12.543 5.86422C12.6645 5.38267 12.3724 4.88702 11.8785 4.83413C11.1837 4.75972 10.4794 4.79937 9.79363 4.95347C8.81447 5.17351 7.90078 5.62071 7.12632 6.25898C6.35187 6.89725 5.73836 7.70869 5.33533 8.62778C5.05308 9.27145 4.8796 9.95527 4.81992 10.6515C4.7775 11.1463 5.20821 11.5278 5.70411 11.5005C6.2 11.4732 6.57083 11.0458 6.64035 10.5541C6.69882 10.1404 6.81354 9.73522 6.98244 9.35005C7.27222 8.68922 7.71333 8.1058 8.27017 7.64688C8.827 7.18797 9.48395 6.86643 10.188 6.70822C10.5983 6.61601 11.0179 6.5808 11.4351 6.60242C11.9311 6.62813 12.4215 6.34577 12.543 5.86422Z"/>
</mask>
<path d="M12.543 5.86422L10.6038 5.37484L12.543 5.86422ZM4.81992 10.6515L2.82723 10.4807L4.81992 10.6515ZM5.70411 11.5005L5.81404 13.4975L5.70411 11.5005ZM6.64035 10.5541L4.66003 10.2741L6.64035 10.5541ZM11.8785 4.83413L12.0915 2.84551C11.1796 2.74784 10.2551 2.79988 9.35513 3.00213L9.79363 4.95347L10.2321 6.90481C10.7036 6.79886 11.1878 6.7716 11.6656 6.82276L11.8785 4.83413ZM9.79363 4.95347L9.35513 3.00213C8.07 3.29093 6.87079 3.87788 5.85434 4.71559L7.12632 6.25898L8.39831 7.80237C8.93076 7.36355 9.55894 7.05608 10.2321 6.90481L9.79363 4.95347ZM7.12632 6.25898L5.85434 4.71559C4.83788 5.55331 4.03266 6.61831 3.50369 7.8246L5.33533 8.62778L7.16697 9.43097C7.44406 8.79907 7.86586 8.24119 8.39831 7.80237L7.12632 6.25898ZM5.33533 8.62778L3.50369 7.8246C3.13324 8.6694 2.90556 9.56691 2.82723 10.4807L4.81992 10.6515L6.81261 10.8223C6.85364 10.3436 6.97292 9.87349 7.16697 9.43097L5.33533 8.62778ZM6.64035 10.5541L8.62066 10.834C8.65372 10.6001 8.71859 10.371 8.81408 10.1532L6.98244 9.35005L5.15081 8.54687C4.9085 9.09943 4.74391 9.6807 4.66003 10.2741L6.64035 10.5541ZM6.98244 9.35005L8.81408 10.1532C8.97792 9.77961 9.22732 9.44974 9.54215 9.19027L8.27017 7.64688L6.99818 6.1035C6.19934 6.76186 5.56652 7.59884 5.15081 8.54687L6.98244 9.35005ZM8.27017 7.64688L9.54215 9.19027C9.85698 8.93081 10.2284 8.74901 10.6265 8.65956L10.188 6.70822L9.74946 4.75689C8.73947 4.98385 7.79702 5.44513 6.99818 6.1035L8.27017 7.64688ZM10.188 6.70822L10.6265 8.65956C10.8585 8.60742 11.0957 8.58751 11.3316 8.59974L11.4351 6.60242L11.5387 4.6051C10.9401 4.57408 10.3381 4.6246 9.74946 4.75689L10.188 6.70822ZM11.4351 6.60242L11.3316 8.59974C12.5387 8.66231 14.0723 7.97774 14.4822 6.3536L12.543 5.86422L10.6038 5.37484C10.6826 5.06241 10.8776 4.84994 11.0531 4.7379C11.2174 4.633 11.3859 4.59719 11.5387 4.6051L11.4351 6.60242ZM4.81992 10.6515L2.82723 10.4807C2.6645 12.379 4.30468 13.5806 5.81404 13.4975L5.70411 11.5005L5.59418 9.50352C5.88801 9.48735 6.19053 9.59047 6.42669 9.81148C6.67581 10.0446 6.84765 10.4135 6.81261 10.8223L4.81992 10.6515ZM5.70411 11.5005L5.81404 13.4975C7.48657 13.4054 8.45148 12.0308 8.62066 10.834L6.64035 10.5541L4.66003 10.2741C4.68144 10.1227 4.74879 9.96409 4.88314 9.82289C5.02663 9.67206 5.27244 9.52123 5.59418 9.50352L5.70411 11.5005ZM11.8785 4.83413L11.6656 6.82276C11.2576 6.77907 10.9283 6.53991 10.747 6.25085C10.5752 5.97682 10.5318 5.66018 10.6038 5.37484L12.543 5.86422L14.4822 6.3536C14.8521 4.8879 13.986 3.04841 12.0915 2.84551L11.8785 4.83413Z" fill="#BEC7CF" mask="url(#path-9-inside-1_2072_14338)"/>
<path d="M11.1809 27.8738C9.99171 26.6754 9.0277 25.7039 7.89114 26.9331C6.75458 28.1624 7.71859 29.1339 8.90775 30.3322C10.0969 31.5306 11.5698 31.9517 12.1975 31.2728C12.8252 30.594 12.37 29.0721 11.1809 27.8738Z" fill="#A9C1B8"/>
<path d="M12.1034 29.0855L8.81842 26.352C8.81842 26.352 8.48566 26.4651 8.40656 26.5123C9.3778 28.6533 10.9519 29.6011 12.2967 29.5503L12.1034 29.0855Z" fill="#8EADA1"/>
<path d="M12.2255 25.6207C11.0237 24.4313 10.0494 23.4671 8.95083 24.6553C7.85226 25.8434 8.82653 26.8076 10.0284 27.997C11.2302 29.1863 12.6963 29.6186 13.303 28.9624C13.9098 28.3062 13.4273 26.81 12.2255 25.6207Z" fill="#A9C1B8"/>
<path d="M13.0954 26.8508L9.81048 24.1173C9.81048 24.1173 9.47773 24.2304 9.39862 24.2776C10.3699 26.4185 11.9439 27.3663 13.2888 27.3156L13.0954 26.8508Z" fill="#8EADA1"/>
<path d="M13.2176 23.3859C12.0157 22.1966 11.0415 21.2324 9.94289 22.4205C8.84432 23.6087 9.8186 24.5728 11.0204 25.7622C12.2223 26.9516 13.6884 27.3838 14.2951 26.7276C14.9018 26.0714 14.4194 24.5753 13.2176 23.3859Z" fill="#A9C1B8"/>
<path d="M15.4889 23.8481C14.5359 26.2373 15.7112 28.7553 17.6087 28.1819C21.1387 27.1152 18.673 23.0662 18.0284 21.7712C16.4168 18.5338 12.077 22.1056 13.2832 23.9055C13.9218 24.8585 15.4889 23.8481 15.4889 23.8481Z" fill="#A9C1B8"/>
<path d="M40.0935 20.6901C46.9162 25.8399 32.9268 36.7729 29.7589 34.3817C26.5911 31.9906 33.2708 15.5403 40.0935 20.6901Z" fill="#819D92"/>
</svg>
