<svg width="42" height="60" viewBox="0 0 42 60" fill="none" xmlns="http://www.w3.org/2000/svg">
<path d="M12.3824 16.7437L11.4033 21.6386L11.4033 26.1249L18.0306 34.3369L23.2206 30.1371L12.3824 16.7437Z" fill="#2A5050"/>
<path d="M7.90852 13.1479C7.28703 13.6141 6.83733 14.1286 6.5357 14.677C9.37991 18.3961 11.457 20.3859 11.4067 24.675C14.0612 26.6865 16.9592 27.8027 18.2028 26.8698C21.3777 24.4879 14.7463 8.01817 7.90852 13.1479Z" fill="#152828"/>
<ellipse cx="26.3707" cy="27.4286" rx="5.0395" ry="10.8744" transform="rotate(48.4359 26.3707 27.4286)" fill="#BAD3CA"/>
<path d="M7.87673 12.244C1.05406 17.3937 15.0434 28.3267 18.2113 25.9355C21.3791 23.5444 14.6994 7.09418 7.87673 12.244Z" fill="#BAD3CA"/>
<path d="M33.1844 14.8839L29.5953 14.2156C27.3936 18.8976 30.1164 24.5502 34.4735 24.5367C37.8143 24.1314 38.1453 22.5391 40.2487 19.8442C39.1279 17.0771 38.3299 15.7459 35.248 14.1176L33.1844 14.8839Z" fill="#2A5050"/>
<path d="M36.8305 23.8342C32.1368 24.0731 30.1162 21.0698 28.8234 17.3418C28.6163 20.8211 30.9207 24.5942 34.406 24.5325C35.4133 24.4992 36.2217 24.1837 36.8305 23.8342Z" fill="#468586"/>
<path d="M31.8961 14.4868C31.9205 14.5852 31.9735 14.6748 32.0464 14.7452C33.7531 16.3903 33.4697 18.6591 31.4048 18.7402C28.3714 18.747 28.6265 13.6941 28.6265 13.6941L28.0847 11.7171C28.0128 11.4547 28.1692 11.1783 28.4402 11.1536C30.1548 10.9973 31.4097 12.528 31.8961 14.4868Z" fill="#D2E3DD"/>
<path fill-rule="evenodd" clip-rule="evenodd" d="M29.0013 4.7921C29.0835 5.09873 29.3063 5.34814 29.6018 5.46413L30.4344 5.79094C30.8429 5.95127 31.3081 5.82661 31.5817 5.48354L32.1393 4.78422C32.3372 4.53602 32.4055 4.20859 32.3234 3.90195L31.8966 2.30934C31.8009 1.95216 32.1134 1.62505 32.455 1.76674C33.5622 2.22607 34.4509 3.17573 34.7848 4.42203C35.2154 6.02917 34.6005 7.67038 33.3568 8.62541L35.9022 18.1251C36.0702 18.752 36.5696 19.2218 37.0479 19.6606C37.4063 19.9894 37.6784 20.4206 37.8135 20.9249C38.1924 22.3389 37.3517 23.7927 35.9357 24.1721C34.5198 24.5515 33.0649 23.7128 32.686 22.2989C32.5601 21.8291 32.5689 21.3549 32.6886 20.9172C32.8468 20.3391 33.0042 19.7313 32.8491 19.1523L30.2344 9.39419C28.7482 9.13559 27.4731 8.04383 27.0574 6.49258C26.7141 5.21127 27.0353 3.90828 27.81 2.94864C28.0394 2.66442 28.4661 2.79462 28.5606 3.14743L29.0013 4.7921ZM34.862 20.165C34.0618 20.3794 33.5867 21.201 33.8008 22.0001C34.015 22.7992 34.8372 23.2732 35.6374 23.0588C36.4376 22.8444 36.9127 22.0227 36.6986 21.2237C36.4845 20.4246 35.6622 19.9506 34.862 20.165Z" fill="#6F8295"/>
<path d="M27.0315 2.32096C27.4134 1.84778 27.9987 1.70497 28.5048 1.84633C28.9909 1.98217 29.3871 2.36969 29.5262 2.88897L29.9668 4.53312L30.7995 4.85999L31.3572 4.16056L30.9305 2.56829C30.7899 2.04332 30.9441 1.50403 31.305 1.14353C31.6578 0.791124 32.1973 0.628448 32.7315 0.803762L32.838 0.842951L33.0941 0.957322C34.3563 1.56575 35.359 2.70122 35.7507 4.16316C36.2261 5.93725 35.681 7.74056 34.4812 8.95988L36.8677 17.8664C36.948 18.1662 37.206 18.4484 37.7243 18.9239C38.2184 19.3773 38.5937 19.9728 38.7795 20.6662C39.3015 22.6148 38.1426 24.616 36.1945 25.138C34.2464 25.66 32.2422 24.5064 31.7199 22.5578C31.5469 21.9121 31.5589 21.2569 31.7241 20.6529C31.8943 20.0308 31.9567 19.6872 31.8828 19.4114L29.4202 10.2209C27.8475 9.72557 26.5505 8.4645 26.0915 6.75135C25.6619 5.14817 26.0653 3.51822 27.0315 2.32096ZM28.5603 3.14779C28.4658 2.7951 28.0397 2.66457 27.8103 2.94839C27.0356 3.90804 26.7141 5.21123 27.0574 6.49254C27.473 8.04367 28.748 9.13553 30.234 9.39423L32.8487 19.1525C33.0038 19.7315 32.8469 20.3391 32.6887 20.9172C32.5689 21.3549 32.56 21.8292 32.6859 22.299C33.0648 23.7128 34.5198 24.5515 35.9357 24.1721C37.3516 23.7927 38.1923 22.3389 37.8136 20.925C37.6784 20.4206 37.4064 19.9889 37.048 19.6601C36.5698 19.2214 36.0697 18.7521 35.9017 18.1252L33.3563 8.62537C34.6 7.67034 35.2154 6.02912 34.7848 4.42198C34.4508 3.17569 33.5619 2.22595 32.4547 1.76662C32.1132 1.6252 31.8008 1.95239 31.8964 2.30947L32.3231 3.90174C32.4053 4.20838 32.3369 4.53595 32.139 4.78415L31.5812 5.48358C31.3077 5.82647 30.8426 5.95122 30.4342 5.79093L29.6015 5.46406C29.3061 5.34802 29.083 5.09848 29.0008 4.79194L28.5603 3.14779ZM34.862 20.165C35.6622 19.9506 36.4845 20.4247 36.6986 21.2238C36.9126 22.0228 36.4376 22.8446 35.6375 23.059C34.8373 23.2734 34.015 22.7992 33.8008 22.0002C33.5867 21.2011 34.0618 20.3794 34.862 20.165ZM35.1208 21.1309C34.8528 21.2027 34.6959 21.477 34.7668 21.7414C34.8377 22.0057 35.1107 22.1649 35.3786 22.0931C35.6465 22.0213 35.8034 21.7469 35.7327 21.4826C35.6619 21.2182 35.3888 21.0591 35.1208 21.1309Z" fill="#596978"/>
<path d="M32.0535 9.68311L34.2582 17.9114" stroke="#596978" stroke-linecap="round"/>
<path d="M37.2891 18.3313C38.4139 17.0723 39.3257 16.0517 40.5251 17.2198C41.7244 18.3878 40.8126 19.4084 39.6878 20.6674C38.563 21.9264 37.1142 22.4241 36.4518 21.779C35.7894 21.1339 36.1643 19.5903 37.2891 18.3313Z" fill="#D2E3DD"/>
<path d="M36.4314 19.5896L39.5687 16.6879C39.5687 16.6879 39.9069 16.7834 39.9884 16.8265C39.1306 19.0153 37.6083 20.0442 36.2626 20.0639L36.4314 19.5896Z" fill="#AECAC0"/>
<path d="M36.128 16.1359C37.2659 14.8853 38.1883 13.8714 39.3476 15.0004C40.5069 16.1294 39.5844 17.1433 38.4465 18.3939C37.3086 19.6446 35.8671 20.153 35.2268 19.5294C34.5866 18.9059 34.99 17.3866 36.128 16.1359Z" fill="#D2E3DD"/>
<path d="M35.3237 17.4099L38.461 14.5082C38.461 14.5082 38.7993 14.6037 38.8807 14.6468C38.0229 16.8356 36.5006 17.8645 35.155 17.8842L35.3237 17.4099Z" fill="#AECAC0"/>
<path d="M35.0202 13.9562C36.1581 12.7056 37.0806 11.6917 38.2399 12.8207C39.3991 13.9497 38.4767 14.9636 37.3388 16.2142C36.2008 17.4649 34.7594 17.9733 34.1191 17.3498C33.4789 16.7262 33.8823 15.2069 35.0202 13.9562Z" fill="#D2E3DD"/>
</svg>
