<svg width="108" height="86" viewBox="0 0 108 86" fill="none" xmlns="http://www.w3.org/2000/svg">
<path d="M12.3824 42.3448L11.4033 47.2398L11.4033 51.7261L18.0306 59.9381L23.2206 55.7383L12.3824 42.3448Z" fill="#0E1B1B"/>
<path d="M7.90858 38.7491C7.28709 39.2153 6.83739 39.7298 6.53577 40.2782C9.37997 43.9973 11.457 45.9871 11.4068 50.2762C14.0613 52.2877 16.9592 53.4039 18.2028 52.471C21.3777 50.0891 14.7464 33.6194 7.90858 38.7491Z" fill="#070D0D"/>
<ellipse cx="26.3707" cy="53.0296" rx="5.0395" ry="10.8744" transform="rotate(48.4359 26.3707 53.0296)" fill="#819D92"/>
<path d="M7.87673 37.8452C1.05406 42.9949 15.0434 53.9279 18.2113 51.5367C21.3791 49.1456 14.6994 32.6954 7.87673 37.8452Z" fill="#819D92"/>
<path d="M35.0191 41.8985L31.6346 40.3705C28.3273 44.464 29.6508 50.7072 33.9589 51.7473C37.3576 52.1545 38.0696 50.6613 40.7994 48.5073C40.3611 45.5024 39.8945 43.9942 37.2432 41.6404L35.0191 41.8985Z" fill="#0E1B1B"/>
<path d="M36.4572 51.6238C31.762 50.725 30.4918 47.2692 30.1158 43.2733C29.0701 46.6609 30.4345 50.9458 33.893 51.7276C34.8962 51.9382 35.7713 51.822 36.4572 51.6238Z" fill="#2A5050"/>
<rect x="37.5781" y="55.2479" width="25.052" height="3.70305" rx="1.85152" transform="rotate(-104.719 37.5781 55.2479)" fill="#4A325B"/>
<path d="M23.6155 32.4805C22.8842 29.6967 24.548 26.8472 27.3318 26.116L37.3141 23.4937L39.9623 33.5745L29.98 36.1968C27.1962 36.9281 24.3467 35.2642 23.6155 32.4805Z" fill="#A582AB"/>
<path d="M48.0228 26.0688C48.2634 26.9849 47.7159 27.9226 46.7998 28.1633L45.8646 28.4089L44.9931 25.0915L45.9283 24.8458C46.8444 24.6051 47.7821 25.1527 48.0228 26.0688Z" fill="#4A325B"/>
<path d="M37.3129 23.4889L41.1257 16.9854C41.5758 16.2175 42.7294 16.3762 42.9555 17.237L47.9503 36.2507C48.1765 37.1116 47.2498 37.8167 46.4804 37.3693L39.9635 33.5792L37.3129 23.4889Z" fill="#7F5A8B"/>
<rect x="49.0569" y="11.851" width="57" height="12" rx="3" transform="rotate(-12 49.0569 11.851)" fill="#FAECFB"/>
<path d="M53.809 21.0643L52.2242 13.6085L54.845 13.0514C55.5867 12.8938 56.2035 12.9379 56.6955 13.1836C57.186 13.4222 57.4941 13.8375 57.6199 14.4294C57.6927 14.7717 57.6865 15.0935 57.6015 15.3948C57.515 15.6889 57.3593 15.9382 57.1344 16.1425C57.5813 16.2115 57.938 16.3817 58.2044 16.653C58.4692 16.9172 58.6502 17.2775 58.7472 17.7339C58.8927 18.4185 58.7889 18.9996 58.4357 19.4771C58.0897 19.9532 57.5351 20.2723 56.7721 20.4345L53.809 21.0643ZM54.9184 19.4981L56.3946 19.1843C57.1719 19.0191 57.4916 18.612 57.3536 17.963C57.2869 17.6493 57.1391 17.4272 56.9102 17.297C56.6884 17.1653 56.4028 17.1366 56.0533 17.2108L54.5023 17.5405L54.9184 19.4981ZM54.2408 16.3104L55.5458 16.033C55.8311 15.9723 56.039 15.8461 56.1697 15.6544C56.306 15.454 56.3446 15.2147 56.2855 14.9366C56.2294 14.6727 56.1006 14.4877 55.8991 14.3814C55.6977 14.2752 55.4365 14.2562 55.1156 14.3244L53.8747 14.5881L54.2408 16.3104ZM60.3484 19.6743L58.7636 12.2185L61.2239 11.6956C61.8301 11.5667 62.3375 11.552 62.7463 11.6515C63.1535 11.7438 63.4775 11.9358 63.7184 12.2275C63.9649 12.5105 64.1351 12.8731 64.2291 13.3152C64.3746 13.9998 64.2914 14.5728 63.9796 15.0341C63.6733 15.4868 63.1646 15.8111 62.4534 16.007C62.2909 16.049 62.1241 16.0882 61.9529 16.1245C61.7818 16.1609 61.6356 16.192 61.5143 16.2178L61.0758 16.311L61.7283 19.381L60.3484 19.6743ZM64.4026 18.8126L61.8439 15.98L63.2195 15.5087L65.9964 18.4738L64.4026 18.8126ZM60.812 15.0701L61.7533 14.87C61.9887 14.82 62.1973 14.7496 62.3792 14.6587C62.5668 14.5592 62.7068 14.4289 62.7992 14.2676C62.8901 14.0992 62.9083 13.8866 62.8537 13.6299C62.7977 13.3661 62.6946 13.1793 62.5446 13.0695C62.3945 12.9598 62.2151 12.9048 62.0064 12.9044C61.8032 12.8954 61.584 12.916 61.3486 12.966L60.4073 13.1661L60.812 15.0701ZM66.8773 18.2866L65.2925 10.8308L70.256 9.77575L70.5197 11.0166L66.9362 11.7783L67.3136 13.554L70.6618 12.8423L70.9233 14.0725L67.5751 14.7842L67.9935 16.7524L71.577 15.9907L71.8407 17.2316L66.8773 18.2866ZM72.4304 17.1062L73.8408 9.01377L74.8784 8.79322L79.4583 15.6124L77.9501 15.933L74.8099 10.9432L73.9387 16.7856L72.4304 17.1062ZM74.0894 15.2331L74.2536 13.9013L76.4999 13.4238L77.213 14.5691L74.0894 15.2331ZM80.8938 12.9594L80.5209 11.2051L83.0598 7.05422L84.921 6.65859L80.8938 12.9594ZM80.2695 15.44L78.6847 7.98417L80.0646 7.69086L81.6494 15.1467L80.2695 15.44ZM84.8906 14.4577L81.7392 11.2033L82.5614 10.0223L86.5272 14.1099L84.8906 14.4577ZM87.3625 13.9323L85.7777 6.4765L87.1576 6.18319L88.7424 13.639L87.3625 13.9323ZM90.1725 13.335L88.5878 5.87921L90.0105 5.5768L94.6875 10.4859L94.3452 10.5586L93.1447 4.9106L94.5246 4.6173L96.1094 12.0731L94.676 12.3778L90.0074 7.45575L90.3497 7.38299L91.5525 13.0417L90.1725 13.335ZM100.772 11.261C100.087 11.4065 99.4496 11.3706 98.8593 11.1532C98.269 10.9358 97.7619 10.5665 97.3381 10.0454C96.9143 9.52433 96.6198 8.87512 96.4546 8.09781C96.2894 7.32049 96.2951 6.61118 96.4718 5.96988C96.6471 5.32145 96.9672 4.77637 97.4324 4.33464C97.9046 3.8914 98.4937 3.59474 99.1997 3.44468C99.9913 3.27642 100.715 3.33134 101.37 3.60943C102.031 3.87887 102.56 4.33294 102.957 4.97162L101.754 5.73038C101.505 5.32872 101.183 5.04303 100.789 4.87333C100.402 4.7021 99.9666 4.66803 99.4817 4.77111C99.0395 4.86509 98.6729 5.0511 98.3816 5.32915C98.0976 5.60569 97.9073 5.95545 97.8109 6.37844C97.7201 6.79278 97.7315 7.26737 97.8452 7.80222C97.9589 8.33707 98.1422 8.77885 98.3952 9.12757C98.6554 9.47476 98.9714 9.7169 99.3434 9.85398C99.7226 9.98955 100.133 10.0103 100.575 9.91636C100.804 9.86785 101.032 9.78574 101.261 9.67002C101.49 9.5543 101.687 9.39678 101.854 9.19744C102.026 8.98947 102.142 8.72997 102.202 8.41894C102.27 8.10641 102.257 7.72907 102.163 7.28692L102.072 6.85904L102.587 7.75583L100.448 8.21058L100.184 6.96973L103.243 6.31944L104.105 10.3736L102.885 10.6328L102.436 9.46498L102.71 9.5968C102.638 9.88795 102.51 10.1462 102.327 10.3714C102.144 10.5967 101.918 10.7824 101.651 10.9287C101.393 11.0805 101.1 11.1913 100.772 11.261Z" fill="#6C467B"/>
<rect x="52.3234" y="22.8213" width="35" height="12" rx="3" transform="rotate(-7 52.3234 22.8213)" fill="#D1E1DD"/>
<path d="M56.1676 32.4243L55.2387 24.8588L56.9754 24.6455L60.9295 29.5699L60.4845 29.6246L59.8301 24.295L61.5343 24.0858L62.4632 31.6513L60.7156 31.8659L56.7819 26.928L57.2161 26.8747L57.8718 32.2151L56.1676 32.4243ZM63.7467 31.4937L62.8177 23.9282L67.8976 23.3045L68.0842 24.8241L64.7085 25.2386L64.8791 26.6279L68.092 26.2334L68.2786 27.7531L65.0656 28.1476L65.2642 29.7649L68.64 29.3504L68.8265 30.87L63.7467 31.4937ZM71.7165 30.5152L68.4755 23.2335L70.2557 23.0149L72.3166 27.7751L73.0144 23.139L74.686 22.9337L76.4847 27.2633L77.3328 22.146L79.1129 21.9274L77.7298 29.7768L76.0908 29.9781L73.9583 25.0834L74.2405 25.0488L73.3555 30.3139L71.7165 30.5152ZM83.1627 29.275C82.3233 29.3781 81.6092 29.2454 81.0204 28.877C80.4316 28.5086 80.0349 27.9696 79.8303 27.2602L81.4404 26.6438C81.5733 27.0682 81.7761 27.3739 82.0488 27.5608C82.3278 27.7395 82.6555 27.8058 83.0317 27.7596C83.2199 27.7365 83.3828 27.6871 83.5204 27.6115C83.6652 27.5349 83.774 27.4334 83.8466 27.307C83.9192 27.1805 83.9457 27.0377 83.9262 26.8785C83.9084 26.7338 83.8495 26.6125 83.7493 26.5146C83.6483 26.4095 83.4938 26.3183 83.286 26.2409C83.0773 26.1564 82.8026 26.0726 82.4618 25.9895C81.9232 25.85 81.4773 25.6881 81.1241 25.5037C80.77 25.3122 80.4988 25.0774 80.3104 24.7993C80.122 24.5213 80.0043 24.1905 79.9572 23.807C79.9056 23.3873 79.9616 23.0058 80.1252 22.6625C80.295 22.3111 80.5534 22.0223 80.9002 21.7961C81.2534 21.5617 81.676 21.4144 82.1681 21.3539C82.6963 21.2891 83.1782 21.3548 83.6136 21.5511C84.0554 21.7392 84.4295 22.0642 84.736 22.5261L83.4805 23.5176C83.3119 23.2812 83.1255 23.1095 82.9214 23.0023C82.7236 22.887 82.5162 22.8427 82.2991 22.8694C82.1688 22.8854 82.0525 22.9254 81.9502 22.9893C81.8479 23.0533 81.7699 23.1363 81.7164 23.2384C81.6619 23.3332 81.6422 23.4422 81.6573 23.5652C81.6724 23.6882 81.7228 23.7995 81.8085 23.8992C81.9014 23.998 82.0563 24.0928 82.2732 24.1837C82.4891 24.2674 82.7864 24.3557 83.1651 24.4488C83.6722 24.5702 84.0946 24.7203 84.4324 24.8992C84.7775 25.0772 85.0474 25.3011 85.2421 25.571C85.4359 25.8337 85.5573 26.164 85.6062 26.562C85.663 27.0252 85.5979 27.4519 85.4108 27.8421C85.23 28.2242 84.9458 28.5419 84.5582 28.7952C84.1778 29.0476 83.7127 29.2075 83.1627 29.275Z" fill="#2D393A"/>
<path d="M38.241 46.2961C39.6568 45.3241 40.8046 44.5361 41.7073 45.9803C42.61 47.4245 41.4622 48.2125 40.0463 49.1845C38.6304 50.1566 37.0785 50.298 36.58 49.5004C36.0815 48.7028 36.8251 47.2682 38.241 46.2961Z" fill="#A9C1B8"/>
<path d="M37.0892 47.332L40.8909 45.2234C40.8909 45.2234 41.202 45.3995 41.2721 45.4618C39.8952 47.4172 38.1422 48.0658 36.8078 47.7599L37.0892 47.332Z" fill="#8EADA1"/>
<path d="M37.6241 43.8462C39.0509 42.8855 40.2076 42.1068 41.0801 43.5027C41.9526 44.8986 40.7959 45.6774 39.3691 46.638C37.9423 47.5987 36.395 47.7525 35.9131 46.9815C35.4313 46.2106 36.1973 44.8068 37.6241 43.8462Z" fill="#A9C1B8"/>
<path d="M36.5214 44.9114L40.3232 42.8027C40.3232 42.8027 40.6343 42.9789 40.7044 43.0411C39.3274 44.9965 37.5745 45.6451 36.24 45.3392L36.5214 44.9114Z" fill="#8EADA1"/>
<path d="M37.0572 41.4251C38.4841 40.4644 39.6407 39.6856 40.5132 41.0816C41.3857 42.4775 40.2291 43.2562 38.8022 44.2169C37.3754 45.1775 35.8281 45.3313 35.3463 44.5604C34.8644 43.7894 35.6304 42.3857 37.0572 41.4251Z" fill="#A9C1B8"/>
<path d="M34.6995 41.4568C35.1985 44.0251 33.5464 46.3184 31.7589 45.3854C28.4338 43.6497 31.666 40.0714 32.5558 38.8996C34.7804 35.9702 38.4396 40.3628 36.8927 41.9327C36.0738 42.7638 34.6995 41.4568 34.6995 41.4568Z" fill="#A9C1B8"/>
</svg>
