<svg width="88" height="48" viewBox="0 0 88 48" fill="none" xmlns="http://www.w3.org/2000/svg">
<path d="M25.6362 7.0083L31.654 9.91325L25.7281 22.1892L19.7103 19.2842L25.6362 7.0083Z" fill="#2A5050"/>
<path d="M25.6362 7.0083L31.654 9.91325L30.0069 13.3336C27.6006 14.8977 23.403 15.6883 21.9349 14.6758L25.6362 7.0083Z" fill="#152828"/>
<path d="M19.5025 19.5385L20.5298 17.5853C22.2228 18.1019 24.1873 19.9823 26.5569 18.9196C26.845 18.7904 27.085 18.8184 27.2783 18.9756L26.2401 21.1026L19.5025 19.5385Z" fill="#468586"/>
<path d="M18.8405 18.454C20.8927 17.14 23.3548 21.0772 26.5566 19.6413C29.7584 18.2055 27.0208 36.1871 20.2221 35.1409C13.4234 34.0947 16.7883 19.7679 18.8405 18.454Z" fill="#BAD3CA"/>
<path d="M18.2857 40.3382C18.6521 38.2114 18.9492 36.4872 17.2004 36.2462C15.4516 36.0052 15.1545 37.7294 14.7881 39.8563C14.4216 41.9831 14.9075 43.8152 15.8734 43.9483C16.8392 44.0814 17.9192 42.4651 18.2857 40.3382Z" fill="#D2E3DD"/>
<path d="M17.6616 42.6132L18.8492 36.8408C18.8451 36.6598 18.6486 36.5276 18.6486 36.5276C17.0257 39.0191 16.9068 41.3522 17.6616 42.6132Z" fill="#AECAC0"/>
<path d="M20.9057 41.5519C21.2721 39.425 21.5692 37.7008 19.909 37.4721C18.2488 37.2433 17.9518 38.9674 17.5853 41.0943C17.2189 43.2212 17.6651 45.0477 18.582 45.1741C19.4989 45.3004 20.5392 43.6787 20.9057 41.5519Z" fill="#D2E3DD"/>
<path d="M20.3928 42.9713L21.5804 37.1989C21.5762 37.0179 21.3797 36.8858 21.3797 36.8858C19.7568 39.3773 19.6379 41.7103 20.3928 42.9713Z" fill="#AECAC0"/>
<path d="M23.7069 41.0954C24.1917 38.9886 24.5848 37.2808 22.9971 36.9596C21.4094 36.6384 21.0164 38.3462 20.5315 40.453C20.0467 42.5597 20.3645 44.4114 21.2414 44.5888C22.1182 44.7662 23.2221 43.2021 23.7069 41.0954Z" fill="#D2E3DD"/>
<path d="M15.6569 35.8411L12.9048 33.4367C15.2159 28.8018 21.3455 27.4326 24.0387 30.8633C25.7936 33.7388 24.9413 35.0722 24.1299 38.3967C21.2609 39.2336 18.595 38.7178 15.4036 37.3076L15.6569 35.8411Z" fill="#2A5050"/>
<path d="M24.9612 33.0353C22.2361 29.2004 18.6332 29.5718 14.9027 30.8699C17.5071 28.5481 21.9804 28.0938 24.0948 30.8696C24.6204 31.7538 24.858 32.3403 24.9612 33.0353Z" fill="#152828"/>
<path d="M15.4996 35.8987C18.0026 35.2947 19.011 32.7149 17.4447 31.4967C14.5309 29.2303 12.1766 34.1672 11.4917 35.4431C10.8069 36.7189 10.7799 37.9773 11.5838 38.5091C12.3878 39.0409 14.051 38.2839 15.4996 35.8987Z" fill="#D2E3DD"/>
<path d="M34.396 1.58438C40.4457 7.63409 25.0645 16.5338 22.2555 13.7248C19.4465 10.9158 28.3462 -4.46532 34.396 1.58438Z" fill="#BAD3CA"/>
<path d="M62.3638 7.0083L56.346 9.91325L62.2719 22.1892L68.2897 19.2842L62.3638 7.0083Z" fill="#2A5050"/>
<path d="M62.3638 7.0083L56.346 9.91325L57.9931 13.3336C60.3994 14.8977 64.597 15.6883 66.0651 14.6758L62.3638 7.0083Z" fill="#152828"/>
<path d="M68.4975 19.5385L67.4702 17.5853C65.7772 18.1019 63.8127 19.9823 61.4431 18.9196C61.155 18.7904 60.915 18.8184 60.7217 18.9756L61.7599 21.1026L68.4975 19.5385Z" fill="#468586"/>
<path d="M69.1595 18.454C67.1073 17.14 64.6452 21.0772 61.4434 19.6413C58.2416 18.2055 60.9792 36.1871 67.7779 35.1409C74.5766 34.0947 71.2117 19.7679 69.1595 18.454Z" fill="#BAD3CA"/>
<path d="M69.7143 40.3382C69.3479 38.2114 69.0508 36.4872 70.7996 36.2462C72.5484 36.0052 72.8455 37.7294 73.2119 39.8563C73.5784 41.9831 73.0925 43.8152 72.1266 43.9483C71.1608 44.0814 70.0808 42.4651 69.7143 40.3382Z" fill="#D2E3DD"/>
<path d="M70.3384 42.6132L69.1508 36.8408C69.1549 36.6598 69.3514 36.5276 69.3514 36.5276C70.9743 39.0191 71.0932 41.3522 70.3384 42.6132Z" fill="#AECAC0"/>
<path d="M67.0943 41.5519C66.7279 39.425 66.4308 37.7008 68.091 37.4721C69.7512 37.2433 70.0482 38.9674 70.4147 41.0943C70.7811 43.2212 70.3349 45.0477 69.418 45.1741C68.5011 45.3004 67.4608 43.6787 67.0943 41.5519Z" fill="#D2E3DD"/>
<path d="M67.6072 42.9713L66.4196 37.1989C66.4238 37.0179 66.6203 36.8858 66.6203 36.8858C68.2432 39.3773 68.3621 41.7103 67.6072 42.9713Z" fill="#AECAC0"/>
<path d="M64.2931 41.0954C63.8083 38.9886 63.4152 37.2808 65.0029 36.9596C66.5906 36.6384 66.9836 38.3462 67.4685 40.453C67.9533 42.5597 67.6355 44.4114 66.7586 44.5888C65.8818 44.7662 64.7779 43.2021 64.2931 41.0954Z" fill="#D2E3DD"/>
<path d="M72.3431 35.8411L75.0952 33.4367C72.7841 28.8018 66.6545 27.4326 63.9613 30.8633C62.2064 33.7388 63.0587 35.0722 63.8701 38.3967C66.7391 39.2336 69.405 38.7178 72.5964 37.3076L72.3431 35.8411Z" fill="#2A5050"/>
<path d="M63.0388 33.0353C65.7639 29.2004 69.3668 29.5718 73.0973 30.8699C70.4929 28.548 66.0196 28.0937 63.9051 30.8696C63.3796 31.7538 63.142 32.3403 63.0388 33.0353Z" fill="#152828"/>
<path d="M72.5004 35.8987C69.9974 35.2947 68.989 32.7149 70.5553 31.4967C73.4691 29.2303 75.8234 34.1672 76.5083 35.4431C77.1931 36.7189 77.2201 37.9773 76.4162 38.5091C75.6122 39.0409 73.949 38.2839 72.5004 35.8987Z" fill="#D2E3DD"/>
<path d="M53.4488 1.39737C47.3991 7.44708 62.7803 16.3468 65.5893 13.5378C68.3983 10.7288 59.4985 -4.65233 53.4488 1.39737Z" fill="#BAD3CA"/>
</svg>
