<svg width="40" height="48" viewBox="0 0 40 48" fill="none" xmlns="http://www.w3.org/2000/svg">
<rect width="6.66646" height="13.5991" transform="matrix(-0.900564 0.434724 0.434724 0.900564 14.6867 5.76904)" fill="#2A5050"/>
<path d="M14.6867 5.76904L8.68314 8.66711L10.3701 12.1506C12.7707 13.711 16.9146 14.4285 18.3792 13.4184L14.6867 5.76904Z" fill="#152828"/>
<path d="M20.8062 18.2693L19.7812 16.3208C18.0922 16.8361 16.1324 18.712 13.7684 17.6519C13.481 17.523 13.2416 17.5509 13.0487 17.7078L14.0845 19.8297L20.8062 18.2693Z" fill="#468586"/>
<path d="M21.4664 17.1862C19.4191 15.8753 16.9628 19.8032 13.7686 18.3708C10.5744 16.9383 13.3055 34.8774 20.0881 33.8336C26.8708 32.7899 23.5138 18.4971 21.4664 17.1862Z" fill="#BAD3CA"/>
<path d="M23.3176 32.3229C23.1304 30.6114 21.7858 29.2438 20.0847 28.978C17.0712 28.5071 15.5074 32.446 18.0233 34.1704L18.2844 34.3494L19.0046 37.1101H23.2057C23.5346 35.2207 23.485 33.8526 23.3176 32.3229Z" fill="#2A5050"/>
<path d="M23.1567 31.5913C22.7966 30.391 21.7858 29.2438 20.0848 28.978C18.5256 28.7344 17.2753 29.6709 16.9357 30.8712C18.7376 29.0707 21.5963 29.3108 23.1567 31.5913Z" fill="#152828"/>
<ellipse cx="1.74126" cy="3.41071" rx="1.74126" ry="3.41071" transform="matrix(-0.965926 -0.258819 -0.258819 0.965926 19.2332 31.2902)" fill="#D2E3DD"/>
<path d="M20.3159 38.6478C18.8295 40.028 18.6237 41.3014 19.3604 41.7267C20.097 42.1521 21.8186 41.1525 22.6517 39.7095C23.4847 38.2666 23.4347 36.6581 22.698 36.2328C21.9614 35.8075 20.3159 36.3121 20.3159 38.6478Z" fill="#F2F2F3"/>
<path d="M20.3159 38.6478C18.8295 40.028 18.6237 41.3014 19.3604 41.7267C20.097 42.1521 21.8186 41.1525 22.6517 39.7095C23.4847 38.2666 23.4347 36.6581 22.698 36.2328C21.9614 35.8075 20.3159 36.3121 20.3159 38.6478Z" fill="#D2E3DD"/>
<path d="M21.7976 36.1406L19.0481 41.1441C19.0163 41.3282 19.2573 41.5667 19.2573 41.5667C21.9891 39.9362 22.5672 37.8139 21.7976 36.1406Z" fill="#AECAC0"/>
<path d="M18.5272 37.9608C16.8467 39.5212 16.6141 40.9608 17.4469 41.4416C18.2797 41.9225 20.226 40.7924 21.1678 39.1611C22.1097 37.5297 22.0531 35.7113 21.2203 35.2305C20.3874 34.7496 18.5272 35.3201 18.5272 37.9608Z" fill="#D2E3DD"/>
<path d="M4.9588 1.87959C-0.144664 8.74638 16.3694 15.3095 18.739 12.1211C21.1086 8.93269 10.0623 -4.9872 4.9588 1.87959Z" fill="#BAD3CA"/>
</svg>
