<svg width="49" height="69" viewBox="0 0 49 69" fill="none" xmlns="http://www.w3.org/2000/svg">
<path d="M35.5878 25.1897L36.5669 30.0847L36.5669 34.5709L29.9396 42.7829L24.7497 38.5831L35.5878 25.1897Z" fill="#2A5050"/>
<path d="M40.0617 21.5939C40.6832 22.0602 41.1329 22.5747 41.4345 23.1231C38.5903 26.8421 36.5133 28.832 36.5635 33.121C33.909 35.1326 31.0111 36.2488 29.7674 35.3158C26.5926 32.934 33.2239 16.4642 40.0617 21.5939Z" fill="#152828"/>
<ellipse cx="5.0395" cy="10.8744" rx="5.0395" ry="10.8744" transform="matrix(-0.663457 0.748214 0.748214 0.663457 16.8066 24.8893)" fill="#BAD3CA"/>
<path d="M15.0995 24.2162L18.6487 23.361C21.0925 27.9213 18.6694 33.7087 14.3175 33.9233C10.9601 33.6934 10.5462 32.1206 8.30455 29.5395C9.27896 26.7175 10.0062 25.3464 12.9986 23.559L15.0995 24.2162Z" fill="#2A5050"/>
<path d="M11.927 33.3452C16.6268 33.338 18.4874 30.2331 19.5833 26.4425C19.9721 29.9062 17.8685 33.7948 14.3847 33.9156C13.3771 33.9351 12.5532 33.6624 11.927 33.3452Z" fill="#468586"/>
<rect x="10.7732" y="16.0977" width="2.70195" height="16.9784" rx="1.35097" transform="rotate(-11 10.7732 16.0977)" fill="#6F8295"/>
<ellipse cx="11.1966" cy="11.1966" rx="9.54984" ry="9.54984" transform="rotate(-11 11.1966 11.1966)" fill="#6F8295"/>
<ellipse cx="11.197" cy="11.1982" rx="7.48812" ry="7.48812" transform="rotate(-11 11.197 11.1982)" fill="#E5EEE3"/>
<mask id="path-9-inside-1_2066_2542" fill="white">
<path d="M12.5431 5.86422C12.6646 5.38267 12.3724 4.88702 11.8786 4.83413C11.1838 4.75972 10.4794 4.79937 9.79369 4.95347C8.81453 5.17351 7.90084 5.62071 7.12638 6.25898C6.35193 6.89725 5.73842 7.70869 5.33539 8.62778C5.05314 9.27145 4.87966 9.95527 4.81998 10.6515C4.77756 11.1463 5.20827 11.5278 5.70417 11.5005C6.20007 11.4732 6.5709 11.0458 6.64041 10.5541C6.69888 10.1404 6.81361 9.73522 6.9825 9.35005C7.27228 8.68922 7.71339 8.1058 8.27023 7.64688C8.82706 7.18797 9.48401 6.86643 10.188 6.70822C10.5984 6.61601 11.018 6.5808 11.4352 6.60242C11.9312 6.62813 12.4215 6.34577 12.5431 5.86422Z"/>
</mask>
<path d="M12.5431 5.86422L10.6039 5.37484L12.5431 5.86422ZM4.81998 10.6515L2.82729 10.4807L4.81998 10.6515ZM5.70417 11.5005L5.8141 13.4975L5.70417 11.5005ZM6.64041 10.5541L4.66009 10.2741L6.64041 10.5541ZM11.8786 4.83413L12.0916 2.84551C11.1797 2.74784 10.2552 2.79988 9.35519 3.00213L9.79369 4.95347L10.2322 6.90481C10.7036 6.79886 11.1879 6.7716 11.6656 6.82276L11.8786 4.83413ZM9.79369 4.95347L9.35519 3.00213C8.07006 3.29093 6.87086 3.87788 5.8544 4.71559L7.12638 6.25898L8.39837 7.80237C8.93082 7.36355 9.55901 7.05608 10.2322 6.90481L9.79369 4.95347ZM7.12638 6.25898L5.8544 4.71559C4.83794 5.55331 4.03272 6.61831 3.50375 7.8246L5.33539 8.62778L7.16703 9.43097C7.44412 8.79907 7.86592 8.24119 8.39837 7.80237L7.12638 6.25898ZM5.33539 8.62778L3.50375 7.8246C3.1333 8.6694 2.90562 9.56691 2.82729 10.4807L4.81998 10.6515L6.81267 10.8223C6.85371 10.3436 6.97298 9.87349 7.16703 9.43097L5.33539 8.62778ZM6.64041 10.5541L8.62072 10.834C8.65378 10.6001 8.71865 10.371 8.81414 10.1532L6.9825 9.35005L5.15087 8.54687C4.90856 9.09943 4.74398 9.6807 4.66009 10.2741L6.64041 10.5541ZM6.9825 9.35005L8.81414 10.1532C8.97798 9.77961 9.22738 9.44974 9.54221 9.19027L8.27023 7.64688L6.99824 6.1035C6.19941 6.76186 5.56658 7.59884 5.15087 8.54687L6.9825 9.35005ZM8.27023 7.64688L9.54221 9.19027C9.85704 8.93081 10.2285 8.74901 10.6265 8.65956L10.188 6.70822L9.74952 4.75689C8.73953 4.98385 7.79708 5.44513 6.99824 6.1035L8.27023 7.64688ZM10.188 6.70822L10.6265 8.65956C10.8585 8.60742 11.0958 8.58751 11.3317 8.59974L11.4352 6.60242L11.5387 4.6051C10.9402 4.57408 10.3382 4.6246 9.74952 4.75689L10.188 6.70822ZM11.4352 6.60242L11.3317 8.59974C12.5388 8.66231 14.0724 7.97774 14.4823 6.3536L12.5431 5.86422L10.6039 5.37484C10.6827 5.06241 10.8777 4.84994 11.0532 4.7379C11.2174 4.633 11.386 4.59719 11.5387 4.6051L11.4352 6.60242ZM4.81998 10.6515L2.82729 10.4807C2.66456 12.379 4.30474 13.5806 5.8141 13.4975L5.70417 11.5005L5.59424 9.50352C5.88808 9.48735 6.19059 9.59047 6.42676 9.81148C6.67587 10.0446 6.84772 10.4135 6.81267 10.8223L4.81998 10.6515ZM5.70417 11.5005L5.8141 13.4975C7.48663 13.4054 8.45154 12.0308 8.62072 10.834L6.64041 10.5541L4.66009 10.2741C4.6815 10.1227 4.74885 9.96409 4.8832 9.82289C5.02669 9.67206 5.2725 9.52123 5.59424 9.50352L5.70417 11.5005ZM11.8786 4.83413L11.6656 6.82276C11.2576 6.77907 10.9283 6.53991 10.7471 6.25085C10.5753 5.97682 10.5319 5.66018 10.6039 5.37484L12.5431 5.86422L14.4823 6.3536C14.8521 4.8879 13.9861 3.04841 12.0916 2.84551L11.8786 4.83413Z" fill="#BEC7CF" mask="url(#path-9-inside-1_2066_2542)"/>
<path d="M11.1809 27.8738C9.99177 26.6754 9.02776 25.7039 7.8912 26.9331C6.75464 28.1624 7.71865 29.1339 8.90781 30.3322C10.097 31.5306 11.5698 31.9517 12.1975 31.2728C12.8252 30.594 12.3701 29.0721 11.1809 27.8738Z" fill="#D2E3DD"/>
<path d="M12.1034 29.0855L8.81842 26.352C8.81842 26.352 8.48566 26.4651 8.40656 26.5123C9.3778 28.6533 10.9519 29.6011 12.2967 29.5503L12.1034 29.0855Z" fill="#AECAC0"/>
<path d="M12.2256 25.6207C11.0237 24.4313 10.0495 23.4671 8.95089 24.6553C7.85232 25.8434 8.82659 26.8076 10.0284 27.997C11.2303 29.1863 12.6964 29.6186 13.3031 28.9624C13.9098 28.3062 13.4274 26.81 12.2256 25.6207Z" fill="#D2E3DD"/>
<path d="M13.0954 26.8508L9.81048 24.1173C9.81048 24.1173 9.47773 24.2304 9.39862 24.2776C10.3699 26.4185 11.9439 27.3663 13.2888 27.3156L13.0954 26.8508Z" fill="#AECAC0"/>
<path d="M13.2176 23.3859C12.0158 22.1966 11.0415 21.2324 9.94295 22.4205C8.84438 23.6087 9.81866 24.5728 11.0205 25.7622C12.2223 26.9516 13.6884 27.3838 14.2952 26.7276C14.9019 26.0714 14.4195 24.5753 13.2176 23.3859Z" fill="#D2E3DD"/>
<path d="M15.4889 23.8481C14.5359 26.2373 15.7112 28.7553 17.6087 28.1819C21.1387 27.1152 18.673 23.0662 18.0284 21.7712C16.4168 18.5338 12.077 22.1056 13.2832 23.9055C13.9218 24.8585 15.4889 23.8481 15.4889 23.8481Z" fill="#D2E3DD"/>
<path d="M40.0935 20.6901C46.9162 25.8399 32.9268 36.7729 29.7589 34.3817C26.5911 31.9906 33.2708 15.5403 40.0935 20.6901Z" fill="#BAD3CA"/>
</svg>
