<svg width="88" height="48" viewBox="0 0 88 48" fill="none" xmlns="http://www.w3.org/2000/svg">
<rect x="24.7656" y="9.1748" width="6.68301" height="13.6328" transform="rotate(-4.23228 24.7656 9.1748)" fill="#0E1B1B"/>
<path d="M24.7656 9.1748L31.4304 8.6816L31.7109 12.4337C30.4089 14.9916 27.1719 17.8094 25.394 17.6666L24.7656 9.1748Z" fill="#070D0D"/>
<path d="M25.7182 23.0954L25.6314 20.89C27.3561 20.4908 29.9978 21.1371 31.5188 19.0317C31.7037 18.7758 31.9256 18.68 32.1716 18.7195L32.336 21.0809L25.7182 23.0954Z" fill="#468586"/>
<path d="M24.6033 22.4877C25.7237 20.3234 29.825 22.5023 31.8801 19.6576C33.9352 16.8129 40.5559 33.7561 34.1443 36.2497C27.7326 38.7433 23.4829 24.6519 24.6033 22.4877Z" fill="#819D92"/>
<path d="M30.5837 36.5568C29.8884 34.9772 30.3703 33.1158 31.7138 32.0324C34.0941 30.1131 37.4261 32.749 36.1062 35.5071L35.9692 35.7933L36.7277 38.5511L33.0804 40.6568C31.8478 39.1814 31.2052 37.9688 30.5837 36.5568Z" fill="#0E1B1B"/>
<path d="M30.3569 35.8416C30.0679 34.619 30.3705 33.1163 31.714 32.0329C32.9456 31.0399 34.5005 31.2262 35.3969 32.0981C32.9301 31.4382 30.5685 33.0795 30.3569 35.8416Z" fill="#070D0D"/>
<ellipse cx="37.2628" cy="34.796" rx="1.74558" ry="3.41918" transform="rotate(-45 37.2628 34.796)" fill="#A9C1B8"/>
<path d="M36.3594 40.543C38.3417 40.9963 39.1586 41.9987 38.7323 42.7371C38.3059 43.4756 36.3103 43.4707 34.8637 42.6356C33.4172 41.8004 32.6545 40.3789 33.0808 39.6404C33.5072 38.9019 35.1886 38.5152 36.3594 40.543Z" fill="#A9C1B8"/>
<path d="M33.8154 39.109L38.7104 42.0747C38.8303 42.2186 38.7407 42.5465 38.7407 42.5465C35.5517 42.5002 33.986 40.9475 33.8154 39.109Z" fill="#8EADA1"/>
<path d="M37.568 39.0504C39.809 39.5628 40.7326 40.6961 40.2506 41.531C39.7686 42.3659 37.5124 42.3603 35.8771 41.4161C34.2417 40.472 33.3794 38.8649 33.8614 38.03C34.3434 37.1951 36.2444 36.7579 37.568 39.0504Z" fill="#A9C1B8"/>
<path d="M30.7611 0.323077C38.8056 3.23564 28.6513 17.8191 24.9161 16.4668C21.1809 15.1144 22.7165 -2.58949 30.7611 0.323077Z" fill="#819D92"/>
<rect width="6.68301" height="13.6328" transform="matrix(-0.655982 -0.754777 -0.754777 0.655982 58.1456 11.4221)" fill="#2A5050"/>
<path d="M53.7618 6.37731L43.4653 15.3033L46.9765 19.3523L47.6653 20.632L49.2804 19.1276L49.2799 19.1269L58.1458 11.4215L53.7618 6.37731Z" fill="#0E1B1B"/>
<path d="M51.5252 17.176C50.6996 14.4781 46.5457 15.5176 45.3479 13.687L44.7348 14.1872L44.4931 17.6152L51.0354 17.6153L51.5252 17.176Z" fill="#2A5050"/>
<path d="M28.8155 16.0077L31.1775 13.6878C35.7655 16.0917 36.9619 20.1864 33.4774 22.8105C30.5669 24.5074 28.4136 23.8307 25.9428 22.7504C25.1636 19.8648 25.8116 19.3046 27.2858 16.1418L28.8155 16.0077Z" fill="#0E1B1B"/>
<path d="M33.5829 22.9521L34.6666 16.6948C34.4259 16.2135 34.2041 16.0294 33.8236 15.612C34.0289 17.9538 31.1846 21.3943 32.139 23.4334L33.5829 22.9521Z" fill="#2A5050"/>
<path d="M25.4252 20.1697C23.8068 18.9388 22.5137 18.9542 22.2202 19.7548C21.9267 20.5554 23.2096 22.084 24.7778 22.659C26.346 23.234 27.926 22.9083 28.2196 22.1077C28.5131 21.3071 27.7322 19.7686 25.4252 20.1697Z" fill="#D2E3DD"/>
<path d="M27.8341 20.7664L22.9946 19.2215C22.7539 19.1877 22.5329 19.3562 22.5329 19.3562C24.3825 21.6899 26.4017 21.8463 27.8341 20.7664Z" fill="#AECAC0"/>
<path d="M25.5968 18.252C23.9783 17.021 22.6852 17.0365 22.3917 17.8371C22.0982 18.6377 23.3811 20.1663 24.9493 20.7413C26.5175 21.3163 28.0975 20.9906 28.3911 20.19C28.6846 19.3893 27.9037 17.8509 25.5968 18.252Z" fill="#D2E3DD"/>
<path d="M28.2654 19.1159L23.114 17.2966C22.753 17.2966 22.5521 17.5689 22.5521 17.5689C24.5934 19.973 26.7596 20.1688 28.2654 19.1159Z" fill="#AECAC0"/>
<path d="M25.9691 16.1273C24.1394 14.7356 22.6775 14.753 22.3456 15.6582C22.0138 16.5633 23.4642 18.2915 25.2372 18.9415C27.0101 19.5916 28.7964 19.2233 29.1282 18.3182C29.4601 17.4131 28.5772 15.6737 25.9691 16.1273Z" fill="#D2E3DD"/>
<ellipse cx="29.7158" cy="14.8205" rx="1.74558" ry="3.41918" transform="rotate(-65.0101 29.7158 14.8205)" fill="#D2E3DD"/>
<path d="M51.1127 17.5698C50.339 14.6179 45.9806 16.2621 45.0513 13.9278C39.4322 13.2125 34.4503 16.3344 34.4503 16.3344C34.706 19.2501 30.0913 23.0364 34.1291 25.0047C40.2353 27.492 52.2456 21.8925 51.1127 17.5698Z" fill="#819D92"/>
<path d="M58.1461 11.4219L54.7477 14.375C52.4813 15.4316 50.3869 15.7652 49.362 14.9092C48.5253 14.2104 48.3408 12.6688 48.6471 10.8105L53.7624 6.37793L58.1461 11.4219Z" fill="#070D0D"/>
<path d="M61.532 1.7088C55.3479 -4.20348 46.796 11.3738 49.6674 14.119C52.5388 16.8641 67.7161 7.62108 61.532 1.7088Z" fill="#819D92"/>
</svg>
