<svg width="44" height="73" viewBox="0 0 44 73" fill="none" xmlns="http://www.w3.org/2000/svg">
<path d="M12.3824 29.5897L11.4033 34.4847L11.4033 38.9709L18.0306 47.183L23.2206 42.9832L12.3824 29.5897Z" fill="#2A5050"/>
<path d="M7.90852 25.9939C7.28703 26.4602 6.83733 26.9747 6.5357 27.5231C9.37991 31.2422 11.457 33.232 11.4067 37.5211C14.0612 39.5326 16.9592 40.6488 18.2028 39.7158C21.3777 37.334 14.7463 20.8642 7.90852 25.9939Z" fill="#152828"/>
<ellipse cx="26.3707" cy="40.2746" rx="5.0395" ry="10.8744" transform="rotate(48.4359 26.3707 40.2746)" fill="#BAD3CA"/>
<path d="M36.5218 28.1383C35.5741 30.0748 34.8059 31.6447 33.2489 30.8166C31.6919 29.9885 32.4601 28.4187 33.4078 26.4821C34.3555 24.5456 35.8209 23.3464 36.6808 23.8038C37.5407 24.2611 37.4695 26.2017 36.5218 28.1383Z" fill="#D2E3DD"/>
<path d="M31.3387 29.9138L27.6881 29.9519C26.4328 34.9712 30.1968 39.9909 34.4691 39.1355C37.6686 38.0922 37.6856 36.4659 39.2285 33.4153C37.594 30.9169 35.4371 29.638 32.0986 28.6361L31.3387 29.9138Z" fill="#2A5050"/>
<path d="M31.3387 29.9138L27.6881 29.9519C26.4328 34.9712 30.1968 39.9909 34.4691 39.1355C37.6686 38.0922 37.6856 36.4659 39.2285 33.4153C37.594 30.9169 35.4371 29.638 32.0986 28.6361L31.3387 29.9138Z" fill="#2A5050"/>
<path d="M36.6459 37.9907C32.0869 39.1323 29.524 36.5762 27.535 33.1683C28.0043 36.6221 30.9945 39.8786 34.4022 39.1445C35.384 38.9171 36.1162 38.4513 36.6459 37.9907Z" fill="#468586"/>
<path d="M36.0323 32.5029C36.8926 31.0502 37.59 29.8726 38.9925 30.7868C40.395 31.7011 39.6976 32.8787 38.8373 34.3313C37.9771 35.7839 36.6518 36.5522 35.8772 36.0473C35.1026 35.5424 35.1721 33.9555 36.0323 32.5029Z" fill="#D2E3DD"/>
<path d="M35.4339 33.9032L37.9513 30.4499C37.9513 30.4499 38.3016 30.4782 38.3899 30.5047C37.9713 32.8181 36.6765 34.1218 35.3601 34.4012L35.4339 33.9032Z" fill="#AECAC0"/>
<path d="M34.4687 30.5733C35.3435 29.1263 36.0526 27.9533 37.4082 28.8369C38.7638 29.7206 38.0547 30.8936 37.18 32.3406C36.3052 33.7877 34.9892 34.5651 34.2405 34.077C33.4918 33.589 33.594 32.0203 34.4687 30.5733Z" fill="#D2E3DD"/>
<path d="M32.0949 28.6916L33.0069 27.2872C33.4584 27.6283 33.5035 28.623 33.3391 29.0128C33.3362 29.0197 33.3332 29.0264 33.3301 29.0331C33.327 29.0397 32.0949 28.6916 32.0949 28.6916Z" fill="#AECAC0"/>
<path d="M30.8711 29.652C32.379 31.7359 31.8548 34.4648 29.8747 34.3725C26.191 34.2008 27.5925 29.672 27.9011 28.2587C28.6726 24.7256 33.7537 27.1285 33.024 29.1687C32.6376 30.2488 30.8711 29.652 30.8711 29.652Z" fill="#D2E3DD"/>
<path d="M7.87673 25.0902C1.05406 30.2399 15.0434 41.1729 18.2113 38.7817C21.3791 36.3906 14.6994 19.9404 7.87673 25.0902Z" fill="#BAD3CA"/>
<path d="M37.1927 0C40.7826 0 43.6927 2.87183 43.6927 6.41441C43.6927 8.00495 43.1057 9.45955 42.1341 10.5799C41.1253 11.7431 40.1695 13.0853 40.1695 14.625H34.216C34.216 13.0853 33.2602 11.7431 32.2514 10.5799C31.2798 9.45955 30.6927 8.00495 30.6927 6.41441C30.6927 2.87183 33.6029 0 37.1927 0Z" fill="#F6CA72"/>
<path d="M39.997 14.2188C40.2432 14.2189 40.4427 14.411 40.4427 14.6474V14.9801C40.4427 15.1074 40.3902 15.2301 40.2965 15.3201L40.1929 15.419C40.072 15.535 40.0569 15.7145 40.1477 15.8463L40.2381 15.9524C40.3287 16.0841 40.3135 16.2632 40.1929 16.3792C40.0548 16.5118 40.0548 16.7271 40.1929 16.8597L40.2965 16.9591C40.3901 17.0492 40.4427 17.1713 40.4427 17.2985V17.3811C40.4426 17.7559 40.1262 18.0597 39.7359 18.0599H38.9229C38.8014 18.874 38.0742 19.5 37.1927 19.5C36.3113 19.5 35.5841 18.874 35.4626 18.0599H34.6496C34.2593 18.0597 33.9429 17.7559 33.9427 17.3811V17.2985C33.9427 17.1713 33.9954 17.0492 34.089 16.9591L34.1926 16.8597C34.3307 16.7271 34.3307 16.5118 34.1926 16.3792C34.0548 16.2467 34.0547 16.0319 34.1926 15.8994C34.3307 15.7668 34.3307 15.5515 34.1926 15.419L34.089 15.3201C33.9953 15.2301 33.9427 15.1074 33.9427 14.9801V14.6474C33.9427 14.411 34.1423 14.2189 34.3885 14.2188H39.997Z" fill="#6F8295"/>
<path d="M36.4059 14.2188V13.5772C36.4059 11.4332 35.8352 9.32789 34.7524 7.47743L34.1732 6.48759C34.0931 6.35073 34.2253 6.18765 34.3758 6.23767C34.6221 6.31954 34.8884 6.31954 35.1347 6.23767L35.1615 6.22877C35.4252 6.14111 35.7103 6.14111 35.974 6.22877C36.2377 6.31642 36.5228 6.31642 36.7865 6.22877C37.0502 6.14111 37.3353 6.14111 37.599 6.22877C37.8627 6.31642 38.1478 6.31642 38.4115 6.22877C38.6752 6.14111 38.9603 6.14111 39.224 6.22877L39.2508 6.23767C39.4971 6.31954 39.7634 6.31954 40.0097 6.23767C40.1602 6.18765 40.2924 6.35073 40.2123 6.48759L39.6331 7.47743C38.5503 9.32789 37.9796 11.4332 37.9796 13.5772V14.2188" stroke="#9D7930"/>
</svg>
