<svg width="41" height="56" viewBox="0 0 41 56" fill="none" xmlns="http://www.w3.org/2000/svg">
<path d="M29.8997 10.7781L31.0083 17.3609L18.3169 25.1747L14.9787 19.3927L29.8997 10.7781Z" fill="#2A5050"/>
<path d="M20.4746 16.2C20.4389 16.6249 20.4905 17.0127 20.6465 17.3474C21.4203 19.0063 24.7314 19.5683 28.2335 19.0696L32.4014 16.5071L30.0713 10.6599L20.4746 16.2Z" fill="#152828"/>
<ellipse cx="5.0395" cy="10.8744" rx="5.0395" ry="10.8744" transform="matrix(-0.786694 0.617343 0.617343 0.786694 8.76178 5.31787)" fill="#BAD3CA"/>
<path d="M3.27027 4.43172C4.21797 6.36825 4.98623 7.93813 6.54323 7.11006C8.10024 6.28199 7.33198 4.71211 6.38429 2.77558C5.43659 0.839039 3.97124 -0.360096 3.11133 0.0972346C2.25142 0.554565 2.32258 2.49518 3.27027 4.43172Z" fill="#D2E3DD"/>
<path d="M8.45344 6.20731L12.104 6.24539C13.3593 11.2646 9.59529 16.2844 5.32297 15.429C2.12354 14.3856 2.10656 12.7594 0.563605 9.70874C2.19812 7.2104 4.35499 5.93142 7.69348 4.92952L8.45344 6.20731Z" fill="#2A5050"/>
<path d="M8.45344 6.20731L12.104 6.24539C13.3593 11.2646 9.59529 16.2844 5.32297 15.429C2.12354 14.3856 2.10656 12.7594 0.563605 9.70874C2.19812 7.2104 4.35499 5.93142 7.69348 4.92952L8.45344 6.20731Z" fill="#2A5050"/>
<path d="M3.14619 14.2842C7.70519 15.4258 10.2681 12.8696 12.2571 9.46179C11.7878 12.9155 8.79766 16.1721 5.38994 15.4379C4.40814 15.2105 3.67588 14.7447 3.14619 14.2842Z" fill="#468586"/>
<path d="M3.75977 8.79633C2.89953 7.34369 2.20216 6.16608 0.79966 7.0803C-0.602839 7.99451 0.0945293 9.17211 0.954776 10.6248C1.81502 12.0774 3.14031 12.8457 3.91489 12.3408C4.68947 11.8359 4.62002 10.249 3.75977 8.79633Z" fill="#D2E3DD"/>
<path d="M4.35817 10.1967L1.84082 6.74331C1.84082 6.74331 1.49051 6.77165 1.40226 6.79814C1.82085 9.11151 3.11557 10.4152 4.43203 10.6946L4.35817 10.1967Z" fill="#AECAC0"/>
<path d="M5.32338 6.86679C4.44865 5.41978 3.73954 4.24674 2.38392 5.1304C1.0283 6.01405 1.73741 7.18709 2.61214 8.6341C3.48687 10.0811 4.80292 10.8585 5.5516 10.3705C6.30029 9.88247 6.19811 8.3138 5.32338 6.86679Z" fill="#D2E3DD"/>
<path d="M7.69719 4.98507L6.78518 3.58064C6.33372 3.9218 6.28861 4.91646 6.45301 5.3063C6.4559 5.31315 6.45891 5.31991 6.46202 5.32655C6.46514 5.3332 7.69719 4.98507 7.69719 4.98507Z" fill="#AECAC0"/>
<path d="M8.92099 5.94546C7.41308 8.02934 7.93733 10.7582 9.91746 10.6659C13.6011 10.4942 12.1996 5.96542 11.891 4.55217C11.1195 1.01906 6.03839 3.42197 6.76813 5.46215C7.15449 6.5423 8.92099 5.94546 8.92099 5.94546Z" fill="#D2E3DD"/>
<path d="M37.0446 10.2325C40.2245 18.1752 22.5818 20.3018 21.1053 16.6138C19.6289 12.9259 33.8647 2.28984 37.0446 10.2325Z" fill="#BAD3CA"/>
</svg>
