<svg width="40" height="49" viewBox="0 0 40 49" fill="none" xmlns="http://www.w3.org/2000/svg">
<path d="M27.4736 5.49207L28.4528 10.387L28.4528 14.8733L21.8255 23.0853L16.6355 18.8855L27.4736 5.49207Z" fill="#2A5050"/>
<path d="M31.9476 1.89628C32.5691 2.36253 33.0188 2.87705 33.3204 3.42544C30.4762 7.1445 28.3991 9.13436 28.4494 13.4234C25.7949 15.4349 22.8969 16.5512 21.6533 15.6182C18.4784 13.2364 25.1098 -3.23342 31.9476 1.89628Z" fill="#152828"/>
<ellipse cx="5.0395" cy="10.8744" rx="5.0395" ry="10.8744" transform="matrix(-0.663457 0.748214 0.748214 0.663457 8.6925 5.19165)" fill="#BAD3CA"/>
<path d="M8.67165 5.63239L12.2607 4.96417C14.4625 9.64616 11.7397 15.2988 7.38258 15.2853C4.04181 14.8799 3.71083 13.2876 1.60735 10.5927C2.72816 7.82559 3.52616 6.49442 6.60806 4.86615L8.67165 5.63239Z" fill="#2A5050"/>
<path d="M5.02562 14.5827C9.7193 14.8216 11.7399 11.8184 13.0327 8.09033C13.2397 11.5697 10.9354 15.3427 7.45006 15.2811C6.44283 15.2477 5.63435 14.9322 5.02562 14.5827Z" fill="#468586"/>
<path d="M4.56699 9.07974C3.4422 7.82076 2.53037 6.80015 1.33102 7.96819C0.131664 9.13624 1.04349 10.1569 2.16828 11.4158C3.29307 12.6748 4.74186 13.1725 5.40425 12.5274C6.06663 11.8823 5.69178 10.3387 4.56699 9.07974Z" fill="#D2E3DD"/>
<path d="M5.42472 10.338L2.28737 7.43633C2.28737 7.43633 1.94915 7.53185 1.86768 7.57489C2.72551 9.76374 4.24779 10.7926 5.59344 10.8123L5.42472 10.338Z" fill="#AECAC0"/>
<path d="M5.72812 6.88445C4.59021 5.63379 3.66775 4.61993 2.50848 5.74893C1.34921 6.87794 2.27168 7.8918 3.40959 9.14246C4.54751 10.3931 5.98899 10.9015 6.62924 10.278C7.26948 9.65444 6.86604 8.13511 5.72812 6.88445Z" fill="#D2E3DD"/>
<path d="M6.53239 8.15836L3.39504 5.25665C3.39504 5.25665 3.05682 5.35216 2.97535 5.3952C3.83317 7.58405 5.35546 8.61293 6.7011 8.63264L6.53239 8.15836Z" fill="#AECAC0"/>
<path d="M6.83585 4.70464C5.69793 3.45398 4.77547 2.44012 3.61621 3.56912C2.45694 4.69813 3.3794 5.71199 4.51732 6.96265C5.65524 8.21331 7.09672 8.7217 7.73696 8.09817C8.37721 7.47463 7.97377 5.9553 6.83585 4.70464Z" fill="#D2E3DD"/>
<path d="M9.07977 5.2851C8.00306 7.62113 9.04486 10.1972 10.9698 9.72397C14.5508 8.84354 12.3005 4.67099 11.7245 3.34403C10.2847 0.0266601 5.76378 3.36634 6.87408 5.227C7.46192 6.21211 9.07977 5.2851 9.07977 5.2851Z" fill="#D2E3DD"/>
<path d="M31.9793 0.992495C38.802 6.14227 24.8127 17.0752 21.6448 14.6841C18.4769 12.2929 25.1567 -4.15728 31.9793 0.992495Z" fill="#BAD3CA"/>
</svg>
