<svg width="88" height="47" viewBox="0 0 88 47" fill="none" xmlns="http://www.w3.org/2000/svg">
<path d="M31.2776 14.0691H56.7776C57.606 14.0691 58.2776 14.7407 58.2776 15.5691L58.2776 35.0691H29.7776L29.7776 15.5691C29.7776 14.7407 30.4492 14.0691 31.2776 14.0691Z" fill="#F6FAF5" stroke="#6F8295"/>
<path d="M43.2776 15.5691H45.2776" stroke="#6F8295" stroke-linecap="round"/>
<path d="M38.6852 22.9691C38.7077 22.6241 38.7827 22.2841 38.9477 21.9816C39.0177 21.8541 39.1027 21.7091 39.2027 21.5566C39.3152 21.3841 39.4502 21.2016 39.6077 21.0141C40.1502 20.3716 40.9627 19.6866 42.1452 19.2941C42.7552 19.0916 43.4602 18.9666 44.2777 18.9666C47.5452 18.9666 49.0502 20.9541 49.6077 21.9791C49.7727 22.2841 49.8477 22.6216 49.8702 22.9666C49.8752 23.0491 49.8777 23.1316 49.8777 23.2166L49.8777 24.1666H48.6777L48.6777 23.2166C48.6777 22.8941 48.6277 22.6891 48.5527 22.5516C48.1152 21.7491 46.9452 20.1666 44.2777 20.1666C41.6102 20.1666 40.4402 21.7516 40.0027 22.5541C39.9927 22.5716 39.9852 22.5891 39.9752 22.6091C39.9152 22.7441 39.8777 22.9366 39.8777 23.2191L39.8777 24.1691H38.6777L38.6777 23.2191C38.6777 23.1366 38.6802 23.0516 38.6852 22.9691ZM38.8427 28.9691C38.7352 28.7241 38.6752 28.4541 38.6752 28.1691L38.6752 27.7691H39.8752L39.8752 28.1691C39.8752 28.6116 40.2327 28.9691 40.6752 28.9691H47.8752C48.3177 28.9691 48.6752 28.6116 48.6752 28.1691L48.6752 27.7691H49.8752L49.8752 28.1691C49.8752 28.4541 49.8152 28.7241 49.7077 28.9691C49.4002 29.6766 48.6952 30.1691 47.8752 30.1691H40.6752C39.8552 30.1691 39.1502 29.6766 38.8427 28.9691ZM43.6777 21.3691C43.6777 21.0366 43.9452 20.7691 44.2777 20.7691C44.6102 20.7691 44.8777 21.0366 44.8777 21.3691C44.8777 21.7016 44.6102 21.9691 44.2777 21.9691C43.9452 21.9691 43.6777 21.7016 43.6777 21.3691ZM41.8777 21.5691C42.2102 21.5691 42.4777 21.8366 42.4777 22.1691C42.4777 22.5016 42.2102 22.7691 41.8777 22.7691C41.5452 22.7691 41.2777 22.5016 41.2777 22.1691C41.2777 21.8366 41.5452 21.5691 41.8777 21.5691ZM46.0777 22.1691C46.0777 21.8366 46.3452 21.5691 46.6777 21.5691C47.0102 21.5691 47.2777 21.8366 47.2777 22.1691C47.2777 22.5016 47.0102 22.7691 46.6777 22.7691C46.3452 22.7691 46.0777 22.5016 46.0777 22.1691ZM38.4777 25.3691H43.4777C43.5952 25.3691 43.7127 25.4041 43.8102 25.4691L45.8777 26.8491L47.9452 25.4691C48.0427 25.4041 48.1602 25.3691 48.2777 25.3691H50.0777C50.4102 25.3691 50.6777 25.6366 50.6777 25.9691C50.6777 26.3016 50.4102 26.5691 50.0777 26.5691H48.4602L46.2102 28.0691C46.0077 28.2041 45.7452 28.2041 45.5452 28.0691L43.2952 26.5691H38.4777C38.1452 26.5691 37.8777 26.3016 37.8777 25.9691C37.8777 25.6366 38.1452 25.3691 38.4777 25.3691Z" fill="#2A5050"/>
<path d="M59.7568 34.4961C59.2064 35.7088 57.997 36.4959 56.6553 36.4961H31.3447C30.003 36.4959 28.7936 35.7088 28.2432 34.4961H59.7568Z" fill="#A4B0BC" stroke="#6F8295"/>
<rect x="23.7869" y="6.84521" width="6.67546" height="13.6174" transform="rotate(19.4736 23.7869 6.84521)" fill="#2A5050"/>
<path d="M30.0812 9.07071L25.5416 21.9092L20.5107 20.1302L19.0691 19.959L19.8753 17.907C19.8755 17.9071 19.8758 17.9071 19.876 17.9072L23.7875 6.8453L30.0812 9.07071Z" fill="#0E1B1B"/>
<path d="M22.74 9.81453L21.5449 13.1879C21.4271 15.1772 22.2939 16.5514 23.2293 16.8598C24.4203 17.2524 26.1543 16.5831 27.7707 15.6165L29.0404 12.0426L22.74 9.81453Z" fill="#070D0D"/>
<path d="M19.0686 19.9582L19.8749 17.9063C21.6125 18.2338 23.5091 20.1824 26.0056 18.5711C27.4754 17.2978 26.7281 18.3795 26.7281 18.5477L25.9301 20.7734L19.0686 19.9582Z" fill="#2A5050"/>
<path d="M18.1121 19.9426C19.1939 17.1782 25.4014 22.6581 26.4582 19.3158C29.8134 22.7958 33.6137 29.8088 30.0818 32.7255C24.7832 37.1011 15.7605 25.9523 18.1121 19.9426Z" fill="#819D92"/>
<path d="M26.8263 34.6844C25.7471 33.34 25.7308 31.4195 26.747 30.0269C28.5474 27.5597 32.4436 29.2415 31.8832 32.2438L31.825 32.5554L33.2698 35.0201L31.265 36.8935C29.6869 36.9884 27.791 35.886 26.8263 34.6844Z" fill="#0E1B1B"/>
<path d="M26.423 34.0524C25.8281 32.9476 25.7316 31.4195 26.7478 30.0269C27.6793 28.7504 29.2277 28.5282 30.318 29.1376C27.7673 29.1387 25.9131 31.3328 26.423 34.0524Z" fill="#070D0D"/>
<ellipse cx="32.8154" cy="31.2589" rx="1.74361" ry="3.41531" transform="rotate(-60 32.8154 31.2589)" fill="#A9C1B8"/>
<path d="M34.21 35.2851C36.5047 35.2001 37.6888 36.0547 37.4395 36.9848C37.1903 37.915 35.012 38.4929 33.1901 38.0047C31.3681 37.5165 30.1207 36.1889 30.3699 35.2587C30.6191 34.3286 32.3402 33.4153 34.21 35.2851Z" fill="#A9C1B8"/>
<path d="M30.8353 0.499266C38.608 4.05349 27.3117 17.7478 23.7027 16.0975C20.0936 14.4472 23.0625 -3.05495 30.8353 0.499266Z" fill="#819D92"/>
<rect width="6.67546" height="13.6174" transform="matrix(-0.942795 0.333373 0.333373 0.942795 64.1057 6.86011)" fill="#2A5050"/>
<path d="M57.8114 9.08561L62.351 21.924L67.3819 20.1451L68.8235 19.9739L68.0173 17.9219C68.017 17.9219 68.0168 17.922 68.0165 17.9221L64.105 6.86019L57.8114 9.08561Z" fill="#0E1B1B"/>
<path d="M65.1526 9.82943L66.3477 13.2028C66.4654 15.1921 65.5987 16.5663 64.6633 16.8747C63.4723 17.2673 61.7382 16.598 60.1218 15.6314L58.8522 12.0575L65.1526 9.82943Z" fill="#070D0D"/>
<path d="M68.824 19.9731L68.0177 17.9212C66.2801 18.2487 64.3835 20.1973 61.887 18.586C60.4172 17.3127 61.1645 18.3944 61.1645 18.5626L61.9625 20.7883L68.824 19.9731Z" fill="#2A5050"/>
<path d="M69.7804 19.9575C68.6987 17.1931 62.4912 22.673 61.4343 19.3307C58.0792 22.8107 54.2788 29.8237 57.8108 32.7404C63.1094 37.116 72.132 25.9672 69.7804 19.9575Z" fill="#819D92"/>
<path d="M61.0284 34.6363C62.1077 33.2919 62.124 31.3714 61.1077 29.9788C59.3074 27.5117 55.4111 29.1934 55.9716 32.1957L56.0297 32.5073L54.5849 34.972L56.5897 36.8454C58.1679 36.9403 60.0638 35.8379 61.0284 34.6363Z" fill="#0E1B1B"/>
<path d="M61.4317 34.0043C62.0266 32.8995 62.1232 31.3714 61.107 29.9788C60.1754 28.7023 58.6271 28.4801 57.5368 29.0895C60.0875 29.0906 61.9416 31.2847 61.4317 34.0043Z" fill="#070D0D"/>
<ellipse cx="1.74361" cy="3.41531" rx="1.74361" ry="3.41531" transform="matrix(-0.5 -0.866025 -0.866025 0.5 58.8684 31.0132)" fill="#A9C1B8"/>
<path d="M53.6445 35.237C51.3498 35.152 50.1657 36.0066 50.415 36.9368C50.6642 37.8669 52.8424 38.4448 54.6644 37.9566C56.4864 37.4684 57.7338 36.1408 57.4846 35.2106C57.2354 34.2805 55.5143 33.3672 53.6445 35.237Z" fill="#A9C1B8"/>
<path d="M57.2165 0.475096C49.4437 4.02932 60.7401 17.7237 64.3491 16.0734C67.9581 14.4231 64.9893 -3.07912 57.2165 0.475096Z" fill="#819D92"/>
</svg>
