<svg width="88" height="47" viewBox="0 0 88 47" fill="none" xmlns="http://www.w3.org/2000/svg">
<path d="M58.5057 21.6889C58.5057 29.6986 52.0126 36.1918 44.0029 36.1918C35.9932 36.1918 29.5 29.6986 29.5 21.6889C29.5 13.6792 35.9932 7.18604 44.0029 7.18604C52.0126 7.18604 58.5057 13.6792 58.5057 21.6889Z" fill="#A9CADF"/>
<path d="M42.8662 12.223C44.1888 11.3164 43.5439 9.15103 42.7811 7.91149C42.5856 7.5938 42.2021 7.46699 41.8377 7.54669L38.0603 8.37277C37.9269 8.40194 37.8009 8.45812 37.6901 8.53783L34.8904 10.5513L32.49 12.8227C32.4239 12.8853 32.3666 12.9566 32.3198 13.0346L31.0583 15.1372C30.9492 15.319 30.902 15.5306 30.9132 15.7423C31.0013 17.4133 30.7789 20.2434 31.3904 21.417C32.0873 22.7546 32.8773 22.9846 33.0677 23.7155C33.2855 24.5513 32.8501 24.3424 32.8501 25.3871C32.8501 26.4319 33.2855 26.4319 34.3743 27.2677C35.2929 27.973 36.9736 31.8779 37.7198 33.9728C37.8105 34.2275 37.9957 34.4382 38.2394 34.5552L40.0355 35.417C39.7452 34.5115 38.9033 31.7394 38.7291 30.4021C38.5114 28.7304 41.1243 26.8498 40.6888 25.5961C40.2873 24.4402 38.0759 24.9692 38.0759 23.7155C38.0759 22.4618 37.721 22.6259 34.8904 22.417C32.0597 22.208 32.8501 19.0976 34.3743 19.5364C36.5517 20.1633 35.0275 18.7006 36.3339 17.4468C37.6404 16.1931 40.6888 17.0289 39.3823 14.5215C38.0759 12.014 36.3339 14.7304 35.6807 13.2677C35.2853 12.3824 37.4226 11.1782 38.9468 11.3871C40.471 11.5961 40.7253 13.6905 42.8662 12.223Z" fill="#709B67"/>
<path d="M46.7855 10.5513C46.3592 10.0058 47.5462 8.87533 48.392 8.25043C48.6891 8.03094 49.0861 8.03929 49.3993 8.23506L52.7938 10.3566C52.858 10.3967 52.9174 10.444 52.9709 10.4975L56.7235 14.2501C56.8332 14.3598 56.9159 14.4937 56.965 14.6409L58.2319 18.4417C58.3317 18.7408 58.2809 19.0697 58.0421 19.2756C57.7525 19.5254 57.3291 19.8117 56.8904 19.917C56.4058 20.0332 55.9612 20.355 55.6621 20.6177C55.4079 20.8409 55.3348 21.1971 55.3454 21.5351C55.3644 22.141 55.2397 23.2187 54.4065 24.5513C53.1001 26.6409 52.4468 29.9842 50.4872 29.7752C48.5275 29.5662 50.4951 24.4041 49.3984 23.0886C48.5275 22.0439 47.221 23.0886 45.9146 21.8349C44.8043 20.7694 45.0702 18.9394 46.3501 17.8648C48.092 16.4021 52.6646 18.0737 52.8823 16.611C53.1001 15.1483 50.9791 14.917 49.8904 14.917C49.0194 14.917 47.6807 14.5812 47.3904 15.417C46.9889 16.5729 45.1387 16.417 45.2613 15.3573C45.4549 13.6856 49.632 12.8105 48.8904 11.3871C48.4549 10.5513 47.6565 11.6657 46.7855 10.5513Z" fill="#709B67"/>
<path d="M42.4307 7.41699C43.3017 8.46177 44.3904 11.1782 42.8662 12.223C41.1242 13.417 40.471 11.5961 38.9468 11.3871C37.4226 11.1782 35.6001 11.8722 35.8904 12.917C36.3193 14.4604 38.2964 12.4373 39.3823 14.5215C40.4682 16.6057 37.4768 16.0424 36.3339 17.4468C35.6807 18.2495 35.8904 19.6584 34.3743 19.5364C32.8904 19.417 32.0597 22.208 34.8904 22.417C36.8904 22.5646 37.8904 22.417 38.3904 23.917C38.7868 25.1064 40.2873 24.4402 40.6888 25.5961C41.1243 26.8498 38.5114 28.7304 38.7291 30.4021C38.9033 31.7394 39.7452 34.5115 40.0355 35.417L38.2394 34.5552C37.9957 34.4382 37.8105 34.2275 37.7198 33.9728C36.9736 31.8779 35.2929 27.973 34.3743 27.2677C33.2855 26.4319 32.8501 26.4319 32.8501 25.3871C32.8501 24.3424 33.1081 24.2528 32.8904 23.417C32.7 22.6861 32.0873 22.7546 31.3904 21.417C30.7372 20.1633 31.0355 17.019 30.8904 15.417M48.8904 7.91699C48.1646 8.3349 46.2832 9.41699 46.7855 10.5513C47.2879 11.6856 48.4393 10.5513 48.8904 11.417C49.632 12.8403 45.9225 13.3205 45.3904 14.917C44.8904 16.417 46.7855 16.917 47.3904 15.417C47.7213 14.5964 50.3904 14.917 50.3904 14.917C50.3904 14.917 53.1001 15.1483 52.8823 16.611C52.6135 18.417 48.092 16.4021 46.3501 17.8648C45.0702 18.9394 44.8043 20.7694 45.9146 21.8349C47.221 23.0886 48.5275 22.0439 49.3984 23.0886C50.4951 24.4041 48.5275 29.5662 50.4872 29.7752C52.4468 29.9842 53.0839 27.0065 54.3904 24.917C55.6968 22.8274 54.8904 21.917 55.2775 20.9991C55.6131 20.2032 56.0194 20.1259 56.8904 19.917C57.5872 19.7498 58.2452 19.1259 58.3904 18.917" stroke="#4E8344"/>
<ellipse cx="44.0029" cy="21.6889" rx="14.5029" ry="14.5029" stroke="#4E8344"/>
<rect x="23.7869" y="6.84521" width="6.67546" height="13.6174" transform="rotate(19.4736 23.7869 6.84521)" fill="#2A5050"/>
<path d="M30.0812 9.07071L25.5416 21.9092L20.5107 20.1302L19.0691 19.959L19.8753 17.907C19.8755 17.9071 19.8758 17.9071 19.876 17.9072L23.7875 6.8453L30.0812 9.07071Z" fill="#0E1B1B"/>
<path d="M22.74 9.81453L21.5449 13.1879C21.4271 15.1772 22.2939 16.5514 23.2293 16.8598C24.4203 17.2524 26.1543 16.5831 27.7707 15.6165L29.0404 12.0426L22.74 9.81453Z" fill="#070D0D"/>
<path d="M19.0686 19.9582L19.8749 17.9063C21.6125 18.2338 23.5091 20.1824 26.0056 18.5711C27.4754 17.2978 26.7281 18.3795 26.7281 18.5477L25.9301 20.7734L19.0686 19.9582Z" fill="#2A5050"/>
<path d="M18.1121 19.9426C19.1939 17.1782 25.4014 22.6581 26.4582 19.3158C29.8134 22.7958 33.6137 29.8088 30.0818 32.7255C24.7832 37.1011 15.7605 25.9523 18.1121 19.9426Z" fill="#819D92"/>
<path d="M29.6408 34.4703C28.2504 33.4511 27.7376 31.6002 28.3588 29.992C29.4592 27.143 33.658 27.759 33.8937 30.8041L33.9182 31.1201L35.9517 33.1269L33.8483 36.77C32.0451 36.1093 30.8836 35.3813 29.6408 34.4703Z" fill="#0E1B1B"/>
<path d="M29.0875 33.9643C28.2269 33.0511 27.7381 31.6001 28.3593 29.9919C28.9287 28.5178 30.3668 27.9024 31.5777 28.2089C29.1142 28.8701 27.8911 31.4693 29.0875 33.9643Z" fill="#070D0D"/>
<ellipse cx="34.5395" cy="29.6111" rx="1.74361" ry="3.41531" transform="rotate(-75 34.5395 29.6111)" fill="#A9C1B8"/>
<path d="M36.6281 35.0349C38.5692 34.437 39.7766 34.8961 39.7766 35.7478C39.7766 36.5996 38.0478 37.592 36.3794 37.592C34.711 37.592 33.3412 36.7433 33.3412 35.8915C33.3412 35.0398 34.6026 33.8655 36.6281 35.0349Z" fill="#A9C1B8"/>
<path d="M33.7108 35.0643L39.3336 35.0614C39.6941 35.1816 39.7582 35.5422 39.7582 35.5422C36.9765 37.0949 34.7766 36.5695 33.7108 35.0643Z" fill="#8EADA1"/>
<path d="M36.9284 33.1393C39.123 32.4633 40.4879 32.9823 40.4879 33.9453C40.4879 34.9083 38.5334 36.0303 36.6472 36.0303C34.761 36.0303 33.2124 35.0708 33.2124 34.1078C33.2124 33.1448 34.6385 31.8172 36.9284 33.1393Z" fill="#A9C1B8"/>
<path d="M30.8353 0.499266C38.608 4.05349 27.3117 17.7478 23.7027 16.0975C20.0936 14.4472 23.0625 -3.05495 30.8353 0.499266Z" fill="#819D92"/>
<rect width="6.67546" height="13.6174" transform="matrix(-0.942795 0.333373 0.333373 0.942795 64.1057 6.86011)" fill="#2A5050"/>
<path d="M57.8114 9.08561L62.351 21.924L67.3819 20.1451L68.8235 19.9739L68.0173 17.9219C68.017 17.9219 68.0168 17.922 68.0165 17.9221L64.105 6.86019L57.8114 9.08561Z" fill="#0E1B1B"/>
<path d="M65.1526 9.82943L66.3477 13.2028C66.4654 15.1921 65.5987 16.5663 64.6633 16.8747C63.4723 17.2673 61.7382 16.598 60.1218 15.6314L58.8522 12.0575L65.1526 9.82943Z" fill="#070D0D"/>
<path d="M68.824 19.9731L68.0177 17.9212C66.2801 18.2487 64.3835 20.1973 61.887 18.586C60.4172 17.3127 61.1645 18.3944 61.1645 18.5626L61.9625 20.7883L68.824 19.9731Z" fill="#2A5050"/>
<path d="M69.7804 19.9575C68.6987 17.1931 62.4912 22.673 61.4343 19.3307C58.0792 22.8107 54.2788 29.8237 57.8108 32.7404C63.1094 37.116 72.132 25.9672 69.7804 19.9575Z" fill="#819D92"/>
<path d="M58.2518 34.4852C59.6422 33.4659 60.155 31.6151 59.5338 30.0069C58.4333 27.1579 54.2346 27.7739 53.9989 30.819L53.9744 31.135L51.9409 33.1418L54.0443 36.7849C55.8474 36.1242 57.009 35.3962 58.2518 34.4852Z" fill="#0E1B1B"/>
<path d="M58.8051 33.9792C59.6657 33.066 60.1544 31.615 59.5333 30.0068C58.9639 28.5327 57.5258 27.9173 56.3149 28.2238C58.7784 28.885 60.0015 31.4842 58.8051 33.9792Z" fill="#070D0D"/>
<ellipse cx="1.74361" cy="3.41531" rx="1.74361" ry="3.41531" transform="matrix(-0.258819 -0.965926 -0.965926 0.258819 57.1033 30.4263)" fill="#A9C1B8"/>
<path d="M51.2645 35.0498C49.3233 34.4519 48.116 34.911 48.116 35.7627C48.116 36.6145 49.8448 37.6069 51.5132 37.6069C53.1816 37.6069 54.5514 36.7582 54.5514 35.9064C54.5514 35.0547 53.29 33.8804 51.2645 35.0498Z" fill="#A9C1B8"/>
<path d="M54.1818 35.0792L48.559 35.0763C48.1984 35.1965 48.1344 35.557 48.1344 35.557C50.9161 37.1098 53.116 36.5844 54.1818 35.0792Z" fill="#8EADA1"/>
<path d="M50.9641 33.1542C48.7696 32.4782 47.4047 32.9972 47.4047 33.9602C47.4047 34.9232 49.3591 36.0452 51.2454 36.0452C53.1316 36.0452 54.6802 35.0856 54.6802 34.1227C54.6802 33.1597 53.2541 31.8321 50.9641 33.1542Z" fill="#A9C1B8"/>
<path d="M57.2164 0.475096C49.4436 4.02932 60.74 17.7237 64.349 16.0734C67.958 14.4231 64.9892 -3.07912 57.2164 0.475096Z" fill="#819D92"/>
</svg>
