<svg width="56" height="67" viewBox="0 0 56 67" fill="none" xmlns="http://www.w3.org/2000/svg">
<path d="M12.3824 23.7286L11.4033 28.6236L11.4033 33.1099L18.0306 41.3219L23.2206 37.1221L12.3824 23.7286Z" fill="#2A5050"/>
<path d="M7.90852 20.1329C7.28703 20.5991 6.83733 21.1136 6.5357 21.662C9.37991 25.3811 11.457 27.3709 11.4067 31.66C14.0612 33.6715 16.9592 34.7877 18.2028 33.8548C21.3777 31.4729 14.7463 15.0032 7.90852 20.1329Z" fill="#152828"/>
<ellipse cx="26.3707" cy="34.4134" rx="5.0395" ry="10.8744" transform="rotate(48.4359 26.3707 34.4134)" fill="#BAD3CA"/>
<path d="M7.87673 19.2289C1.05406 24.3787 15.0434 35.3117 18.2113 32.9205C21.3791 30.5294 14.6994 14.0792 7.87673 19.2289Z" fill="#BAD3CA"/>
<path d="M35.0191 23.2824L31.6346 21.7544C28.3272 25.8479 29.6507 32.0911 33.9588 33.1312C37.3576 33.5384 38.0696 32.0452 40.7994 29.8913C40.361 26.8863 39.8945 25.3781 37.2432 23.0243L35.0191 23.2824Z" fill="#2A5050"/>
<path d="M36.4571 33.0077C31.7619 32.1089 30.4917 28.6531 30.1157 24.6572C29.07 28.0448 30.4344 32.3297 33.8929 33.1115C34.8961 33.3221 35.7712 33.2059 36.4571 33.0077Z" fill="#468586"/>
<path d="M50.5268 7.16032C51.3584 7.78701 51.7981 8.93507 51.6919 10.4337C51.5861 11.9236 50.938 13.6587 49.735 15.2552C48.5318 16.8519 47.0423 17.9537 45.639 18.466C44.2278 18.9813 43.003 18.875 42.1714 18.2484C41.3398 17.6218 40.9001 16.4736 41.0063 14.9751C41.112 13.485 41.7606 11.7494 42.9638 10.1527C44.1669 8.55621 45.656 7.45498 47.0591 6.94268C48.4705 6.42742 49.6952 6.53365 50.5268 7.16032Z" stroke="#F6CA72" stroke-width="1.47248"/>
<path d="M26.4468 4.20309C25.4883 4.60999 24.7839 5.61756 24.5245 7.09736C24.2666 8.56864 24.4757 10.409 25.2568 12.2491C26.0379 14.0894 27.2167 15.5189 28.4543 16.3554C29.699 17.1968 30.9131 17.39 31.8716 16.9832C32.8301 16.5763 33.5345 15.5687 33.7939 14.0889C34.0519 12.6175 33.8425 10.7766 33.0613 8.93627C32.2801 7.09611 31.1016 5.66735 29.8641 4.83082C28.6194 3.98944 27.4053 3.79622 26.4468 4.20309Z" stroke="#F6CA72" stroke-width="1.47248"/>
<path d="M46.8855 13.3486C46.3454 16.4273 44.3394 18.8968 41.6967 20.1433C40.0392 20.9251 38.5343 22.27 38.3109 24.089L37.3952 31.5468L33.2902 31.0428L34.2059 23.585C34.4293 21.766 33.2944 20.097 31.8752 18.9374C29.6126 17.0886 28.2636 14.2071 28.4843 11.0892L28.9465 4.55987C29.0887 2.55017 30.886 1.06991 32.8857 1.31544L44.9794 2.80037C46.9791 3.0459 48.3648 4.91698 48.0167 6.9014L46.8855 13.3486Z" fill="#C89B40"/>
<rect x="31.2484" y="29.2101" width="8.63423" height="2.46692" rx="0.490826" transform="rotate(7 31.2484 29.2101)" fill="#9D7930"/>
<rect x="31.2484" y="29.2101" width="8.63423" height="2.46692" rx="0.490826" transform="rotate(7 31.2484 29.2101)" fill="#F6CA72"/>
<rect x="28.4891" y="30.8447" width="13.7134" height="2.46697" rx="0.490826" transform="rotate(7 28.4891 30.8447)" fill="#9D7930"/>
<path d="M38.2409 27.6799C39.6567 26.7079 40.8045 25.9199 41.7072 27.3641C42.6098 28.8083 41.4621 29.5963 40.0462 30.5683C38.6303 31.5404 37.0784 31.6818 36.5799 30.8842C36.0813 30.0866 36.825 28.652 38.2409 27.6799Z" fill="#D2E3DD"/>
<path d="M37.0891 28.7158L40.8908 26.6072C40.8908 26.6072 41.202 26.7833 41.272 26.8456C39.8951 28.801 38.1421 29.4496 36.8077 29.1437L37.0891 28.7158Z" fill="#AECAC0"/>
<path d="M37.6241 25.2301C39.0509 24.2695 40.2076 23.4907 41.08 24.8866C41.9525 26.2825 40.7959 27.0613 39.3691 28.0219C37.9422 28.9826 36.395 29.1364 35.9131 28.3654C35.4312 27.5945 36.1973 26.1908 37.6241 25.2301Z" fill="#D2E3DD"/>
<path d="M36.5213 26.2953L40.323 24.1866C40.323 24.1866 40.6341 24.3628 40.7042 24.425C39.3273 26.3805 37.5743 27.029 36.2399 26.7231L36.5213 26.2953Z" fill="#AECAC0"/>
<path d="M37.0572 22.8088C38.484 21.8482 39.6407 21.0694 40.5132 22.4653C41.3857 23.8613 40.229 24.64 38.8022 25.6007C37.3754 26.5613 35.8281 26.7151 35.3462 25.9442C34.8643 25.1732 35.6304 23.7695 37.0572 22.8088Z" fill="#D2E3DD"/>
<path d="M34.6994 22.8407C35.1984 25.409 33.5463 27.7023 31.7589 26.7693C28.4338 25.0337 31.6659 21.4553 32.5557 20.2835C34.7803 17.3541 38.4395 21.7467 36.8927 23.3166C36.0737 24.1477 34.6994 22.8407 34.6994 22.8407Z" fill="#D2E3DD"/>
</svg>
