<svg width="42" height="59" viewBox="0 0 42 59" fill="none" xmlns="http://www.w3.org/2000/svg">
<path d="M12.3824 15.7435L11.4033 20.6385L11.4033 25.1247L18.0306 33.3368L23.2206 29.137L12.3824 15.7435Z" fill="#0E1B1B"/>
<path d="M7.90858 12.1477C7.28709 12.614 6.83739 13.1285 6.53577 13.6769C9.37997 17.396 11.457 19.3858 11.4068 23.6749C14.0613 25.6864 16.9592 26.8026 18.2028 25.8696C21.3777 23.4878 14.7464 7.01805 7.90858 12.1477Z" fill="#070D0D"/>
<ellipse cx="26.3707" cy="26.4284" rx="5.0395" ry="10.8744" transform="rotate(48.4359 26.3707 26.4284)" fill="#819D92"/>
<path d="M7.87673 11.2438C1.05406 16.3936 15.0434 27.3266 18.2113 24.9354C21.3791 22.5443 14.6994 6.09406 7.87673 11.2438Z" fill="#819D92"/>
<path d="M33.1844 13.8837L29.5953 13.2155C27.3936 17.8975 30.1164 23.5501 34.4735 23.5366C37.8143 23.1313 38.1453 21.539 40.2487 18.8441C39.1279 16.0769 38.3299 14.7458 35.248 13.1175L33.1844 13.8837Z" fill="#0E1B1B"/>
<path d="M36.8305 22.8341C32.1368 23.073 30.1162 20.0697 28.8234 16.3417C28.6163 19.821 30.9207 23.5941 34.406 23.5324C35.4133 23.4991 36.2217 23.1836 36.8305 22.8341Z" fill="#2A5050"/>
<path d="M31.932 13.6384C33.7646 15.2902 33.5147 17.6572 31.4048 17.7401C28.3714 17.7469 28.6265 12.694 28.6265 12.694L27.9542 10.2408C29.9629 9.70608 31.4326 11.425 31.932 13.6384Z" fill="#A9C1B8"/>
<path fill-rule="evenodd" clip-rule="evenodd" d="M29.5011 4.7921C29.5833 5.09873 29.8062 5.34814 30.1017 5.46413L30.9342 5.79094C31.3427 5.95127 31.8079 5.82661 32.0815 5.48354L32.6391 4.78422C32.837 4.53602 32.9053 4.20859 32.8232 3.90195L32.3964 2.30934C32.3007 1.95216 32.6132 1.62505 32.9548 1.76674C34.062 2.22607 34.9507 3.17573 35.2846 4.42203C35.7153 6.02917 35.1003 7.67038 33.8566 8.62541L36.402 18.1251C36.57 18.752 37.0695 19.2218 37.5477 19.6606C37.9061 19.9894 38.1782 20.4206 38.3133 20.9249C38.6922 22.3389 37.8515 23.7927 36.4356 24.1721C35.0196 24.5515 33.5647 23.7128 33.1858 22.2989C33.0599 21.8291 33.0687 21.3549 33.1884 20.9172C33.3466 20.3391 33.5041 19.7313 33.3489 19.1523L30.7342 9.39419C29.248 9.13559 27.9729 8.04383 27.5572 6.49258C27.2139 5.21127 27.5352 3.90828 28.3098 2.94864C28.5392 2.66442 28.9659 2.79462 29.0604 3.14743L29.5011 4.7921ZM35.3619 20.165C34.5617 20.3794 34.0865 21.201 34.3007 22.0001C34.5148 22.7992 35.3371 23.2732 36.1372 23.0588C36.9374 22.8444 37.4125 22.0227 37.1984 21.2237C36.9843 20.4246 36.1621 19.9506 35.3619 20.165Z" fill="#6F8295"/>
<path d="M27.5314 2.32096C27.9133 1.84778 28.4986 1.70497 29.0046 1.84633C29.4908 1.98217 29.8869 2.36969 30.0261 2.88897L30.4666 4.53312L31.2993 4.85999L31.857 4.16056L31.4304 2.56829C31.2897 2.04332 31.444 1.50403 31.8049 1.14353C32.1577 0.791124 32.6972 0.628448 33.2314 0.803762L33.3379 0.842951L33.594 0.957322C34.8561 1.56575 35.8589 2.70122 36.2506 4.16316C36.7259 5.93725 36.1808 7.74056 34.981 8.95988L37.3675 17.8664C37.4479 18.1662 37.7059 18.4484 38.2241 18.9239C38.7183 19.3773 39.0936 19.9728 39.2794 20.6662C39.8014 22.6148 38.6425 24.616 36.6944 25.138C34.7463 25.66 32.742 24.5064 32.2198 22.5578C32.0468 21.9121 32.0588 21.2569 32.224 20.6529C32.3942 20.0308 32.4565 19.6872 32.3827 19.4114L29.9201 10.2209C28.3474 9.72557 27.0504 8.4645 26.5913 6.75135C26.1618 5.14817 26.5652 3.51822 27.5314 2.32096ZM29.0602 3.14779C28.9657 2.7951 28.5396 2.66457 28.3101 2.94839C27.5355 3.90804 27.2139 5.21123 27.5573 6.49254C27.9729 8.04367 29.2478 9.13553 30.7339 9.39423L33.3486 19.1525C33.5037 19.7315 33.3467 20.3391 33.1886 20.9172C33.0688 21.3549 33.0599 21.8292 33.1858 22.299C33.5647 23.7128 35.0197 24.5515 36.4356 24.1721C37.8515 23.7927 38.6922 22.3389 38.3135 20.925C38.1783 20.4206 37.9063 19.9889 37.5479 19.6601C37.0697 19.2214 36.5696 18.7521 36.4016 18.1252L33.8561 8.62537C35.0999 7.67034 35.7153 6.02912 35.2847 4.42198C34.9507 3.17569 34.0617 2.22595 32.9545 1.76662C32.6131 1.6252 32.3006 1.95239 32.3963 2.30947L32.823 3.90174C32.9051 4.20838 32.8367 4.53595 32.6388 4.78415L32.0811 5.48358C31.8075 5.82647 31.3424 5.95122 30.9341 5.79093L30.1014 5.46406C29.806 5.34802 29.5829 5.09848 29.5007 4.79194L29.0602 3.14779ZM35.3619 20.165C36.1621 19.9506 36.9844 20.4247 37.1985 21.2238C37.4125 22.0228 36.9375 22.8446 36.1373 23.059C35.3372 23.2734 34.5149 22.7992 34.3007 22.0002C34.0866 21.2011 34.5617 20.3794 35.3619 20.165ZM35.6207 21.1309C35.3527 21.2027 35.1958 21.477 35.2666 21.7414C35.3376 22.0057 35.6106 22.1649 35.8785 22.0931C36.1464 22.0213 36.3033 21.7469 36.2326 21.4826C36.1617 21.2182 35.8887 21.0591 35.6207 21.1309Z" fill="#596978"/>
<path d="M32.5533 9.68311L34.7581 17.9114" stroke="#596978" stroke-linecap="round"/>
<path d="M37.289 17.3311C38.4138 16.0721 39.3256 15.0515 40.525 16.2195C41.7244 17.3876 40.8125 18.4082 39.6877 19.6672C38.5629 20.9262 37.1142 21.4238 36.4518 20.7787C35.7894 20.1336 36.1642 18.5901 37.289 17.3311Z" fill="#A9C1B8"/>
<path d="M36.4312 18.5894L39.5686 15.6877C39.5686 15.6877 39.9068 15.7832 39.9883 15.8262C39.1305 18.0151 37.6082 19.044 36.2625 19.0637L36.4312 18.5894Z" fill="#8EADA1"/>
<path d="M36.128 15.1358C37.2659 13.8851 38.1883 12.8713 39.3476 14.0003C40.5069 15.1293 39.5844 16.1431 38.4465 17.3938C37.3086 18.6445 35.8671 19.1529 35.2268 18.5293C34.5866 17.9058 34.99 16.3865 36.128 15.1358Z" fill="#A9C1B8"/>
<path d="M35.3237 16.4098L38.461 13.5081C38.461 13.5081 38.7993 13.6036 38.8807 13.6467C38.0229 15.8355 36.5006 16.8644 35.155 16.8841L35.3237 16.4098Z" fill="#8EADA1"/>
<path d="M35.0202 12.9561C36.1581 11.7054 37.0805 10.6916 38.2398 11.8206C39.3991 12.9496 38.4766 13.9635 37.3387 15.2141C36.2008 16.4648 34.7593 16.9732 34.1191 16.3496C33.4788 15.7261 33.8823 14.2068 35.0202 12.9561Z" fill="#A9C1B8"/>
</svg>
