<svg width="40" height="48" viewBox="0 0 40 48" fill="none" xmlns="http://www.w3.org/2000/svg">
<rect x="25.3133" y="5.56775" width="6.66646" height="13.5991" transform="rotate(25.7677 25.3133 5.56775)" fill="#2A5050"/>
<path d="M25.3133 5.56775L31.3169 8.46582L29.6299 11.9493C27.2293 13.5097 23.0854 14.2272 21.6208 13.2171L25.3133 5.56775Z" fill="#152828"/>
<path d="M19.1938 18.068L20.2188 16.1195C21.9078 16.6349 23.8676 18.5107 26.2316 17.4506C26.519 17.3217 26.7584 17.3496 26.9513 17.5065L25.9155 19.6284L19.1938 18.068Z" fill="#468586"/>
<path d="M18.5336 16.9849C20.5809 15.674 23.0372 19.6019 26.2314 18.1695C29.4256 16.737 26.6945 34.6761 19.9119 33.6323C13.1292 32.5886 16.4862 18.2958 18.5336 16.9849Z" fill="#BAD3CA"/>
<path d="M16.6824 32.1216C16.8696 30.4101 18.2142 29.0425 19.9153 28.7767C22.9288 28.3058 24.4926 32.2447 21.9767 33.9691L21.7156 34.1481L20.9954 36.9088H16.7943C16.4654 35.0194 16.515 33.6513 16.6824 32.1216Z" fill="#2A5050"/>
<path d="M16.8433 31.39C17.2034 30.1897 18.2142 29.0425 19.9152 28.7767C21.4744 28.5331 22.7247 29.4696 23.0643 30.6699C21.2624 28.8694 18.4037 29.1095 16.8433 31.39Z" fill="#152828"/>
<ellipse cx="23.3315" cy="33.9327" rx="1.74126" ry="3.41071" transform="rotate(-15 23.3315 33.9327)" fill="#D2E3DD"/>
<path d="M19.6841 38.4465C21.1705 39.8267 21.3763 41.1001 20.6396 41.5255C19.903 41.9508 18.1814 40.9512 17.3483 39.5082C16.5153 38.0653 16.5653 36.4568 17.302 36.0315C18.0386 35.6062 19.6841 36.1108 19.6841 38.4465Z" fill="#F2F2F3"/>
<path d="M19.6841 38.4465C21.1705 39.8267 21.3763 41.1001 20.6396 41.5255C19.903 41.9508 18.1814 40.9512 17.3483 39.5082C16.5153 38.0653 16.5653 36.4568 17.302 36.0315C18.0386 35.6062 19.6841 36.1108 19.6841 38.4465Z" fill="#D2E3DD"/>
<path d="M18.2024 35.9393L20.9519 40.9428C20.9837 41.1269 20.7427 41.3654 20.7427 41.3654C18.0109 39.7349 17.4328 37.6126 18.2024 35.9393Z" fill="#AECAC0"/>
<path d="M21.4728 37.7595C23.1533 39.3199 23.3859 40.7595 22.5531 41.2403C21.7203 41.7212 19.774 40.5911 18.8322 38.9598C17.8903 37.3285 17.9469 35.51 18.7797 35.0292C19.6126 34.5484 21.4728 35.1188 21.4728 37.7595Z" fill="#D2E3DD"/>
<path d="M34.7796 1.87959C39.8831 8.74638 23.369 15.3095 20.9994 12.1211C18.6298 8.93269 29.6761 -4.9872 34.7796 1.87959Z" fill="#BAD3CA"/>
</svg>
