<svg width="40" height="49" viewBox="0 0 40 49" fill="none" xmlns="http://www.w3.org/2000/svg">
<path d="M12.3826 5.49219L11.4034 10.3872L11.4034 14.8734L18.0307 23.0854L23.2207 18.8856L12.3826 5.49219Z" fill="#0E1B1B"/>
<path d="M7.9087 1.89641C7.28721 2.36265 6.83751 2.87717 6.53589 3.42556C9.38009 7.14462 11.4571 9.13448 11.4069 13.4235C14.0614 15.435 16.9593 16.5513 18.203 15.6183C21.3778 13.2365 14.7465 -3.23329 7.9087 1.89641Z" fill="#070D0D"/>
<ellipse cx="26.3708" cy="16.177" rx="5.0395" ry="10.8744" transform="rotate(48.4359 26.3708 16.177)" fill="#819D92"/>
<path d="M30.6844 5.70172L27.0953 5.03351C24.8936 9.7155 27.6164 15.3681 31.9735 15.3546C35.3143 14.9493 35.6453 13.3569 37.7487 10.6621C36.6279 7.89492 35.8299 6.56375 32.748 4.93548L30.6844 5.70172Z" fill="#0E1B1B"/>
<path d="M34.3305 14.6521C29.6368 14.891 27.6162 11.8877 26.3234 8.15967C26.1163 11.639 28.4207 15.4121 31.906 15.3504C32.9133 15.3171 33.7217 15.0016 34.3305 14.6521Z" fill="#2A5050"/>
<path d="M34.7892 9.14908C35.9139 7.89009 36.8258 6.86948 38.0251 8.03753C39.2245 9.20558 38.3127 10.2262 37.1879 11.4852C36.0631 12.7442 34.6143 13.2418 33.9519 12.5967C33.2895 11.9516 33.6644 10.4081 34.7892 9.14908Z" fill="#A9C1B8"/>
<path d="M33.9314 10.4074L37.0687 7.50567C37.0687 7.50567 37.4069 7.60118 37.4884 7.64423C36.6306 9.83307 35.1083 10.862 33.7626 10.8817L33.9314 10.4074Z" fill="#8EADA1"/>
<path d="M33.628 6.95366C34.7659 5.703 35.6883 4.68914 36.8476 5.81815C38.0069 6.94715 37.0844 7.96101 35.9465 9.21168C34.8086 10.4623 33.3671 10.9707 32.7268 10.3472C32.0866 9.72366 32.49 8.20432 33.628 6.95366Z" fill="#A9C1B8"/>
<path d="M32.8237 8.22769L35.961 5.32598C35.961 5.32598 36.2993 5.4215 36.3807 5.46454C35.5229 7.65338 34.0006 8.68226 32.655 8.70198L32.8237 8.22769Z" fill="#8EADA1"/>
<path d="M32.5203 4.77398C33.6582 3.52332 34.5807 2.50946 35.7399 3.63846C36.8992 4.76747 35.9767 5.78133 34.8388 7.03199C33.7009 8.28265 32.2594 8.79104 31.6192 8.1675C30.9789 7.54397 31.3824 6.02464 32.5203 4.77398Z" fill="#A9C1B8"/>
<path d="M29.432 5.45639C31.2646 7.10822 31.0147 9.47516 28.9048 9.55806C25.8714 9.56491 26.1265 4.51199 26.1265 4.51199L25.4542 2.05878C27.4629 1.52407 28.9326 3.24299 29.432 5.45639Z" fill="#A9C1B8"/>
<path d="M7.87673 0.992495C1.05406 6.14227 15.0434 17.0752 18.2113 14.6841C21.3791 12.2929 14.6994 -4.15728 7.87673 0.992495Z" fill="#819D92"/>
</svg>
