<svg width="40" height="48" viewBox="0 0 40 48" fill="none" xmlns="http://www.w3.org/2000/svg">
<path d="M25.6362 6.82129L31.654 9.72624L25.7281 22.0021L19.7103 19.0972L25.6362 6.82129Z" fill="#2A5050"/>
<path d="M25.6362 6.82129L31.654 9.72624L30.0069 13.1465C27.6006 14.7106 23.403 15.5013 21.9349 14.4888L25.6362 6.82129Z" fill="#152828"/>
<path d="M19.5025 19.3516L20.5298 17.3984C22.2228 17.915 24.1873 19.7954 26.5569 18.7327C26.845 18.6035 27.085 18.6315 27.2783 18.7887L26.2401 20.9157L19.5025 19.3516Z" fill="#468586"/>
<path d="M18.8405 18.2668C20.8927 16.9528 23.3548 20.8901 26.5566 19.4542C29.7584 18.0183 27.0208 36 20.2221 34.9538C13.4234 33.9076 16.7883 19.5808 18.8405 18.2668Z" fill="#BAD3CA"/>
<path d="M18.2857 40.1514C18.6521 38.0245 18.9492 36.3003 17.2004 36.0593C15.4516 35.8184 15.1545 37.5425 14.7881 39.6694C14.4216 41.7962 14.9075 43.6283 15.8734 43.7614C16.8392 43.8945 17.9192 42.2782 18.2857 40.1514Z" fill="#D2E3DD"/>
<path d="M17.6616 42.4264L18.8492 36.654C18.8451 36.473 18.6486 36.3409 18.6486 36.3409C17.0257 38.8323 16.9068 41.1654 17.6616 42.4264Z" fill="#AECAC0"/>
<path d="M20.9057 41.3651C21.2721 39.2382 21.5692 37.5141 19.909 37.2853C18.2488 37.0565 17.9518 38.7807 17.5853 40.9075C17.2189 43.0344 17.6651 44.861 18.582 44.9873C19.4989 45.1137 20.5392 43.492 20.9057 41.3651Z" fill="#D2E3DD"/>
<path d="M20.3928 42.7846L21.5804 37.0122C21.5762 36.8312 21.3797 36.699 21.3797 36.699C19.7568 39.1905 19.6379 41.5236 20.3928 42.7846Z" fill="#AECAC0"/>
<path d="M23.7069 40.9086C24.1917 38.8019 24.5848 37.094 22.9971 36.7728C21.4094 36.4516 21.0164 38.1595 20.5315 40.2662C20.0467 42.373 20.3645 44.2246 21.2414 44.402C22.1182 44.5794 23.2221 43.0154 23.7069 40.9086Z" fill="#D2E3DD"/>
<path d="M15.6569 35.6541L12.9048 33.2497C15.2159 28.6148 21.3455 27.2456 24.0387 30.6762C25.7936 33.5518 24.9413 34.8852 24.1299 38.2097C21.2609 39.0466 18.595 38.5308 15.4036 37.1205L15.6569 35.6541Z" fill="#2A5050"/>
<path d="M24.9612 32.8483C22.2361 29.0134 18.6332 29.3848 14.9027 30.6829C17.5071 28.3611 21.9804 27.9068 24.0948 30.6826C24.6204 31.5668 24.858 32.1533 24.9612 32.8483Z" fill="#152828"/>
<path d="M15.4996 35.7117C18.0026 35.1077 19.011 32.5279 17.4447 31.3096C14.5309 29.0433 12.1766 33.9802 11.4917 35.2561C10.8069 36.5319 10.7799 37.7903 11.5838 38.3221C12.3878 38.8539 14.051 38.0969 15.4996 35.7117Z" fill="#D2E3DD"/>
<path d="M34.396 1.39737C40.4457 7.44708 25.0645 16.3468 22.2555 13.5378C19.4465 10.7288 28.3462 -4.65233 34.396 1.39737Z" fill="#BAD3CA"/>
</svg>
