<svg width="42" height="58" viewBox="0 0 42 58" fill="none" xmlns="http://www.w3.org/2000/svg">
<path d="M28.9979 14.9305L29.977 19.8255L29.977 24.3118L23.3498 32.5238L18.1598 28.324L28.9979 14.9305Z" fill="#0E1B1B"/>
<path d="M33.4718 11.3348C34.0933 11.801 34.543 12.3155 34.8446 12.8639C32.0004 16.583 29.9234 18.5728 29.9736 22.8619C27.3191 24.8734 24.4212 25.9896 23.1775 25.0567C20.0027 22.6748 26.634 6.20506 33.4718 11.3348Z" fill="#070D0D"/>
<ellipse cx="5.0395" cy="10.8744" rx="5.0395" ry="10.8744" transform="matrix(-0.663457 0.748214 0.748214 0.663457 10.2168 14.6301)" fill="#819D92"/>
<path d="M7.9615 13.0759L11.4611 12.0361C14.1403 16.4623 12.0233 22.3686 7.68865 22.8107C4.32381 22.7568 3.82817 21.2078 1.45449 18.7476C2.27987 15.8785 2.93433 14.4712 5.82911 12.5296L7.9615 13.0759Z" fill="#0E1B1B"/>
<path d="M5.2712 22.3584C9.96413 22.1053 11.6597 18.9072 12.5557 15.0645C13.1253 18.5031 11.2281 22.4964 7.75535 22.7994C6.75016 22.8716 5.91313 22.6423 5.2712 22.3584Z" fill="#2A5050"/>
<path d="M9.66707 12.1704C7.66394 13.6106 7.65197 15.9907 9.73999 16.3051C12.7542 16.6456 13.0564 11.5952 13.0564 11.5952L13.9944 9.23085C12.0567 8.47846 10.4069 10.0253 9.66707 12.1704Z" fill="#A9C1B8"/>
<path fill-rule="evenodd" clip-rule="evenodd" d="M8.77296 3.9213C8.69079 4.22794 8.7591 4.55537 8.95702 4.80357L9.51465 5.50289C9.78821 5.84595 10.2535 5.97061 10.6619 5.81029L11.4945 5.48348C11.79 5.36749 12.0129 5.11808 12.095 4.81144L12.5218 3.21883C12.6175 2.86165 13.0517 2.73461 13.2766 3.0281C14.0058 3.9795 14.3006 5.24628 13.9667 6.49257C13.536 8.09971 12.1829 9.21358 10.6283 9.4188L8.08284 18.9185C7.91485 19.5454 8.11248 20.202 8.30727 20.8211C8.45324 21.285 8.47327 21.7945 8.33813 22.2988C7.95924 23.7128 6.50427 24.5515 5.08836 24.1721C3.67244 23.7927 2.83175 22.3389 3.2106 20.9249C3.33647 20.4552 3.58115 20.0489 3.9037 19.7297C4.32978 19.3081 4.77002 18.8605 4.92516 18.2815L7.53983 8.52339C6.38204 7.55634 5.82362 5.97329 6.23927 4.42202C6.58259 3.14071 7.51229 2.17291 8.66295 1.72915C9.00375 1.59772 9.30818 1.92382 9.21364 2.27663L8.77296 3.9213ZM6.16205 20.165C5.36185 19.9506 4.53959 20.4246 4.32547 21.2237C4.11139 22.0227 4.58649 22.8444 5.38667 23.0588C6.18686 23.2732 7.00912 22.7992 7.22325 22.0001C7.43737 21.201 6.96225 20.3794 6.16205 20.165Z" fill="#6F8295"/>
<path d="M8.30272 0.796407C8.87008 0.577598 9.44836 0.746563 9.81591 1.122C10.169 1.48269 10.3183 2.0164 10.1792 2.53568L9.73865 4.17982L10.2964 4.87925L11.1291 4.55238L11.5557 2.96011C11.6964 2.43514 12.0996 2.04524 12.5924 1.91347C13.0742 1.78471 13.6227 1.91354 13.9976 2.33247L14.0703 2.41968L14.2349 2.64678C15.0237 3.80475 15.3244 5.28947 14.9327 6.75141C14.4573 8.52549 13.0836 9.81465 11.4349 10.2707L9.04836 19.1772C8.96803 19.4771 9.05037 19.8504 9.26145 20.5213C9.46266 21.1611 9.48996 21.8645 9.30418 22.5578C8.78196 24.5064 6.7777 25.66 4.82961 25.1381C2.88152 24.6161 1.72258 22.6149 2.24462 20.6662C2.41764 20.0205 2.75557 19.4591 3.20069 19.0187C3.65912 18.565 3.88491 18.2986 3.95889 18.0228L6.42146 8.83234C5.30711 7.617 4.8144 5.87637 5.27342 4.16322C5.70299 2.56004 6.86732 1.35016 8.30272 0.796407ZM9.21327 2.27686C9.30778 1.92417 9.00408 1.59811 8.66344 1.72917C7.51277 2.17293 6.58267 3.14074 6.23934 4.42204C5.82373 5.97318 6.38194 7.55623 7.53954 8.5233L4.92482 18.2816C4.76963 18.8605 4.3299 19.3082 3.90388 19.7298C3.58132 20.049 3.33642 20.4553 3.21055 20.9251C2.83178 22.339 3.67255 23.7927 5.08843 24.1721C6.5043 24.5515 7.95931 23.7129 8.33825 22.299C8.4734 21.7947 8.45366 21.2848 8.30769 20.8208C8.11291 20.2017 7.91447 19.5453 8.08244 18.9184L10.6279 9.41857C12.1825 9.21334 13.5361 8.09973 13.9667 6.49259C14.3007 5.2463 14.0057 3.97931 13.2765 3.02791C13.0515 2.73471 12.6173 2.86185 12.5216 3.21893L12.095 4.8112C12.0128 5.11784 11.7898 5.36733 11.4943 5.48332L10.6616 5.81019C10.2532 5.97036 9.78807 5.84584 9.51457 5.50285L8.95686 4.80342C8.75908 4.55524 8.69059 4.22755 8.77273 3.92101L9.21327 2.27686ZM6.16212 20.165C6.96232 20.3795 7.4374 21.2012 7.22329 22.0003C7.0091 22.7993 6.18682 23.2734 5.38668 23.059C4.58654 22.8447 4.11151 22.0229 4.32551 21.2238C4.53963 20.4247 5.36192 19.9506 6.16212 20.165ZM5.9033 21.131C5.63531 21.0592 5.36227 21.2183 5.29144 21.4826C5.22071 21.747 5.3776 22.0213 5.6455 22.0931C5.91339 22.1649 6.18644 22.0058 6.25736 21.7415C6.3282 21.4771 6.1713 21.2028 5.9033 21.131Z" fill="#596978"/>
<path d="M8.9707 9.68323L6.76595 17.9115" stroke="#596978" stroke-linecap="round"/>
<path d="M4.23974 16.9335C2.9895 15.799 1.97597 14.8793 0.905301 16.1664C-0.165368 17.4534 0.848159 18.3731 2.09841 19.5076C3.34866 20.6421 4.84154 20.9855 5.43285 20.2747C6.02417 19.5639 5.48999 18.068 4.23974 16.9335Z" fill="#A9C1B8"/>
<path d="M5.22433 18.0953L1.80081 15.5374C1.80081 15.5374 1.47443 15.6678 1.3979 15.7191C2.47986 17.8063 4.10137 18.6704 5.4417 18.5493L5.22433 18.0953Z" fill="#8EADA1"/>
<path d="M5.16503 14.6288C3.9026 13.504 2.8792 12.5921 1.84432 13.8361C0.80944 15.0801 1.83284 15.992 3.09527 17.1169C4.3577 18.2417 5.84444 18.5966 6.41598 17.9096C6.98753 17.2225 6.42746 15.7537 5.16503 14.6288Z" fill="#A9C1B8"/>
<path d="M6.09811 15.8118L2.67459 13.254C2.67459 13.254 2.34821 13.3843 2.27168 13.4357C3.35364 15.5228 4.97515 16.3869 6.31548 16.2659L6.09811 15.8118Z" fill="#8EADA1"/>
<path d="M6.03881 12.3453C4.77638 11.2204 3.75298 10.3085 2.7181 11.5526C1.68322 12.7966 2.70662 13.7084 3.96905 14.8333C5.23148 15.9581 6.71821 16.313 7.28976 15.626C7.86131 14.9389 7.30124 13.4701 6.03881 12.3453Z" fill="#A9C1B8"/>
<path d="M33.5036 10.431C40.3263 15.5807 26.337 26.5137 23.1691 24.1226C20.0012 21.7314 26.681 5.28119 33.5036 10.431Z" fill="#819D92"/>
</svg>
