<svg width="88" height="100" viewBox="0 0 88 100" fill="none" xmlns="http://www.w3.org/2000/svg">
<path d="M33.724 76.5159C33.724 74.1373 54.1776 74.1373 54.1776 76.5159C54.1776 84.7765 47.3266 88.1561 43.724 88.1561C40.1214 88.1561 33.7239 85.006 33.724 76.5159Z" fill="#BAD3CA"/>
<path d="M33.524 71.8447H54.4588L53.6542 75.8777C53.6542 75.8777 50.6087 81.2293 43.9914 81.2293C37.3741 81.2293 34.3286 75.8777 34.3286 75.8777L33.524 71.8447Z" fill="#152828"/>
<path d="M33.8851 73.6497C36.7973 78.5104 50.5537 79.0879 54.098 73.6497L53.5686 76.2966C53.5686 76.2966 50.6837 81.6033 44.0664 81.6033C37.449 81.6033 34.4035 76.2516 34.4035 76.2516L33.8851 73.6497Z" fill="#2A5050"/>
<path d="M34.2942 75.6956C39.949 82.0723 47.962 82.4332 53.6914 75.6956L53.5687 76.2971C53.5687 76.2971 50.6382 81.7596 43.9461 81.6151C37.2539 81.4707 34.4025 76.249 34.4025 76.249L34.2942 75.6956Z" fill="#468586"/>
<path d="M29.8008 47.6907L34.8823 46.0482C35.4559 45.8628 35.9739 45.5367 36.3891 45.0997L36.8994 44.5625H43.998H50.9858L51.6405 45.1908C52.0347 45.5691 52.5097 45.853 53.0296 46.021L58.1952 47.6907C58.1952 47.6907 65.775 75.8445 43.998 75.8445C22.221 75.8445 29.8008 47.6907 29.8008 47.6907Z" fill="#D2E3DD"/>
<path d="M37.6676 42.1562H50.1803L51.3835 45.7657C51.3835 45.7657 51.3835 49.3752 43.924 49.3752C36.4644 49.3752 36.4644 45.7657 36.4644 45.7657L37.6676 42.1562Z" fill="#2A5050"/>
<path d="M36.5847 45.405C36.5847 45.405 37.6676 48.5332 43.924 48.5332C50.3007 48.4129 51.2632 45.405 51.2632 45.405L51.3835 45.766C51.3835 45.766 51.3835 49.3754 43.924 49.3754C36.4644 49.3754 36.4644 45.766 36.4644 45.766L36.5847 45.405Z" fill="#468586"/>
<path d="M37.6675 42.1562H50.1803L50.9816 44.5626C47.8943 45.7657 40.3144 45.6454 36.8662 44.5626L37.6675 42.1562Z" fill="#152828"/>
<path d="M25.6362 53.4424L31.654 56.3473L25.7281 68.6232L19.7103 65.7183L25.6362 53.4424Z" fill="#2A5050"/>
<path d="M25.6362 53.4424L31.654 56.3473L30.0069 59.7676C27.6006 61.3317 23.403 62.1224 21.9349 61.1099L25.6362 53.4424Z" fill="#152828"/>
<path d="M19.5025 65.9726L20.5298 64.0194C22.2228 64.536 24.1873 66.4163 26.5569 65.3537C26.845 65.2245 27.085 65.2525 27.2783 65.4097L26.2401 67.5367L19.5025 65.9726Z" fill="#468586"/>
<path d="M18.8405 64.888C20.8927 63.5741 23.3548 67.5113 26.5566 66.0754C29.7584 64.6395 27.0208 82.6212 20.2221 81.575C13.4234 80.5288 16.7883 66.202 18.8405 64.888Z" fill="#BAD3CA"/>
<path d="M18.2857 86.7723C18.6521 84.6455 18.9492 82.9213 17.2004 82.6803C15.4516 82.4393 15.1545 84.1635 14.7881 86.2903C14.4216 88.4172 14.9075 90.2493 15.8734 90.3824C16.8392 90.5154 17.9192 88.8992 18.2857 86.7723Z" fill="#D2E3DD"/>
<path d="M17.6616 89.0473L18.8492 83.2749C18.8451 83.0939 18.6486 82.9617 18.6486 82.9617C17.0257 85.4532 16.9068 87.7863 17.6616 89.0473Z" fill="#AECAC0"/>
<path d="M20.9057 87.9859C21.2721 85.8591 21.5692 84.1349 19.909 83.9061C18.2488 83.6774 17.9518 85.4015 17.5853 87.5284C17.2189 89.6552 17.6651 91.4818 18.582 91.6082C19.4989 91.7345 20.5392 90.1128 20.9057 87.9859Z" fill="#D2E3DD"/>
<path d="M20.3928 89.4054L21.5804 83.633C21.5762 83.452 21.3797 83.3199 21.3797 83.3199C19.7568 85.8113 19.6379 88.1444 20.3928 89.4054Z" fill="#AECAC0"/>
<path d="M23.7069 87.5295C24.1917 85.4227 24.5848 83.7149 22.9971 83.3937C21.4094 83.0724 21.0164 84.7803 20.5315 86.8871C20.0467 88.9938 20.3645 90.8455 21.2414 91.0229C22.1182 91.2003 23.2221 89.6362 23.7069 87.5295Z" fill="#D2E3DD"/>
<path d="M15.6569 82.2751L12.9048 79.8708C15.2159 75.2359 21.3455 73.8667 24.0387 77.2973C25.7936 80.1729 24.9413 81.5063 24.1299 84.8308C21.2609 85.6677 18.595 85.1518 15.4036 83.7416L15.6569 82.2751Z" fill="#2A5050"/>
<path d="M24.9612 79.4694C22.2361 75.6345 18.6332 76.0059 14.9027 77.304C17.5071 74.9822 21.9804 74.5279 24.0948 77.3037C24.6204 78.1879 24.858 78.7744 24.9612 79.4694Z" fill="#152828"/>
<path d="M15.4996 82.3327C18.0026 81.7288 19.011 79.149 17.4447 77.9307C14.5309 75.6644 12.1766 80.6013 11.4917 81.8772C10.8069 83.153 10.7799 84.4114 11.5838 84.9432C12.3878 85.475 14.051 84.718 15.4996 82.3327Z" fill="#D2E3DD"/>
<path d="M34.396 48.0185C40.4457 54.0682 25.0645 62.9679 22.2555 60.1589C19.4465 57.3499 28.3462 41.9688 34.396 48.0185Z" fill="#BAD3CA"/>
<path d="M62.3638 53.4424L56.346 56.3473L62.2719 68.6232L68.2897 65.7183L62.3638 53.4424Z" fill="#2A5050"/>
<path d="M62.3638 53.4424L56.346 56.3473L57.9931 59.7676C60.3994 61.3317 64.597 62.1224 66.0651 61.1099L62.3638 53.4424Z" fill="#152828"/>
<path d="M68.4975 65.9726L67.4702 64.0194C65.7772 64.536 63.8127 66.4163 61.4431 65.3537C61.155 65.2245 60.915 65.2525 60.7217 65.4097L61.7599 67.5367L68.4975 65.9726Z" fill="#468586"/>
<path d="M69.1595 64.888C67.1073 63.5741 64.6452 67.5113 61.4434 66.0754C58.2416 64.6395 60.9792 82.6212 67.7779 81.575C74.5766 80.5288 71.2117 66.202 69.1595 64.888Z" fill="#BAD3CA"/>
<path d="M69.7143 86.7723C69.3479 84.6455 69.0508 82.9213 70.7996 82.6803C72.5484 82.4393 72.8455 84.1635 73.2119 86.2903C73.5784 88.4172 73.0925 90.2493 72.1266 90.3824C71.1608 90.5154 70.0808 88.8992 69.7143 86.7723Z" fill="#D2E3DD"/>
<path d="M70.3384 89.0473L69.1508 83.2749C69.1549 83.0939 69.3514 82.9617 69.3514 82.9617C70.9743 85.4532 71.0932 87.7863 70.3384 89.0473Z" fill="#AECAC0"/>
<path d="M67.0943 87.9859C66.7279 85.8591 66.4308 84.1349 68.091 83.9061C69.7512 83.6774 70.0482 85.4015 70.4147 87.5284C70.7811 89.6552 70.3349 91.4818 69.418 91.6082C68.5011 91.7345 67.4608 90.1128 67.0943 87.9859Z" fill="#D2E3DD"/>
<path d="M67.6072 89.4054L66.4196 83.633C66.4238 83.452 66.6203 83.3199 66.6203 83.3199C68.2432 85.8113 68.3621 88.1444 67.6072 89.4054Z" fill="#AECAC0"/>
<path d="M64.2931 87.5295C63.8083 85.4227 63.4152 83.7149 65.0029 83.3937C66.5906 83.0724 66.9836 84.7803 67.4685 86.8871C67.9533 88.9938 67.6355 90.8455 66.7586 91.0229C65.8818 91.2003 64.7779 89.6362 64.2931 87.5295Z" fill="#D2E3DD"/>
<path d="M72.3431 82.2751L75.0952 79.8708C72.7841 75.2359 66.6545 73.8667 63.9613 77.2973C62.2064 80.1729 63.0587 81.5063 63.8701 84.8308C66.7391 85.6677 69.405 85.1518 72.5964 83.7416L72.3431 82.2751Z" fill="#2A5050"/>
<path d="M63.0388 79.4694C65.7639 75.6344 69.3668 76.0059 73.0973 77.304C70.4929 74.9821 66.0196 74.5278 63.9051 77.3037C63.3796 78.1879 63.142 78.7744 63.0388 79.4694Z" fill="#152828"/>
<path d="M72.5004 82.3327C69.9974 81.7288 68.989 79.149 70.5553 77.9307C73.4691 75.6644 75.8234 80.6013 76.5083 81.8772C77.1931 83.153 77.2201 84.4114 76.4162 84.9432C75.6122 85.475 73.949 84.718 72.5004 82.3327Z" fill="#D2E3DD"/>
<path d="M53.4488 47.8315C47.3991 53.8812 62.7803 62.7809 65.5893 59.9719C68.3983 57.1629 59.4985 41.7817 53.4488 47.8315Z" fill="#BAD3CA"/>
<path d="M73.9168 23.8224C73.9168 19.8355 70.6848 16.6035 66.6979 16.6035V33.207C70.6848 33.207 73.9168 29.975 73.9168 25.9881V23.8224Z" fill="#2A5050"/>
<path d="M13.9998 23.8224C13.9998 19.8355 17.2318 16.6035 21.2187 16.6035V33.207C17.2318 33.207 13.9998 29.975 13.9998 25.9881V23.8224Z" fill="#2A5050"/>
<path d="M69.1041 22.0179C69.1041 39.7513 57.8459 44.0356 43.9582 44.0356C30.0705 44.0356 18.8123 39.7513 18.8123 22.0179C18.8123 9.04514 27.6642 0.000244141 43.9582 0.000244141C57.8459 0.000244141 69.1041 6.66484 69.1041 22.0179Z" fill="#BAD3CA"/>
<path d="M44.1133 11.0029C61.8097 11.0029 64.4287 15.3169 64.4287 25.2549C64.4287 25.3743 64.4255 25.4928 64.4238 25.6104C64.3408 16.5301 61.5351 12.5801 44.1133 12.5801C26.5047 12.5801 23.8778 17.9415 23.8008 25.6777C23.7986 25.5382 23.7979 25.3971 23.7979 25.2549C23.7979 16.8576 26.2286 11.0029 44.1133 11.0029Z" fill="#CEE6DD"/>
<path d="M44.1133 39.4297C26.4169 39.4297 23.7979 35.1157 23.7979 25.1777C23.7979 25.0583 23.801 24.9398 23.8027 24.8223C23.8857 33.9025 26.6914 37.8525 44.1133 37.8525C61.7219 37.8525 64.3488 32.4911 64.4258 24.7549C64.4279 24.8944 64.4287 25.0355 64.4287 25.1777C64.4287 33.575 61.998 39.4297 44.1133 39.4297Z" fill="#92B8AA"/>
<path d="M64.4285 25.2354C64.4285 36.079 56.5581 38.6988 44.1131 38.6988C30.7694 38.6988 23.7978 36.079 23.7978 25.2354C23.7978 17.3028 26.2282 11.772 44.1131 11.772C61.8098 11.772 64.4285 15.8473 64.4285 25.2354Z" fill="#EFFBF7"/>
<path d="M63.2263 25.2355C63.2263 34.9173 55.8216 37.2564 44.1131 37.2564C31.5589 37.2564 24.9998 34.9173 24.9998 25.2355C24.9998 18.1528 27.2864 13.2146 44.1131 13.2146C60.7626 13.2146 63.2263 16.8532 63.2263 25.2355Z" fill="#2A5050"/>
<path d="M44.113 13.2146C60.7621 13.2146 63.2263 16.8573 63.2263 25.2488C63.2263 25.3494 63.223 25.4495 63.2214 25.5486C63.1432 17.8816 60.5036 14.5466 44.113 14.5466C27.5661 14.5466 25.0807 19.0628 25.0027 25.5828C25.0009 25.4725 24.9998 25.361 24.9998 25.2488C24.9998 18.1582 27.2868 13.2146 44.113 13.2146Z" fill="#152828"/>
<path d="M44.113 37.218C27.464 37.218 24.9998 33.5753 24.9998 25.1838C24.9998 25.0832 25.003 24.9831 25.0046 24.884C25.0828 32.551 27.7225 35.886 44.113 35.886C60.66 35.886 63.1453 31.3698 63.2234 24.8499C63.2251 24.9601 63.2263 25.0716 63.2263 25.1838C63.2263 32.2744 60.9393 37.218 44.113 37.218Z" fill="#468586"/>
<g filter="url(#filter0_f_2066_2737)">
<ellipse cx="35.106" cy="24.8332" rx="3.125" ry="4.92788" fill="#F1F8F4"/>
<ellipse cx="52.894" cy="24.8332" rx="3.125" ry="4.92788" fill="#F1F8F4"/>
</g>
<ellipse cx="35.106" cy="24.8332" rx="3.125" ry="4.92788" fill="#F1F8F4"/>
<ellipse cx="52.894" cy="24.8332" rx="3.125" ry="4.92788" fill="#F1F8F4"/>
<ellipse cx="44" cy="97.0006" rx="13.803" ry="3.00065" fill="#607C7F" fill-opacity="0.2"/>
<defs>
<filter id="filter0_f_2066_2737" x="28.6156" y="16.5399" width="30.7689" height="16.5865" filterUnits="userSpaceOnUse" color-interpolation-filters="sRGB">
<feFlood flood-opacity="0" result="BackgroundImageFix"/>
<feBlend mode="normal" in="SourceGraphic" in2="BackgroundImageFix" result="shape"/>
<feGaussianBlur stdDeviation="1.68269" result="effect1_foregroundBlur_2066_2737"/>
</filter>
</defs>
</svg>
