<svg width="88" height="100" viewBox="0 0 88 100" fill="none" xmlns="http://www.w3.org/2000/svg">
<path d="M33.724 76.5159C33.724 74.1373 54.1776 74.1373 54.1776 76.5159C54.1776 84.7765 47.3266 88.1561 43.724 88.1561C40.1214 88.1561 33.7239 85.006 33.724 76.5159Z" fill="#BAD3CA"/>
<path d="M33.524 71.8447H54.4588L53.6542 75.8777C53.6542 75.8777 50.6087 81.2293 43.9914 81.2293C37.3741 81.2293 34.3286 75.8777 34.3286 75.8777L33.524 71.8447Z" fill="#152828"/>
<path d="M33.8851 73.6497C36.7973 78.5104 50.5537 79.0879 54.098 73.6497L53.5686 76.2966C53.5686 76.2966 50.6837 81.6033 44.0664 81.6033C37.449 81.6033 34.4035 76.2516 34.4035 76.2516L33.8851 73.6497Z" fill="#2A5050"/>
<path d="M34.2942 75.6956C39.949 82.0723 47.962 82.4332 53.6914 75.6956L53.5687 76.2971C53.5687 76.2971 50.6382 81.7596 43.9461 81.6151C37.2539 81.4707 34.4025 76.249 34.4025 76.249L34.2942 75.6956Z" fill="#468586"/>
<path d="M29.8008 47.6907L34.8823 46.0482C35.4559 45.8628 35.9739 45.5367 36.3891 45.0997L36.8994 44.5625H43.998H50.9858L51.6405 45.1908C52.0347 45.5691 52.5097 45.853 53.0296 46.021L58.1952 47.6907C58.1952 47.6907 65.775 75.8445 43.998 75.8445C22.221 75.8445 29.8008 47.6907 29.8008 47.6907Z" fill="#D2E3DD"/>
<path d="M37.6676 42.1562H50.1803L51.3835 45.7657C51.3835 45.7657 51.3835 49.3752 43.924 49.3752C36.4644 49.3752 36.4644 45.7657 36.4644 45.7657L37.6676 42.1562Z" fill="#2A5050"/>
<path d="M36.5847 45.405C36.5847 45.405 37.6676 48.5332 43.924 48.5332C50.3007 48.4129 51.2632 45.405 51.2632 45.405L51.3835 45.766C51.3835 45.766 51.3835 49.3754 43.924 49.3754C36.4644 49.3754 36.4644 45.766 36.4644 45.766L36.5847 45.405Z" fill="#468586"/>
<path d="M37.6675 42.1562H50.1803L50.9816 44.5626C47.8943 45.7657 40.3144 45.6454 36.8662 44.5626L37.6675 42.1562Z" fill="#152828"/>
<path d="M24.7655 55.5181L31.4303 55.0249L32.4364 68.6205L25.7716 69.1137L24.7655 55.5181Z" fill="#2A5050"/>
<path d="M24.7655 55.5181L31.4303 55.0249L31.7108 58.7769C30.4088 61.3349 27.1718 64.1527 25.3939 64.0099L24.7655 55.5181Z" fill="#152828"/>
<path d="M25.7182 69.4387L25.6314 67.2332C27.3561 66.8341 29.9978 67.4803 31.5188 65.375C31.7037 65.119 31.9256 65.0233 32.1716 65.0628L32.336 67.4242L25.7182 69.4387Z" fill="#468586"/>
<path d="M24.6032 68.8309C25.7236 66.6666 29.8249 68.8455 31.88 66.0009C33.9351 63.1562 40.5559 80.0993 34.1442 82.5929C27.7325 85.0865 23.4828 70.9952 24.6032 68.8309Z" fill="#BAD3CA"/>
<path d="M30.5836 82.9001C29.8883 81.3204 30.3701 79.4591 31.7137 78.3757C34.0939 76.4564 37.4259 79.0922 36.106 81.8503L35.969 82.1366L36.7276 84.8944L33.0803 87.0001C31.8477 85.5246 31.2051 84.3121 30.5836 82.9001Z" fill="#2A5050"/>
<path d="M30.3568 82.1848C30.0677 80.9623 30.3703 79.4596 31.7139 78.3762C32.9454 77.3832 34.5003 77.5695 35.3967 78.4414C32.9299 77.7814 30.5683 79.4228 30.3568 82.1848Z" fill="#152828"/>
<ellipse cx="37.2628" cy="81.1392" rx="1.74558" ry="3.41918" transform="rotate(-45 37.2628 81.1392)" fill="#D2E3DD"/>
<path d="M36.3594 86.8863C38.3416 87.3395 39.1586 88.3419 38.7322 89.0804C38.3058 89.8189 36.3102 89.814 34.8637 88.9788C33.4172 88.1437 32.6544 86.7222 33.0808 85.9837C33.5071 85.2452 35.1886 84.8585 36.3594 86.8863Z" fill="#D2E3DD"/>
<path d="M33.8154 85.4522L38.7104 88.418C38.8303 88.5619 38.7406 88.8897 38.7406 88.8897C35.5516 88.8435 33.9859 87.2907 33.8154 85.4522Z" fill="#AECAC0"/>
<path d="M37.5679 85.3937C39.809 85.9061 40.7326 87.0393 40.2505 87.8742C39.7685 88.7091 37.5124 88.7036 35.877 87.7594C34.2416 86.8152 33.3793 85.2081 33.8613 84.3732C34.3433 83.5383 36.2443 83.1011 37.5679 85.3937Z" fill="#D2E3DD"/>
<path d="M30.7611 46.6663C38.8056 49.5789 28.6513 64.1624 24.9161 62.81C21.1809 61.4576 22.7165 43.7538 30.7611 46.6663Z" fill="#BAD3CA"/>
<rect width="6.68301" height="13.6328" transform="matrix(-0.655982 -0.754777 -0.754777 0.655982 58.1456 57.7654)" fill="#2A5050"/>
<path d="M53.7618 52.7206L43.4652 61.6466L46.9764 65.6955L47.6653 66.9753L49.2803 65.4708L49.2799 65.4702L58.1457 57.7648L53.7618 52.7206Z" fill="#2A5050"/>
<path d="M51.5251 63.5192C50.6996 60.8214 46.5457 61.8609 45.3478 60.0302L44.7347 60.5304L44.4931 63.9585L51.0353 63.9585L51.5251 63.5192Z" fill="#468586"/>
<path d="M28.8155 62.3509L31.1775 60.031C35.7655 62.435 36.9619 66.5297 33.4774 69.1538C30.5669 70.8507 28.4136 70.174 25.9428 69.0937C25.1636 66.2081 25.8116 65.6479 27.2858 62.485L28.8155 62.3509Z" fill="#2A5050"/>
<path d="M33.5829 69.2954L34.6666 63.0381C34.4259 62.5568 34.2041 62.3727 33.8236 61.9553C34.0289 64.2971 31.1846 67.7376 32.139 69.7767L33.5829 69.2954Z" fill="#468586"/>
<path d="M25.4252 66.513C23.8067 65.282 22.5137 65.2975 22.2201 66.0981C21.9266 66.8987 23.2095 68.4273 24.7777 69.0023C26.346 69.5773 27.926 69.2516 28.2195 68.4509C28.5131 67.6503 27.7321 66.1118 25.4252 66.513Z" fill="#D2E3DD"/>
<path d="M27.834 67.1097L22.9945 65.5648C22.7538 65.531 22.5329 65.6994 22.5329 65.6994C24.3824 68.0332 26.4017 68.1895 27.834 67.1097Z" fill="#AECAC0"/>
<path d="M25.5966 64.5953C23.9782 63.3643 22.6851 63.3797 22.3916 64.1803C22.098 64.981 23.381 66.5096 24.9492 67.0846C26.5174 67.6595 28.0974 67.3338 28.391 66.5332C28.6845 65.7326 27.9036 64.1941 25.5966 64.5953Z" fill="#D2E3DD"/>
<path d="M28.2654 65.4591L23.1139 63.6398C22.7529 63.6398 22.552 63.9122 22.552 63.9122C24.5934 66.3163 26.7596 66.512 28.2654 65.4591Z" fill="#AECAC0"/>
<path d="M25.9691 62.4705C24.1393 61.0788 22.6775 61.0963 22.3456 62.0014C22.0137 62.9066 23.4641 64.6347 25.2371 65.2848C27.01 65.9348 28.7963 65.5666 29.1282 64.6615C29.46 63.7563 28.5771 62.017 25.9691 62.4705Z" fill="#D2E3DD"/>
<ellipse cx="29.7157" cy="61.1638" rx="1.74558" ry="3.41918" transform="rotate(-65.0101 29.7157 61.1638)" fill="#D2E3DD"/>
<path d="M51.1126 63.9131C50.339 60.9612 45.9806 62.6054 45.0512 60.2711C39.4321 59.5558 34.4503 62.6776 34.4503 62.6776C34.7059 65.5933 30.0912 69.3797 34.1291 71.3479C40.2353 73.8353 52.2455 68.2357 51.1126 63.9131Z" fill="#BAD3CA"/>
<path d="M58.1461 57.7651L54.7476 60.7183C52.4812 61.7749 50.3868 62.1084 49.3619 61.2524C48.5253 60.5537 48.3407 59.0121 48.6471 57.1538L53.7623 52.7212L58.1461 57.7651Z" fill="#152828"/>
<path d="M61.532 48.0521C55.3479 42.1398 46.796 57.7171 49.6674 60.4622C52.5388 63.2074 67.7161 53.9643 61.532 48.0521Z" fill="#BAD3CA"/>
<path d="M73.9168 23.8224C73.9168 19.8355 70.6848 16.6035 66.6979 16.6035V33.207C70.6848 33.207 73.9168 29.975 73.9168 25.9881V23.8224Z" fill="#2A5050"/>
<path d="M13.9998 23.8224C13.9998 19.8355 17.2318 16.6035 21.2187 16.6035V33.207C17.2318 33.207 13.9998 29.975 13.9998 25.9881V23.8224Z" fill="#2A5050"/>
<path d="M69.1041 22.0179C69.1041 39.7513 57.8459 44.0356 43.9582 44.0356C30.0705 44.0356 18.8123 39.7513 18.8123 22.0179C18.8123 9.04514 27.6642 0.000244141 43.9582 0.000244141C57.8459 0.000244141 69.1041 6.66484 69.1041 22.0179Z" fill="#BAD3CA"/>
<path d="M44.1133 11.0029C61.8097 11.0029 64.4287 15.3169 64.4287 25.2549C64.4287 25.3743 64.4255 25.4928 64.4238 25.6104C64.3408 16.5301 61.5351 12.5801 44.1133 12.5801C26.5047 12.5801 23.8778 17.9415 23.8008 25.6777C23.7986 25.5382 23.7979 25.3971 23.7979 25.2549C23.7979 16.8576 26.2286 11.0029 44.1133 11.0029Z" fill="#CEE6DD"/>
<path d="M44.1133 39.4297C26.4169 39.4297 23.7979 35.1157 23.7979 25.1777C23.7979 25.0583 23.801 24.9398 23.8027 24.8223C23.8857 33.9025 26.6914 37.8525 44.1133 37.8525C61.7219 37.8525 64.3488 32.4911 64.4258 24.7549C64.4279 24.8944 64.4287 25.0355 64.4287 25.1777C64.4287 33.575 61.998 39.4297 44.1133 39.4297Z" fill="#92B8AA"/>
<path d="M64.4285 25.2354C64.4285 36.079 56.5581 38.6988 44.1131 38.6988C30.7694 38.6988 23.7978 36.079 23.7978 25.2354C23.7978 17.3028 26.2282 11.772 44.1131 11.772C61.8098 11.772 64.4285 15.8473 64.4285 25.2354Z" fill="#EFFBF7"/>
<path d="M63.2263 25.2355C63.2263 34.9173 55.8216 37.2564 44.1131 37.2564C31.5589 37.2564 24.9998 34.9173 24.9998 25.2355C24.9998 18.1528 27.2864 13.2146 44.1131 13.2146C60.7626 13.2146 63.2263 16.8532 63.2263 25.2355Z" fill="#2A5050"/>
<path d="M44.113 13.2146C60.7621 13.2146 63.2263 16.8573 63.2263 25.2488C63.2263 25.3494 63.223 25.4495 63.2214 25.5486C63.1432 17.8816 60.5036 14.5466 44.113 14.5466C27.5661 14.5466 25.0807 19.0628 25.0027 25.5828C25.0009 25.4725 24.9998 25.361 24.9998 25.2488C24.9998 18.1582 27.2868 13.2146 44.113 13.2146Z" fill="#152828"/>
<path d="M44.113 37.218C27.464 37.218 24.9998 33.5753 24.9998 25.1838C24.9998 25.0832 25.003 24.9831 25.0046 24.884C25.0828 32.551 27.7225 35.886 44.113 35.886C60.66 35.886 63.1453 31.3698 63.2234 24.8499C63.2251 24.9601 63.2263 25.0716 63.2263 25.1838C63.2263 32.2744 60.9393 37.218 44.113 37.218Z" fill="#468586"/>
<g filter="url(#filter0_f_2066_2742)">
<path d="M40.6697 21.356C40.8577 21.544 40.8577 21.8488 40.6697 22.0367L38.2114 24.4949C38.0234 24.6828 38.0234 24.9876 38.2113 25.1756L40.6695 27.6339C40.8575 27.8219 40.8575 28.1266 40.6696 28.3146L39.5559 29.4284C39.3679 29.6164 39.0631 29.6164 38.8752 29.4284L36.4168 26.9701C36.2289 26.7821 35.9241 26.7821 35.7361 26.9701L33.278 29.4284C33.09 29.6164 32.7853 29.6164 32.5973 29.4284L31.4835 28.3146C31.2955 28.1266 31.2955 27.8219 31.4834 27.6339L33.9416 25.1756C34.1296 24.9876 34.1296 24.6828 33.9416 24.4949L31.4835 22.0367C31.2955 21.8488 31.2955 21.544 31.4835 21.356L32.5973 20.2422C32.7853 20.0542 33.09 20.0542 33.278 20.2422L35.7362 22.7004C35.9241 22.8883 36.2289 22.8883 36.4168 22.7004L38.8752 20.2422C39.0631 20.0542 39.3679 20.0542 39.5558 20.2422L40.6697 21.356Z" fill="#F1F8F4"/>
<path d="M58.4785 21.356C58.6664 21.544 58.6664 21.8488 58.4785 22.0367L56.0201 24.4949C55.8322 24.6828 55.8322 24.9876 56.0201 25.1756L58.4783 27.6339C58.6663 27.8219 58.6663 28.1266 58.4783 28.3146L57.3646 29.4284C57.1767 29.6164 56.8719 29.6164 56.6839 29.4284L54.2256 26.9701C54.0376 26.7821 53.7329 26.7821 53.5449 26.9701L51.0868 29.4284C50.8988 29.6164 50.5941 29.6164 50.4061 29.4284L49.2922 28.3146C49.1043 28.1266 49.1043 27.8219 49.2922 27.6339L51.7504 25.1756C51.9384 24.9876 51.9384 24.6828 51.7504 24.4949L49.2922 22.0367C49.1043 21.8488 49.1043 21.544 49.2922 21.356L50.4061 20.2422C50.5941 20.0542 50.8988 20.0542 51.0868 20.2422L53.5449 22.7004C53.7329 22.8883 54.0376 22.8883 54.2256 22.7004L56.684 20.2422C56.8719 20.0542 57.1767 20.0542 57.3646 20.2422L58.4785 21.356Z" fill="#F1F8F4"/>
</g>
<path d="M39.6697 21.356C39.8577 21.544 39.8577 21.8488 39.6697 22.0367L37.2114 24.4949C37.0234 24.6828 37.0234 24.9876 37.2113 25.1756L39.6695 27.6339C39.8575 27.8219 39.8575 28.1266 39.6696 28.3146L38.5559 29.4284C38.3679 29.6164 38.0631 29.6164 37.8752 29.4284L35.4168 26.9701C35.2289 26.7821 34.9241 26.7821 34.7361 26.9701L32.278 29.4284C32.09 29.6164 31.7853 29.6164 31.5973 29.4284L30.4835 28.3146C30.2955 28.1266 30.2955 27.8219 30.4834 27.6339L32.9416 25.1756C33.1296 24.9876 33.1296 24.6828 32.9416 24.4949L30.4835 22.0367C30.2955 21.8488 30.2955 21.544 30.4835 21.356L31.5973 20.2422C31.7853 20.0542 32.09 20.0542 32.278 20.2422L34.7362 22.7004C34.9241 22.8883 35.2289 22.8883 35.4168 22.7004L37.8752 20.2422C38.0631 20.0542 38.3679 20.0542 38.5558 20.2422L39.6697 21.356Z" fill="#F1F8F4"/>
<path d="M57.4785 21.356C57.6664 21.544 57.6664 21.8488 57.4785 22.0367L55.0201 24.4949C54.8322 24.6828 54.8322 24.9876 55.0201 25.1756L57.4783 27.6339C57.6663 27.8219 57.6663 28.1266 57.4783 28.3146L56.3646 29.4284C56.1767 29.6164 55.8719 29.6164 55.6839 29.4284L53.2256 26.9701C53.0376 26.7821 52.7329 26.7821 52.5449 26.9701L50.0868 29.4284C49.8988 29.6164 49.5941 29.6164 49.4061 29.4284L48.2922 28.3146C48.1043 28.1266 48.1043 27.8219 48.2922 27.6339L50.7504 25.1756C50.9384 24.9876 50.9384 24.6828 50.7504 24.4949L48.2922 22.0367C48.1043 21.8488 48.1043 21.544 48.2922 21.356L49.4061 20.2422C49.5941 20.0542 49.8988 20.0542 50.0868 20.2422L52.5449 22.7004C52.7329 22.8883 53.0376 22.8883 53.2256 22.7004L55.684 20.2422C55.8719 20.0542 56.1767 20.0542 56.3646 20.2422L57.4785 21.356Z" fill="#F1F8F4"/>
<ellipse cx="44" cy="97.0006" rx="13.803" ry="3.00065" fill="#607C7F" fill-opacity="0.2"/>
<defs>
<filter id="filter0_f_2066_2742" x="27.9733" y="16.7321" width="34.0154" height="16.2064" filterUnits="userSpaceOnUse" color-interpolation-filters="sRGB">
<feFlood flood-opacity="0" result="BackgroundImageFix"/>
<feBlend mode="normal" in="SourceGraphic" in2="BackgroundImageFix" result="shape"/>
<feGaussianBlur stdDeviation="1.6846" result="effect1_foregroundBlur_2066_2742"/>
</filter>
</defs>
</svg>
