<svg width="90" height="110" viewBox="0 0 90 110" fill="none" xmlns="http://www.w3.org/2000/svg">
<path d="M33.7239 86.3763C33.7239 83.9976 54.1775 83.9976 54.1775 86.3763C54.1775 94.6368 47.3265 98.0165 43.7239 98.0165C40.1213 98.0165 33.7238 94.8663 33.7239 86.3763Z" fill="#BAD3CA"/>
<path d="M33.5239 81.7051H54.4588L53.6542 85.738C53.6542 85.738 50.6087 91.0897 43.9913 91.0897C37.374 91.0897 34.3285 85.738 34.3285 85.738L33.5239 81.7051Z" fill="#152828"/>
<path d="M33.885 83.51C36.7972 88.3707 50.5536 88.9483 54.098 83.51L53.5686 86.1569C53.5686 86.1569 50.6836 91.4636 44.0663 91.4636C37.449 91.4636 34.4035 86.112 34.4035 86.112L33.885 83.51Z" fill="#2A5050"/>
<path d="M34.2942 85.5559C39.949 91.9326 47.962 92.2936 53.6914 85.5559L53.5687 86.1575C53.5687 86.1575 50.6382 91.6199 43.9461 91.4755C37.2539 91.331 34.4025 86.1094 34.4025 86.1094L34.2942 85.5559Z" fill="#468586"/>
<path d="M29.8007 57.551L34.8823 55.9085C35.4558 55.7231 35.9738 55.3971 36.389 54.96L36.8993 54.4229H43.9979H50.9857L51.6405 55.0512C52.0347 55.4294 52.5096 55.7133 53.0295 55.8814L58.1951 57.551C58.1951 57.551 65.775 85.7048 43.9979 85.7048C22.2209 85.7048 29.8007 57.551 29.8007 57.551Z" fill="#D2E3DD"/>
<path d="M37.6675 52.0166H50.1803L51.3834 55.6261C51.3834 55.6261 51.3834 59.2355 43.9239 59.2355C36.4644 59.2355 36.4644 55.6261 36.4644 55.6261L37.6675 52.0166Z" fill="#2A5050"/>
<path d="M36.5847 55.2654C36.5847 55.2654 37.6675 58.3936 43.9239 58.3936C50.3006 58.2733 51.2631 55.2654 51.2631 55.2654L51.3834 55.6263C51.3834 55.6263 51.3834 59.2358 43.9239 59.2358C36.4644 59.2358 36.4644 55.6263 36.4644 55.6263L36.5847 55.2654Z" fill="#468586"/>
<path d="M37.6675 52.0166H50.1803L50.9816 54.4229C47.8943 55.6261 40.3144 55.5057 36.8662 54.4229L37.6675 52.0166Z" fill="#152828"/>
<path d="M25.6362 63.3025L31.6541 66.2074L25.7282 78.4833L19.7104 75.5784L25.6362 63.3025Z" fill="#2A5050"/>
<path d="M25.6362 63.3025L31.6541 66.2074L30.007 69.6277C27.6007 71.1918 23.4031 71.9825 21.9349 70.97L25.6362 63.3025Z" fill="#152828"/>
<path d="M19.5025 75.8327L20.5298 73.8795C22.2228 74.3961 24.1873 76.2764 26.5569 75.2138C26.845 75.0846 27.085 75.1126 27.2783 75.2698L26.2401 77.3968L19.5025 75.8327Z" fill="#468586"/>
<path d="M18.8406 74.7482C20.8928 73.4342 23.355 77.3714 26.5567 75.9355C29.7585 74.4997 27.021 92.4813 20.2222 91.4351C13.4235 90.3889 16.7884 76.0621 18.8406 74.7482Z" fill="#BAD3CA"/>
<path d="M18.2856 96.6324C18.652 94.5056 18.9491 92.7814 17.2003 92.5404C15.4515 92.2994 15.1545 94.0236 14.788 96.1505C14.4216 98.2773 14.9075 100.109 15.8733 100.242C16.8391 100.376 17.9191 98.7593 18.2856 96.6324Z" fill="#D2E3DD"/>
<path d="M17.6616 98.9074L18.8492 93.135C18.8451 92.954 18.6486 92.8218 18.6486 92.8218C17.0257 95.3133 16.9068 97.6464 17.6616 98.9074Z" fill="#AECAC0"/>
<path d="M20.9057 97.8461C21.2722 95.7192 21.5692 93.995 19.9091 93.7663C18.2489 93.5375 17.9518 95.2616 17.5854 97.3885C17.2189 99.5153 17.6652 101.342 18.582 101.468C19.4989 101.595 20.5393 99.9729 20.9057 97.8461Z" fill="#D2E3DD"/>
<path d="M20.3929 99.2655L21.5806 93.4931C21.5764 93.3121 21.3799 93.18 21.3799 93.18C19.757 95.6715 19.6381 98.0045 20.3929 99.2655Z" fill="#AECAC0"/>
<path d="M23.707 97.3896C24.1919 95.2828 24.5849 93.575 22.9972 93.2538C21.4095 92.9326 21.0165 94.6404 20.5317 96.7472C20.0468 98.8539 20.3646 100.706 21.2415 100.883C22.1183 101.06 23.2222 99.4963 23.707 97.3896Z" fill="#D2E3DD"/>
<path d="M15.6569 92.1353L12.9048 89.7309C15.2159 85.096 21.3455 83.7268 24.0387 87.1574C25.7936 90.033 24.9413 91.3664 24.1299 94.6909C21.2609 95.5278 18.595 95.012 15.4036 93.6017L15.6569 92.1353Z" fill="#2A5050"/>
<path d="M24.9612 89.3295C22.2361 85.4946 18.6332 85.866 14.9027 87.1641C17.5071 84.8423 21.9804 84.388 24.0948 87.1638C24.6204 88.048 24.858 88.6345 24.9612 89.3295Z" fill="#152828"/>
<path d="M15.4996 92.1929C18.0026 91.5889 19.011 89.0091 17.4447 87.7908C14.5309 85.5245 12.1766 90.4614 11.4917 91.7373C10.8069 93.0131 10.7799 94.2715 11.5838 94.8033C12.3878 95.3351 14.051 94.5781 15.4996 92.1929Z" fill="#D2E3DD"/>
<path d="M34.3959 57.8786C40.4456 63.9283 25.0644 72.828 22.2554 70.019C19.4464 67.21 28.3462 51.8289 34.3959 57.8786Z" fill="#BAD3CA"/>
<path d="M60.3824 60.7302L59.4033 65.6252L59.4033 70.1114L66.0306 78.3235L71.2206 74.1237L60.3824 60.7302Z" fill="#2A5050"/>
<path d="M55.9086 57.1343C55.2871 57.6006 54.8374 58.1151 54.5358 58.6635C57.38 62.3825 59.457 64.3724 59.4068 68.6614C62.0613 70.673 64.9592 71.7892 66.2028 70.8562C69.3777 68.4744 62.7464 52.0046 55.9086 57.1343Z" fill="#152828"/>
<ellipse cx="74.3707" cy="71.415" rx="5.0395" ry="10.8744" transform="rotate(48.4359 74.3707 71.415)" fill="#BAD3CA"/>
<path d="M55.8767 56.2304C49.0541 61.3802 63.0434 72.3131 66.2113 69.922C69.3791 67.5308 62.6994 51.0806 55.8767 56.2304Z" fill="#BAD3CA"/>
<path d="M81.1844 58.8707L77.5953 58.2025C75.3936 62.8844 78.1164 68.5371 82.4735 68.5235C85.8143 68.1182 86.1453 66.5259 88.2487 63.831C87.1279 61.0639 86.3299 59.7327 83.248 58.1044L81.1844 58.8707Z" fill="#2A5050"/>
<path d="M84.8305 67.821C80.1368 68.0599 78.1162 65.0566 76.8234 61.3286C76.6163 64.808 78.9207 68.581 82.406 68.5193C83.4133 68.486 84.2217 68.1705 84.8305 67.821Z" fill="#468586"/>
<path d="M79.8961 58.4735C79.9205 58.5718 79.9735 58.6615 80.0464 58.7319C81.7531 60.377 81.4697 62.6458 79.4048 62.7269C76.3714 62.7337 76.6265 57.6808 76.6265 57.6808L76.0847 55.7038C76.0128 55.4414 76.1692 55.165 76.4402 55.1403C78.1548 54.9839 79.4097 56.5147 79.8961 58.4735Z" fill="#D2E3DD"/>
<path fill-rule="evenodd" clip-rule="evenodd" d="M77.0012 48.7788C77.0834 49.0854 77.3063 49.3348 77.6018 49.4508L78.4344 49.7776C78.8428 49.938 79.308 49.8133 79.5816 49.4702L80.1392 48.7709C80.3372 48.5227 80.4055 48.1953 80.3233 47.8886L79.8966 46.296C79.8009 45.9389 80.1134 45.6117 80.4549 45.7534C81.5621 46.2128 82.4508 47.1624 82.7848 48.4087C83.2154 50.0159 82.6005 51.6571 81.3567 52.6121L83.9022 62.1118C84.0702 62.7387 84.5696 63.2085 85.0478 63.6473C85.4062 63.9761 85.6783 64.4073 85.8134 64.9116C86.1923 66.3256 85.3516 67.7794 83.9357 68.1588C82.5198 68.5382 81.0648 67.6995 80.6859 66.2855C80.56 65.8158 80.5688 65.3416 80.6886 64.9039C80.8467 64.3258 81.0042 63.718 80.849 63.139L78.2344 53.3809C76.7482 53.1223 75.473 52.0305 75.0574 50.4793C74.714 49.198 75.0353 47.895 75.8099 46.9353C76.0393 46.6511 76.466 46.7813 76.5605 47.1341L77.0012 48.7788ZM82.862 64.1517C82.0618 64.3661 81.5867 65.1877 81.8008 65.9868C82.0149 66.7859 82.8372 67.2599 83.6374 67.0455C84.4376 66.8311 84.9127 66.0094 84.6986 65.2104C84.4844 64.4113 83.6622 63.9373 82.862 64.1517Z" fill="#6F8295"/>
<path d="M75.0315 46.3077C75.4134 45.8345 75.9987 45.6917 76.5048 45.833C76.9909 45.9689 77.3871 46.3564 77.5262 46.8757L77.9668 48.5198L78.7995 48.8467L79.3572 48.1473L78.9305 46.555C78.7899 46.03 78.9441 45.4907 79.305 45.1302C79.6578 44.7778 80.1973 44.6151 80.7315 44.7905L80.838 44.8296L81.0941 44.944C82.3563 45.5524 83.359 46.6879 83.7507 48.1499C84.2261 49.9239 83.681 51.7272 82.4812 52.9466L84.8677 61.8531C84.948 62.1529 85.206 62.4351 85.7243 62.9106C86.2184 63.364 86.5937 63.9595 86.7795 64.6529C87.3015 66.6015 86.1426 68.6027 84.1945 69.1247C82.2464 69.6467 80.2422 68.4931 79.7199 66.5445C79.5469 65.8988 79.5589 65.2436 79.7241 64.6396C79.8943 64.0175 79.9567 63.6739 79.8828 63.398L77.4202 54.2076C75.8475 53.7123 74.5505 52.4512 74.0915 50.738C73.6619 49.1349 74.0653 47.5049 75.0315 46.3077ZM76.5603 47.1345C76.4658 46.7818 76.0397 46.6513 75.8103 46.9351C75.0356 47.8947 74.7141 49.1979 75.0574 50.4792C75.473 52.0304 76.748 53.1222 78.234 53.3809L80.8487 63.1392C81.0038 63.7182 80.8469 64.3258 80.6887 64.9039C80.5689 65.3416 80.56 65.8159 80.6859 66.2857C81.0648 67.6995 82.5198 68.5381 83.9357 68.1588C85.3516 67.7794 86.1923 66.3256 85.8136 64.9117C85.6784 64.4073 85.4064 63.9756 85.048 63.6468C84.5698 63.2081 84.0697 62.7388 83.9017 62.1119L81.3563 52.6121C82.6 51.657 83.2154 50.0158 82.7848 48.4087C82.4508 47.1624 81.5619 46.2126 80.4547 45.7533C80.1132 45.6119 79.8008 45.9391 79.8964 46.2962L80.3231 47.8884C80.4053 48.1951 80.3369 48.5226 80.139 48.7708L79.5812 49.4703C79.3077 49.8132 78.8426 49.9379 78.4342 49.7776L77.6015 49.4508C77.3061 49.3347 77.083 49.0852 77.0008 48.7786L76.5603 47.1345ZM82.862 64.1517C83.6622 63.9373 84.4845 64.4114 84.6986 65.2105C84.9126 66.0095 84.4376 66.8313 83.6375 67.0457C82.8373 67.2601 82.015 66.7859 81.8008 65.9869C81.5867 65.1878 82.0618 64.3661 82.862 64.1517ZM83.1208 65.1176C82.8528 65.1894 82.6959 65.4637 82.7668 65.7281C82.8377 65.9924 83.1107 66.1515 83.3786 66.0798C83.6465 66.008 83.8034 65.7336 83.7327 65.4693C83.6619 65.2049 83.3888 65.0458 83.1208 65.1176Z" fill="#596978"/>
<path d="M80.0535 53.6699L82.2582 61.8982" stroke="#596978" stroke-linecap="round"/>
<path d="M85.2892 62.3179C86.4139 61.0589 87.3258 60.0383 88.5251 61.2064C89.7245 62.3744 88.8127 63.395 87.6879 64.654C86.5631 65.913 85.1143 66.4106 84.4519 65.7655C83.7895 65.1205 84.1644 63.5769 85.2892 62.3179Z" fill="#D2E3DD"/>
<path d="M84.4314 63.5763L87.5687 60.6746C87.5687 60.6746 87.9069 60.7701 87.9884 60.8132C87.1306 63.002 85.6083 64.0309 84.2626 64.0506L84.4314 63.5763Z" fill="#AECAC0"/>
<path d="M84.128 60.1227C85.2659 58.8721 86.1883 57.8582 87.3476 58.9872C88.5069 60.1162 87.5844 61.1301 86.4465 62.3807C85.3086 63.6314 83.8671 64.1398 83.2268 63.5163C82.5866 62.8927 82.99 61.3734 84.128 60.1227Z" fill="#D2E3DD"/>
<path d="M83.3237 61.3966L86.461 58.4949C86.461 58.4949 86.7993 58.5904 86.8807 58.6335C86.0229 60.8223 84.5006 61.8512 83.155 61.8709L83.3237 61.3966Z" fill="#AECAC0"/>
<path d="M83.0203 57.943C84.1582 56.6924 85.0807 55.6785 86.2399 56.8075C87.3992 57.9365 86.4767 58.9504 85.3388 60.2011C84.2009 61.4517 82.7594 61.9601 82.1192 61.3366C81.4789 60.713 81.8824 59.1937 83.0203 57.943Z" fill="#D2E3DD"/>
<path d="M73.9169 33.6825C73.9169 29.6956 70.6849 26.4636 66.698 26.4636V43.0671C70.6849 43.0671 73.9169 39.8351 73.9169 35.8482V33.6825Z" fill="#2A5050"/>
<path d="M13.9998 33.6825C13.9998 29.6956 17.2318 26.4636 21.2187 26.4636V43.0671C17.2318 43.0671 13.9998 39.8351 13.9998 35.8482V33.6825Z" fill="#2A5050"/>
<path d="M69.104 31.878C69.104 49.6114 57.8458 53.8957 43.9581 53.8957C30.0704 53.8957 18.8123 49.6114 18.8123 31.878C18.8123 18.9052 27.6641 9.86035 43.9581 9.86035C57.8458 9.86035 69.104 16.525 69.104 31.878Z" fill="#BAD3CA"/>
<path d="M44.1133 20.863C61.8097 20.863 64.4287 25.177 64.4287 35.115C64.4287 35.2344 64.4255 35.353 64.4238 35.4705C64.3408 26.3902 61.5351 22.4402 44.1133 22.4402C26.5047 22.4402 23.8778 27.8016 23.8008 35.5378C23.7986 35.3983 23.7979 35.2572 23.7979 35.115C23.7979 26.7177 26.2286 20.863 44.1133 20.863Z" fill="#CEE6DD"/>
<path d="M44.1133 49.2898C26.4169 49.2898 23.7979 44.9758 23.7979 35.0378C23.7979 34.9185 23.801 34.7999 23.8027 34.6824C23.8857 43.7626 26.6914 47.7126 44.1133 47.7126C61.7219 47.7126 64.3488 42.3512 64.4258 34.615C64.4279 34.7546 64.4287 34.8956 64.4287 35.0378C64.4287 43.4351 61.998 49.2898 44.1133 49.2898Z" fill="#92B8AA"/>
<path d="M64.4285 35.0955C64.4285 45.9391 56.5582 48.5589 44.1132 48.5589C30.7694 48.5589 23.7979 45.9391 23.7979 35.0955C23.7979 27.1629 26.2282 21.6321 44.1132 21.6321C61.8099 21.6321 64.4285 25.7074 64.4285 35.0955Z" fill="#EFFBF7"/>
<path d="M63.2264 35.0956C63.2264 44.7774 55.8217 47.1165 44.1131 47.1165C31.5589 47.1165 24.9999 44.7774 24.9999 35.0956C24.9999 28.0129 27.2864 23.0747 44.1131 23.0747C60.7627 23.0747 63.2264 26.7134 63.2264 35.0956Z" fill="#2A5050"/>
<path d="M44.113 23.0747C60.7621 23.0747 63.2263 26.7174 63.2263 35.1089C63.2263 35.2095 63.223 35.3096 63.2214 35.4087C63.1432 27.7417 60.5036 24.4068 44.113 24.4067C27.5661 24.4067 25.0807 28.9229 25.0027 35.4429C25.0009 35.3326 24.9998 35.2211 24.9998 35.1089C24.9998 28.0184 27.2868 23.0747 44.113 23.0747Z" fill="#152828"/>
<path d="M44.113 47.0781C27.464 47.0781 24.9998 43.4354 24.9998 35.0439C24.9998 34.9433 25.003 34.8432 25.0046 34.7441C25.0828 42.4112 27.7225 45.7461 44.113 45.7461C60.66 45.7461 63.1453 41.2299 63.2234 34.71C63.2251 34.8202 63.2263 34.9317 63.2263 35.0439C63.2263 42.1345 60.9393 47.0781 44.113 47.0781Z" fill="#468586"/>
<g filter="url(#filter0_f_2158_8310)">
<ellipse cx="35.106" cy="34.6933" rx="3.125" ry="4.92788" fill="#F1F8F4"/>
<ellipse cx="52.894" cy="34.6933" rx="3.125" ry="4.92788" fill="#F1F8F4"/>
</g>
<ellipse cx="35.106" cy="34.6933" rx="3.125" ry="4.92788" fill="#F1F8F4"/>
<ellipse cx="52.894" cy="34.6933" rx="3.125" ry="4.92788" fill="#F1F8F4"/>
<path d="M43.9584 1.82935C59.8216 1.82935 66.3237 10.9735 68.1275 23.0928C68.044 22.1761 68.2595 23.9801 68.1275 23.0928C66.8341 22.0678 65.7781 23.8348 64.3201 22.9875C58.6357 19.6843 51.741 17.7932 43.9584 17.7932C35.2742 17.7932 28.443 19.9251 23.0407 23.2767C21.785 24.0557 20.9294 22.1006 19.8228 23C19.6909 23.9338 19.9082 22.0693 19.8228 23C21.3351 12.2943 26.3062 1.8294 43.9584 1.82935Z" fill="#F6CA72"/>
<mask id="mask0_2158_8310" style="mask-type:alpha" maskUnits="userSpaceOnUse" x="19" y="1" width="50" height="23">
<path d="M43.9584 1.82935C59.7811 1.82935 66.2904 10.9269 68.1136 23C68.0271 22.0513 68.2521 23.9171 68.1136 23C66.9758 22.0983 66.1085 24.0622 64.8428 23.2973C59.0604 19.8028 51.9811 17.7932 43.9584 17.7932C35.6237 17.7932 28.9958 19.757 23.6999 22.878C22.1953 23.7648 21.121 21.9449 19.8228 23C19.6909 23.9338 19.9082 22.0693 19.8228 23C21.3351 12.2943 26.3062 1.8294 43.9584 1.82935Z" fill="#F6CA72"/>
</mask>
<g mask="url(#mask0_2158_8310)">
<path d="M38.6168 1.91313C38.6633 0.843353 39.5441 0 40.6149 0H46.785C47.8558 0 48.7366 0.843353 48.7831 1.91313L49.7 23H37.7L38.6168 1.91313Z" fill="#FBE5B9"/>
<path d="M55.7 17C55.7 15.8954 56.5954 15 57.7 15H61.7C62.8045 15 63.7 15.8954 63.7 17V25H55.7V17Z" fill="#FBE5B9"/>
<path d="M23.7 17C23.7 15.8954 24.5954 15 25.7 15H29.7C30.8045 15 31.7 15.8954 31.7 17V25H23.7V17Z" fill="#FBE5B9"/>
</g>
<path d="M38.6168 1.91313C38.6633 0.843353 39.5441 0 40.6149 0H46.785C47.8558 0 48.7366 0.843353 48.7831 1.91313L49.7 23H37.7L38.6168 1.91313Z" fill="#F8D795"/>
<path d="M68.4 25.6502L69.4501 25.3101L68.05 24.3101L68.4 25.6502Z" fill="#9D7930"/>
<path d="M19.5799 25.6502L18.5299 25.3101L19.9299 24.3101L19.5799 25.6502Z" fill="#9D7930"/>
<path d="M44.99 18.6509C58.9308 18.6589 70.9895 18.8742 70.99 22.6499C70.99 24.3098 69.45 25.3101 69.45 25.3101C67.505 24.8238 56.7276 23.7166 44.99 23.6558C44.6577 23.6528 44.3243 23.6499 43.99 23.6499C31.8703 23.6499 20.5301 24.8101 18.53 25.3101C18.53 25.3101 16.99 24.3098 16.99 22.6499C16.9905 18.7841 29.6309 18.6499 43.99 18.6499C44.3243 18.6499 44.6577 18.6507 44.99 18.6509Z" fill="#070D0D"/>
<path d="M44.99 17.6548C58.9308 17.7072 70.9895 18.8741 70.99 22.6499C70.99 23.8098 70.49 24.8101 69.45 25.3101C69.45 23.8521 56.6021 22.7183 44.99 22.6558V22.6577C44.6577 22.6537 44.3243 22.6499 43.99 22.6499C32.1287 22.6499 18.53 23.8101 18.53 25.3101C17.49 24.8101 16.99 23.8098 16.99 22.6499C16.9905 18.7841 29.6309 17.6499 43.99 17.6499C44.3243 17.6499 44.6577 17.6535 44.99 17.6548Z" fill="#FBE5B9"/>
<ellipse cx="44" cy="106.861" rx="13.803" ry="3.00065" fill="#607C7F" fill-opacity="0.2"/>
<defs>
<filter id="filter0_f_2158_8310" x="28.6156" y="26.4" width="30.7689" height="16.5865" filterUnits="userSpaceOnUse" color-interpolation-filters="sRGB">
<feFlood flood-opacity="0" result="BackgroundImageFix"/>
<feBlend mode="normal" in="SourceGraphic" in2="BackgroundImageFix" result="shape"/>
<feGaussianBlur stdDeviation="1.68269" result="effect1_foregroundBlur_2158_8310"/>
</filter>
</defs>
</svg>
