<svg width="90" height="110" viewBox="0 0 90 110" fill="none" xmlns="http://www.w3.org/2000/svg">
<path d="M33.7025 86.2393C33.7025 83.8607 54.1561 83.8607 54.1561 86.2393C54.1561 94.4999 47.3051 97.8795 43.7025 97.8795C40.0999 97.8795 33.7024 94.7293 33.7025 86.2393Z" fill="#819D92"/>
<path d="M33.5026 81.5679H54.4374L53.6328 85.6008C53.6328 85.6008 50.5873 90.9525 43.97 90.9525C37.3526 90.9525 34.3072 85.6008 34.3072 85.6008L33.5026 81.5679Z" fill="#070D0D"/>
<path d="M33.8636 83.3728C36.7758 88.2335 50.5323 88.8111 54.0766 83.3728L53.5472 86.0197C53.5472 86.0197 50.6623 91.3264 44.0449 91.3264C37.4276 91.3264 34.3821 85.9748 34.3821 85.9748L33.8636 83.3728Z" fill="#0E1B1B"/>
<path d="M34.2728 85.4187C39.9276 91.7954 47.9406 92.1564 53.67 85.4187L53.5473 86.0203C53.5473 86.0203 50.6168 91.4827 43.9247 91.3383C37.2326 91.1938 34.3811 85.9722 34.3811 85.9722L34.2728 85.4187Z" fill="#2A5050"/>
<path d="M29.7794 57.4143L34.8609 55.7718C35.4345 55.5864 35.9525 55.2603 36.3676 54.8233L36.878 54.2861H43.9766H50.9644L51.6191 54.9144C52.0133 55.2927 52.4883 55.5766 53.0081 55.7446L58.1737 57.4143C58.1737 57.4143 65.7536 85.5681 43.9766 85.5681C22.1995 85.5681 29.7794 57.4143 29.7794 57.4143Z" fill="#A9C1B8"/>
<path d="M37.6461 51.8794H50.1589L51.3621 55.4889C51.3621 55.4889 51.3621 59.0983 43.9025 59.0983C36.443 59.0983 36.443 55.4889 36.443 55.4889L37.6461 51.8794Z" fill="#0E1B1B"/>
<path d="M36.5633 55.1282C36.5633 55.1282 37.6461 58.2564 43.9025 58.2564C50.2792 58.1361 51.2418 55.1282 51.2418 55.1282L51.3621 55.4891C51.3621 55.4891 51.3621 59.0986 43.9025 59.0986C36.443 59.0986 36.443 55.4891 36.443 55.4891L36.5633 55.1282Z" fill="#2A5050"/>
<path d="M37.6461 51.8794H50.1589L50.9602 54.2857C47.8729 55.4889 40.2931 55.3685 36.8448 54.2857L37.6461 51.8794Z" fill="#070D0D"/>
<path d="M25.6362 63.373L31.6541 66.278L25.7282 78.5539L19.7104 75.649L25.6362 63.373Z" fill="#0E1B1B"/>
<path d="M25.6362 63.373L31.6541 66.278L30.007 69.6983C27.6007 71.2624 23.4031 72.053 21.9349 71.0405L25.6362 63.373Z" fill="#070D0D"/>
<path d="M19.5025 75.9032L20.5298 73.9501C22.2228 74.4667 24.1873 76.347 26.5569 75.2843C26.845 75.1551 27.085 75.1831 27.2783 75.3404L26.2401 77.4673L19.5025 75.9032Z" fill="#2A5050"/>
<path d="M18.8406 74.8187C20.8928 73.5047 23.355 77.4419 26.5567 76.0061C29.7585 74.5702 27.021 92.5519 20.2222 91.5057C13.4235 90.4594 16.7884 76.1327 18.8406 74.8187Z" fill="#819D92"/>
<path d="M18.2856 96.703C18.652 94.5761 18.9491 92.852 17.2003 92.611C15.4515 92.37 15.1545 94.0942 14.788 96.221C14.4216 98.3479 14.9075 100.18 15.8733 100.313C16.8391 100.446 17.9191 98.8298 18.2856 96.703Z" fill="#A9C1B8"/>
<path d="M17.6616 98.9779L18.8492 93.2055C18.8451 93.0245 18.6486 92.8924 18.6486 92.8924C17.0257 95.3839 16.9068 97.7169 17.6616 98.9779Z" fill="#8EADA1"/>
<path d="M20.9057 97.9166C21.2722 95.7898 21.5692 94.0656 19.9091 93.8368C18.2489 93.608 17.9518 95.3322 17.5854 97.459C17.2189 99.5859 17.6652 101.412 18.582 101.539C19.4989 101.665 20.5393 100.043 20.9057 97.9166Z" fill="#A9C1B8"/>
<path d="M20.3929 99.3361L21.5806 93.5637C21.5764 93.3827 21.3799 93.2505 21.3799 93.2505C19.757 95.742 19.6381 98.0751 20.3929 99.3361Z" fill="#8EADA1"/>
<path d="M23.707 97.4601C24.1919 95.3534 24.5849 93.6455 22.9972 93.3243C21.4095 93.0031 21.0165 94.711 20.5317 96.8177C20.0468 98.9245 20.3646 100.776 21.2415 100.954C22.1183 101.131 23.2222 99.5669 23.707 97.4601Z" fill="#A9C1B8"/>
<path d="M15.6569 92.2058L12.9048 89.8014C15.2159 85.1665 21.3455 83.7973 24.0387 87.228C25.7936 90.1036 24.9413 91.4369 24.1299 94.7615C21.2609 95.5984 18.595 95.0825 15.4036 93.6723L15.6569 92.2058Z" fill="#0E1B1B"/>
<path d="M24.9612 89.4001C22.2361 85.5652 18.6332 85.9366 14.9027 87.2346C17.5071 84.9128 21.9804 84.4585 24.0948 87.2344C24.6204 88.1186 24.858 88.705 24.9612 89.4001Z" fill="#070D0D"/>
<path d="M15.4996 92.2634C18.0026 91.6594 19.011 89.0796 17.4447 87.8614C14.5309 85.5951 12.1766 90.532 11.4917 91.8078C10.8069 93.0837 10.7799 94.3421 11.5838 94.8739C12.3878 95.4057 14.051 94.6487 15.4996 92.2634Z" fill="#A9C1B8"/>
<path d="M34.3959 57.7621C40.4456 63.8118 25.0644 72.7116 22.2554 69.9026C19.4464 67.0936 28.3462 51.7124 34.3959 57.7621Z" fill="#819D92"/>
<path d="M60.3824 60.8008L59.4033 65.6958L59.4033 70.182L66.0306 78.394L71.2206 74.1942L60.3824 60.8008Z" fill="#0E1B1B"/>
<path d="M55.9085 57.2049C55.287 57.6711 54.8373 58.1856 54.5356 58.734C57.3798 62.4531 59.4569 64.443 59.4067 68.732C62.0612 70.7435 64.9591 71.8597 66.2027 70.9268C69.3776 68.5449 62.7462 52.0752 55.9085 57.2049Z" fill="#070D0D"/>
<ellipse cx="74.3707" cy="71.4856" rx="5.0395" ry="10.8744" transform="rotate(48.4359 74.3707 71.4856)" fill="#819D92"/>
<path d="M55.8767 56.3012C49.0541 61.451 63.0434 72.3839 66.2113 69.9928C69.3791 67.6016 62.6994 51.1514 55.8767 56.3012Z" fill="#819D92"/>
<path d="M81.1844 58.941L77.5953 58.2728C75.3936 62.9548 78.1164 68.6074 82.4735 68.5939C85.8143 68.1885 86.1453 66.5962 88.2487 63.9013C87.1279 61.1342 86.3299 59.803 83.248 58.1747L81.1844 58.941Z" fill="#0E1B1B"/>
<path d="M84.8305 67.8913C80.1368 68.1302 78.1162 65.127 76.8234 61.3989C76.6163 64.8783 78.9207 68.6513 82.406 68.5897C83.4133 68.5563 84.2217 68.2408 84.8305 67.8913Z" fill="#2A5050"/>
<path d="M79.932 58.6955C81.7646 60.3474 81.5147 62.7143 79.4048 62.7972C76.3714 62.804 76.6265 57.7511 76.6265 57.7511L75.9542 55.2979C77.9629 54.7632 79.4326 56.4821 79.932 58.6955Z" fill="#A9C1B8"/>
<path fill-rule="evenodd" clip-rule="evenodd" d="M77.5011 49.8491C77.5833 50.1557 77.8062 50.4051 78.1017 50.5211L78.9342 50.8479C79.3427 51.0083 79.8079 50.8836 80.0815 50.5405L80.6391 49.8412C80.837 49.593 80.9053 49.2656 80.8232 48.959L80.3964 47.3663C80.3007 47.0092 80.6132 46.6821 80.9548 46.8237C82.062 47.2831 82.9507 48.2327 83.2846 49.479C83.7153 51.0862 83.1003 52.7274 81.8566 53.6824L84.402 63.1821C84.57 63.8091 85.0695 64.2788 85.5477 64.7176C85.9061 65.0464 86.1782 65.4776 86.3133 65.9819C86.6922 67.3959 85.8515 68.8497 84.4356 69.2291C83.0196 69.6085 81.5647 68.7698 81.1858 67.3559C81.0599 66.8861 81.0687 66.4119 81.1884 65.9742C81.3466 65.3961 81.5041 64.7883 81.3489 64.2093L78.7342 54.4512C77.248 54.1926 75.9729 53.1008 75.5572 51.5496C75.2139 50.2683 75.5352 48.9653 76.3098 48.0056C76.5392 47.7214 76.9659 47.8516 77.0604 48.2044L77.5011 49.8491ZM83.3619 65.222C82.5617 65.4364 82.0865 66.258 82.3007 67.0571C82.5148 67.8562 83.3371 68.3302 84.1372 68.1158C84.9374 67.9014 85.4125 67.0797 85.1984 66.2807C84.9843 65.4816 84.1621 65.0076 83.3619 65.222Z" fill="#6F8295"/>
<path d="M75.5314 47.378C75.9133 46.9048 76.4986 46.762 77.0046 46.9033C77.4908 47.0392 77.8869 47.4267 78.0261 47.946L78.4666 49.5901L79.2993 49.917L79.857 49.2176L79.4304 47.6253C79.2897 47.1003 79.444 46.561 79.8049 46.2005C80.1577 45.8481 80.6972 45.6855 81.2314 45.8608L81.3379 45.9L81.594 46.0143C82.8561 46.6228 83.8589 47.7582 84.2506 49.2202C84.7259 50.9943 84.1808 52.7976 82.981 54.0169L85.3675 62.9234C85.4479 63.2232 85.7059 63.5054 86.2241 63.9809C86.7183 64.4343 87.0936 65.0298 87.2794 65.7232C87.8014 67.6718 86.6425 69.673 84.6944 70.195C82.7463 70.717 80.742 69.5634 80.2198 67.6148C80.0468 66.9691 80.0588 66.3139 80.224 65.7099C80.3942 65.0879 80.4565 64.7442 80.3827 64.4684L77.9201 55.2779C76.3474 54.7826 75.0504 53.5215 74.5913 51.8084C74.1618 50.2052 74.5652 48.5752 75.5314 47.378ZM77.0602 48.2048C76.9657 47.8521 76.5396 47.7216 76.3101 48.0054C75.5355 48.965 75.2139 50.2682 75.5573 51.5495C75.9729 53.1007 77.2478 54.1925 78.7339 54.4512L81.3486 64.2095C81.5037 64.7885 81.3467 65.3961 81.1886 65.9742C81.0688 66.4119 81.0599 66.8862 81.1858 67.356C81.5647 68.7698 83.0197 69.6085 84.4356 69.2291C85.8515 68.8497 86.6922 67.3959 86.3135 65.982C86.1783 65.4776 85.9063 65.0459 85.5479 64.7171C85.0697 64.2784 84.5696 63.8091 84.4016 63.1822L81.8561 53.6824C83.0999 52.7273 83.7153 51.0861 83.2847 49.479C82.9507 48.2327 82.0617 47.283 80.9545 46.8236C80.6131 46.6822 80.3006 47.0094 80.3963 47.3665L80.823 48.9587C80.9051 49.2654 80.8367 49.593 80.6388 49.8412L80.0811 50.5406C79.8075 50.8835 79.3424 51.0082 78.9341 50.8479L78.1014 50.5211C77.806 50.405 77.5829 50.1555 77.5007 49.8489L77.0602 48.2048ZM83.3619 65.222C84.1621 65.0076 84.9844 65.4817 85.1985 66.2808C85.4125 67.0798 84.9375 67.9016 84.1373 68.116C83.3372 68.3304 82.5149 67.8562 82.3007 67.0572C82.0866 66.2581 82.5617 65.4364 83.3619 65.222ZM83.6207 66.1879C83.3527 66.2597 83.1958 66.534 83.2666 66.7984C83.3376 67.0627 83.6106 67.2219 83.8785 67.1501C84.1464 67.0783 84.3033 66.8039 84.2326 66.5396C84.1617 66.2752 83.8887 66.1161 83.6207 66.1879Z" fill="#596978"/>
<path d="M80.5533 54.7402L82.7581 62.9685" stroke="#596978" stroke-linecap="round"/>
<path d="M85.289 62.3885C86.4138 61.1295 87.3256 60.1089 88.525 61.2769C89.7244 62.445 88.8125 63.4656 87.6877 64.7246C86.5629 65.9835 85.1142 66.4812 84.4518 65.8361C83.7894 65.191 84.1642 63.6474 85.289 62.3885Z" fill="#A9C1B8"/>
<path d="M84.4312 63.6469L87.5686 60.7452C87.5686 60.7452 87.9068 60.8407 87.9883 60.8837C87.1305 63.0726 85.6082 64.1015 84.2625 64.1212L84.4312 63.6469Z" fill="#8EADA1"/>
<path d="M84.128 60.193C85.2659 58.9424 86.1883 57.9285 87.3476 59.0575C88.5069 60.1865 87.5844 61.2004 86.4465 62.4511C85.3086 63.7017 83.8671 64.2101 83.2268 63.5866C82.5866 62.963 82.99 61.4437 84.128 60.193Z" fill="#A9C1B8"/>
<path d="M83.3237 61.467L86.461 58.5652C86.461 58.5652 86.7993 58.6608 86.8807 58.7038C86.0229 60.8926 84.5006 61.9215 83.155 61.9412L83.3237 61.467Z" fill="#8EADA1"/>
<path d="M83.0202 58.0134C84.1581 56.7627 85.0805 55.7488 86.2398 56.8778C87.3991 58.0068 86.4766 59.0207 85.3387 60.2714C84.2008 61.522 82.7593 62.0304 82.1191 61.4069C81.4788 60.7834 81.8823 59.264 83.0202 58.0134Z" fill="#A9C1B8"/>
<path d="M73.9169 33.6823C73.9169 29.6954 70.6849 26.4634 66.698 26.4634V43.0669C70.6849 43.0669 73.9169 39.8349 73.9169 35.848V33.6823Z" fill="#0E1B1B"/>
<path d="M13.9998 33.6823C13.9998 29.6954 17.2318 26.4634 21.2187 26.4634V43.0669C17.2318 43.0669 13.9998 39.8349 13.9998 35.848V33.6823Z" fill="#0E1B1B"/>
<path d="M69.104 31.8778C69.104 49.6112 57.8458 53.8955 43.9581 53.8955C30.0704 53.8955 18.8123 49.6112 18.8123 31.8778C18.8123 18.905 27.6641 9.86011 43.9581 9.86011C57.8458 9.86011 69.104 16.5247 69.104 31.8778Z" fill="#819D92"/>
<path d="M44.1133 20.8628C61.8097 20.8628 64.4287 25.1768 64.4287 35.1147C64.4287 35.2341 64.4255 35.3527 64.4238 35.4702C64.3408 26.39 61.5351 22.44 44.1133 22.4399C26.5047 22.4399 23.8778 27.8014 23.8008 35.5376C23.7986 35.398 23.7979 35.257 23.7979 35.1147C23.7979 26.7175 26.2286 20.8628 44.1133 20.8628Z" fill="#92ADA3"/>
<path d="M44.1133 49.2895C26.4169 49.2895 23.7979 44.9756 23.7979 35.0376C23.7979 34.9182 23.801 34.7996 23.8027 34.6821C23.8857 43.7624 26.6914 47.7124 44.1133 47.7124C61.7219 47.7124 64.3488 42.351 64.4258 34.6147C64.4279 34.7543 64.4287 34.8954 64.4287 35.0376C64.4287 43.4348 61.998 49.2896 44.1133 49.2895Z" fill="#6D8D81"/>
<path d="M64.4285 35.0953C64.4285 45.9389 56.5582 48.5587 44.1132 48.5587C30.7694 48.5587 23.7979 45.9389 23.7979 35.0953C23.7979 27.1626 26.2282 21.6318 44.1132 21.6318C61.8099 21.6318 64.4285 25.7071 64.4285 35.0953Z" fill="#A9C1B8"/>
<path d="M63.2264 35.0954C63.2264 44.7772 55.8217 47.1163 44.1131 47.1163C31.5589 47.1163 24.9999 44.7772 24.9999 35.0954C24.9999 28.0127 27.2864 23.0745 44.1131 23.0745C60.7627 23.0745 63.2264 26.7131 63.2264 35.0954Z" fill="#0E1B1B"/>
<path d="M44.113 23.0745C60.7621 23.0745 63.2263 26.7171 63.2263 35.1086C63.2263 35.2093 63.223 35.3094 63.2214 35.4084C63.1432 27.7414 60.5036 24.4065 44.113 24.4065C27.5661 24.4065 25.0807 28.9227 25.0027 35.4426C25.0009 35.3324 24.9998 35.2209 24.9998 35.1086C24.9998 28.0181 27.2868 23.0745 44.113 23.0745Z" fill="#070D0D"/>
<path d="M44.113 47.0779C27.464 47.0779 24.9998 43.4352 24.9998 35.0437C24.9998 34.943 25.003 34.843 25.0046 34.7439C25.0828 42.4109 27.7225 45.7458 44.113 45.7458C60.66 45.7458 63.1453 41.2297 63.2234 34.7097C63.2251 34.82 63.2263 34.9315 63.2263 35.0437C63.2263 42.1342 60.9393 47.0779 44.113 47.0779Z" fill="#2A5050"/>
<g filter="url(#filter0_f_2158_8523)">
<ellipse cx="35.106" cy="34.6928" rx="3.125" ry="4.92788" fill="#F1F8F4"/>
<ellipse cx="52.894" cy="34.6928" rx="3.125" ry="4.92788" fill="#F1F8F4"/>
</g>
<ellipse cx="35.106" cy="34.6928" rx="3.125" ry="4.92788" fill="#F1F8F4"/>
<ellipse cx="52.894" cy="34.6928" rx="3.125" ry="4.92788" fill="#F1F8F4"/>
<path d="M43.9584 1.82935C59.8216 1.82935 66.3237 10.9735 68.1275 23.0928C68.044 22.1761 68.2595 23.9801 68.1275 23.0928C66.8341 22.0678 65.7781 23.8348 64.3201 22.9875C58.6357 19.6843 51.741 17.7932 43.9584 17.7932C35.2742 17.7932 28.443 19.9251 23.0407 23.2767C21.785 24.0557 20.9294 22.1006 19.8228 23C19.6909 23.9338 19.9082 22.0693 19.8228 23C21.3351 12.2943 26.3062 1.8294 43.9584 1.82935Z" fill="#F6CA72"/>
<mask id="mask0_2158_8523" style="mask-type:alpha" maskUnits="userSpaceOnUse" x="19" y="1" width="50" height="23">
<path d="M43.9584 1.82935C59.7811 1.82935 66.2904 10.9269 68.1136 23C68.0271 22.0513 68.2521 23.9171 68.1136 23C66.9758 22.0983 66.1085 24.0622 64.8428 23.2973C59.0604 19.8028 51.9811 17.7932 43.9584 17.7932C35.6237 17.7932 28.9958 19.757 23.6999 22.878C22.1953 23.7648 21.121 21.9449 19.8228 23C19.6909 23.9338 19.9082 22.0693 19.8228 23C21.3351 12.2943 26.3062 1.8294 43.9584 1.82935Z" fill="#F6CA72"/>
</mask>
<g mask="url(#mask0_2158_8523)">
<path d="M38.6168 1.91313C38.6633 0.843353 39.5441 0 40.6149 0H46.785C47.8558 0 48.7366 0.843353 48.7831 1.91313L49.7 23H37.7L38.6168 1.91313Z" fill="#FBE5B9"/>
<path d="M55.7 17C55.7 15.8954 56.5954 15 57.7 15H61.7C62.8045 15 63.7 15.8954 63.7 17V25H55.7V17Z" fill="#FBE5B9"/>
<path d="M23.7 17C23.7 15.8954 24.5954 15 25.7 15H29.7C30.8045 15 31.7 15.8954 31.7 17V25H23.7V17Z" fill="#FBE5B9"/>
</g>
<path d="M38.6168 1.91313C38.6633 0.843353 39.5441 0 40.6149 0H46.785C47.8558 0 48.7366 0.843353 48.7831 1.91313L49.7 23H37.7L38.6168 1.91313Z" fill="#F8D795"/>
<path d="M68.4 25.6502L69.4501 25.3101L68.05 24.3101L68.4 25.6502Z" fill="#9D7930"/>
<path d="M19.5799 25.6502L18.5299 25.3101L19.9299 24.3101L19.5799 25.6502Z" fill="#9D7930"/>
<path d="M44.99 18.6509C58.9308 18.6589 70.9895 18.8742 70.99 22.6499C70.99 24.3098 69.45 25.3101 69.45 25.3101C67.505 24.8238 56.7276 23.7166 44.99 23.6558C44.6577 23.6528 44.3243 23.6499 43.99 23.6499C31.8703 23.6499 20.5301 24.8101 18.53 25.3101C18.53 25.3101 16.99 24.3098 16.99 22.6499C16.9905 18.7841 29.6309 18.6499 43.99 18.6499C44.3243 18.6499 44.6577 18.6507 44.99 18.6509Z" fill="#070D0D"/>
<path d="M44.99 17.6548C58.9308 17.7072 70.9895 18.8741 70.99 22.6499C70.99 23.8098 70.49 24.8101 69.45 25.3101C69.45 23.8521 56.6021 22.7183 44.99 22.6558V22.6577C44.6577 22.6537 44.3243 22.6499 43.99 22.6499C32.1287 22.6499 18.53 23.8101 18.53 25.3101C17.49 24.8101 16.99 23.8098 16.99 22.6499C16.9905 18.7841 29.6309 17.6499 43.99 17.6499C44.3243 17.6499 44.6577 17.6535 44.99 17.6548Z" fill="#FBE5B9"/>
<ellipse cx="44" cy="106.931" rx="13.803" ry="3.00065" fill="#445556"/>
<defs>
<filter id="filter0_f_2158_8523" x="28.6156" y="26.3995" width="30.7689" height="16.5865" filterUnits="userSpaceOnUse" color-interpolation-filters="sRGB">
<feFlood flood-opacity="0" result="BackgroundImageFix"/>
<feBlend mode="normal" in="SourceGraphic" in2="BackgroundImageFix" result="shape"/>
<feGaussianBlur stdDeviation="1.68269" result="effect1_foregroundBlur_2158_8523"/>
</filter>
</defs>
</svg>
