<svg width="88" height="101" viewBox="0 0 88 101" fill="none" xmlns="http://www.w3.org/2000/svg">
<path d="M33.7024 76.3794C33.7024 74.0008 54.156 74.0008 54.156 76.3794C54.156 84.64 47.305 88.0197 43.7024 88.0197C40.0998 88.0197 33.7023 84.8695 33.7024 76.3794Z" fill="#819D92"/>
<path d="M33.5024 71.7083H54.4373L53.6327 75.7412C53.6327 75.7412 50.5872 81.0928 43.9699 81.0928C37.3525 81.0928 34.307 75.7412 34.307 75.7412L33.5024 71.7083Z" fill="#070D0D"/>
<path d="M33.8635 73.5132C36.7757 78.3739 50.5322 78.9514 54.0765 73.5132L53.5471 76.1601C53.5471 76.1601 50.6621 81.4668 44.0448 81.4668C37.4275 81.4668 34.382 76.1152 34.382 76.1152L33.8635 73.5132Z" fill="#0E1B1B"/>
<path d="M34.2727 75.5591C39.9275 81.9358 47.9405 82.2967 53.6699 75.5591L53.5472 76.1607C53.5472 76.1607 50.6167 81.6231 43.9246 81.4787C37.2325 81.3342 34.381 76.1125 34.381 76.1125L34.2727 75.5591Z" fill="#2A5050"/>
<path d="M29.7792 47.5542L34.8608 45.9117C35.4344 45.7263 35.9523 45.4002 36.3675 44.9632L36.8778 44.426H43.9764H50.9643L51.619 45.0543C52.0132 45.4326 52.4881 45.7165 53.008 45.8845L58.1736 47.5542C58.1736 47.5542 65.7535 75.708 43.9764 75.708C22.1994 75.708 29.7792 47.5542 29.7792 47.5542Z" fill="#A9C1B8"/>
<path d="M37.646 42.0198H50.1588L51.362 45.6292C51.362 45.6292 51.362 49.2387 43.9024 49.2387C36.4429 49.2387 36.4429 45.6292 36.4429 45.6292L37.646 42.0198Z" fill="#0E1B1B"/>
<path d="M36.5632 45.2686C36.5632 45.2686 37.646 48.3968 43.9024 48.3968C50.2791 48.2764 51.2416 45.2686 51.2416 45.2686L51.362 45.6295C51.362 45.6295 51.362 49.239 43.9024 49.239C36.4429 49.239 36.4429 45.6295 36.4429 45.6295L36.5632 45.2686Z" fill="#2A5050"/>
<path d="M37.646 42.0198H50.1588L50.9601 44.4261C47.8728 45.6292 40.2929 45.5089 36.8447 44.4261L37.646 42.0198Z" fill="#070D0D"/>
<path d="M58.5057 68.8735C58.5057 76.8832 52.0126 83.3763 44.0029 83.3763C35.9932 83.3763 29.5 76.8832 29.5 68.8735C29.5 60.8638 35.9932 54.3706 44.0029 54.3706C52.0126 54.3706 58.5057 60.8638 58.5057 68.8735Z" fill="#A9CADF"/>
<path d="M42.8662 59.4075C44.1888 58.5009 43.5439 56.3356 42.7811 55.0961C42.5856 54.7784 42.2021 54.6516 41.8377 54.7313L38.0603 55.5573C37.9269 55.5865 37.8009 55.6427 37.6901 55.7224L34.8904 57.7359L32.49 60.0073C32.4239 60.0698 32.3666 60.1411 32.3198 60.2192L31.0583 62.3218C30.9492 62.5036 30.902 62.7151 30.9132 62.9269C31.0013 64.5979 30.7789 67.428 31.3904 68.6016C32.0873 69.9392 32.8773 70.1692 33.0677 70.9001C33.2855 71.7359 32.8501 71.5269 32.8501 72.5717C32.8501 73.6165 33.2855 73.6165 34.3743 74.4523C35.2929 75.1575 36.9736 79.0625 37.7198 81.1573C37.8105 81.412 37.9957 81.6228 38.2394 81.7397L40.0355 82.6016C39.7452 81.6961 38.9033 78.924 38.7291 77.5866C38.5114 75.915 41.1243 74.0344 40.6888 72.7807C40.2873 71.6248 38.0759 72.1538 38.0759 70.9001C38.0759 69.6463 37.721 69.8105 34.8904 69.6016C32.0597 69.3926 32.8501 66.2822 34.3743 66.721C36.5517 67.3478 35.0275 65.8851 36.3339 64.6314C37.6404 63.3777 40.6888 64.2135 39.3823 61.706C38.0759 59.1986 36.3339 61.915 35.6807 60.4523C35.2853 59.567 37.4226 58.3628 38.9468 58.5717C40.471 58.7807 40.7253 60.875 42.8662 59.4075Z" fill="#709B67"/>
<path d="M46.7855 57.7359C46.3592 57.1904 47.5462 56.0599 48.392 55.435C48.6891 55.2155 49.0861 55.2239 49.3993 55.4196L52.7938 57.5412C52.858 57.5813 52.9174 57.6286 52.9709 57.6821L56.7235 61.4346C56.8332 61.5444 56.9159 61.6782 56.965 61.8255L58.2319 65.6263C58.3317 65.9254 58.2809 66.2542 58.0421 66.4602C57.7525 66.71 57.3291 66.9963 56.8904 67.1016C56.4058 67.2178 55.9612 67.5396 55.6621 67.8023C55.4079 68.0255 55.3348 68.3816 55.3454 68.7197C55.3644 69.3256 55.2397 70.4033 54.4065 71.7359C53.1001 73.8254 52.4468 77.1687 50.4872 76.9598C48.5275 76.7508 50.4951 71.5887 49.3984 70.2732C48.5275 69.2284 47.221 70.2732 45.9146 69.0195C44.8043 67.954 45.0702 66.124 46.3501 65.0493C48.092 63.5866 52.6646 65.2583 52.8823 63.7956C53.1001 62.3329 50.9791 62.1016 49.8904 62.1016C49.0194 62.1016 47.6807 61.7657 47.3904 62.6016C46.9889 63.7574 45.1387 63.6016 45.2613 62.5419C45.4549 60.8702 49.632 59.9951 48.8904 58.5717C48.4549 57.7359 47.6565 58.8503 46.7855 57.7359Z" fill="#709B67"/>
<path d="M42.4307 54.6016C43.3017 55.6463 44.3904 58.3628 42.8662 59.4075C41.1242 60.6016 40.471 58.7807 38.9468 58.5717C37.4226 58.3628 35.6001 59.0568 35.8904 60.1016C36.3193 61.645 38.2964 59.6218 39.3823 61.706C40.4682 63.7902 37.4768 63.227 36.3339 64.6314C35.6807 65.4341 35.8904 66.843 34.3743 66.721C32.8904 66.6016 32.0597 69.3926 34.8904 69.6016C36.8904 69.7492 37.8904 69.6016 38.3904 71.1016C38.7868 72.291 40.2873 71.6248 40.6888 72.7807C41.1243 74.0344 38.5114 75.915 38.7291 77.5866C38.9033 78.924 39.7452 81.6961 40.0355 82.6016L38.2394 81.7397C37.9957 81.6228 37.8105 81.412 37.7198 81.1573C36.9736 79.0625 35.2929 75.1575 34.3743 74.4523C33.2855 73.6165 32.8501 73.6165 32.8501 72.5717C32.8501 71.5269 33.1081 71.4374 32.8904 70.6016C32.7 69.8707 32.0873 69.9392 31.3904 68.6016C30.7372 67.3478 31.0355 64.2036 30.8904 62.6016M48.8904 55.1016C48.1646 55.5195 46.2832 56.6016 46.7855 57.7359C47.2879 58.8702 48.4393 57.7359 48.8904 58.6016C49.632 60.0249 45.9225 60.5051 45.3904 62.1016C44.8904 63.6016 46.7855 64.1016 47.3904 62.6016C47.7213 61.781 50.3904 62.1016 50.3904 62.1016C50.3904 62.1016 53.1001 62.3329 52.8823 63.7956C52.6135 65.6016 48.092 63.5866 46.3501 65.0493C45.0702 66.124 44.8043 67.954 45.9146 69.0195C47.221 70.2732 48.5275 69.2284 49.3984 70.2732C50.4951 71.5887 48.5275 76.7508 50.4872 76.9598C52.4468 77.1687 53.0839 74.1911 54.3904 72.1016C55.6968 70.012 54.8904 69.1016 55.2775 68.1837C55.6131 67.3878 56.0194 67.3105 56.8904 67.1016C57.5872 66.9344 58.2452 66.3105 58.3904 66.1016" stroke="#4E8344"/>
<ellipse cx="44.0029" cy="68.8735" rx="14.5029" ry="14.5029" stroke="#4E8344"/>
<rect x="23.7869" y="54.0298" width="6.67546" height="13.6174" transform="rotate(19.4736 23.7869 54.0298)" fill="#2A5050"/>
<path d="M30.0812 56.2553L25.5416 69.0937L20.5107 67.3147L19.0691 67.1436L19.8753 65.0916C19.8755 65.0916 19.8758 65.0917 19.876 65.0917L23.7875 54.0299L30.0812 56.2553Z" fill="#0E1B1B"/>
<path d="M22.74 56.9991L21.5449 60.3724C21.4271 62.3617 22.2939 63.736 23.2293 64.0444C24.4203 64.437 26.1543 63.7677 27.7707 62.8011L29.0404 59.2272L22.74 56.9991Z" fill="#070D0D"/>
<path d="M19.0686 67.1428L19.8749 65.0909C21.6125 65.4184 23.5091 67.3669 26.0056 65.7557C27.4754 64.4823 26.7281 65.5641 26.7281 65.7323L25.9301 67.958L19.0686 67.1428Z" fill="#2A5050"/>
<path d="M18.1121 67.1272C19.1939 64.3628 25.4014 69.8426 26.4582 66.5003C29.8134 69.9804 33.6137 76.9933 30.0818 79.91C24.7832 84.2856 15.7605 73.1368 18.1121 67.1272Z" fill="#819D92"/>
<path d="M29.6407 81.6549C28.2503 80.6356 27.7375 78.7848 28.3586 77.1766C29.4591 74.3276 33.6579 74.9436 33.8936 77.9887L33.918 78.3047L35.9515 80.3114L33.8482 83.9546C32.045 83.2939 30.8835 82.5659 29.6407 81.6549Z" fill="#0E1B1B"/>
<path d="M29.0875 81.1489C28.2269 80.2357 27.7381 78.7846 28.3593 77.1765C28.9287 75.7024 30.3668 75.087 31.5777 75.3935C29.1142 76.0547 27.8911 78.6539 29.0875 81.1489Z" fill="#070D0D"/>
<ellipse cx="34.5395" cy="76.7957" rx="1.74361" ry="3.41531" transform="rotate(-75 34.5395 76.7957)" fill="#A9C1B8"/>
<path d="M36.628 82.2195C38.5691 81.6216 39.7764 82.0806 39.7764 82.9324C39.7764 83.7842 38.0477 84.7766 36.3793 84.7766C34.7108 84.7766 33.3411 83.9279 33.3411 83.0761C33.3411 82.2243 34.6025 81.0501 36.628 82.2195Z" fill="#A9C1B8"/>
<path d="M33.7107 82.2489L39.3334 82.246C39.694 82.3662 39.7581 82.7267 39.7581 82.7267C36.9763 84.2794 34.7764 83.7541 33.7107 82.2489Z" fill="#8EADA1"/>
<path d="M36.9284 80.3239C39.123 79.6479 40.4879 80.1669 40.4879 81.1299C40.4879 82.0929 38.5334 83.2148 36.6472 83.2148C34.761 83.2148 33.2124 82.2553 33.2124 81.2924C33.2124 80.3294 34.6385 79.0018 36.9284 80.3239Z" fill="#A9C1B8"/>
<path d="M30.8353 47.6838C38.608 51.2381 27.3117 64.9324 23.7027 63.2821C20.0936 61.6318 23.0625 44.1296 30.8353 47.6838Z" fill="#819D92"/>
<rect width="6.67546" height="13.6174" transform="matrix(-0.942795 0.333373 0.333373 0.942795 64.1057 54.0447)" fill="#2A5050"/>
<path d="M57.8114 56.2702L62.351 69.1086L67.3819 67.3296L68.8235 67.1585L68.0173 65.1065C68.017 65.1065 68.0168 65.1066 68.0165 65.1066L64.105 54.0448L57.8114 56.2702Z" fill="#0E1B1B"/>
<path d="M65.1526 57.014L66.3477 60.3873C66.4654 62.3766 65.5987 63.7509 64.6633 64.0593C63.4723 64.4519 61.7382 63.7826 60.1218 62.816L58.8522 59.2421L65.1526 57.014Z" fill="#070D0D"/>
<path d="M68.824 67.1577L68.0177 65.1058C66.2801 65.4333 64.3835 67.3818 61.887 65.7705C60.4172 64.4972 61.1645 65.579 61.1645 65.7472L61.9625 67.9729L68.824 67.1577Z" fill="#2A5050"/>
<path d="M69.7804 67.1421C68.6987 64.3777 62.4912 69.8575 61.4343 66.5152C58.0792 69.9953 54.2788 77.0082 57.8108 79.9249C63.1094 84.3005 72.132 73.1517 69.7804 67.1421Z" fill="#819D92"/>
<path d="M58.2519 81.6697C59.6423 80.6505 60.1551 78.7997 59.5339 77.1915C58.4335 74.3424 54.2347 74.9584 53.999 78.0035L53.9745 78.3196L51.941 80.3263L54.0444 83.9695C55.8476 83.3087 57.0091 82.5808 58.2519 81.6697Z" fill="#0E1B1B"/>
<path d="M58.8051 81.1638C59.6657 80.2506 60.1544 78.7995 59.5333 77.1914C58.9639 75.7172 57.5258 75.1019 56.3149 75.4084C58.7784 76.0695 60.0015 78.6688 58.8051 81.1638Z" fill="#070D0D"/>
<ellipse cx="1.74361" cy="3.41531" rx="1.74361" ry="3.41531" transform="matrix(-0.258819 -0.965926 -0.965926 0.258819 57.1033 77.6108)" fill="#A9C1B8"/>
<path d="M51.2646 82.2344C49.3235 81.6364 48.1161 82.0955 48.1161 82.9473C48.1161 83.7991 49.8449 84.7915 51.5133 84.7915C53.1817 84.7915 54.5515 83.9428 54.5515 83.091C54.5515 82.2392 53.2901 81.0649 51.2646 82.2344Z" fill="#A9C1B8"/>
<path d="M54.1819 82.2638L48.5591 82.2609C48.1986 82.381 48.1345 82.7416 48.1345 82.7416C50.9162 84.2943 53.1161 83.769 54.1819 82.2638Z" fill="#8EADA1"/>
<path d="M50.9641 80.3388C48.7696 79.6628 47.4047 80.1818 47.4047 81.1448C47.4047 82.1077 49.3591 83.2297 51.2454 83.2297C53.1316 83.2297 54.6802 82.2702 54.6802 81.3072C54.6802 80.3443 53.2541 79.0167 50.9641 80.3388Z" fill="#A9C1B8"/>
<path d="M57.2165 47.6597C49.4437 51.2139 60.7401 64.9082 64.3491 63.2579C67.9581 61.6076 64.9893 44.1054 57.2165 47.6597Z" fill="#819D92"/>
<path d="M73.917 23.8224C73.917 19.8355 70.685 16.6035 66.6981 16.6035V33.207C70.685 33.207 73.917 29.975 73.917 25.9881V23.8224Z" fill="#0E1B1B"/>
<path d="M13.9998 23.8224C13.9998 19.8355 17.2318 16.6035 21.2187 16.6035V33.207C17.2318 33.207 13.9998 29.975 13.9998 25.9881V23.8224Z" fill="#0E1B1B"/>
<path d="M69.104 22.0179C69.104 39.7513 57.8458 44.0356 43.9581 44.0356C30.0704 44.0356 18.8123 39.7513 18.8123 22.0179C18.8123 9.04514 27.6641 0.000244141 43.9581 0.000244141C57.8458 0.000244141 69.104 6.66484 69.104 22.0179Z" fill="#819D92"/>
<path d="M44.1133 11.0029C61.8097 11.0029 64.4287 15.3169 64.4287 25.2549C64.4287 25.3743 64.4255 25.4928 64.4238 25.6104C64.3408 16.5301 61.5351 12.5801 44.1133 12.5801C26.5047 12.5801 23.8778 17.9415 23.8008 25.6777C23.7986 25.5382 23.7979 25.3971 23.7979 25.2549C23.7979 16.8576 26.2286 11.0029 44.1133 11.0029Z" fill="#92ADA3"/>
<path d="M44.1133 39.4297C26.4169 39.4297 23.7979 35.1157 23.7979 25.1777C23.7979 25.0583 23.801 24.9398 23.8027 24.8223C23.8857 33.9025 26.6914 37.8525 44.1133 37.8525C61.7219 37.8525 64.3488 32.4911 64.4258 24.7549C64.4279 24.8944 64.4287 25.0355 64.4287 25.1777C64.4287 33.575 61.998 39.4297 44.1133 39.4297Z" fill="#6D8D81"/>
<path d="M64.4285 25.2354C64.4285 36.079 56.5582 38.6988 44.1132 38.6988C30.7694 38.6988 23.7979 36.079 23.7979 25.2354C23.7979 17.3028 26.2282 11.772 44.1132 11.772C61.8099 11.772 64.4285 15.8473 64.4285 25.2354Z" fill="#A9C1B8"/>
<path d="M63.2262 25.2355C63.2262 34.9173 55.8216 37.2564 44.113 37.2564C31.5588 37.2564 24.9998 34.9173 24.9998 25.2355C24.9998 18.1528 27.2863 13.2146 44.113 13.2146C60.7626 13.2146 63.2262 16.8532 63.2262 25.2355Z" fill="#0E1B1B"/>
<path d="M44.113 13.2146C60.7621 13.2146 63.2263 16.8573 63.2263 25.2488C63.2263 25.3494 63.223 25.4495 63.2214 25.5486C63.1432 17.8816 60.5036 14.5466 44.113 14.5466C27.5661 14.5466 25.0807 19.0628 25.0027 25.5828C25.0009 25.4725 24.9998 25.361 24.9998 25.2488C24.9998 18.1582 27.2868 13.2146 44.113 13.2146Z" fill="#070D0D"/>
<path d="M44.113 37.218C27.464 37.218 24.9998 33.5753 24.9998 25.1838C24.9998 25.0832 25.003 24.9831 25.0046 24.884C25.0828 32.551 27.7225 35.886 44.113 35.886C60.66 35.886 63.1453 31.3698 63.2234 24.8499C63.2251 24.9601 63.2263 25.0716 63.2263 25.1838C63.2263 32.2744 60.9393 37.218 44.113 37.218Z" fill="#2A5050"/>
<g filter="url(#filter0_f_2154_7881)">
<ellipse cx="35.106" cy="24.8332" rx="3.125" ry="4.92788" fill="#F1F8F4"/>
<ellipse cx="52.894" cy="24.8332" rx="3.125" ry="4.92788" fill="#F1F8F4"/>
</g>
<ellipse cx="35.106" cy="24.8332" rx="3.125" ry="4.92788" fill="#F1F8F4"/>
<ellipse cx="52.894" cy="24.8332" rx="3.125" ry="4.92788" fill="#F1F8F4"/>
<ellipse cx="44" cy="97.0714" rx="13.803" ry="3.00065" fill="#445556"/>
<defs>
<filter id="filter0_f_2154_7881" x="28.6156" y="16.5399" width="30.7689" height="16.5865" filterUnits="userSpaceOnUse" color-interpolation-filters="sRGB">
<feFlood flood-opacity="0" result="BackgroundImageFix"/>
<feBlend mode="normal" in="SourceGraphic" in2="BackgroundImageFix" result="shape"/>
<feGaussianBlur stdDeviation="1.68269" result="effect1_foregroundBlur_2154_7881"/>
</filter>
</defs>
</svg>
