<svg width="104" height="101" viewBox="0 0 104 101" fill="none" xmlns="http://www.w3.org/2000/svg">
<path d="M33.7024 76.3794C33.7024 74.0008 54.156 74.0008 54.156 76.3794C54.156 84.64 47.305 88.0197 43.7024 88.0197C40.0998 88.0197 33.7023 84.8695 33.7024 76.3794Z" fill="#819D92"/>
<path d="M33.5024 71.708H54.4373L53.6327 75.741C53.6327 75.741 50.5872 81.0926 43.9699 81.0926C37.3525 81.0926 34.307 75.741 34.307 75.741L33.5024 71.708Z" fill="#070D0D"/>
<path d="M33.8635 73.5129C36.7757 78.3737 50.5322 78.9512 54.0765 73.5129L53.5471 76.1599C53.5471 76.1599 50.6621 81.4665 44.0448 81.4665C37.4275 81.4665 34.382 76.1149 34.382 76.1149L33.8635 73.5129Z" fill="#0E1B1B"/>
<path d="M34.2727 75.5588C39.9275 81.9355 47.9405 82.2965 53.6699 75.5588L53.5472 76.1604C53.5472 76.1604 50.6167 81.6229 43.9246 81.4784C37.2325 81.334 34.381 76.1123 34.381 76.1123L34.2727 75.5588Z" fill="#2A5050"/>
<path d="M29.7792 47.5545L34.8608 45.9119C35.4344 45.7266 35.9523 45.4005 36.3675 44.9635L36.8778 44.4263H43.9764H50.9643L51.619 45.0546C52.0132 45.4329 52.4881 45.7167 53.008 45.8848L58.1736 47.5545C58.1736 47.5545 65.7535 75.7082 43.9764 75.7082C22.1994 75.7082 29.7792 47.5545 29.7792 47.5545Z" fill="#A9C1B8"/>
<path d="M37.646 42.0195H50.1588L51.362 45.629C51.362 45.629 51.362 49.2384 43.9024 49.2384C36.4429 49.2384 36.4429 45.629 36.4429 45.629L37.646 42.0195Z" fill="#0E1B1B"/>
<path d="M36.5632 45.2683C36.5632 45.2683 37.646 48.3965 43.9024 48.3965C50.2791 48.2762 51.2416 45.2683 51.2416 45.2683L51.362 45.6293C51.362 45.6293 51.362 49.2387 43.9024 49.2387C36.4429 49.2387 36.4429 45.6293 36.4429 45.6293L36.5632 45.2683Z" fill="#2A5050"/>
<path d="M37.646 42.0195H50.1588L50.9601 44.4258C47.8728 45.629 40.2929 45.5087 36.8447 44.4258L37.646 42.0195Z" fill="#070D0D"/>
<path d="M27.4736 50.9409L28.4528 55.8359L28.4528 60.3221L21.8255 68.5341L16.6355 64.3344L27.4736 50.9409Z" fill="#0E1B1B"/>
<path d="M31.9477 47.345C32.5692 47.8113 33.0189 48.3258 33.3206 48.8742C30.4764 52.5932 28.3993 54.5831 28.4495 58.8721C25.795 60.8837 22.8971 61.9999 21.6535 61.0669C18.4786 58.6851 25.11 42.2153 31.9477 47.345Z" fill="#070D0D"/>
<ellipse cx="5.0395" cy="10.8744" rx="5.0395" ry="10.8744" transform="matrix(-0.663457 0.748214 0.748214 0.663457 8.69263 50.6404)" fill="#819D92"/>
<path d="M8.67177 51.0811L12.2609 50.4129C14.4626 55.0949 11.7398 60.7475 7.3827 60.734C4.04193 60.3287 3.71095 58.7363 1.60747 56.0415C2.72828 53.2743 3.52628 51.9431 6.60818 50.3149L8.67177 51.0811Z" fill="#0E1B1B"/>
<path d="M5.02587 60.0315C9.71955 60.2704 11.7401 57.2671 13.033 53.5391C13.24 57.0184 10.9357 60.7915 7.4503 60.7298C6.44307 60.6964 5.63459 60.381 5.02587 60.0315Z" fill="#2A5050"/>
<path d="M4.56717 54.5286C3.44238 53.2696 2.53056 52.249 1.3312 53.417C0.131847 54.5851 1.04367 55.6057 2.16846 56.8647C3.29325 58.1237 4.74205 58.6213 5.40443 57.9762C6.06682 57.3311 5.69196 55.7876 4.56717 54.5286Z" fill="#A9C1B8"/>
<path d="M5.42484 55.787L2.28749 52.8853C2.28749 52.8853 1.94927 52.9808 1.8678 53.0239C2.72563 55.2127 4.24792 56.2416 5.59356 56.2613L5.42484 55.787Z" fill="#8EADA1"/>
<path d="M5.72837 52.3332C4.59045 51.0825 3.66799 50.0687 2.50872 51.1977C1.34946 52.3267 2.27192 53.3405 3.40984 54.5912C4.54775 55.8419 5.98924 56.3502 6.62948 55.7267C7.26972 55.1032 6.86628 53.5838 5.72837 52.3332Z" fill="#A9C1B8"/>
<path d="M6.53251 53.6071L3.39516 50.7054C3.39516 50.7054 3.05694 50.8009 2.97547 50.8439C3.83329 53.0328 5.35558 54.0617 6.70123 54.0814L6.53251 53.6071Z" fill="#8EADA1"/>
<path d="M6.83603 50.1535C5.69812 48.9028 4.77566 47.889 3.61639 49.018C2.45712 50.147 3.37959 51.1608 4.5175 52.4115C5.65542 53.6622 7.0969 54.1706 7.73715 53.547C8.37739 52.9235 7.97395 51.4042 6.83603 50.1535Z" fill="#A9C1B8"/>
<path d="M9.08007 50.7339C8.00336 53.07 9.04517 55.6461 10.9701 55.1728C14.5511 54.2924 12.3008 50.1198 11.7248 48.7929C10.285 45.4755 5.76409 48.8152 6.87439 50.6759C7.46223 51.661 9.08007 50.7339 9.08007 50.7339Z" fill="#A9C1B8"/>
<path d="M31.9792 46.4413C38.8019 51.5911 24.8126 62.5241 21.6447 60.1329C18.4768 57.7418 25.1566 41.2916 31.9792 46.4413Z" fill="#819D92"/>
<path d="M60.3826 50.9409L59.4034 55.8359L59.4034 60.3221L66.0307 68.5341L71.2207 64.3344L60.3826 50.9409Z" fill="#0E1B1B"/>
<path d="M55.9085 47.345C55.287 47.8113 54.8373 48.3258 54.5356 48.8742C57.3798 52.5932 59.4569 54.5831 59.4067 58.8721C62.0612 60.8837 64.9591 61.9999 66.2027 61.0669C69.3776 58.6851 62.7462 42.2153 55.9085 47.345Z" fill="#070D0D"/>
<ellipse cx="74.3707" cy="61.6257" rx="5.0395" ry="10.8744" transform="rotate(48.4359 74.3707 61.6257)" fill="#819D92"/>
<path d="M55.8767 46.4413C49.0541 51.5911 63.0434 62.5241 66.2113 60.1329C69.3791 57.7418 62.6994 41.2916 55.8767 46.4413Z" fill="#819D92"/>
<path d="M83.019 50.4948L79.6345 48.9668C76.3271 53.0603 77.6507 59.3035 81.9588 60.3436C85.3575 60.7508 86.0695 59.2576 88.7993 57.1037C88.361 54.0987 87.8944 52.5905 85.2431 50.2367L83.019 50.4948Z" fill="#0E1B1B"/>
<path d="M84.4571 60.2201C79.7619 59.3213 78.4917 55.8655 78.1157 51.8696C77.07 55.2572 78.4344 59.5422 81.8929 60.3239C82.8961 60.5345 83.7712 60.4183 84.4571 60.2201Z" fill="#2A5050"/>
<path d="M98.5266 34.3727C99.3582 34.9994 99.7979 36.1475 99.6917 37.6461C99.5859 39.136 98.9378 40.8711 97.7348 42.4676C96.5316 44.0643 95.0421 45.1661 93.6388 45.6785C92.2276 46.1937 91.0028 46.0874 90.1712 45.4608C89.3396 44.8342 88.8999 43.686 89.0061 42.1875C89.1118 40.6974 89.7604 38.9618 90.9636 37.3651C92.1667 35.7686 93.6558 34.6674 95.059 34.1551C96.4703 33.6398 97.695 33.7461 98.5266 34.3727Z" stroke="#F6CA72" stroke-width="1.47248"/>
<path d="M74.4467 31.4156C73.4882 31.8225 72.7838 32.8301 72.5243 34.3099C72.2665 35.7812 72.4756 37.6215 73.2566 39.4616C74.0378 41.302 75.2166 42.7314 76.4542 43.568C77.6989 44.4093 78.913 44.6025 79.8715 44.1957C80.83 43.7889 81.5344 42.7812 81.7938 41.3014C82.0518 39.83 81.8423 37.9891 81.0611 36.1488C80.28 34.3086 79.1015 32.8799 77.864 32.0433C76.6192 31.202 75.4052 31.0087 74.4467 31.4156Z" stroke="#F6CA72" stroke-width="1.47248"/>
<path d="M94.8855 40.5611C94.3453 43.6398 92.3393 46.1094 89.6967 47.3558C88.0391 48.1376 86.5342 49.4825 86.3108 51.3015L85.3951 58.7593L81.2902 58.2553L82.2059 50.7975C82.4292 48.9785 81.2944 47.3095 79.8752 46.1499C77.6125 44.3012 76.2636 41.4197 76.4843 38.3018L76.9464 31.7724C77.0887 29.7627 78.8859 28.2824 80.8856 28.528L92.9793 30.0129C94.979 30.2584 96.3648 32.1295 96.0166 34.1139L94.8855 40.5611Z" fill="#C89B40"/>
<rect x="79.2483" y="56.4224" width="8.63423" height="2.46692" rx="0.490826" transform="rotate(7 79.2483 56.4224)" fill="#9D7930"/>
<rect x="79.2483" y="56.4224" width="8.63423" height="2.46692" rx="0.490826" transform="rotate(7 79.2483 56.4224)" fill="#F6CA72"/>
<rect x="76.489" y="58.0571" width="13.7134" height="2.46697" rx="0.490826" transform="rotate(7 76.489 58.0571)" fill="#9D7930"/>
<path d="M86.2407 54.8923C87.6566 53.9203 88.8044 53.1323 89.707 54.5765C90.6097 56.0207 89.4619 56.8087 88.0461 57.7807C86.6302 58.7528 85.0783 58.8942 84.5798 58.0966C84.0812 57.299 84.8249 55.8644 86.2407 54.8923Z" fill="#A9C1B8"/>
<path d="M85.0889 55.928L88.8907 53.8193C88.8907 53.8193 89.2018 53.9955 89.2719 54.0577C87.895 56.0132 86.142 56.6617 84.8075 56.3558L85.0889 55.928Z" fill="#8EADA1"/>
<path d="M85.6241 52.4424C87.0509 51.4817 88.2076 50.703 89.0801 52.0989C89.9526 53.4948 88.7959 54.2736 87.3691 55.2342C85.9423 56.1949 84.395 56.3487 83.9131 55.5777C83.4313 54.8068 84.1973 53.403 85.6241 52.4424Z" fill="#A9C1B8"/>
<path d="M84.5213 53.5075L88.323 51.3989C88.323 51.3989 88.6341 51.5751 88.7042 51.6373C87.3273 53.5927 85.5743 54.2413 84.2399 53.9354L84.5213 53.5075Z" fill="#8EADA1"/>
<path d="M85.0572 50.0212C86.4841 49.0606 87.6407 48.2818 88.5132 49.6777C89.3857 51.0737 88.2291 51.8524 86.8022 52.8131C85.3754 53.7737 83.8281 53.9275 83.3463 53.1566C82.8644 52.3856 83.6304 50.9819 85.0572 50.0212Z" fill="#A9C1B8"/>
<path d="M82.6995 50.053C83.1985 52.6213 81.5464 54.9146 79.7589 53.9816C76.4338 52.2459 79.666 48.6676 80.5558 47.4958C82.7804 44.5664 86.4396 48.959 84.8927 50.5288C84.0738 51.36 82.6995 50.053 82.6995 50.053Z" fill="#A9C1B8"/>
<path d="M73.917 23.8224C73.917 19.8355 70.685 16.6035 66.6981 16.6035V33.207C70.685 33.207 73.917 29.975 73.917 25.9881V23.8224Z" fill="#0E1B1B"/>
<path d="M13.9998 23.8224C13.9998 19.8355 17.2318 16.6035 21.2187 16.6035V33.207C17.2318 33.207 13.9998 29.975 13.9998 25.9881V23.8224Z" fill="#0E1B1B"/>
<path d="M69.104 22.0179C69.104 39.7513 57.8458 44.0356 43.9581 44.0356C30.0704 44.0356 18.8123 39.7513 18.8123 22.0179C18.8123 9.04514 27.6641 0.000244141 43.9581 0.000244141C57.8458 0.000244141 69.104 6.66484 69.104 22.0179Z" fill="#819D92"/>
<path d="M44.1133 11.0029C61.8097 11.0029 64.4287 15.3169 64.4287 25.2549C64.4287 25.3743 64.4255 25.4928 64.4238 25.6104C64.3408 16.5301 61.5351 12.5801 44.1133 12.5801C26.5047 12.5801 23.8778 17.9415 23.8008 25.6777C23.7986 25.5382 23.7979 25.3971 23.7979 25.2549C23.7979 16.8576 26.2286 11.0029 44.1133 11.0029Z" fill="#92ADA3"/>
<path d="M44.1133 39.4297C26.4169 39.4297 23.7979 35.1157 23.7979 25.1777C23.7979 25.0583 23.801 24.9398 23.8027 24.8223C23.8857 33.9025 26.6914 37.8525 44.1133 37.8525C61.7219 37.8525 64.3488 32.4911 64.4258 24.7549C64.4279 24.8944 64.4287 25.0355 64.4287 25.1777C64.4287 33.575 61.998 39.4297 44.1133 39.4297Z" fill="#6D8D81"/>
<path d="M64.4285 25.2354C64.4285 36.079 56.5582 38.6988 44.1132 38.6988C30.7694 38.6988 23.7979 36.079 23.7979 25.2354C23.7979 17.3028 26.2282 11.772 44.1132 11.772C61.8099 11.772 64.4285 15.8473 64.4285 25.2354Z" fill="#A9C1B8"/>
<path d="M63.2262 25.2355C63.2262 34.9173 55.8216 37.2564 44.113 37.2564C31.5588 37.2564 24.9998 34.9173 24.9998 25.2355C24.9998 18.1528 27.2863 13.2146 44.113 13.2146C60.7626 13.2146 63.2262 16.8532 63.2262 25.2355Z" fill="#0E1B1B"/>
<path d="M44.113 13.2146C60.7621 13.2146 63.2263 16.8573 63.2263 25.2488C63.2263 25.3494 63.223 25.4495 63.2214 25.5486C63.1432 17.8816 60.5036 14.5466 44.113 14.5466C27.5661 14.5466 25.0807 19.0628 25.0027 25.5828C25.0009 25.4725 24.9998 25.361 24.9998 25.2488C24.9998 18.1582 27.2868 13.2146 44.113 13.2146Z" fill="#070D0D"/>
<path d="M44.113 37.218C27.464 37.218 24.9998 33.5753 24.9998 25.1838C24.9998 25.0832 25.003 24.9831 25.0046 24.884C25.0828 32.551 27.7225 35.886 44.113 35.886C60.66 35.886 63.1453 31.3698 63.2234 24.8499C63.2251 24.9601 63.2263 25.0716 63.2263 25.1838C63.2263 32.2744 60.9393 37.218 44.113 37.218Z" fill="#2A5050"/>
<g filter="url(#filter0_f_2036_22379)">
<path d="M51.0957 27.5332L48.2106 28.3655C48.1035 28.3947 48.0047 28.3926 47.9141 28.3591C47.8235 28.3256 47.7478 28.2718 47.6871 28.1977C47.6262 28.1234 47.587 28.0372 47.5693 27.9391C47.5518 27.841 47.5711 27.7429 47.6272 27.6446L49.0423 25.001L47.3581 22.5153C47.2952 22.4222 47.2651 22.3257 47.2678 22.226C47.2703 22.1262 47.3007 22.0367 47.3587 21.9575C47.4168 21.8783 47.4856 21.8194 47.5654 21.7807C47.6451 21.7419 47.7433 21.729 47.8601 21.7418L50.8217 22.2643L52.6588 19.9022C52.7262 19.8141 52.8079 19.7574 52.9037 19.7322C52.9995 19.707 53.0937 19.7068 53.1861 19.7316C53.2786 19.7564 53.36 19.8036 53.4304 19.8734C53.5008 19.9431 53.5432 20.033 53.5575 20.143L53.9674 23.1072L56.7935 24.1355C56.9011 24.1828 56.9797 24.2431 57.0293 24.3165C57.079 24.3899 57.1092 24.4754 57.1199 24.573C57.1306 24.6706 57.1121 24.7633 57.0644 24.851C57.0168 24.9387 56.9425 25.0072 56.8415 25.0564L54.1401 26.367L54.0438 29.3639C54.0432 29.4771 54.0109 29.5717 53.9467 29.6479C53.8823 29.7241 53.8053 29.7791 53.7154 29.813C53.6258 29.8468 53.5333 29.8555 53.4381 29.8393C53.3429 29.823 53.2562 29.7754 53.1781 29.6965L51.0957 27.5332Z" fill="#FBE5B9"/>
<path d="M36.9064 27.5333L34.824 29.6967C34.7459 29.7756 34.6592 29.8231 34.564 29.8394C34.4688 29.8557 34.3764 29.8469 34.2867 29.8131C34.1969 29.7792 34.1198 29.7242 34.0555 29.6481C33.9913 29.5719 33.9589 29.4772 33.9584 29.3641L33.862 26.3671L31.1606 25.0566C31.0596 25.0073 30.9853 24.9388 30.9377 24.8511C30.8901 24.7634 30.8716 24.6707 30.8822 24.5731C30.8929 24.4756 30.9231 24.3901 30.9728 24.3167C31.0225 24.2433 31.1011 24.1829 31.2086 24.1356L34.0347 23.1074L34.4447 20.1431C34.459 20.0331 34.5013 19.9432 34.5717 19.8735C34.6421 19.8038 34.7235 19.7565 34.816 19.7318C34.9085 19.707 35.0026 19.7072 35.0985 19.7324C35.1943 19.7576 35.2759 19.8142 35.3433 19.9023L37.1804 22.2645L40.142 21.7419C40.2588 21.7291 40.3571 21.7421 40.4368 21.7808C40.5165 21.8196 40.5854 21.8785 40.6434 21.9576C40.7015 22.0368 40.7318 22.1263 40.7344 22.2261C40.737 22.3259 40.7069 22.4223 40.6441 22.5155L38.9599 25.0012L40.3749 27.6448C40.431 27.743 40.4503 27.8412 40.4328 27.9393C40.4152 28.0374 40.3759 28.1236 40.3151 28.1978C40.2543 28.2719 40.1786 28.3257 40.088 28.3592C39.9975 28.3928 39.8986 28.3949 39.7916 28.3656L36.9064 27.5333Z" fill="#FBE5B9"/>
</g>
<path d="M51.0935 27.5329L48.2084 28.3652C48.1013 28.3945 48.0025 28.3924 47.9119 28.3589C47.8213 28.3253 47.7456 28.2715 47.6849 28.1974C47.624 28.1232 47.5848 28.037 47.5671 27.9389C47.5496 27.8408 47.5689 27.7426 47.625 27.6444L49.0401 25.0008L47.3559 22.5151C47.293 22.4219 47.2629 22.3255 47.2656 22.2257C47.2681 22.1259 47.2985 22.0364 47.3565 21.9572C47.4146 21.8781 47.4834 21.8192 47.5632 21.7804C47.6429 21.7417 47.7411 21.7287 47.8579 21.7415L50.8195 22.2641L52.6566 19.902C52.724 19.8138 52.8057 19.7572 52.9015 19.732C52.9973 19.7068 53.0915 19.7066 53.1839 19.7314C53.2764 19.7562 53.3578 19.8034 53.4282 19.8731C53.4986 19.9429 53.541 20.0327 53.5553 20.1427L53.9652 23.107L56.7913 24.1352C56.8989 24.1825 56.9775 24.2429 57.0271 24.3163C57.0768 24.3897 57.107 24.4752 57.1177 24.5727C57.1284 24.6703 57.1099 24.763 57.0622 24.8507C57.0146 24.9384 56.9403 25.0069 56.8393 25.0562L54.1379 26.3668L54.0416 29.3637C54.041 29.4768 54.0087 29.5715 53.9445 29.6477C53.8801 29.7238 53.8031 29.7789 53.7132 29.8127C53.6236 29.8465 53.5311 29.8553 53.4359 29.839C53.3407 29.8227 53.254 29.7752 53.176 29.6963L51.0935 27.5329Z" fill="#FBE5B9"/>
<path d="M36.9064 27.5331L34.824 29.6964C34.7459 29.7753 34.6592 29.8229 34.564 29.8392C34.4688 29.8554 34.3764 29.8467 34.2867 29.8129C34.1969 29.779 34.1198 29.724 34.0555 29.6478C33.9913 29.5716 33.9589 29.477 33.9584 29.3638L33.862 26.3669L31.1606 25.0563C31.0596 25.0071 30.9853 24.9386 30.9377 24.8509C30.8901 24.7632 30.8716 24.6705 30.8822 24.5729C30.8929 24.4753 30.9231 24.3898 30.9728 24.3164C31.0225 24.243 31.1011 24.1827 31.2086 24.1354L34.0347 23.1071L34.4447 20.1429C34.459 20.0329 34.5013 19.943 34.5717 19.8733C34.6421 19.8035 34.7235 19.7563 34.816 19.7315C34.9085 19.7067 35.0026 19.7069 35.0985 19.7321C35.1943 19.7573 35.2759 19.814 35.3433 19.9021L37.1804 22.2642L40.142 21.7417C40.2588 21.7289 40.3571 21.7418 40.4368 21.7806C40.5165 21.8193 40.5854 21.8782 40.6434 21.9574C40.7015 22.0366 40.7318 22.1261 40.7344 22.2259C40.737 22.3256 40.7069 22.4221 40.6441 22.5152L38.9599 25.0009L40.3749 27.6445C40.431 27.7428 40.4503 27.8409 40.4328 27.939C40.4152 28.0371 40.3759 28.1233 40.3151 28.1976C40.2543 28.2717 40.1786 28.3255 40.088 28.359C39.9975 28.3925 39.8986 28.3946 39.7916 28.3654L36.9064 27.5331Z" fill="#FBE5B9"/>
<ellipse cx="44" cy="97.0712" rx="13.803" ry="3.00065" fill="#445556"/>
<defs>
<filter id="filter0_f_2036_22379" x="27.514" y="16.3478" width="32.9742" height="16.865" filterUnits="userSpaceOnUse" color-interpolation-filters="sRGB">
<feFlood flood-opacity="0" result="BackgroundImageFix"/>
<feBlend mode="normal" in="SourceGraphic" in2="BackgroundImageFix" result="shape"/>
<feGaussianBlur stdDeviation="1.68269" result="effect1_foregroundBlur_2036_22379"/>
</filter>
</defs>
</svg>
