<svg width="43" height="58" viewBox="0 0 43 58" fill="none" xmlns="http://www.w3.org/2000/svg">
<path d="M29.4977 14.9307L30.4768 19.8256L30.4768 24.3119L23.8495 32.5239L18.6596 28.3241L29.4977 14.9307Z" fill="#2A5050"/>
<path d="M33.9716 11.3349C34.5931 11.8011 35.0428 12.3156 35.3444 12.864C32.5002 16.5831 30.4232 18.573 30.4734 22.862C27.8189 24.8735 24.921 25.9897 23.6774 25.0568C20.5025 22.675 27.1338 6.20518 33.9716 11.3349Z" fill="#152828"/>
<ellipse cx="5.0395" cy="10.8744" rx="5.0395" ry="10.8744" transform="matrix(-0.663457 0.748214 0.748214 0.663457 10.7166 14.6302)" fill="#BAD3CA"/>
<path d="M8.46132 13.0759L11.9609 12.0361C14.6401 16.4623 12.5231 22.3686 8.18846 22.8107C4.82363 22.7568 4.32799 21.2078 1.9543 18.7476C2.77968 15.8785 3.43414 14.4712 6.32892 12.5296L8.46132 13.0759Z" fill="#2A5050"/>
<path d="M5.77102 22.3584C10.464 22.1053 12.1595 18.9072 13.0555 15.0645C13.6251 18.5031 11.7279 22.4964 8.25517 22.7994C7.24997 22.8716 6.41295 22.6423 5.77102 22.3584Z" fill="#468586"/>
<path d="M10.2193 12.0236C10.1842 12.1187 10.1217 12.202 10.0414 12.2639C8.1642 13.7113 8.19632 15.9975 10.2398 16.3052C13.254 16.6457 13.5562 11.5954 13.5562 11.5954L14.3121 9.68992C14.4125 9.43699 14.2874 9.14509 14.0208 9.09073C12.3338 8.74677 10.9182 10.1302 10.2193 12.0236Z" fill="#D2E3DD"/>
<path fill-rule="evenodd" clip-rule="evenodd" d="M8.77302 3.9213C8.69085 4.22794 8.75917 4.55537 8.95708 4.80357L9.51471 5.50289C9.78827 5.84595 10.2535 5.97061 10.662 5.81029L11.4945 5.48348C11.79 5.36749 12.0129 5.11808 12.0951 4.81144L12.5218 3.21883C12.6175 2.86165 13.0517 2.73461 13.2767 3.0281C14.0059 3.9795 14.3007 5.24628 13.9667 6.49257C13.5361 8.09971 12.1829 9.21358 10.6283 9.4188L8.0829 18.9185C7.91491 19.5454 8.11254 20.202 8.30734 20.8211C8.4533 21.285 8.47334 21.7945 8.33819 22.2988C7.95931 23.7128 6.50434 24.5515 5.08842 24.1721C3.6725 23.7927 2.83181 22.3389 3.21066 20.9249C3.33653 20.4552 3.58121 20.0489 3.90376 19.7297C4.32984 19.3081 4.77008 18.8605 4.92522 18.2815L7.53989 8.52339C6.38211 7.55634 5.82368 5.97329 6.23933 4.42202C6.58266 3.14071 7.51235 2.17291 8.66301 1.72915C9.00381 1.59772 9.30824 1.92382 9.2137 2.27663L8.77302 3.9213ZM6.16211 20.165C5.36192 19.9506 4.53965 20.4246 4.32554 21.2237C4.11145 22.0227 4.58655 22.8444 5.38673 23.0588C6.18692 23.2732 7.00918 22.7992 7.22331 22.0001C7.43743 21.201 6.96231 20.3794 6.16211 20.165Z" fill="#6F8295"/>
<path d="M8.30272 0.796407C8.87008 0.577598 9.44836 0.746563 9.81591 1.122C10.169 1.48269 10.3183 2.0164 10.1792 2.53568L9.73865 4.17982L10.2964 4.87925L11.1291 4.55238L11.5557 2.96011C11.6964 2.43514 12.0996 2.04524 12.5924 1.91347C13.0742 1.78471 13.6227 1.91354 13.9976 2.33247L14.0703 2.41968L14.2349 2.64678C15.0237 3.80475 15.3244 5.28947 14.9327 6.75141C14.4573 8.52549 13.0836 9.81465 11.4349 10.2707L9.04836 19.1772C8.96803 19.4771 9.05037 19.8504 9.26145 20.5213C9.46266 21.1611 9.48996 21.8645 9.30418 22.5578C8.78196 24.5064 6.7777 25.66 4.82961 25.1381C2.88152 24.6161 1.72258 22.6149 2.24462 20.6662C2.41764 20.0205 2.75557 19.4591 3.20069 19.0187C3.65912 18.565 3.88491 18.2986 3.95889 18.0228L6.42146 8.83234C5.30711 7.617 4.8144 5.87637 5.27342 4.16322C5.70299 2.56004 6.86732 1.35016 8.30272 0.796407ZM9.21327 2.27686C9.30778 1.92417 9.00408 1.59811 8.66344 1.72917C7.51277 2.17293 6.58267 3.14074 6.23934 4.42204C5.82373 5.97318 6.38194 7.55623 7.53954 8.5233L4.92482 18.2816C4.76963 18.8605 4.3299 19.3082 3.90388 19.7298C3.58132 20.049 3.33642 20.4553 3.21055 20.9251C2.83178 22.339 3.67255 23.7927 5.08843 24.1721C6.5043 24.5515 7.95931 23.7129 8.33825 22.299C8.4734 21.7947 8.45366 21.2848 8.30769 20.8208C8.11291 20.2017 7.91447 19.5453 8.08244 18.9184L10.6279 9.41857C12.1825 9.21334 13.5361 8.09973 13.9667 6.49259C14.3007 5.2463 14.0057 3.97931 13.2765 3.02791C13.0515 2.73471 12.6173 2.86185 12.5216 3.21893L12.095 4.8112C12.0128 5.11784 11.7898 5.36733 11.4943 5.48332L10.6616 5.81019C10.2532 5.97036 9.78807 5.84584 9.51457 5.50285L8.95686 4.80342C8.75908 4.55524 8.69059 4.22755 8.77273 3.92101L9.21327 2.27686ZM6.16212 20.165C6.96232 20.3795 7.4374 21.2012 7.22329 22.0003C7.0091 22.7993 6.18682 23.2734 5.38668 23.059C4.58654 22.8447 4.11151 22.0229 4.32551 21.2238C4.53963 20.4247 5.36192 19.9506 6.16212 20.165ZM5.9033 21.131C5.63531 21.0592 5.36227 21.2183 5.29144 21.4826C5.22071 21.747 5.3776 22.0213 5.6455 22.0931C5.91339 22.1649 6.18644 22.0058 6.25736 21.7415C6.3282 21.4771 6.1713 21.2028 5.9033 21.131Z" fill="#596978"/>
<path d="M8.9707 9.68323L6.76595 17.9115" stroke="#596978" stroke-linecap="round"/>
<path d="M4.73956 16.9336C3.48931 15.7991 2.47579 14.8794 1.40512 16.1665C0.334449 17.4535 1.34798 18.3732 2.59822 19.5077C3.84847 20.6422 5.34135 20.9857 5.93267 20.2749C6.52398 19.564 5.98981 18.0681 4.73956 16.9336Z" fill="#D2E3DD"/>
<path d="M5.72414 18.0954L2.30063 15.5376C2.30063 15.5376 1.97424 15.6679 1.89772 15.7192C2.97968 17.8064 4.60119 18.6705 5.94152 18.5494L5.72414 18.0954Z" fill="#AECAC0"/>
<path d="M5.66485 14.6289C4.40242 13.5041 3.37902 12.5922 2.34414 13.8363C1.30926 15.0803 2.33266 15.9921 3.59509 17.117C4.85752 18.2418 6.34425 18.5967 6.9158 17.9097C7.48735 17.2226 6.92728 15.7538 5.66485 14.6289Z" fill="#D2E3DD"/>
<path d="M6.59786 15.8118L3.17434 13.254C3.17434 13.254 2.84796 13.3843 2.77144 13.4357C3.85339 15.5228 5.4749 16.3869 6.81524 16.2659L6.59786 15.8118Z" fill="#AECAC0"/>
<path d="M6.53857 12.3453C5.27614 11.2204 4.25274 10.3085 3.21786 11.5526C2.18298 12.7966 3.20638 13.7084 4.46881 14.8333C5.73124 15.9581 7.21797 16.313 7.78952 15.626C8.36107 14.9389 7.801 13.4701 6.53857 12.3453Z" fill="#D2E3DD"/>
<path d="M34.0034 10.4311C40.8261 15.5809 26.8367 26.5138 23.6689 24.1227C20.501 21.7315 27.1807 5.28132 34.0034 10.4311Z" fill="#BAD3CA"/>
</svg>
