<svg width="51" height="69" viewBox="0 0 51 69" fill="none" xmlns="http://www.w3.org/2000/svg">
<path d="M38.4735 25.9873L39.4526 30.8823L39.4526 35.3685L32.8254 43.5805L27.6354 39.3807L38.4735 25.9873Z" fill="#2A5050"/>
<path d="M42.9474 22.3915C43.5689 22.8578 44.0186 23.3723 44.3203 23.9207C41.476 27.6397 39.399 29.6296 39.4492 33.9186C36.7947 35.9302 33.8968 37.0464 32.6532 36.1134C29.4783 33.7316 36.1097 17.2618 42.9474 22.3915Z" fill="#152828"/>
<ellipse cx="5.0395" cy="10.8744" rx="5.0395" ry="10.8744" transform="matrix(-0.663457 0.748214 0.748214 0.663457 19.6924 25.6869)" fill="#BAD3CA"/>
<path d="M11.9379 23.175C13.2501 24.6172 14.3139 25.7864 15.4732 24.6574C16.6324 23.5284 15.5687 22.3592 14.2564 20.917C12.9442 19.4747 11.3614 18.811 10.7212 19.4345C10.0809 20.0581 10.6257 21.7327 11.9379 23.175Z" fill="#D2E3DD"/>
<path d="M15.5001 26.9626L12.6324 23.9992L11.7824 22.9993C14.0824 22.9993 15.9701 25.7918 15.9721 27.1376L15.5001 26.9626Z" fill="#AECAC0"/>
<path d="M17.448 23.9404L21.0371 23.2722C23.2389 27.9542 20.5161 33.6068 16.159 33.5933C12.8182 33.1879 12.4872 31.5956 10.3837 28.9007C11.5045 26.1336 12.8005 24.6275 15.8824 22.9992L17.448 23.9404Z" fill="#2A5050"/>
<path d="M13.802 32.8908C18.4957 33.1297 20.5163 30.1265 21.8091 26.3984C22.0161 29.8778 19.7118 33.6508 16.2264 33.5892C15.2192 33.5558 14.4107 33.2403 13.802 32.8908Z" fill="#468586"/>
<path d="M18.7364 23.5434C18.712 23.6418 18.659 23.7315 18.586 23.8018C16.8794 25.4469 17.1627 27.7157 19.2277 27.7968C22.261 27.8037 22.0059 22.7508 22.0059 22.7508L22.5477 20.7737C22.6196 20.5113 22.4632 20.2349 22.1922 20.2102C20.4776 20.0539 19.2228 21.5847 18.7364 23.5434Z" fill="#D2E3DD"/>
<path d="M13.3433 27.3878C12.2185 26.1289 11.3067 25.1083 10.1073 26.2763C8.90797 27.4443 9.81979 28.465 10.9446 29.7239C12.0694 30.9829 13.5182 31.4806 14.1806 30.8355C14.8429 30.1904 14.4681 28.6468 13.3433 27.3878Z" fill="#D2E3DD"/>
<path d="M14.201 28.6462L11.0637 25.7444C11.0637 25.7444 10.7255 25.84 10.644 25.883C11.5018 28.0718 13.0241 29.1007 14.3697 29.1204L14.201 28.6462Z" fill="#AECAC0"/>
<path d="M14.5045 25.1926C13.3666 23.9419 12.4441 22.928 11.2848 24.057C10.1256 25.186 11.048 26.1999 12.186 27.4506C13.3239 28.7012 14.7654 29.2096 15.4056 28.5861C16.0458 27.9625 15.6424 26.4432 14.5045 25.1926Z" fill="#D2E3DD"/>
<path d="M11.7292 16.732L15.0201 14.6887L20.691 11.1278L22.0666 10.2843C23.3495 9.49765 23.1111 7.56681 21.6754 7.11581L2.37261 1.05211C1.51023 0.781207 0.730135 1.65191 1.09379 2.47946L6.66736 15.1631C7.526 17.1171 9.916 17.8579 11.7292 16.732Z" fill="#98A9E5"/>
<path d="M2.67262 0.0983165C0.990778 -0.430009 -0.530651 1.26761 0.178474 2.88152L5.75172 15.5651C6.8551 18.0761 9.9265 19.0283 12.2566 17.5817L15.5476 15.5378L15.5515 15.5358L21.2136 11.9792L21.2136 11.9802L22.5896 11.1364C24.6034 9.90115 24.2292 6.87004 21.9753 6.16179L2.67262 0.0983165ZM1.09351 2.47918C0.730166 1.65171 1.51053 0.781544 2.37281 1.05242L21.6755 7.11589L21.8064 7.16179C23.1246 7.6857 23.309 9.52174 22.0662 10.2839L20.6912 11.1276L15.0203 14.6882L11.7293 16.7321C9.91604 17.8579 7.52636 17.1167 6.66773 15.1628L1.09351 2.47918Z" fill="#505F97"/>
<path d="M2.66702 2.20522L20.691 11.1719L17.7677 19.3343C17.559 19.9171 16.8037 20.0662 16.3892 19.6063L13.4547 16.3508L16.0751 14.0293L2.55716 2.37048C2.46809 2.29366 2.5617 2.15283 2.66702 2.20522Z" fill="#505F97"/>
<path d="M42.9792 21.4877C49.8018 26.6375 35.8125 37.5705 32.6446 35.1793C29.4768 32.7882 36.1565 16.338 42.9792 21.4877Z" fill="#BAD3CA"/>
</svg>
