<svg width="44" height="73" viewBox="0 0 44 73" fill="none" xmlns="http://www.w3.org/2000/svg">
<path d="M30.7809 29.7769L31.76 34.6718L31.76 39.1581L25.1327 47.3701L19.9428 43.1703L30.7809 29.7769Z" fill="#2A5050"/>
<path d="M35.2548 26.1811C35.8762 26.6473 36.3259 27.1618 36.6276 27.7102C33.7834 31.4293 31.7063 33.4192 31.7566 37.7082C29.102 39.7197 26.2041 40.8359 24.9605 39.903C21.7856 37.5211 28.417 21.0514 35.2548 26.1811Z" fill="#152828"/>
<ellipse cx="5.0395" cy="10.8744" rx="5.0395" ry="10.8744" transform="matrix(-0.663457 0.748214 0.748214 0.663457 11.9998 29.4764)" fill="#BAD3CA"/>
<path d="M6.99244 28.1401C7.94014 30.0766 8.70839 31.6465 10.2654 30.8184C11.8224 29.9904 11.0542 28.4205 10.1065 26.484C9.15876 24.5474 7.69341 23.3483 6.8335 23.8056C5.97358 24.2629 6.04475 26.2036 6.99244 28.1401Z" fill="#D2E3DD"/>
<path d="M12.1756 29.9157L15.8262 29.9538C17.0815 34.973 13.3175 39.9928 9.04514 39.1374C5.8457 38.094 5.82873 36.4677 4.28577 33.4171C5.92028 30.9188 8.07716 29.6398 11.4157 28.6379L12.1756 29.9157Z" fill="#2A5050"/>
<path d="M12.1756 29.9157L15.8262 29.9538C17.0815 34.973 13.3175 39.9928 9.04514 39.1374C5.8457 38.094 5.82873 36.4677 4.28577 33.4171C5.92028 30.9188 8.07716 29.6398 11.4157 28.6379L12.1756 29.9157Z" fill="#2A5050"/>
<path d="M6.86842 37.9925C11.4274 39.1341 13.9904 36.578 15.9794 33.1702C15.51 36.6239 12.5199 39.8805 9.11216 39.1463C8.13037 38.9189 7.39811 38.4531 6.86842 37.9925Z" fill="#468586"/>
<path d="M7.482 32.5047C6.62175 31.0521 5.92439 29.8745 4.52189 30.7887C3.11939 31.7029 3.81676 32.8805 4.677 34.3331C5.53725 35.7858 6.86254 36.5541 7.63712 36.0492C8.4117 35.5443 8.34225 33.9574 7.482 32.5047Z" fill="#D2E3DD"/>
<path d="M8.0804 33.9051L5.56304 30.4517C5.56304 30.4517 5.21274 30.48 5.12449 30.5065C5.54308 32.8199 6.8378 34.1236 8.15426 34.403L8.0804 33.9051Z" fill="#AECAC0"/>
<path d="M9.04549 30.5752C8.17075 29.1282 7.46164 27.9551 6.10602 28.8388C4.75041 29.7224 5.45952 30.8955 6.33425 32.3425C7.20898 33.7895 8.52502 34.5669 9.27371 34.0789C10.0224 33.5908 9.92022 32.0222 9.04549 30.5752Z" fill="#D2E3DD"/>
<path d="M11.4194 28.6934L10.5073 27.289C10.0559 27.6302 10.0108 28.6248 10.1752 29.0147C10.1781 29.0215 10.1811 29.0283 10.1842 29.0349C10.1873 29.0416 11.4194 28.6934 11.4194 28.6934Z" fill="#AECAC0"/>
<path d="M12.6431 29.6538C11.1352 31.7377 11.6594 34.4666 13.6396 34.3743C17.3232 34.2026 15.9218 29.6738 15.6132 28.2605C14.8416 24.7274 9.7605 27.1303 10.4902 29.1705C10.8766 30.2507 12.6431 29.6538 12.6431 29.6538Z" fill="#D2E3DD"/>
<path d="M6.5 0C10.0899 0 13 2.87183 13 6.41441C13 8.00495 12.413 9.45955 11.4413 10.5799C10.4326 11.7431 9.47675 13.0853 9.47675 14.625H3.52325C3.52325 13.0853 2.56745 11.7431 1.55867 10.5799C0.587009 9.45955 0 8.00495 0 6.41441C0 2.87183 2.91015 0 6.5 0Z" fill="#F6CA72"/>
<path d="M9.30428 14.2188C9.55043 14.2189 9.75 14.411 9.75 14.6474V14.9801C9.75 15.1074 9.69749 15.2301 9.60373 15.3201L9.50014 15.419C9.37924 15.535 9.3641 15.7145 9.45495 15.8463L9.54534 15.9524C9.63595 16.0841 9.62078 16.2632 9.50014 16.3792C9.36208 16.5118 9.36208 16.7271 9.50014 16.8597L9.60373 16.9591C9.69738 17.0492 9.75 17.1713 9.75 17.2985V17.3811C9.74986 17.7559 9.43343 18.0597 9.04312 18.0599H8.23015C8.10869 18.874 7.38147 19.5 6.5 19.5C5.61853 19.5 4.89131 18.874 4.76985 18.0599H3.95688C3.56658 18.0597 3.25014 17.7559 3.25 17.3811V17.2985C3.25 17.1713 3.30263 17.0492 3.39627 16.9591L3.49986 16.8597C3.63792 16.7271 3.63792 16.5118 3.49986 16.3792C3.36206 16.2467 3.36199 16.0319 3.49986 15.8994C3.63792 15.7668 3.63792 15.5515 3.49986 15.419L3.39627 15.3201C3.30251 15.2301 3.25 15.1074 3.25 14.9801V14.6474C3.25 14.411 3.44958 14.2189 3.69572 14.2188H9.30428Z" fill="#6F8295"/>
<path d="M5.71316 14.2188V13.5772C5.71316 11.4332 5.14245 9.32789 4.05966 7.47743L3.48045 6.48759C3.40037 6.35073 3.53254 6.18765 3.68302 6.23767C3.92938 6.31954 4.19562 6.31954 4.44198 6.23767L4.46875 6.22877C4.73249 6.14111 5.01751 6.14111 5.28125 6.22877C5.54499 6.31642 5.83001 6.31642 6.09375 6.22877C6.35749 6.14111 6.64251 6.14111 6.90625 6.22877C7.16999 6.31642 7.45501 6.31642 7.71875 6.22877C7.98249 6.14111 8.26751 6.14111 8.53125 6.22877L8.55802 6.23767C8.80438 6.31954 9.07062 6.31954 9.31698 6.23767C9.46746 6.18765 9.59963 6.35073 9.51955 6.48759L8.94034 7.47743C7.85755 9.32789 7.28684 11.4332 7.28684 13.5772V14.2188" stroke="#9D7930"/>
<path d="M35.2866 25.2773C42.1093 30.4271 28.1199 41.36 24.9521 38.9689C21.7842 36.5777 28.4639 20.1275 35.2866 25.2773Z" fill="#BAD3CA"/>
</svg>
