<svg width="60" height="27" viewBox="0 0 60 27" fill="none" xmlns="http://www.w3.org/2000/svg">
<path d="M23.7373 0.00981697C24.3449 0.0553306 25.0179 0.254009 25.6729 0.5147C26.9868 1.03774 28.3463 1.86002 29.1992 2.45708L28.626 3.27642C27.8123 2.70686 26.522 1.9287 25.3027 1.44341C24.6911 1.19999 24.1262 1.04161 23.6631 1.00689C23.193 0.971673 22.9179 1.06865 22.7666 1.21978C22.5464 1.44001 22.4971 1.62034 22.5 1.76079C22.5034 1.91885 22.5754 2.10991 22.7393 2.33013C23.073 2.77861 23.67 3.18564 24.1367 3.419L23.6895 4.31353C23.1562 4.04692 22.4028 3.55421 21.9365 2.92779C21.7005 2.61058 21.5092 2.22009 21.5 1.7813C21.4905 1.32498 21.6799 0.892436 22.0596 0.512747C22.5082 0.0643058 23.1371 -0.0350958 23.7373 0.00981697Z" fill="#98552A"/>
<path d="M35.0881 0.00981697C34.4805 0.0553306 33.8075 0.254009 33.1526 0.5147C31.8386 1.03774 30.4792 1.86002 29.6262 2.45708L30.1995 3.27642C31.0131 2.70686 32.3035 1.9287 33.5227 1.44341C34.1343 1.19999 34.6992 1.04161 35.1624 1.00689C35.6325 0.971673 35.9075 1.06865 36.0588 1.21978C36.2791 1.44001 36.3284 1.62034 36.3254 1.76079C36.3221 1.91885 36.2501 2.10991 36.0862 2.33013C35.7524 2.77861 35.1554 3.18564 34.6887 3.419L35.136 4.31353C35.6692 4.04692 36.4227 3.55421 36.8889 2.92779C37.125 2.61058 37.3162 2.22009 37.3254 1.7813C37.3349 1.32498 37.1456 0.892436 36.7659 0.512747C36.3172 0.0643058 35.6884 -0.0350958 35.0881 0.00981697Z" fill="#98552A"/>
<circle cx="29.4127" cy="3" r="1.5" fill="#98552A"/>
<path d="M5.8 22.3C20.5336 12.0767 40.0664 12.0767 54.8 22.3H53.9017C53.4037 22.3 53 22.7037 53 23.2017C53 25.2723 51.0396 26.7819 49.0377 26.2528L40.5217 24.0018C33.8223 22.231 26.7778 22.231 20.0784 24.0018L11.5623 26.2528C9.56042 26.7819 7.60001 25.2723 7.60001 23.2017C7.60001 22.7037 7.19632 22.3 6.69834 22.3H5.8Z" fill="#070D0D"/>
<path d="M11.674 11.6682C23.4117 5.54874 37.3924 5.49896 49.177 11.5422L49.4152 11.6653L53.7805 21.3645L53.7609 21.3567C52.8248 20.9746 51.8 21.6629 51.8 22.6741C51.8 24.1705 50.3766 25.2573 48.9328 24.8635L40.9563 22.6877C33.9795 20.785 26.6205 20.785 19.6438 22.6877L11.674 24.8616C10.2266 25.2563 8.8 24.1665 8.8 22.6663C8.79987 21.6583 7.78185 20.9689 6.8459 21.343L6.83516 21.3469L11.674 11.6682Z" fill="#592A0B" stroke="#85461E"/>
<path d="M30.2585 2.32935C43.283 2.32935 53.5256 8.86144 54.75 22.3C48.4145 17.2789 40.0373 14.2932 30.2585 14.2932C19.5557 14.2932 11.6675 17.5313 5.8 22.3C6.86445 10.6995 15.0666 2.32941 30.2585 2.32935Z" fill="#753A13"/>
<mask id="mask0_2071_6129" style="mask-type:alpha" maskUnits="userSpaceOnUse" x="5" y="2" width="50" height="21">
<path d="M30.2585 2.32935C43.283 2.32935 53.5256 8.86144 54.75 22.3C48.4145 17.2789 40.0373 14.2932 30.2585 14.2932C19.5557 14.2932 11.6675 17.5313 5.8 22.3C6.86445 10.6995 15.0666 2.32941 30.2585 2.32935Z" fill="#753A13"/>
</mask>
<g mask="url(#mask0_2071_6129)">
<path d="M15.3 13.3C15.3 7.22492 20.2249 2.30005 26.3 2.30005H33.3C39.3751 2.30005 44.3 7.22492 44.3 13.3V21.3H15.3V13.3Z" fill="#85461E"/>
</g>
</svg>
