<svg width="50" height="69" viewBox="0 0 50 69" fill="none" xmlns="http://www.w3.org/2000/svg">
<path d="M12.3824 25.8009L11.4033 30.6959L11.4033 35.1821L18.0306 43.3941L23.2206 39.1943L12.3824 25.8009Z" fill="#0E1B1B"/>
<path d="M7.90858 22.2051C7.28709 22.6714 6.83739 23.1859 6.53577 23.7343C9.37997 27.4533 11.457 29.4432 11.4068 33.7322C14.0613 35.7438 16.9592 36.86 18.2028 35.927C21.3777 33.5452 14.7464 17.0754 7.90858 22.2051Z" fill="#070D0D"/>
<ellipse cx="26.3707" cy="36.4858" rx="5.0395" ry="10.8744" transform="rotate(48.4359 26.3707 36.4858)" fill="#819D92"/>
<path d="M7.87673 21.3012C1.05406 26.451 15.0434 37.3839 18.2113 34.9928C21.3791 32.6016 14.6994 16.1514 7.87673 21.3012Z" fill="#819D92"/>
<path d="M38.1948 23.1757C36.8826 24.6179 35.8188 25.7871 34.6596 24.6581C33.5003 23.5291 34.5641 22.3599 35.8763 20.9177C37.1885 19.4754 38.7713 18.8117 39.4116 19.4353C40.0518 20.0588 39.5071 21.7335 38.1948 23.1757Z" fill="#A9C1B8"/>
<path d="M34.6327 26.9634L37.5004 23.9999L38.3504 23.0001C36.0504 23.0001 34.1626 25.7926 34.1607 27.1383L34.6327 26.9634Z" fill="#8EADA1"/>
<path d="M32.6847 23.9411L29.0956 23.2729C26.8938 27.9549 29.6167 33.6075 33.9738 33.594C37.3146 33.1887 37.6455 31.5964 39.749 28.9015C38.6282 26.1343 37.3322 24.6282 34.2503 22.9999L32.6847 23.9411Z" fill="#0E1B1B"/>
<path d="M36.3308 32.8916C31.6371 33.1305 29.6166 30.1272 28.3237 26.3992C28.1167 29.8785 30.421 33.6516 33.9064 33.5899C34.9136 33.5566 35.7221 33.2411 36.3308 32.8916Z" fill="#2A5050"/>
<path d="M31.4324 23.6959C33.265 25.3477 33.0151 27.7147 30.9051 27.7976C27.8718 27.8044 28.1269 22.7515 28.1269 22.7515L27.4546 20.2983C29.4633 19.7636 30.933 21.4825 31.4324 23.6959Z" fill="#A9C1B8"/>
<path d="M36.7894 27.3886C37.9142 26.1296 38.826 25.109 40.0254 26.277C41.2247 27.4451 40.3129 28.4657 39.1881 29.7247C38.0633 30.9837 36.6145 31.4813 35.9521 30.8362C35.2897 30.1911 35.6646 28.6476 36.7894 27.3886Z" fill="#A9C1B8"/>
<path d="M35.9316 28.6469L39.069 25.7452C39.069 25.7452 39.4072 25.8407 39.4886 25.8837C38.6308 28.0726 37.1085 29.1015 35.7629 29.1212L35.9316 28.6469Z" fill="#8EADA1"/>
<path d="M35.6283 25.1933C36.7662 23.9426 37.6887 22.9288 38.848 24.0578C40.0072 25.1868 39.0848 26.2006 37.9469 27.4513C36.8089 28.702 35.3675 29.2103 34.7272 28.5868C34.087 27.9633 34.4904 26.4439 35.6283 25.1933Z" fill="#A9C1B8"/>
<path d="M37.6753 16.732L34.3845 14.6887L28.7136 11.1278L27.3379 10.2843C26.0551 9.49765 26.2935 7.56681 27.7292 7.11581L47.0319 1.05211C47.8943 0.781207 48.6744 1.65191 48.3108 2.47946L42.7372 15.1631C41.8785 17.1171 39.4885 17.8579 37.6753 16.732Z" fill="#98A9E5"/>
<path d="M46.732 0.0983162C48.4138 -0.430009 49.9353 1.26761 49.2261 2.88152L43.6529 15.5651C42.5495 18.0761 39.4781 19.0283 37.148 17.5817L33.857 15.5378L33.8531 15.5358L28.191 11.9792V11.9802L26.815 11.1364C24.8012 9.90115 25.1754 6.87004 27.4293 6.16179L46.732 0.0983162ZM48.3111 2.47918C48.6744 1.65171 47.8941 0.781544 47.0318 1.05242L27.7291 7.11589L27.5982 7.16179C26.28 7.6857 26.0956 9.52174 27.3384 10.2839L28.7134 11.1276L34.3843 14.6882L37.6753 16.7321C39.4886 17.8579 41.8782 17.1167 42.7369 15.1628L48.3111 2.47918Z" fill="#505F97"/>
<path d="M46.7376 2.20522L28.7136 11.1719L31.6369 19.3343C31.8456 19.9171 32.6009 20.0662 33.0154 19.6063L35.95 16.3508L33.3295 14.0293L46.8474 2.37048C46.9365 2.29366 46.8429 2.15283 46.7376 2.20522Z" fill="#505F97"/>
</svg>
