<svg width="56" height="67" viewBox="0 0 56 67" fill="none" xmlns="http://www.w3.org/2000/svg">
<path d="M12.3824 23.7286L11.4033 28.6236L11.4033 33.1099L18.0306 41.3219L23.2206 37.1221L12.3824 23.7286Z" fill="#0E1B1B"/>
<path d="M7.90858 20.1329C7.28709 20.5991 6.83739 21.1136 6.53577 21.662C9.37997 25.3811 11.457 27.3709 11.4068 31.66C14.0613 33.6715 16.9592 34.7877 18.2028 33.8548C21.3777 31.4729 14.7464 15.0032 7.90858 20.1329Z" fill="#070D0D"/>
<ellipse cx="26.3707" cy="34.4134" rx="5.0395" ry="10.8744" transform="rotate(48.4359 26.3707 34.4134)" fill="#819D92"/>
<path d="M7.87673 19.2289C1.05406 24.3787 15.0434 35.3117 18.2113 32.9205C21.3791 30.5294 14.6994 14.0792 7.87673 19.2289Z" fill="#819D92"/>
<path d="M35.0191 23.2824L31.6346 21.7544C28.3273 25.8479 29.6508 32.0911 33.9589 33.1312C37.3576 33.5384 38.0696 32.0452 40.7994 29.8913C40.3611 26.8863 39.8945 25.3781 37.2432 23.0243L35.0191 23.2824Z" fill="#0E1B1B"/>
<path d="M36.4572 33.0077C31.762 32.1089 30.4918 28.6531 30.1158 24.6572C29.0701 28.0448 30.4345 32.3297 33.893 33.1115C34.8962 33.3221 35.7713 33.2059 36.4572 33.0077Z" fill="#2A5050"/>
<path d="M50.5268 7.16032C51.3583 7.78701 51.7981 8.93507 51.6918 10.4337C51.5861 11.9236 50.9379 13.6587 49.7349 15.2552C48.5317 16.8519 47.0422 17.9537 45.639 18.466C44.2277 18.9813 43.0029 18.875 42.1713 18.2484C41.3397 17.6218 40.9 16.4736 41.0063 14.9751C41.1119 13.485 41.7605 11.7494 42.9637 10.1527C44.1668 8.55621 45.6559 7.45498 47.0591 6.94268C48.4704 6.42742 49.6951 6.53365 50.5268 7.16032Z" stroke="#F6CA72" stroke-width="1.47248"/>
<path d="M26.4467 4.20309C25.4882 4.60999 24.7838 5.61756 24.5243 7.09736C24.2665 8.56864 24.4756 10.409 25.2566 12.2491C26.0378 14.0894 27.2166 15.5189 28.4542 16.3554C29.6989 17.1968 30.913 17.39 31.8715 16.9832C32.83 16.5763 33.5344 15.5687 33.7938 14.0889C34.0518 12.6175 33.8423 10.7766 33.0611 8.93627C32.28 7.09611 31.1015 5.66735 29.864 4.83082C28.6192 3.98944 27.4052 3.79622 26.4467 4.20309Z" stroke="#F6CA72" stroke-width="1.47248"/>
<path d="M46.8855 13.3486C46.3453 16.4273 44.3393 18.8968 41.6967 20.1433C40.0391 20.9251 38.5342 22.27 38.3108 24.089L37.3951 31.5468L33.2902 31.0428L34.2059 23.585C34.4292 21.766 33.2944 20.097 31.8752 18.9374C29.6125 17.0886 28.2636 14.2071 28.4843 11.0892L28.9464 4.55987C29.0887 2.55017 30.8859 1.06991 32.8856 1.31544L44.9793 2.80037C46.979 3.0459 48.3648 4.91698 48.0166 6.9014L46.8855 13.3486Z" fill="#C89B40"/>
<rect x="31.2483" y="29.2101" width="8.63423" height="2.46692" rx="0.490826" transform="rotate(7 31.2483 29.2101)" fill="#9D7930"/>
<rect x="31.2483" y="29.2101" width="8.63423" height="2.46692" rx="0.490826" transform="rotate(7 31.2483 29.2101)" fill="#F6CA72"/>
<rect x="28.489" y="30.8447" width="13.7134" height="2.46697" rx="0.490826" transform="rotate(7 28.489 30.8447)" fill="#9D7930"/>
<path d="M38.2409 27.6799C39.6567 26.7079 40.8045 25.9199 41.7072 27.3641C42.6098 28.8083 41.4621 29.5963 40.0462 30.5683C38.6303 31.5404 37.0784 31.6818 36.5799 30.8842C36.0813 30.0866 36.825 28.652 38.2409 27.6799Z" fill="#A9C1B8"/>
<path d="M37.089 28.7158L40.8908 26.6072C40.8908 26.6072 41.2019 26.7833 41.272 26.8456C39.8951 28.801 38.1421 29.4496 36.8076 29.1437L37.089 28.7158Z" fill="#8EADA1"/>
<path d="M37.6241 25.2301C39.0509 24.2695 40.2076 23.4907 41.0801 24.8866C41.9526 26.2825 40.7959 27.0613 39.3691 28.0219C37.9423 28.9826 36.395 29.1364 35.9131 28.3654C35.4313 27.5945 36.1973 26.1908 37.6241 25.2301Z" fill="#A9C1B8"/>
<path d="M36.5213 26.2953L40.323 24.1866C40.323 24.1866 40.6341 24.3628 40.7042 24.425C39.3273 26.3805 37.5743 27.029 36.2399 26.7231L36.5213 26.2953Z" fill="#8EADA1"/>
<path d="M37.0572 22.8088C38.4841 21.8482 39.6407 21.0694 40.5132 22.4653C41.3857 23.8613 40.2291 24.64 38.8022 25.6007C37.3754 26.5613 35.8281 26.7151 35.3463 25.9442C34.8644 25.1732 35.6304 23.7695 37.0572 22.8088Z" fill="#A9C1B8"/>
<path d="M34.6995 22.8407C35.1985 25.409 33.5464 27.7023 31.7589 26.7693C28.4338 25.0337 31.666 21.4553 32.5558 20.2835C34.7804 17.3541 38.4396 21.7467 36.8927 23.3166C36.0738 24.1477 34.6995 22.8407 34.6995 22.8407Z" fill="#A9C1B8"/>
</svg>
