<svg width="40" height="59" viewBox="0 0 40 59" fill="none" xmlns="http://www.w3.org/2000/svg">
<path d="M29.4734 14.0598L31.8768 19.9356L17.8906 28.4564L14.5524 22.6745L29.4734 14.0598Z" fill="#2A5050"/>
<ellipse cx="5.0395" cy="10.8744" rx="5.0395" ry="10.8744" transform="matrix(-0.930944 0.365161 0.365161 0.930944 14.7957 6.53918)" fill="#BAD3CA"/>
<path d="M19.8768 19.6002C19.8411 20.0252 19.8926 20.413 20.0487 20.7477C20.8225 22.4065 24.2136 22.969 27.7157 22.4703L31.8768 19.9352L29.4735 14.0602L19.8768 19.6002Z" fill="#152828"/>
<path d="M10.4854 4.3262C11.0093 6.41786 11.4341 8.11349 13.1296 7.62754C14.8251 7.14159 14.4003 5.44597 13.8763 3.35431C13.3524 1.26264 12.1685 -0.215418 11.2321 0.0529631C10.2957 0.321344 9.96139 2.23454 10.4854 4.3262Z" fill="#D2E3DD"/>
<path d="M10.137 1.99433L11.3826 7.74918C11.4595 7.91289 11.6924 7.95431 11.6924 7.95431C12.1695 5.02206 11.336 2.84192 10.137 1.99433Z" fill="#AECAC0"/>
<path d="M7.60188 4.27695C8.12585 6.36861 8.55061 8.06424 10.1602 7.60292C11.7698 7.14159 11.345 5.44597 10.821 3.35431C10.2971 1.26264 9.15168 -0.226442 8.26274 0.0283398C7.37379 0.283121 7.07792 2.18529 7.60188 4.27695Z" fill="#D2E3DD"/>
<path d="M7.49726 2.7718L8.74291 8.52665C8.8198 8.69036 9.05273 8.73178 9.05273 8.73178C9.52978 5.79953 8.69628 3.61939 7.49726 2.7718Z" fill="#AECAC0"/>
<path d="M5.22533 5.82309C5.63299 7.94418 5.96347 9.66366 7.54412 9.31608C9.12477 8.9685 8.7943 7.24902 8.38664 5.12793C7.97897 3.00684 6.94082 1.44297 6.06785 1.63494C5.19488 1.8269 4.81767 3.702 5.22533 5.82309Z" fill="#D2E3DD"/>
<path d="M14.7052 7.37586L18.1912 8.4618C17.9508 13.6308 12.902 17.3573 9.05534 15.3097C6.29047 13.3904 6.53094 11.8277 5.9299 8.4618C8.21387 6.53846 10.8585 5.93335 14.3445 5.93335L14.7052 7.37586Z" fill="#2A5050"/>
<path d="M7.36392 13.7363C11.4029 16.1405 14.4799 14.3854 17.3649 11.6927C15.9224 14.8663 12.0622 16.982 9.00893 15.299C8.17159 14.7032 7.73893 14.3298 7.36392 13.7363Z" fill="#468586"/>
<path d="M14.825 7.2601C12.7814 8.82281 12.9016 11.5876 14.825 12.0685C18.403 12.963 18.561 7.50052 18.6717 6.05801C18.7824 4.6155 18.2989 3.45454 17.3494 3.2932C16.3999 3.13185 15.1856 4.49529 14.825 7.2601Z" fill="#D2E3DD"/>
<path d="M36.4594 13.5509C39.6393 21.4936 21.9966 23.6201 20.5201 19.9322C19.0437 16.2443 33.2795 5.6082 36.4594 13.5509Z" fill="#BAD3CA"/>
</svg>
