<svg width="40" height="49" viewBox="0 0 40 49" fill="none" xmlns="http://www.w3.org/2000/svg">
<path d="M27.4736 5.49207L28.4528 10.387L28.4528 14.8733L21.8255 23.0853L16.6355 18.8855L27.4736 5.49207Z" fill="#2A5050"/>
<path d="M31.9476 1.89628C32.5691 2.36253 33.0188 2.87705 33.3204 3.42544C30.4762 7.1445 28.3991 9.13436 28.4494 13.4234C25.7949 15.4349 22.8969 16.5512 21.6533 15.6182C18.4784 13.2364 25.1098 -3.23342 31.9476 1.89628Z" fill="#152828"/>
<ellipse cx="5.0395" cy="10.8744" rx="5.0395" ry="10.8744" transform="matrix(-0.663457 0.748214 0.748214 0.663457 8.6925 5.19165)" fill="#BAD3CA"/>
<path d="M8.67171 5.63239L12.2608 4.96417C14.4626 9.64616 11.7397 15.2988 7.38264 15.2853C4.04187 14.8799 3.71089 13.2876 1.60741 10.5927C2.72822 7.82559 3.52622 6.49442 6.60812 4.86615L8.67171 5.63239Z" fill="#2A5050"/>
<path d="M5.02568 14.5827C9.71937 14.8216 11.7399 11.8184 13.0328 8.09033C13.2398 11.5697 10.9355 15.3427 7.45012 15.2811C6.44289 15.2477 5.63441 14.9322 5.02568 14.5827Z" fill="#468586"/>
<path d="M4.56705 9.07986C3.44226 7.82088 2.53043 6.80027 1.33108 7.96832C0.131725 9.13636 1.04355 10.157 2.16834 11.416C3.29313 12.6749 4.74193 13.1726 5.40431 12.5275C6.0667 11.8824 5.69184 10.3389 4.56705 9.07986Z" fill="#D2E3DD"/>
<path d="M5.42478 10.3382L2.28743 7.43646C2.28743 7.43646 1.94921 7.53197 1.86774 7.57501C2.72557 9.76386 4.24785 10.7927 5.5935 10.8125L5.42478 10.3382Z" fill="#AECAC0"/>
<path d="M5.72818 6.88445C4.59027 5.63379 3.66781 4.61993 2.50854 5.74893C1.34928 6.87794 2.27174 7.8918 3.40965 9.14246C4.54757 10.3931 5.98905 10.9015 6.6293 10.278C7.26954 9.65444 6.8661 8.13511 5.72818 6.88445Z" fill="#D2E3DD"/>
<path d="M6.53245 8.15848L3.3951 5.25677C3.3951 5.25677 3.05688 5.35228 2.97541 5.39533C3.83323 7.58417 5.35552 8.61305 6.70117 8.63276L6.53245 8.15848Z" fill="#AECAC0"/>
<path d="M6.83585 4.70476C5.69793 3.4541 4.77547 2.44024 3.61621 3.56925C2.45694 4.69825 3.3794 5.71211 4.51732 6.96277C5.65524 8.21343 7.09672 8.72182 7.73696 8.09829C8.37721 7.47476 7.97377 5.95542 6.83585 4.70476Z" fill="#D2E3DD"/>
<path d="M10.53 4.76957C10.4852 4.86044 10.4143 4.93676 10.328 4.98991C8.30975 6.23316 8.10268 8.51016 10.1028 9.02986C13.0649 9.68354 13.8934 4.69248 13.8934 4.69248L14.8444 2.87653C14.9707 2.63547 14.8768 2.33209 14.6173 2.25015C12.9755 1.73171 11.423 2.95961 10.53 4.76957Z" fill="#D2E3DD"/>
<path d="M31.9793 0.992495C38.802 6.14227 24.8127 17.0752 21.6448 14.6841C18.4769 12.2929 25.1567 -4.15728 31.9793 0.992495Z" fill="#BAD3CA"/>
</svg>
