<svg width="50" height="69" viewBox="0 0 50 69" fill="none" xmlns="http://www.w3.org/2000/svg">
<path d="M12.3824 25.8009L11.4033 30.6959L11.4033 35.1821L18.0306 43.3941L23.2206 39.1943L12.3824 25.8009Z" fill="#2A5050"/>
<path d="M7.90852 22.2051C7.28703 22.6714 6.83733 23.1859 6.5357 23.7343C9.37991 27.4533 11.457 29.4432 11.4067 33.7322C14.0612 35.7438 16.9592 36.86 18.2028 35.927C21.3777 33.5452 14.7463 17.0754 7.90852 22.2051Z" fill="#152828"/>
<ellipse cx="26.3707" cy="36.4858" rx="5.0395" ry="10.8744" transform="rotate(48.4359 26.3707 36.4858)" fill="#BAD3CA"/>
<path d="M7.87673 21.3012C1.05406 26.451 15.0434 37.3839 18.2113 34.9928C21.3791 32.6016 14.6994 16.1514 7.87673 21.3012Z" fill="#BAD3CA"/>
<path d="M38.6945 23.1757C37.3823 24.6179 36.3185 25.7871 35.1592 24.6581C34 23.5291 35.0637 22.3599 36.376 20.9177C37.6882 19.4754 39.271 18.8117 39.9112 19.4353C40.5515 20.0588 40.0067 21.7335 38.6945 23.1757Z" fill="#D2E3DD"/>
<path d="M35.1323 26.9634L38 23.9999L38.85 23.0001C36.55 23.0001 34.6622 25.7926 34.6603 27.1383L35.1323 26.9634Z" fill="#AECAC0"/>
<path d="M33.1843 23.9411L29.5953 23.2729C27.3935 27.9549 30.1163 33.6075 34.4734 33.594C37.8142 33.1887 38.1452 31.5964 40.2487 28.9015C39.1278 26.1343 37.8318 24.6282 34.75 22.9999L33.1843 23.9411Z" fill="#2A5050"/>
<path d="M36.8304 32.8916C32.1367 33.1305 30.1161 30.1272 28.8233 26.3992C28.6163 29.8785 30.9206 33.6516 34.406 33.5899C35.4132 33.5566 36.2217 33.2411 36.8304 32.8916Z" fill="#468586"/>
<path d="M31.896 23.5442C31.9204 23.6425 31.9734 23.7322 32.0464 23.8025C33.753 25.4477 33.4697 27.7164 31.4047 27.7976C28.3714 27.8044 28.6265 22.7515 28.6265 22.7515L28.0847 20.7745C28.0127 20.512 28.1692 20.2357 28.4402 20.211C30.1548 20.0546 31.4096 21.5854 31.896 23.5442Z" fill="#D2E3DD"/>
<path d="M37.2891 27.3886C38.4139 26.1296 39.3257 25.109 40.5251 26.277C41.7244 27.4451 40.8126 28.4657 39.6878 29.7247C38.563 30.9837 37.1142 31.4813 36.4518 30.8362C35.7894 30.1911 36.1643 28.6476 37.2891 27.3886Z" fill="#D2E3DD"/>
<path d="M36.4314 28.6469L39.5687 25.7452C39.5687 25.7452 39.9069 25.8407 39.9884 25.8837C39.1306 28.0726 37.6083 29.1015 36.2626 29.1212L36.4314 28.6469Z" fill="#AECAC0"/>
<path d="M36.1279 25.1933C37.2658 23.9426 38.1883 22.9288 39.3475 24.0578C40.5068 25.1868 39.5843 26.2006 38.4464 27.4513C37.3085 28.702 35.867 29.2103 35.2268 28.5868C34.5865 27.9633 34.99 26.4439 36.1279 25.1933Z" fill="#D2E3DD"/>
<path d="M38.175 16.732L34.8842 14.6887L29.2132 11.1278L27.8376 10.2843C26.5548 9.49765 26.7932 7.56681 28.2289 7.11581L47.5316 1.05211C48.394 0.781207 49.1741 1.65191 48.8104 2.47946L43.2369 15.1631C42.3782 17.1171 39.9882 17.8579 38.175 16.732Z" fill="#98A9E5"/>
<path d="M47.2316 0.0983162C48.9135 -0.430009 50.4349 1.26761 49.7258 2.88152L44.1525 15.5651C43.0491 18.0761 39.9777 19.0283 37.6476 17.5817L34.3566 15.5378L34.3527 15.5358L28.6906 11.9792V11.9802L27.3146 11.1364C25.3008 9.90115 25.675 6.87004 27.9289 6.16179L47.2316 0.0983162ZM48.8107 2.47918C49.1741 1.65171 48.3937 0.781544 47.5314 1.05242L28.2287 7.11589L28.0978 7.16179C26.7796 7.6857 26.5952 9.52174 27.8381 10.2839L29.2131 11.1276L34.884 14.6882L38.175 16.7321C39.9882 17.8579 42.3779 17.1167 43.2365 15.1628L48.8107 2.47918Z" fill="#505F97"/>
<path d="M47.2372 2.20522L29.2133 11.1719L32.1365 19.3343C32.3453 19.9171 33.1005 20.0662 33.5151 19.6063L36.4496 16.3508L33.8291 14.0293L47.3471 2.37048C47.4361 2.29366 47.3425 2.15283 47.2372 2.20522Z" fill="#505F97"/>
</svg>
